<svg xmlns="http://www.w3.org/2000/svg" width="40.937" height="40.97" viewBox="0 0 40.937 40.97">
  <defs>
    <style>
      .cls-1 {
        fill: #fff;
        fill-rule: evenodd;
      }
    </style>
  </defs>
  <path id="address" class="cls-1" d="M295.089,3409.66a6.517,6.517,0,0,0,2.644.56,6.911,6.911,0,0,0,6.934-6.69,6.456,6.456,0,0,0-1.411-3.96,7.134,7.134,0,0,0-3.527-2.43l-0.153-.05-0.016-.16a5.514,5.514,0,0,0-2.75-4.22l-0.177-.1,0.069-.19a7.955,7.955,0,0,0,.229-4.61,0.645,0.645,0,0,0-.625-0.48,0.427,0.427,0,0,0-.158.02,0.637,0.637,0,0,0-.468.78,6.538,6.538,0,0,1,.2,1.61,6.632,6.632,0,0,1-.38,2.22l-0.071.19-0.206-.04a5.223,5.223,0,0,0-1.116-.11,5.478,5.478,0,0,0-5.456,4.93l-0.016.16-0.153.05a7.067,7.067,0,0,0-3.225,2.07l-0.422.47v-7.12l4.711-2.24a0.614,0.614,0,0,0,.331-0.37,0.633,0.633,0,0,0-.025-0.49,0.658,0.658,0,0,0-.583-0.37,0.544,0.544,0,0,0-.277.07l-4.157,1.98v-6.24a0.645,0.645,0,0,0-1.29,0v3.82l-4.157-1.98a0.675,0.675,0,0,0-.277-0.07,0.651,0.651,0,0,0-.609.87,0.624,0.624,0,0,0,.331.36l4.712,2.25v9.53l-0.422-.47a7.078,7.078,0,0,0-3.225-2.07l-0.154-.05-0.016-.16a5.478,5.478,0,0,0-5.455-4.93,5.232,5.232,0,0,0-1.117.11l-0.206.04-0.071-.19a6.632,6.632,0,0,1-.38-2.22,6.565,6.565,0,0,1,5.61-6.51,0.644,0.644,0,0,0,.537-0.52,5.687,5.687,0,0,1,11.088,0,0.641,0.641,0,0,0,.536.52,6.835,6.835,0,0,1,1,.23,0.65,0.65,0,0,0,.2.03,0.643,0.643,0,0,0,.572-0.94,0.682,0.682,0,0,0-.377-0.32c-0.2-.06-0.408-0.12-0.615-0.16l-0.139-.03-0.039-.14a7,7,0,0,0-13.354,0l-0.039.14-0.139.03a7.878,7.878,0,0,0-5.66,10.35l0.069,0.19-0.177.1a5.511,5.511,0,0,0-2.749,4.22l-0.016.16-0.154.05a7.134,7.134,0,0,0-3.527,2.43,6.461,6.461,0,0,0-1.41,3.96,6.911,6.911,0,0,0,6.934,6.69,6.512,6.512,0,0,0,2.643-.56l0.34-.15v7.16h-6.612a0.645,0.645,0,1,0,0,1.29h34.347a0.645,0.645,0,1,0,0-1.29H294.75v-7.16Zm-11.546,7.01h-8.627v-7.16l0.339,0.15a6.517,6.517,0,0,0,2.644.56,7.044,7.044,0,0,0,5.222-2.35l0.422-.47v9.27Zm-5.644-7.74a5.382,5.382,0,0,1-2.872-.85l-0.111-.07v-0.59l2.229-2.23a0.643,0.643,0,0,0,0-.91,0.643,0.643,0,0,0-.913,0l-1.317,1.32v-5.7a0.645,0.645,0,1,0-1.29,0v3.79l-3.9-1.95a0.587,0.587,0,0,0-.288-0.07,0.646,0.646,0,0,0-.578.36,0.637,0.637,0,0,0-.035.49,0.628,0.628,0,0,0,.324.37l4.481,2.24v2.88l-0.112.07a5.381,5.381,0,0,1-2.871.85,5.384,5.384,0,0,1-1.071-10.7,0.647,0.647,0,0,0,.508-0.76l0-.02v-0.01a4.193,4.193,0,0,1,8.385,0v0.01l0,0.02a0.648,0.648,0,0,0,.508.76A5.384,5.384,0,0,1,277.9,3408.93Zm15.561,7.74h-8.627v-9.27l0.422,0.47a7.041,7.041,0,0,0,5.222,2.35,6.512,6.512,0,0,0,2.643-.56l0.34-.15v7.16Zm0.645-19.84a0.647,0.647,0,0,0-.645.65v3.28l-1.318-1.32a0.642,0.642,0,0,0-.912,0,0.642,0.642,0,0,0,0,.91l2.23,2.23v5.43l-0.112.07a5.381,5.381,0,0,1-2.871.85,5.384,5.384,0,0,1-1.071-10.7,0.647,0.647,0,0,0,.508-0.76l0-.02v-0.01a4.193,4.193,0,0,1,8.385,0v0.01l0,0.02a0.649,0.649,0,0,0,.508.76,5.384,5.384,0,0,1-1.07,10.7,5.382,5.382,0,0,1-2.872-.85l-0.111-.07v-2.88l4.481-2.24a0.645,0.645,0,0,0-.289-1.22,0.582,0.582,0,0,0-.288.07l-3.9,1.95v-6.21A0.648,0.648,0,0,0,294.105,3396.83Zm0.4-11.36a0.645,0.645,0,1,0-.645-0.65A0.648,0.648,0,0,0,294.508,3385.47Z" transform="translate(-263.719 -3377)"/>
</svg>
