<?xml version="1.0" encoding="utf-8"?>
<!-- Generator: Adobe Illustrator 24.1.2, SVG Export Plug-In . SVG Version: 6.00 Build 0)  -->
<svg version="1.1" id="Layer_1" xmlns="http://www.w3.org/2000/svg" xmlns:xlink="http://www.w3.org/1999/xlink" x="0px" y="0px"
	 viewBox="0 0 128.53 128.51" style="enable-background:new 0 0 128.53 128.51;" xml:space="preserve">
<style type="text/css">
	.st0{fill:#794400;}
	.st1{fill:#FFFFFF;}
</style>
<g>
	<path class="st0" d="M110.02,108.79c-0.55-0.45-0.03-1.71,0.15-2.23c0.36-1.06,0.92-2.03,1.31-3.08c0.73-1.91,1.46-3.83,2.16-5.76
		c0.38-1.05,0.75-2.1,1.1-3.16c1.62-4.9,2.22-10.01,2.65-15.14c0.23-2.7,2.55-4.15,4.67-2.82c0.81,0.51,1.5,1.5,1.84,2.42
		c0.75,2.02,1.12,4.06,1.15,6.11c4.13-12.06,4.64-25.2,1.29-37.64c-0.15,7.48-1.87,14.7-4.89,21.69c-0.72,1.68-1.56,3.31-2.74,4.89
		c0.47-9.23,2.98-18.36,1.19-27.59c-0.29-0.13-0.58-0.27-0.87-0.4c-0.77,1.08-1.65,2.1-2.29,3.26c-4.68,8.6-9.29,17.24-14,25.83
		c-0.69,1.27-1.81,2.3-2.73,3.45c-0.33-0.19-0.65-0.37-0.98-0.56c2.96-12.66,8.85-24.18,14.69-35.71c-0.15-0.17-0.3-0.34-0.44-0.51
		c-0.96,0.39-2.07,0.58-2.85,1.2c-4.33,3.42-8.6,6.93-12.87,10.43c-1.73,1.43-3.42,2.92-5.13,4.38c-0.26-0.21-0.51-0.42-0.77-0.62
		c0.45-1.14,0.75-2.37,1.38-3.41c5.15-8.46,12.05-15.17,20.43-20.4c1.47-0.92,2.11-0.45,2.68,0.99c1.64,4.12,2.88,4.93,7.21,4.57
		c-2.18-5.1-5.06-10.01-8.66-14.57c-0.12-0.16-0.26-0.3-0.38-0.46c-0.93,2.72-2.03,5.93-2.33,6.69c-0.28,0.72-1.02,1.34-1.7,1.79
		c-0.78,0.52-1.73,0.34-2.35-0.33c-0.77-0.83-1.45-1.77-2.01-2.75c-1.13-1.99-2.14-4.04-3.22-6.06c-0.78-1.46-0.3-2.97,1.1-3.64
		c1.49-0.71,2.94-1.53,4.39-2.32c-0.82-0.77-1.66-1.52-2.51-2.24c-0.02,0.02-0.03,0.04-0.05,0.06c-1.28,1.13-2.69,1.76-4.33,1.78
		c-0.72,0.01-1.58-0.2-2.13-0.64c-1.89-1.49-2.73-3.64-3.26-5.9c-0.2-0.84,0-1.44,0.57-1.75c-8.14-4.72-17.16-7.54-26.38-8.39
		c4.1,1.62,7.94,3.83,11.54,6.58C82.7,7.64,82.54,8.21,81.69,9c-2.47,2.26-2.7,3.34-1.29,6.31c0.63,1.33,0.15,1.99-1.02,2.57
		c-6.56,3.19-13.5,4.4-20.74,4.06c-1.37-0.07-2.74-0.22-4.16-0.63c6.61-2.12,13.7-2.78,19.71-6.48c0.02-0.24,0.04-0.48,0.05-0.72
		c-0.96-0.25-1.91-0.61-2.89-0.74c-7.29-1.01-14.59-1.96-21.87-2.99c-1.08-0.15-2.1-0.66-3.15-1.01c0.05-0.28,0.09-0.56,0.14-0.84
		c9.69-1.27,19.35-0.19,29.01,0.86c0.08-0.15,0.16-0.3,0.24-0.45c-0.53-0.57-0.96-1.3-1.6-1.68c-3.56-2.14-7.16-4.21-10.75-6.28
		c-0.55-0.32-1.11-0.62-1.67-0.93C50.46,0.49,39.27,3.87,29.32,10.33c3.79-0.64,7.66-0.95,11.5-1.24c1.57-0.12,3.24,0.19,4.1,1.98
		c0.78,1.63,0.74,3.18-0.39,4.55c-1.98,2.41-4.05,4.75-5.33,6.25c-4.57,4.14-8.54,7.26-11.9,10.93c-3.11,3.39-5.53,7.41-8.31,11.1
		c-1.65,2.19-3.38,4.33-5.15,6.43c-0.54,0.64-1.3,1.14-2.03,1.58c-1.44,0.88-2.57,0.74-3.53-0.61c-2.21-3.09-3.64-6.37-4.14-9.82
		c-1.02,2.71-1.85,5.47-2.5,8.28c1.1,0.45,2.25,0.84,3.22,1.48c9.41,6.25,16.74,14.43,22.32,24.23c0.98,1.71,0.41,2.42-1.25,3.01
		c-4.79,1.69-5.76,3.07-5.54,8.05c0.09,2.23-0.97,2.88-2.95,2.98C13.18,89.75,9,89.52,4.9,88.88c1.07,2.58,2.32,5.12,3.75,7.59
		c-0.07-0.49,0-0.91,0.34-1.18c0.77-0.61,2.32,0.49,2.97,0.89c1.32,0.82,2.48,1.87,3.77,2.73c2.37,1.58,4.74,3.16,7.14,4.69
		c1.31,0.84,2.62,1.66,3.96,2.46c6.15,3.69,12.89,6.08,19.71,8.24c3.59,1.14,4.84,4.73,2.38,7.19c-0.94,0.94-2.49,1.58-3.84,1.75
		c-2.13,0.28-4.21,0.29-6.25,0.06c9.04,3.88,18.84,5.62,28.61,5.14c-3.83-3.18-10.07-8.33-11.3-9.43c-0.94-0.84-1.46-2.35-1.76-3.65
		c-0.35-1.5,0.49-2.84,1.87-3.4c1.72-0.69,3.55-1.2,5.38-1.48c3.7-0.58,7.44-0.93,11.16-1.41c2.69-0.35,4.72,1.27,4.93,3.8
		c0.23,2.77,0.66,5.51,1.02,8.26c0.24,1.86,0.58,3.71,0.76,5.58c8.7-2.12,17.09-6.08,24.57-11.99c2.28-1.8,4.39-3.73,6.35-5.76
		C110.29,108.94,110.15,108.9,110.02,108.79z M93.84,61.96c0.26,1.08-0.38,2.26-1.66,3.05c-1.9,1.18-5.04,0.99-6.84-0.41
		c-1.29-1-0.95-2.52,0.13-3.49c0.17-0.15,0.35-0.28,0.54-0.39c1.4-0.86,3.28-0.77,4.86-0.87C92.38,59.77,93.55,60.74,93.84,61.96z
		 M89.53,73.78c-0.22,0.16-0.45,0.29-0.68,0.41c-1.31,0.66-2.7,0.67-4.21,0.69c-1.18,0.02-2-0.79-2.5-1.85
		c-0.71-1.51-0.11-2.71,1.52-2.99c1.76-0.3,3.52-0.59,5.29-0.8c0.87-0.11,1.83-0.09,2.25,0.92C91.82,71.68,90.68,72.97,89.53,73.78z
		 M82.14,57.74c-1.16,0.04-1.66-0.73-1.56-1.9c0.27-3.05,3.25-5.62,6.33-5.46c1.41,0.08,2.21,0.95,2.14,2.35
		c-0.1,2.08-1.22,3.35-2.74,4.1C85.09,57.44,83.58,57.7,82.14,57.74z M100.21,26.56c2.1,1.54,3.65,3.48,3.67,6.26
		c0.01,1.79-1.34,3.18-3.1,3.08c-1.9-0.11-3.79-0.65-5.36-1.72c-1.25-0.84-2.64-1.79-3.29-3.2c-0.27-0.58-0.28-1.18-0.11-1.73
		c0.21-0.7,0.73-1.33,1.41-1.72c1.5-0.85,3.27-1.03,4.93-1.36C98.94,26.05,99.74,26.21,100.21,26.56z M83.76,12.56
		c1.25-1.14,2.64-2.05,4.34-2.38c0.49-0.09,1-0.1,1.5-0.02c2.64,0.37,5.3,2.76,6.56,4.79c1.28,2.05,0.58,3.44-1.86,3.54
		c-3.49,0.13-6.85-0.63-10.01-2.09C82.44,15.55,82.26,13.94,83.76,12.56z M82.7,19.81c2.51-0.11,5.02-0.11,7.53-0.1
		c0.81,0.01,1.62,0.2,2.45,0.31c0.57,0.2,1.17,0.37,1.74,0.62c1.66,0.72,1.87,1.93,0.58,3.21c-1.95,1.92-5.01,3.03-7.74,2.97
		c-3.23-0.07-4.49-2.92-5.77-5.45C81.09,20.57,81.62,19.86,82.7,19.81z M80.85,32.91c1.13-0.75,2.44-0.94,4.55-0.53
		c3.51,1.15,6.99,3.14,8.84,7.2c0.2,0.43,0.3,0.94,0.28,1.41c-0.03,0.86-0.54,1.18-1.31,0.79c-0.91-0.46-1.87-0.93-2.63-1.6
		c-1.78-1.55-3.82-2.36-6.14-2.66c-1.11-0.14-2.22-0.45-3.3-0.8c-0.81-0.26-1.48-0.8-1.55-1.75C79.52,34.02,80.11,33.4,80.85,32.91z
		 M79.63,38.2c1.09,0.06,1.94,0.59,2.75,1.26c1.89,1.56,4.02,2.59,6.49,2.82c1.13,0.11,2.26,0.11,3.39,0.22
		c0.5,0.04,1.1,0.07,1.21,0.74c0.1,0.62-0.36,0.94-0.82,1.18c-2.75,1.44-5.77,2.12-9.68,1.44c-1.81-0.37-3.74-0.95-4.78-2.86
		c-0.45-0.82-0.68-1.83-0.76-2.78C77.31,38.97,78.34,38.13,79.63,38.2z M78.35,50.28c-1.12,1.98-2.35,3.93-3.79,5.69
		c-0.92,1.14-2.3,1.13-3.27,0.47c-1.07-0.73-1.52-2.28-1.06-3.74c0.52-1.67,1.79-2.84,3.32-3.54c1.1-0.51,2.32-0.77,3.5-0.81
		C78.19,48.31,78.9,49.3,78.35,50.28z M70.15,30.04c0.42-1.31,1.3-2.39,2.82-2.51c1.56-0.12,2.57,0.84,3.35,2.03
		c1.21,1.83,1.52,3.94,0.86,7.35c-1.85,5.68-5.07,11.29-11.63,14.28c-0.69,0.32-1.53,0.48-2.29,0.45c-1.39-0.05-1.9-0.87-1.28-2.11
		c0.75-1.48,1.51-3.02,2.58-4.25c2.51-2.88,3.82-6.17,4.29-9.92C69.09,33.56,69.59,31.78,70.15,30.04z M57.49,73.59
		c-1.17-1.34-0.87-2.99,0.11-4c1.1-1.13,3.04-1.34,4.69-0.49c1.89,0.97,3.02,2.74,3.54,4.7c0.38,1.42,0.44,2.94,0.24,4.35
		c-0.19,1.38-1.52,2.03-2.57,1.16C61.37,77.55,59.29,75.67,57.49,73.59z M61.58,89.53c-0.39,1.67-1.6,2.44-3.25,2.07
		c-2.46-0.56-3.75-2.16-4.33-4.13c-0.47-1.6-0.46-3.45-0.22-5.18c0.19-1.4,1.22-1.83,2.59-1.47C59.97,81.78,62.42,85.88,61.58,89.53
		z M55.41,32.98c0.6-2.92,1.53-6.04,4.63-7.72c1.33-0.73,2.97-1.1,4.5-1.23c2-0.18,3.35,1.49,3.24,3.56
		c-0.09,1.76-0.96,3.14-2.04,4.45c-2.53,3.05-4.19,6.5-4.56,10.48c-0.17,1.82-0.18,3.66-0.35,5.48c-0.07,0.8-0.12,1.77-1.19,1.95
		c-1,0.16-1.52-0.58-1.91-1.33C55.4,44.18,54.3,39.3,55.41,32.98z M55.7,64.05c-0.72,2.28-1.42,4.57-1.95,6.9
		c-0.37,1.62-0.52,3.32-0.62,4.99c-0.12,2.14-0.84,3.92-2.76,4.97c-2.07,1.14-3.91,0.51-5.83-0.69c-2.39-1.49-5-2.64-7.5-3.97
		c-1.95-1.05-5.38-2.53-6.67-4.67c-0.71-1.18-0.77-2.55,0.43-4.16c1.34-1.8,3.22-2.84,5.37-2.72c3.59,0.21,6-1.64,8.34-3.91
		c1.07-1.03,2.28-1.98,3.55-2.74c2.04-1.22,4.59-1.06,6.12,0.25C56.01,59.85,56.41,61.78,55.7,64.05z M49.44,92.28
		c-0.21,1.83-1.61,3.02-3.14,3.12c-1.34,0.09-2.62-0.92-3.3-2.62c-1.01-2.51-0.14-6.24,1.91-8.09c1.47-1.33,3.22-0.62,4.14,0.89
		c0.14,0.23,0.26,0.47,0.36,0.72C50.14,88.15,49.65,90.37,49.44,92.28z M38.77,81.53c0,2.16-0.03,4.33-0.14,6.49
		c-0.05,1.07-0.28,2.21-1.57,2.49c-1.96,0.44-3.27-1.19-4-2.74c-0.14-0.3-0.26-0.6-0.34-0.89c-0.51-1.7-0.23-3.36,0.06-5.18
		c0.22-1.41,1.36-2.23,2.73-2.61C37.47,78.56,38.78,79.52,38.77,81.53z M21.16,60.41c-1.92-0.78-2.55-2.68-1.85-4.9
		c1.01-3.2,2.83-5.93,5.1-8.35c1.59-1.69,3.25-3.3,4.89-4.95c3.94-2.96,7.11-6.62,9.54-10.86c2.14-3.73,4.03-7.6,6.14-11.34
		c0.65-1.16,1.56-2.21,2.51-3.13c1.59-1.54,3.2-1.22,4.37,0.69c1.49,2.43,2.08,5.14,1.93,7.9c-0.27,4.73-0.65,9.46-1.31,14.14
		c-0.57,4.07-3.1,7.3-5.4,10.55c-2.75,3.88-5.71,7.58-10.02,9.92C31.81,62.93,26.49,62.59,21.16,60.41z M52.44,113.23
		c-1.7,0.99-3.53,0.54-5.52-0.93c-3.84-2.83-7.63-5.77-11.73-8.18c-7.31-4.32-15.25-7.26-23.4-9.62c-0.71-0.2-1.77-0.75-1.84-1.24
		c-0.14-1.06,1-1.28,1.83-1.4c8.51-1.24,17.54-1.72,25.73,1.34c2.31,0.86,4.42,1.92,6.42,3.14c2.72,1.67,5.23,3.66,7.69,5.91
		c1.55,1.42,2.57,3.28,3,5.4C55.09,109.97,54.23,112.18,52.44,113.23z M70.96,100.7c-0.16,0.95-0.87,2.1-1.68,2.62
		c-3.59,2.32-7.45,3.58-11.73,1.98c-2.74-1.02-4.1-3.91-2.93-6.54c1.27-2.85,3.19-5.43,5.75-7.22c2.02-1.42,4.28-3,6.82-3.18
		c1.04-0.07,1.97,0.25,2.72,0.83c0.95,0.74,1.61,1.88,1.81,3.16C72.17,95.14,71.4,97.97,70.96,100.7z M73.33,78.5
		c-1.65-0.83-2.76-2.22-2.96-3.97c-0.34-2.94-2.18-4.64-4.36-6.22c-0.99-0.72-1.93-1.57-2.73-2.49c-1.28-1.48-1.51-3.58-0.67-5.01
		c1.01-1.7,2.52-2.3,4.46-2.04c1.95,0.26,3.91,0.51,5.88,0.61c1.37,0.07,2.76-0.04,4.13-0.21c1.75-0.21,3.3,0.13,4.43,1.54
		c1.22,1.52,0.97,3.1,0.27,4.83c-0.87,2.15-1.43,4.43-2.16,6.65c-0.57,1.73-1.29,4.73-2.84,6.07C75.91,79,74.8,79.25,73.33,78.5z
		 M75.87,96.91c-1.81-4.1-1.73-9.44-0.05-13.58c1.99-4.91,7.08-5.18,11.7-5.67c1.45-0.15,2.23,1.08,1.68,2.75
		c-1.29,3.91-2.74,7.76-4.22,11.59c-0.48,1.24-1.25,2.36-1.9,3.58c-0.64,0.76-1.25,1.58-1.96,2.3
		C79.05,100.01,77.07,99.63,75.87,96.91z M98.08,110.84c-0.64,2.3-1.29,4.66-2.58,6.71c-0.04,0.06-0.08,0.12-0.12,0.18
		c-1.4,2.11-3.49,3.41-5.6,4.73c-2.79,1.74-5.71,0.25-6.87-2.82c-0.98-2.61-1.14-5.14-0.22-7.67c0.41-1.1,1.24-2.31,2.21-2.9
		c3.37-2.02,7.16-2.07,10.94-1.56C97.81,107.78,98.62,108.92,98.08,110.84z M101.41,94.27c-0.14,0.81-0.43,1.58-0.83,2.32
		c-2.1,3.83-7.31,6.52-11.15,7.28c-3.89,0.77-5.61-1.11-4.34-4.9c1.82-5.43,4.94-10.12,9.01-14.12c2.39-2.35,4.96-1.7,6.2,1.41
		C101.31,88.81,101.9,91.48,101.41,94.27z M109.02,106.96c-0.03,0.53-0.24,1.36-0.58,1.49c-0.72,0.27-1.05-0.5-1.27-1.06
		c-2.22-5.77-4-12.03-3.15-18.27c0.24-1.76,0.64-3.4,1.19-5c0.74-2.18,1.73-4.25,2.92-6.33c0.75-1.32,1.89-2.33,3.31-2.96
		c1.56-0.7,3.24-0.45,4.26,0.65c0.97,1.04,0.94,2.39,0.22,4.02c-1.37,3.14-2.83,6.27-3.88,9.53
		C110.19,94.83,109.38,100.86,109.02,106.96z"/>
	<path class="st1" d="M102.72,23.31c1.08,2.02,2.09,4.07,3.22,6.06c0.56,0.98,1.24,1.92,2.01,2.75c0.62,0.67,1.57,0.85,2.35,0.33
		c0.68-0.45,1.42-1.07,1.7-1.79c0.3-0.76,1.4-3.97,2.33-6.69c-1.91-2.37-3.95-4.58-6.11-6.61c-1.46,0.79-2.9,1.6-4.39,2.32
		C102.42,20.34,101.94,21.85,102.72,23.31z"/>
	<path class="st1" d="M92.01,29.25c-0.17,0.55-0.15,1.16,0.11,1.73c0.66,1.41,2.05,2.36,3.29,3.2c1.58,1.07,3.46,1.61,5.36,1.72
		c1.76,0.1,3.11-1.3,3.1-3.08c-0.02-2.78-1.57-4.72-3.67-6.26c-0.47-0.35-1.28-0.51-1.85-0.39c-1.66,0.34-3.44,0.51-4.93,1.36
		C92.74,27.93,92.23,28.55,92.01,29.25z"/>
	<path class="st1" d="M84.3,16.41c3.16,1.46,6.51,2.22,10.01,2.09c2.44-0.09,3.14-1.48,1.86-3.54c-1.27-2.03-3.92-4.42-6.56-4.79
		c-0.51-0.07-1.01-0.07-1.5,0.02c-1.7,0.32-3.09,1.23-4.34,2.38C82.26,13.94,82.44,15.55,84.3,16.41z"/>
	<path class="st1" d="M87.25,26.82c2.73,0.06,5.79-1.04,7.74-2.97c1.29-1.28,1.08-2.48-0.58-3.21c-0.57-0.25-1.17-0.42-1.74-0.62
		c-0.83-0.11-1.64-0.31-2.45-0.31c-2.51-0.02-5.02-0.01-7.53,0.1c-1.07,0.05-1.61,0.76-1.21,1.56
		C82.77,23.9,84.02,26.74,87.25,26.82z"/>
	<path class="st1" d="M95.94,10.41c0.53,2.27,1.37,4.42,3.26,5.9c0.55,0.43,1.42,0.65,2.13,0.64c1.64-0.02,3.05-0.66,4.33-1.78
		c0.02-0.02,0.03-0.04,0.05-0.06c-2.9-2.45-5.98-4.59-9.2-6.45C95.94,8.97,95.74,9.57,95.94,10.41z"/>
	<path class="st1" d="M56.15,119c1.23,1.1,7.47,6.25,11.3,9.43c0.94-0.05,1.87-0.11,2.8-0.2L56.15,119z"/>
	<path class="st1" d="M77.74,112.85c-0.22-2.53-2.24-4.15-4.93-3.8c-3.72,0.49-7.46,0.84-11.16,1.41c-1.83,0.28-3.67,0.79-5.38,1.48
		c-1.38,0.56-2.22,1.91-1.87,3.4c0.3,1.3,0.82,2.8,1.76,3.65l14.1,9.24c3.11-0.29,6.22-0.8,9.28-1.55
		c-0.18-1.86-0.52-3.71-0.76-5.58C78.4,118.36,77.98,115.62,77.74,112.85z"/>
	<path class="st1" d="M69.92,89.19c-0.75-0.58-1.69-0.91-2.72-0.83c-2.55,0.18-4.8,1.76-6.82,3.18c-2.56,1.79-4.48,4.37-5.75,7.22
		c-1.17,2.64,0.18,5.52,2.93,6.54c4.27,1.59,8.14,0.34,11.73-1.98c0.81-0.52,1.52-1.66,1.68-2.62c0.45-2.74,1.21-5.56,0.77-8.35
		C71.53,91.08,70.87,89.93,69.92,89.19z"/>
	<path class="st1" d="M94.09,84.83c-4.08,4-7.19,8.69-9.01,14.12c-1.27,3.79,0.45,5.67,4.34,4.9c3.84-0.76,9.05-3.45,11.15-7.28
		c0.4-0.73,0.69-1.5,0.83-2.32c0.5-2.78-0.1-5.46-1.12-8.03C99.06,83.13,96.48,82.48,94.09,84.83z"/>
	<path class="st1" d="M84.98,92c1.48-3.84,2.94-7.69,4.22-11.59c0.55-1.67-0.23-2.91-1.68-2.75c-4.62,0.49-9.71,0.76-11.7,5.67
		c-1.68,4.14-1.76,9.48,0.05,13.58c1.2,2.72,3.18,3.1,5.25,0.98c0.71-0.72,1.32-1.55,1.96-2.3C83.73,94.36,84.5,93.24,84.98,92z"/>
	<path class="st1" d="M95.86,107.52c-3.78-0.51-7.57-0.46-10.94,1.56c-0.98,0.59-1.81,1.79-2.21,2.9c-0.92,2.53-0.76,5.06,0.22,7.67
		c1.16,3.07,4.08,4.56,6.87,2.82c2.12-1.32,4.2-2.62,5.6-4.73c0.04-0.06,0.08-0.12,0.12-0.18c1.29-2.04,1.94-4.4,2.58-6.71
		C98.62,108.92,97.81,107.78,95.86,107.52z"/>
	<path class="st1" d="M11.83,51.92c0.73-0.45,1.49-0.94,2.03-1.58c1.77-2.1,3.5-4.24,5.15-6.43c2.78-3.7,5.2-7.71,8.31-11.1
		c3.36-3.67,7.33-6.79,11.9-10.93c1.28-1.5,3.36-3.84,5.33-6.25c1.12-1.38,1.17-2.92,0.39-4.55c-0.86-1.79-2.53-2.1-4.1-1.98
		c-3.84,0.29-7.71,0.6-11.5,1.24c-1.66,1.08-3.3,2.24-4.88,3.49c-9.49,7.5-16.3,17.13-20.28,27.68c0.5,3.45,1.93,6.73,4.14,9.82
		C9.26,52.66,10.39,52.81,11.83,51.92z"/>
	<path class="st1" d="M37.07,60.08c4.31-2.34,7.27-6.04,10.02-9.92c2.3-3.24,4.84-6.48,5.4-10.55c0.65-4.68,1.04-9.42,1.31-14.14
		c0.15-2.76-0.44-5.47-1.93-7.9c-1.17-1.91-2.78-2.23-4.37-0.69c-0.96,0.92-1.87,1.97-2.51,3.13c-2.11,3.74-4,7.61-6.14,11.34
		c-2.43,4.24-5.6,7.9-9.54,10.86c-1.63,1.65-3.3,3.26-4.89,4.95c-2.28,2.42-4.09,5.15-5.1,8.35c-0.7,2.22-0.07,4.12,1.85,4.9
		C26.49,62.59,31.81,62.93,37.07,60.08z"/>
	<path class="st1" d="M51.62,102.24c-2.46-2.25-4.96-4.23-7.69-5.91c-2-1.22-4.11-2.28-6.42-3.14c-8.2-3.07-17.23-2.58-25.73-1.34
		c-0.83,0.12-1.97,0.34-1.83,1.4c0.06,0.5,1.13,1.04,1.84,1.24c8.15,2.35,16.09,5.3,23.4,9.62c4.09,2.42,7.89,5.36,11.73,8.18
		c2,1.47,3.82,1.92,5.52,0.93c1.79-1.05,2.65-3.25,2.19-5.58C54.2,105.52,53.18,103.66,51.62,102.24z"/>
	<path class="st1" d="M45.09,123.23c1.35-0.18,2.9-0.81,3.84-1.75c2.46-2.46,1.21-6.05-2.38-7.19c-6.82-2.16-13.57-4.55-19.71-8.24
		c-1.33-0.8-2.65-1.62-3.96-2.46c-2.4-1.53-4.77-3.11-7.14-4.69c-1.29-0.86-2.45-1.91-3.77-2.73c-0.65-0.4-2.2-1.49-2.97-0.89
		c-0.34,0.27-0.41,0.69-0.34,1.18c1.52,2.62,3.24,5.17,5.17,7.62c6.86,8.68,15.51,15.12,25.01,19.21
		C40.87,123.53,42.96,123.51,45.09,123.23z"/>
	<path class="st1" d="M115.93,79.49c0.71-1.63,0.74-2.99-0.22-4.02c-1.02-1.09-2.71-1.34-4.26-0.65c-1.42,0.64-2.57,1.65-3.31,2.96
		c-1.19,2.08-2.18,4.16-2.92,6.33c-0.54,1.6-0.94,3.25-1.19,5c-0.85,6.24,0.93,12.5,3.15,18.27c0.22,0.57,0.55,1.33,1.27,1.06
		c0.34-0.12,0.55-0.96,0.58-1.49c0.36-6.09,1.16-12.13,3.03-17.95C113.1,85.76,114.56,82.63,115.93,79.49z"/>
	<path class="st1" d="M123.9,79.03c-0.34-0.92-1.03-1.91-1.84-2.42c-2.12-1.34-4.44,0.12-4.67,2.82
		c-0.44,5.13-1.04,10.24-2.65,15.14c-0.35,1.06-0.72,2.11-1.1,3.16c-0.69,1.93-1.43,3.84-2.16,5.76c-0.4,1.04-0.95,2.02-1.31,3.08
		c-0.18,0.52-0.7,1.78-0.15,2.23c0.13,0.1,0.28,0.14,0.43,0.14c6.71-6.92,11.6-15.07,14.59-23.79
		C125.02,83.1,124.64,81.05,123.9,79.03z"/>
	<path class="st1" d="M17.46,89.53c1.98-0.1,3.04-0.75,2.95-2.98c-0.22-4.99,0.76-6.36,5.54-8.05c1.66-0.59,2.23-1.3,1.25-3.01
		c-5.58-9.8-12.91-17.98-22.32-24.23c-0.97-0.64-2.11-1.03-3.22-1.48c-0.14,0.6-0.27,1.2-0.39,1.8c1.28,1.61,2.56,3.21,3.8,4.85
		c3.8,5.03,7.6,10.05,11.3,15.15c0.67,0.92,0.84,2.19,1.24,3.31c-0.2,0.16-0.4,0.32-0.61,0.48c-5.62-3.14-11.25-6.29-16.98-9.17
		c0.07,2.48,0.3,4.95,0.66,7.41c2.74,1.62,5.47,3.24,8.2,4.88c1.29,0.77,2.41,1.83,3.61,2.76c-0.16,0.32-0.33,0.65-0.49,0.97
		c-3.14,0.48-6.26,0.52-9.36,0.32c0.64,2.15,1.39,4.27,2.26,6.36C9,89.52,13.18,89.75,17.46,89.53z"/>
	<path class="st1" d="M12.01,82.2c0.17-0.32,0.33-0.65,0.49-0.97c-1.2-0.92-2.32-1.98-3.61-2.76c-2.73-1.63-5.47-3.25-8.2-4.88
		c0.44,3,1.09,5.99,1.96,8.93C5.75,82.72,8.87,82.68,12.01,82.2z"/>
	<path class="st1" d="M0.03,66.18c5.74,2.88,11.36,6.03,16.98,9.17c0.2-0.16,0.4-0.33,0.61-0.48c-0.4-1.11-0.57-2.39-1.24-3.31
		c-3.7-5.1-7.5-10.12-11.3-15.15c-1.24-1.64-2.52-3.24-3.8-4.85C0.31,56.38-0.12,61.28,0.03,66.18z"/>
	<path class="st1" d="M116.16,34.42c-0.58-1.43-1.22-1.91-2.68-0.99c-8.39,5.23-15.29,11.94-20.43,20.4
		c-0.62,1.03-0.92,2.27-1.38,3.41c0.25,0.21,0.51,0.41,0.77,0.62c1.71-1.47,3.39-2.96,5.13-4.38c4.27-3.5,8.53-7.01,12.87-10.43
		c0.78-0.62,1.89-0.81,2.85-1.2c0.15,0.17,0.29,0.34,0.44,0.51c-5.84,11.54-11.73,23.06-14.69,35.71c0.33,0.19,0.65,0.38,0.98,0.56
		c0.92-1.14,2.04-2.18,2.73-3.45c4.71-8.59,9.32-17.23,14-25.83c0.63-1.16,1.52-2.17,2.29-3.26c0.29,0.13,0.58,0.26,0.87,0.4
		c1.79,9.23-0.73,18.36-1.19,27.59c1.18-1.58,2.02-3.21,2.74-4.89c3.02-7,4.74-14.21,4.89-21.69c-0.78-2.88-1.77-5.73-2.96-8.51
		C119.04,39.36,117.8,38.55,116.16,34.42z"/>
	<path class="st1" d="M48.06,58.04c-1.27,0.77-2.48,1.71-3.55,2.74c-2.35,2.27-4.76,4.12-8.34,3.91c-2.14-0.12-4.03,0.92-5.37,2.72
		c-1.19,1.61-1.14,2.98-0.43,4.16c1.28,2.14,4.71,3.62,6.67,4.67c2.5,1.33,5.1,2.48,7.5,3.97c1.92,1.2,3.76,1.83,5.83,0.69
		c1.92-1.06,2.64-2.83,2.76-4.97c0.09-1.67,0.25-3.36,0.62-4.99c0.53-2.33,1.24-4.62,1.95-6.9c0.71-2.27,0.31-4.2-1.51-5.76
		C52.66,56.99,50.1,56.82,48.06,58.04z"/>
	<path class="st1" d="M66.07,78.15c0.19-1.41,0.13-2.93-0.24-4.35c-0.52-1.97-1.65-3.73-3.54-4.7c-1.64-0.84-3.58-0.64-4.69,0.49
		c-0.98,1.01-1.28,2.66-0.11,4c1.81,2.08,3.88,3.96,6.01,5.72C64.56,80.17,65.88,79.53,66.07,78.15z"/>
	<path class="st1" d="M53.78,82.29c-0.24,1.73-0.25,3.58,0.22,5.18c0.57,1.97,1.86,3.57,4.33,4.13c1.66,0.37,2.87-0.4,3.25-2.07
		c0.84-3.65-1.61-7.75-5.21-8.71C55,80.45,53.98,80.89,53.78,82.29z"/>
	<path class="st1" d="M44.91,84.68c-2.04,1.86-2.92,5.58-1.91,8.09c0.68,1.7,1.96,2.71,3.3,2.62c1.52-0.1,2.93-1.29,3.14-3.12
		c0.22-1.91,0.71-4.13-0.02-5.99c-0.1-0.25-0.22-0.49-0.36-0.72C48.12,84.06,46.37,83.35,44.91,84.68z"/>
	<path class="st1" d="M35.51,79.09c-1.37,0.38-2.51,1.2-2.73,2.61c-0.29,1.82-0.57,3.48-0.06,5.18c0.09,0.3,0.2,0.59,0.34,0.89
		c0.73,1.55,2.04,3.18,4,2.74c1.29-0.29,1.51-1.43,1.57-2.49c0.11-2.16,0.14-4.33,0.14-6.49C38.78,79.52,37.47,78.56,35.51,79.09z"
		/>
	<path class="st1" d="M59.64,49.94c1.07-0.18,1.12-1.15,1.19-1.95c0.16-1.82,0.18-3.66,0.35-5.48c0.37-3.98,2.03-7.43,4.56-10.48
		c1.08-1.3,1.95-2.69,2.04-4.45c0.11-2.07-1.24-3.74-3.24-3.56c-1.53,0.14-3.16,0.51-4.5,1.23c-3.1,1.68-4.03,4.8-4.63,7.72
		c-1.11,6.33-0.01,11.2,2.32,15.64C58.12,49.37,58.64,50.11,59.64,49.94z"/>
	<path class="st1" d="M61.99,49.53c-0.63,1.24-0.12,2.06,1.28,2.11c0.76,0.03,1.59-0.13,2.29-0.45c6.55-2.99,9.77-8.6,11.63-14.28
		c0.67-3.41,0.35-5.52-0.86-7.35c-0.79-1.19-1.8-2.15-3.35-2.03c-1.52,0.12-2.4,1.21-2.82,2.51c-0.56,1.73-1.06,3.52-1.29,5.32
		c-0.47,3.75-1.78,7.04-4.29,9.92C63.5,46.52,62.74,48.05,61.99,49.53z"/>
	<path class="st1" d="M74.1,7.26c0.64,0.38,1.07,1.11,1.6,1.68c-0.08,0.15-0.16,0.3-0.24,0.45C65.8,8.34,56.14,7.26,46.45,8.53
		c-0.05,0.28-0.09,0.56-0.14,0.84c1.05,0.35,2.07,0.85,3.15,1.01c7.28,1.04,14.59,1.98,21.87,2.99c0.98,0.14,1.93,0.49,2.89,0.74
		c-0.01,0.24-0.03,0.48-0.05,0.72c-6.02,3.7-13.1,4.36-19.71,6.48c1.42,0.41,2.79,0.56,4.16,0.63c7.24,0.34,14.18-0.88,20.74-4.06
		c1.17-0.57,1.65-1.24,1.02-2.57c-1.41-2.97-1.17-4.05,1.29-6.31c0.86-0.79,1.02-1.36-0.02-2.15c-3.6-2.75-7.44-4.96-11.54-6.58
		c-2.8-0.26-5.62-0.33-8.44-0.22c0.56,0.31,1.11,0.61,1.67,0.93C66.95,3.05,70.55,5.12,74.1,7.26z"/>
	<path class="st1" d="M76.76,78.26c1.55-1.35,2.27-4.34,2.84-6.07c0.73-2.21,1.29-4.49,2.16-6.65c0.71-1.73,0.95-3.31-0.27-4.83
		c-1.13-1.41-2.67-1.74-4.43-1.54c-1.37,0.16-2.76,0.27-4.13,0.21c-1.96-0.1-3.92-0.35-5.88-0.61c-1.94-0.26-3.45,0.34-4.46,2.04
		c-0.84,1.42-0.61,3.53,0.67,5.01c0.8,0.93,1.74,1.77,2.73,2.49c2.17,1.59,4.02,3.28,4.36,6.22c0.2,1.76,1.32,3.14,2.96,3.97
		C74.8,79.25,75.91,79,76.76,78.26z"/>
	<path class="st1" d="M77.04,48.35c-1.17,0.04-2.4,0.31-3.5,0.81c-1.52,0.7-2.8,1.87-3.32,3.54c-0.46,1.46-0.01,3,1.06,3.74
		c0.96,0.66,2.34,0.66,3.27-0.47c1.43-1.76,2.67-3.71,3.79-5.69C78.9,49.3,78.19,48.31,77.04,48.35z"/>
	<path class="st1" d="M89.06,52.74c0.07-1.4-0.73-2.27-2.14-2.35c-3.08-0.17-6.06,2.4-6.33,5.46c-0.1,1.16,0.4,1.94,1.56,1.9
		c1.44-0.05,2.94-0.3,4.18-0.91C87.84,56.09,88.95,54.81,89.06,52.74z"/>
	<path class="st1" d="M86.01,60.73c-0.19,0.11-0.37,0.24-0.54,0.39c-1.09,0.97-1.42,2.49-0.13,3.49c1.8,1.4,4.94,1.58,6.84,0.41
		c1.28-0.8,1.93-1.98,1.66-3.05c-0.3-1.22-1.46-2.19-2.98-2.1C89.29,59.95,87.42,59.87,86.01,60.73z"/>
	<path class="st1" d="M88.94,69.23c-1.77,0.22-3.53,0.5-5.29,0.8c-1.63,0.28-2.23,1.48-1.52,2.99c0.5,1.06,1.33,1.87,2.5,1.85
		c1.52-0.02,2.91-0.03,4.21-0.69c0.23-0.11,0.45-0.25,0.68-0.41c1.16-0.82,2.29-2.11,1.66-3.63C90.77,69.14,89.82,69.12,88.94,69.23
		z"/>
	<path class="st1" d="M78.19,42.99c1.04,1.92,2.97,2.49,4.78,2.86c3.91,0.69,6.93,0.01,9.68-1.44c0.46-0.24,0.92-0.56,0.82-1.18
		c-0.11-0.67-0.71-0.7-1.21-0.74c-1.13-0.1-2.26-0.11-3.39-0.22c-2.47-0.23-4.6-1.26-6.49-2.82c-0.81-0.67-1.67-1.21-2.75-1.26
		c-1.28-0.07-2.31,0.77-2.2,2.01C77.51,41.16,77.74,42.17,78.19,42.99z"/>
	<path class="st1" d="M81.15,36.73c1.07,0.35,2.18,0.66,3.3,0.8c2.32,0.29,4.35,1.1,6.14,2.66c0.76,0.66,1.71,1.14,2.63,1.6
		c0.77,0.39,1.28,0.07,1.31-0.79c0.02-0.47-0.08-0.99-0.28-1.41c-1.85-4.06-5.32-6.05-8.84-7.2c-2.11-0.41-3.42-0.22-4.55,0.53
		c-0.74,0.49-1.33,1.11-1.26,2.08C79.67,35.93,80.34,36.47,81.15,36.73z"/>
</g>
</svg>
