<?xml version="1.0" encoding="utf-8"?>
<!-- Generator: Adobe Illustrator 21.0.0, SVG Export Plug-In . SVG Version: 6.00 Build 0)  -->
<svg version="1.1" id="Layer_1" xmlns="http://www.w3.org/2000/svg" xmlns:xlink="http://www.w3.org/1999/xlink" x="0px" y="0px"
	 viewBox="0 0 277.1 277.1" style="enable-background:new 0 0 277.1 277.1;" xml:space="preserve">
<style type="text/css">
	.st0{clip-path:url(#SVGID_2_);fill:#445629;}
	.st1{clip-path:url(#SVGID_2_);fill:#FFFFFF;}
</style>
<g>
	<defs>
		<path id="SVGID_1_" d="M0,138.5C0,215,62,277.1,138.5,277.1c76.5,0,138.5-62,138.5-138.5S215,0,138.5,0C62,0,0,62,0,138.5"/>
	</defs>
	<clipPath id="SVGID_2_">
		<use xlink:href="#SVGID_1_"  style="overflow:visible;"/>
	</clipPath>
	<path class="st0" d="M277.3,139c0,76.8-62.2,139-139,139c-76.8,0-139-62.2-139-139S61.5,0,138.3,0C215.1,0,277.3,62.2,277.3,139"/>
	<path class="st1" d="M209.6,22.1c-2.2,3.9-18.4,27.1-18.8,31.3c-0.5,4.5,0.2,9.8,1.5,13.9c3.1,9.3,5.6,20.5,9.6,29.5
		c4.7-4.8,8-11,13.2-15.3c7.3-5.4,14.4-10.4,21.9-15.4c0.2,6.4-1.7,14.3-3.2,19.4c-3.8,14.8-8.2,30.1-24.2,32.8
		c2.5,5.4,7.7,11.4,12.8,15.6c7.8-5,15.9-13.4,28.9-12.3c3.1,0.3,13.9,1.4,14.8,4.1c1,2.8-4.9,11.8-6.7,14c-4.9,5.8-13.5,9-23.3,6.3
		c1.4,2.8,3.7,5.1,10.9,7.3c10.5-2,19.2,1.5,24.9,4.5c14.7,7.6,16,37.9,29.9,50.6c-42,3.3-58.7-26.8-61.4-35.8
		c-1-3.6,0.2-8.1-0.2-12.3c-4.4-3.8-9.5-8.2-15-12.1c2.8,14.4,2.4,37.4-1.5,43.5c-1.4-3.5-1.7-2.3-2.2-3.9
		c-8.4-14.4-23-26.5-21.2-48.7c0.4-4.5,0.8-9.4,2-13.5c-4-8.4-14.1-55.4-18.8-59.8c-7.1,12.5-14.6,24.8-22,37.1
		c7.5-1.2,15.3,4.6,19.7,10.4c4.4,5.7,6.4,13.2,9,20.1c3.6,9.5,4.3,22.6,6.6,33.9c0.9,4.2,3.3,8,1.5,11.8
		c-7.5-4.2-37.9-32.2-44.7-53.5c-0.7-2-1.6-5.2-1-7.1c-7.8,5.5-12,15.9-15.7,23.6c21.4,3.7,33.8,19.8,38,40.9
		c1.7,8.7,1.4,18.4,2.6,27.3c0.8,6.2,5.3,10.3,4.2,16.1c-54.5-25.5-57.8-62.7-57.9-65.1c-4.4,2.8-5.5,7.3-8.1,9.2
		c1.1,1.9,21.4,21.3,20.8,55.1c-0.1,6.9-0.6,12.2-1,19.4c-0.7,11.7-7.7,34.5-9.8,36.2c-1.2-1.9-1.3-1.9-2.2-3.5
		c-9.7-17.5-31.4-31.2-31.3-55.7c0.1-11.3,4.1-21.8,7.3-32.2c-4.2,3.5-7,8.1-11.1,11.6c-1.9,9.1-13.8,33-30.1,46.8
		C42.2,262,2.6,269.3-2.5,267.3c2.8-6.5,21.1-35.8,31.5-48.6c10.5-12.8,49.4-22.1,53.3-22.4c4-3.5,8.4-6.6,11.1-11.3
		c-1.2-0.7-11.8,8.3-28.1,8.4c-7.9,0-34.6-5.2-58,8.5c0.6-6.2,5.7-10.9,9.7-15.6c7.4-8.5,20.5-17.3,36.1-25.9
		c15.5-8.6,41.9-9.1,62.5-1.8c5.4-4.9,9.1-11.3,12.7-17.6c-4.3,1.5-14.6,1.9-18.6,1.1c-39.1-7.1-51.3-11.3-87.7,1.4
		c-1.6-10.8,8-17.5,16.1-23.2c12.7-8.9,32.3-17.6,51.4-17.1c10.2,0.3,37,4.6,48.6,23c3.5-4.4,5.7-10,8.9-14.8
		c-2.9-0.5-27.8,8.2-54.8-32c-6.3-9.5-31.6-17.3-32.4-18c3.7-2.4,5.8-3.6,9.1-4.1c8.9-1.4,24.2-2.9,33.4-0.9
		c17.2,3.7,28.7,11.5,38.1,23.5c5,6.3,7.9,13.8,13.4,20.4c3.2-2.8,6.1-9.5,9.3-14.4c1.8-2.8,8.5-9.4,8.5-13.2c0-4.8,3,3.1-8.3-8.4
		c-3.2-3.3-22-3.9-28.4-7.6c-14.7-8.5-21.3-17.4-26.4-22.2c-8.2-7.7-15.1-11.9,30.6-11.9c10.3,0,29,15.5,27.8,31
		c-0.6,7.9,1.5,5.9,9.3,9.2c9.2-14.5,43.1-74.2,41.4-77.9c0,0-4-6.9-11.7,3.7c-9.7,14.8-22.7,28.5-39.7,34.7
		c-1.1-0.3-1.8-0.3-1.4-1.8c14.1-9.3,29.5-30.5,34-39.6c65.6-58.2,46.8-202.7,131.5-306.1c1.3,0.2,20.3,3,22.2,16.2
		C317.6-268,241.3-47.7,235.5-33.8C230.3-21.2,231.6-15.8,209.6,22.1"/>
</g>
</svg>
