<svg xmlns="http://www.w3.org/2000/svg" width="37" height="37" viewBox="0 0 37 37">
  <defs>
    <style>
      .cls-1 {
        fill: #fff;
        fill-rule: evenodd;
      }
    </style>
  </defs>
  <path id="call" class="cls-1" d="M251.854,3595.09a1.842,1.842,0,0,0-2.586,0l-1.931,1.94a1.824,1.824,0,0,0-.462,1.8l0.072,0.25-0.929.93a1.15,1.15,0,0,1-.813.25c-1.44,0-4.381-1.39-7.433-4.44-3.7-3.7-4.859-7.02-4.3-8.08v-0.31h0.259l0.785-.79,0.251,0.08a2.2,2.2,0,0,0,.508.07,1.8,1.8,0,0,0,1.293-.54l1.931-1.93a1.823,1.823,0,0,0,0-2.58l-7.424-7.43a1.819,1.819,0,0,0-2.587,0l-1.93,1.93a1.831,1.831,0,0,0-.463,1.8l0.072,0.25-0.183.19c-0.293.29-.575,0.58-0.619,0.63h0l-0.011.01c-1.941,2.16-2.291,5.62-.984,9.75a34.976,34.976,0,0,0,20.355,20.36,15.208,15.208,0,0,0,4.574.78,7.448,7.448,0,0,0,5.41-1.99l0.59-.59,0.252,0.07a1.766,1.766,0,0,0,.509.07,1.836,1.836,0,0,0,1.293-.53l1.93-1.93a1.835,1.835,0,0,0,0-2.59Zm-22.073-20.12,8.052,8.06-2.244,2.25-0.315.31-8.052-8.06Zm24,32.02h0l-0.054.05a6.033,6.033,0,0,1-4.431,1.59,13.826,13.826,0,0,1-4.155-.72,33.623,33.623,0,0,1-19.454-19.46c-1.2-3.78-.888-6.83.87-8.59l0.519-.52,6.39,6.4-0.844.84c-1.108,1.11-.633,2.98-0.04,4.36a20.287,20.287,0,0,0,4.212,5.86c2.94,2.94,6.246,4.84,8.423,4.84a2.413,2.413,0,0,0,1.8-.67l0.842-.84,6.39,6.39Zm2.891-1.23a0.821,0.821,0,0,1-.615.43h-0.185L248,3598.32l2.559-2.56,8.052,8.05Zm-3.233-15.99a0.693,0.693,0,0,0,1.385,0,11,11,0,0,0-11-11,0.69,0.69,0,1,0,0,1.38A9.621,9.621,0,0,1,253.438,3589.77Zm2.239-11.86a16.638,16.638,0,0,0-11.854-4.91,0.693,0.693,0,0,0-.693.69,0.7,0.7,0,0,0,.693.7,15.371,15.371,0,0,1,15.379,15.38,0.693,0.693,0,0,0,1.385,0A16.668,16.668,0,0,0,255.677,3577.91Zm-12.343,6.82a0.713,0.713,0,0,0-.2.49,0.7,0.7,0,0,0,.693.7,3.838,3.838,0,0,1,3.85,3.85,0.692,0.692,0,0,0,1.384,0,5.246,5.246,0,0,0-5.235-5.24A0.689,0.689,0,0,0,243.334,3584.73Z" transform="translate(-223.594 -3573)"/>
</svg>
