<svg xmlns="http://www.w3.org/2000/svg" width="37.094" height="37.06" viewBox="0 0 37.094 37.06">
  <defs>
    <style>
      .cls-1 {
        fill: #fff;
        fill-rule: evenodd;
      }
    </style>
  </defs>
  <path id="Corporate_Bookings" data-name="Corporate Bookings" class="cls-1" d="M637.114,1087.15h-1.54l-3.846,6.59-3.839-6.59h-1.533a4.193,4.193,0,0,0-4.19,4.19v8.37a4.2,4.2,0,0,0,3.591,4.14v10.21h11.956v-10.21a4.182,4.182,0,0,0,3.591-4.13v-8.38A4.193,4.193,0,0,0,637.114,1087.15Zm-11.364,15.48a2.98,2.98,0,0,1-2.387-2.91v-8.38a2.949,2.949,0,0,1,.468-1.59l1.919,5.28v7.6Zm10.773-7.8v18.04h-4.2v-6.58h-1.2v6.58h-4.182v-18.04l-2.182-6.01a4.249,4.249,0,0,1,2.438-.47l4.532,7.77,4.533-7.77a4.234,4.234,0,0,1,2.437.47Zm3.584,4.88a2.981,2.981,0,0,1-2.394,2.92v-7.59l1.919-5.29a2.887,2.887,0,0,1,.475,1.59v8.37Zm-8.372-22.72a4.785,4.785,0,1,0,4.781,4.79A4.79,4.79,0,0,0,631.735,1076.99Zm0,8.38a3.6,3.6,0,1,1,3.591-3.59A3.6,3.6,0,0,1,631.735,1085.37Zm10.766,0.59v1.19a8.375,8.375,0,0,1,0,16.75v1.19A9.565,9.565,0,1,0,642.5,1085.96Zm16.743,13.03v-6.92l-3.022-.76a14.67,14.67,0,0,0-1.036-2.51l1.606-2.67-4.89-4.89-2.672,1.61a13.539,13.539,0,0,0-2.511-1.04l-0.759-3.03h-6.912l-0.839,3.36,1.161,0.29,0.605-2.45h5.044l0.7,2.79a13.534,13.534,0,0,1,3.526,1.46l2.467-1.48,3.569,3.56-1.482,2.47a13.14,13.14,0,0,1,1.46,3.53l2.788,0.69v5.04l-2.788.7a13.877,13.877,0,0,1-1.46,3.53l1.482,2.47-3.569,3.57-2.467-1.49a12.777,12.777,0,0,1-3.526,1.46l-0.7,2.79h-5.044l-0.613-2.45-1.16.29,0.839,3.36h6.919l0.759-3.02a15.059,15.059,0,0,0,2.511-1.04l2.672,1.61,4.89-4.89-1.606-2.67a14.443,14.443,0,0,0,1.036-2.52Z" transform="translate(-622.156 -1077)"/>
</svg>
