<svg xmlns="http://www.w3.org/2000/svg" width="38.156" height="38.12" viewBox="0 0 38.156 38.12">
  <defs>
    <style>
      .cls-1 {
        fill: #fff;
        fill-rule: evenodd;
      }
    </style>
  </defs>
  <path id="clock" class="cls-1" d="M284.952,3427a19.07,19.07,0,1,1,11.841-34.02,0.842,0.842,0,0,1,.309.56,0.832,0.832,0,0,1-.175.61,0.855,0.855,0,0,1-.652.31,0.8,0.8,0,0,1-.512-0.18,17.2,17.2,0,0,0-10.811-3.76,17.41,17.41,0,1,0,17.41,17.41,17.219,17.219,0,0,0-1.724-7.57,0.841,0.841,0,0,1-.036-0.64,0.853,0.853,0,0,1,.421-0.47,0.9,0.9,0,0,1,.36-0.08,0.825,0.825,0,0,1,.747.47,18.856,18.856,0,0,1,1.891,8.29A19.088,19.088,0,0,1,284.952,3427Zm0-18.24a0.829,0.829,0,0,1-.829-0.83v-11.61a0.829,0.829,0,0,1,1.658,0v10.78h7.462a0.83,0.83,0,0,1,0,1.66h-8.291Z" transform="translate(-265.875 -3388.88)"/>
</svg>
