<?xml version="1.0" encoding="utf-8"?>
<!-- Generator: Adobe Illustrator 21.0.0, SVG Export Plug-In . SVG Version: 6.00 Build 0)  -->
<svg version="1.1" id="Layer_1" xmlns="http://www.w3.org/2000/svg" xmlns:xlink="http://www.w3.org/1999/xlink" x="0px" y="0px"
	 viewBox="0 0 480.5 480" style="enable-background:new 0 0 480.5 480;" xml:space="preserve">
<style type="text/css">
	.st0{clip-path:url(#SVGID_2_);fill:#5CA133;}
	.st1{clip-path:url(#SVGID_4_);fill:#5CA133;}
	.st2{clip-path:url(#SVGID_6_);fill:#5CA133;}
	.st3{clip-path:url(#SVGID_8_);fill:#5CA133;}
</style>
<g>
	<g>
		<defs>
			<rect id="SVGID_1_" width="480.5" height="480"/>
		</defs>
		<clipPath id="SVGID_2_">
			<use xlink:href="#SVGID_1_"  style="overflow:visible;"/>
		</clipPath>
		<path class="st0" d="M477.1,172.4L423.4,32.8C413.3,6.4,383.6-6.7,357.3,3.4c-0.4,0.1-0.8,0.3-1.1,0.5L87.9,115.1
			c-25.5,10.5-38.1,39.4-28.3,65.2L67,200H50c-27.6,0-50,22.4-50,50v180c0,27.6,22.4,50,50,50h340c27.6,0,50-22.4,50-50V250
			c0-2.7-0.3-5.4-0.7-8.1l9.3-3.8C474.3,227.6,487,198.4,477.1,172.4 M50,216h340c18,0.1,32.8,14.1,33.8,32H16.2
			C17.2,230.1,32,216,50,216 M130.4,167.8l53.5-26.7l11,27.5l-53.5,26.7L130.4,167.8z M424,430c0,18.8-15.2,34-34,34H50
			c-18.8,0-34-15.2-34-34V328h408V430z M424,312H16v-48h408V312z M442.6,223.4l-8.4,3.4c-8.6-16.4-25.7-26.7-44.2-26.7H167.8
			l40.8-20.4c3.7-1.9,5.4-6.3,3.9-10.1l-17-42.4c-1.6-4.1-6.3-6.1-10.4-4.5c-0.2,0.1-0.4,0.2-0.6,0.3l-67.8,33.9
			c-3.7,1.9-5.4,6.3-3.8,10.1l13.1,33H84l-9.5-25.3c-6.7-17.7,1.9-37.6,19.5-44.8L362.2,18.7c17.9-7.4,38.5,1.1,45.9,19
			c0.1,0.3,0.2,0.6,0.3,0.8l53.7,139.6C469,196,460.3,216.1,442.6,223.4"/>
	</g>
	<g>
		<defs>
			<rect id="SVGID_3_" width="480.5" height="480"/>
		</defs>
		<clipPath id="SVGID_4_">
			<use xlink:href="#SVGID_3_"  style="overflow:visible;"/>
		</clipPath>
		<path class="st1" d="M287.8,441.5c14.9,8.7,33.3,8.7,48.2,0c22.9,13.3,52.3,5.5,65.6-17.4c13.3-22.9,5.5-52.3-17.4-65.6
			c-7.4-4.3-15.7-6.5-24.2-6.5c-8.4,0-16.7,2.2-24,6.5c-22.9-13.3-52.3-5.5-65.6,17.4C257.1,398.8,264.9,428.2,287.8,441.5
			 M349.4,369.9c3.4-1.3,7-1.9,10.6-2c17.7,0,32,14.3,32,32s-14.3,32-32,32c-3.6,0-7.2-0.7-10.6-2
			C363.5,412.5,363.5,387.5,349.4,369.9 M336,379.1c10.7,11.9,10.7,30,0,41.9C325.3,409,325.3,391,336,379.1 M312,368
			c3.6,0,7.2,0.7,10.6,2c-14.2,17.5-14.2,42.6,0,60.1c-3.4,1.3-7,1.9-10.6,2c-17.7,0-32-14.3-32-32C280,382.3,294.3,368,312,368"/>
	</g>
	<g>
		<defs>
			
				<rect id="SVGID_5_" x="46.3" y="49" transform="matrix(0.9138 -0.4062 0.4062 0.9138 -92.6908 141.3114)" width="480.5" height="480"/>
		</defs>
		<clipPath id="SVGID_6_">
			<use xlink:href="#SVGID_5_"  style="overflow:visible;"/>
		</clipPath>
		
			<rect x="337.1" y="147.4" transform="matrix(0.9138 -0.4062 0.4062 0.9138 -30.464 167.2797)" class="st2" width="83.5" height="16"/>
	</g>
	<g>
		<defs>
			
				<rect id="SVGID_7_" x="55.7" y="33.8" transform="matrix(0.908 -0.4191 0.4191 0.908 -87.4839 149.2486)" width="480.5" height="480"/>
		</defs>
		<clipPath id="SVGID_8_">
			<use xlink:href="#SVGID_7_"  style="overflow:visible;"/>
		</clipPath>
		
			<rect x="284.3" y="122" transform="matrix(0.908 -0.4191 0.4191 0.908 -22.7172 156.5535)" class="st3" width="121.4" height="16"/>
	</g>
</g>
</svg>
