<svg xmlns="http://www.w3.org/2000/svg" width="35" height="34.97" viewBox="0 0 35 34.97">
  <defs>
    <style>
      .cls-1 {
        fill: #fff;
        fill-rule: evenodd;
      }
    </style>
  </defs>
  <path id="dressing-room" class="cls-1" d="M131.8,2274.36h0.011a0.685,0.685,0,0,0,0-1.37H131.8A0.685,0.685,0,0,0,131.8,2274.36Zm6.712-14.41H138.5a0.685,0.685,0,0,0,0,1.37h0.011A0.685,0.685,0,0,0,138.512,2259.95Zm-8.418-4.03a2.05,2.05,0,1,0,2.052,2.05A2.054,2.054,0,0,0,130.094,2255.92Zm0,2.73a0.68,0.68,0,1,1,.685-0.68A0.68,0.68,0,0,1,130.094,2258.65Zm25.618-4.58-8.387-5.94a0.694,0.694,0,0,0-.791-0.01l-8.028,5.67-8-5.66a0.692,0.692,0,0,0-.79-0.01l-8.429,5.95a0.693,0.693,0,0,0-.289.56v26.28a2.045,2.045,0,0,0,2.03,2.06,2.015,2.015,0,0,0,1.441-.61,2.058,2.058,0,0,0,.589-1.45v-0.34h10.068v0.34a2.045,2.045,0,0,0,2.03,2.06,1.983,1.983,0,0,0,1.331-.51,1.97,1.97,0,0,0,1.361.54,2.02,2.02,0,0,0,1.444-.61,2.087,2.087,0,0,0,.586-1.46v-0.36h10.061v0.36a2.053,2.053,0,0,0,2.03,2.07,2.02,2.02,0,0,0,1.443-.61,2.087,2.087,0,0,0,.586-1.46v-26.3a0.692,0.692,0,0,0-.288-0.56h0Zm-22.529,25.13h-6.178v-12.37h6.178v12.37h0Zm16.815,0h-6.175v-12.37H150v12.37Zm4.634,1.73a0.749,0.749,0,0,1-.2.51,0.667,0.667,0,0,1-.461.19,0.68,0.68,0,0,1-.662-0.7v-1.04a0.688,0.688,0,0,0-.684-0.69h-1.26v-13.06a0.685,0.685,0,0,0-.684-0.68H143.14a0.685,0.685,0,0,0-.684.68v13.06H141.2a0.688,0.688,0,0,0-.684.69v1.04a0.745,0.745,0,0,1-.2.51,0.664,0.664,0,0,1-.461.19,0.68,0.68,0,0,1-.662-0.7v-17.97a0.684,0.684,0,1,0-1.367,0v17.95a0.687,0.687,0,0,1-.2.49,0.636,0.636,0,0,1-.464.2,0.678,0.678,0,0,1-.662-0.69v-1.02a0.688,0.688,0,0,0-.684-0.69h-1.261v-13.06a0.685,0.685,0,0,0-.684-0.68h-7.546a0.686,0.686,0,0,0-.684.68v13.06h-1.261a0.687,0.687,0,0,0-.683.69v1.02a0.69,0.69,0,0,1-.2.49,0.64,0.64,0,0,1-.465.2,0.678,0.678,0,0,1-.662-0.69v-25.93l7.744-5.46,7.709,5.46v3.2a0.684,0.684,0,0,0,1.368,0v-3.2l7.739-5.46,7.7,5.46v25.95Zm-6.017-6.57h0.012a0.685,0.685,0,0,0,0-1.37h-0.012A0.685,0.685,0,0,0,148.615,2274.36Zm-3.756-16.39a2.052,2.052,0,1,0,2.051-2.05A2.053,2.053,0,0,0,144.859,2257.97Zm2.735,0a0.684,0.684,0,1,1-.684-0.68A0.68,0.68,0,0,1,147.594,2257.97Zm-5.311,0a4.627,4.627,0,1,0,4.627-4.62A4.627,4.627,0,0,0,142.283,2257.97Zm7.887,0a3.26,3.26,0,1,1-3.26-3.26A3.262,3.262,0,0,1,150.17,2257.97Zm-20.081-4.62a4.62,4.62,0,1,0,4.627,4.62A4.627,4.627,0,0,0,130.089,2253.35Zm0,7.88a3.26,3.26,0,1,1,3.26-3.26A3.262,3.262,0,0,1,130.089,2261.23Z" transform="translate(-121 -2248.03)"/>
</svg>
