<svg xmlns="http://www.w3.org/2000/svg" width="29.031" height="29.03" viewBox="0 0 29.031 29.03">
  <defs>
    <style>
      .cls-1 {
        fill: #5ca133;
        fill-rule: evenodd;
      }
    </style>
  </defs>
  <path id="entry-ticket" class="cls-1" d="M703.056,1110.25s0-.01,0-0.01a0.82,0.82,0,0,0,.25-0.59,0.84,0.84,0,0,0-.246-0.6l-2.326-2.32a0.835,0.835,0,0,0-1.187,0,1.745,1.745,0,0,1-2.419-.04,0.834,0.834,0,0,0-1.186,0l-15.5,15.48a0.844,0.844,0,0,0,0,1.19,1.735,1.735,0,0,1,.04,2.42,0.831,0.831,0,0,0,0,1.18l2.327,2.33a0.831,0.831,0,0,0,1.183,0,1.683,1.683,0,0,1,2.38,2.38,0.834,0.834,0,0,0,0,1.18l2.366,2.37a0.841,0.841,0,0,0,1.184,0,1.681,1.681,0,0,1,2.375.01,0.853,0.853,0,0,0,1.186,0l15.5-15.49a0.844,0.844,0,0,0,0-1.19,1.685,1.685,0,0,1,0-2.38h0a0.837,0.837,0,0,0,0-1.19l-2.366-2.36a0.838,0.838,0,0,0-1.194,0,1.68,1.68,0,0,1-2.381-2.37h0Zm-8.956.65,10.677,10.68-9.345,9.34-10.678-10.67Zm-4.68,22.62-1.334-1.34a3.357,3.357,0,0,0-4.6-4.59l-1.294-1.3a3.31,3.31,0,0,0,.448-1.73,3.44,3.44,0,0,0-.484-1.72l1.41-1.41,10.677,10.67-1.419,1.42A3.374,3.374,0,0,0,689.42,1133.52Zm16.545-19.2,1.325,1.33a3.365,3.365,0,0,0,0,3.42l-1.322,1.32-10.677-10.67,1.327-1.33a3.417,3.417,0,0,0,1.717.49,3.351,3.351,0,0,0,1.739-.45l1.29,1.29A3.358,3.358,0,0,0,705.965,1114.32Zm-14.091,9.75,1.594-.27,0.719,1.43a1.392,1.392,0,0,0,2.611-.41l0.266-1.61,1.61-.27a1.408,1.408,0,0,0,.76-0.39,1.357,1.357,0,0,0,.393-0.78,1.376,1.376,0,0,0-.742-1.44l-1.426-.72,0.264-1.59a1.386,1.386,0,0,0-2.349-1.2l-1.157,1.16-1.435-.72h0a1.394,1.394,0,0,0-1.872,1.87l0.724,1.43-1.158,1.16a1.384,1.384,0,0,0,1.2,2.35h0Zm1.291-2.47a1.387,1.387,0,0,0,.262-1.61l-0.43-.85,0.852,0.43a1.384,1.384,0,0,0,1.61-.26l0.659-.66-0.149.9a1.372,1.372,0,0,0,.739,1.46l0.828,0.42-0.944.16a1.39,1.39,0,0,0-1.151,1.15l-0.156.94-0.418-.83a1.376,1.376,0,0,0-1.459-.74l-0.9.15,0.659-.66h0Z" transform="translate(-680.219 -1106.47)"/>
</svg>
