<?xml version="1.0" encoding="utf-8"?>
<!-- Generator: Adobe Illustrator 24.1.2, SVG Export Plug-In . SVG Version: 6.00 Build 0)  -->
<svg version="1.1" id="Layer_1" xmlns="http://www.w3.org/2000/svg" xmlns:xlink="http://www.w3.org/1999/xlink" x="0px" y="0px"
	 viewBox="0 0 128.55 128.55" style="enable-background:new 0 0 128.55 128.55;" xml:space="preserve">
<style type="text/css">
	.st0{fill:#B5121B;}
	.st1{fill:#FFFFFF;}
</style>
<path class="st0" d="M54.55,83.9c-5.79,1-8.03-2.95-8.82-3.68c-0.79-0.72-0.42-0.75,0.53-1c0.95-0.25,3.67-0.24,4.65,0.01
	c-0.04-0.41-2.74-4.07-4.05-6.52c-0.44-0.83-0.86-1.64-1.24-2.55c-1.76,0.29-3.87,0.5-6.07-0.15c1,11.21,2.57,34.7,4.15,55.18
	c2.76,0.93,5.6,1.68,8.51,2.24c2.69-14.76,5.94-34.28,7.58-42.88C57.73,84.93,55.87,84.25,54.55,83.9z"/>
<path class="st0" d="M95.06,62.47c-1.72,0-4.78,0.07-6.99-1.43c-2.21-1.51-6.87-2.01-7.94-3.32c1.99-0.85,4.47-1.85,5.44-2.14
	c-1.94-1.02-6.75-4.83-7.94-6.29c-1.19-1.46-0.88-2.09-0.27-2.48c0.61-0.39,1.97-0.75,1.97-0.75c-1.07-1.72-2.02-3.74-2.31-5.2
	c-0.29-1.45-0.53-2.06,0.53-1.65c1.07,0.41,4.71,1.31,4.71,1.31c-1.28-2.18-2.28-3.66-2.43-5.78c1.36,0.24,3.35,0.7,5.53,2.28
	c0.05-2.06,0.27-3.74,1.58-5.46c0.97,0.61,2.57,1.7,4.15,2.26c1.58,0.56,2.28,0.95,2.84,1.87c0.65-1.55,2.93-5.97,4.2-6.94
	c1.6,1.31,2.74,2.55,3.86,4.05c0.68-0.83,1.77-1.43,2.09-1.43c0.32,0,1.46,1.6,2.31,2.47c1.21-0.9,4.95-3.76,5.51-4.1
	c0.56-0.34,0.85-0.29,0.88,0.39c0.02,0.47,0.08,4.76-0.08,8.54c0.86-0.81,1.44-1.26,2.12-1.81c0.73-0.6,0.48,1.75,0.73,3.27
	c0.92-0.8,1.85-1.5,2.59-1.8c1.51-0.61,2.99-1.2,4.38-1.25C112.28,15.19,90.06,0,64.28,0C28.78,0,0,28.78,0,64.28
	c0,26.76,16.36,49.7,39.62,59.37c-1.62-18.87-3.79-43.34-4.68-53.86c-1.21,2.07-2.65,3.68-5.66,3.68c-2.26,0-6.26,0.1-9.15-1.88
	c-2.89-1.97-8.99-2.64-10.39-4.35c2.61-1.11,5.85-2.41,7.12-2.8c-2.54-1.33-8.83-6.32-10.39-8.23c-1.56-1.91-1.15-2.73-0.35-3.24
	c0.79-0.51,2.57-0.98,2.57-0.98c-1.4-2.26-2.64-4.9-3.02-6.8s-0.7-2.7,0.7-2.16c1.4,0.54,6.16,1.72,6.16,1.72
	c-1.68-2.86-2.98-4.8-3.18-7.56c1.78,0.32,4.39,0.92,7.24,2.99c0.06-2.7,0.35-4.89,2.07-7.15c1.27,0.8,3.37,2.23,5.43,2.96
	c2.07,0.73,2.99,1.24,3.72,2.45c0.86-2.03,3.84-7.82,5.5-9.09c2.1,1.72,3.59,3.34,5.05,5.3c0.89-1.08,2.32-1.88,2.73-1.88
	c0.41,0,1.91,2.1,3.02,3.24c1.59-1.18,6.48-4.92,7.21-5.37c0.73-0.45,1.11-0.38,1.14,0.51c0.02,0.61,0.1,6.23-0.11,11.18
	c1.12-1.06,1.89-1.65,2.78-2.37c0.95-0.79,0.63,2.29,0.96,4.28c1.21-1.04,2.42-1.96,3.39-2.35c2.29-0.92,4.51-1.81,6.58-1.62
	c-1.46,7.54-3.43,10.77-5.72,14.2c-0.98,1.47-2.36,3.22-3.64,4.79c0.9,0.83,1.83,1.7,2.3,2.12c0.82-0.7,1.97-2,2.25-1.98
	c0.28,0.03,1.18,0.66,1.71,1.44c1.12-1.23,2.23-2.21,3.75-3.23c1.03,0.96,2.65,5.05,3.09,6.47c0.57-0.76,1.22-1.04,2.66-1.4
	c1.44-0.35,2.94-1.17,3.85-1.62c1,1.63,1.05,3.12,0.91,4.94c2.06-1.2,3.85-1.43,5.07-1.52c-0.31,1.84-1.32,3.06-2.64,4.87
	c0,0,3.28-0.47,4.26-0.74c0.98-0.27,0.71,0.24,0.33,1.5c-0.38,1.25-1.39,2.95-2.48,4.37c0,0,1.16,0.44,1.66,0.83
	c0.5,0.4,0.72,0.98-0.45,2.15c-1.17,1.18-5.73,4.11-7.53,4.83c0.83,0.34,2.92,1.43,4.6,2.36c-1.05,1.06-5.2,1.1-7.27,2.23
	c-2.08,1.13-4.76,0.8-6.28,0.65c-1.51-0.15-2.37-0.85-2.99-1.81c-1.71,9.16-5.69,30.08-7.93,42.21c2.85,0.39,5.76,0.6,8.72,0.6
	c14.75,0,28.33-4.98,39.18-13.33c-1.26-17.48-3.34-45.26-4.09-55.51C98.44,61.27,97.35,62.47,95.06,62.47z"/>
<path class="st0" d="M118.8,47.96c-1.75,2.62-5.19,6.43-5.29,6.89c1.14-0.17,4.2,0.12,5.24,0.51c1.04,0.39,1.46,0.46,0.49,1.19
	c-0.97,0.73-3.93,4.93-10.34,3.16c-1.53,0.24-3.72,0.81-6.03,0.1c0.79,10.21,2.08,34.41,3.36,53.14
	c13.66-11.79,22.32-29.21,22.32-48.67c0-9.33-2-18.19-5.58-26.19C121.88,43.16,120.45,45.49,118.8,47.96z"/>
<path class="st1" d="M38.95,64.24c0.17,1.06,0.37,3.05,0.61,5.76c2.2,0.66,4.31,0.44,6.07,0.15c-0.74-1.79-1.34-3.95-1.65-7.37
	c1.4,0.01,2.83,0.76,4.31,1.53c0.62,0.33,1.38,1.03,2.12,1.81c0.35-1.32,0.34-3.4,0.93-2.81c0.55,0.54,1.02,0.99,1.71,1.78
	c0.19-3.34,0.62-7.11,0.68-7.52c0.08-0.59,0.34-0.61,0.8-0.26c0.24,0.18,1.19,1.05,2.18,1.97c1.28-1.57,2.66-3.33,3.64-4.79
	c2.29-3.43,4.26-6.66,5.72-14.2c-2.06-0.19-4.29,0.7-6.58,1.62c-0.96,0.39-2.18,1.31-3.39,2.35c-0.33-1.99-0.01-5.07-0.96-4.28
	c-0.89,0.72-1.65,1.31-2.78,2.37c0.21-4.95,0.13-10.57,0.11-11.18c-0.03-0.89-0.41-0.95-1.14-0.51c-0.73,0.44-5.62,4.19-7.21,5.37
	c-1.11-1.14-2.6-3.24-3.02-3.24c-0.41,0-1.84,0.79-2.73,1.88c-1.46-1.97-2.95-3.59-5.05-5.3c-1.65,1.27-4.64,7.05-5.5,9.09
	c-0.73-1.21-1.65-1.72-3.72-2.45c-2.06-0.73-4.16-2.16-5.43-2.96c-1.72,2.26-2,4.45-2.07,7.15c-2.86-2.07-5.46-2.67-7.24-2.99
	c0.19,2.76,1.49,4.7,3.18,7.56c0,0-4.76-1.17-6.16-1.72c-1.4-0.54-1.08,0.25-0.7,2.16s1.62,4.54,3.02,6.8c0,0-1.78,0.48-2.57,0.98
	c-0.8,0.51-1.21,1.33,0.35,3.24c1.56,1.91,7.85,6.89,10.39,8.23c-1.27,0.38-4.51,1.68-7.12,2.8c1.4,1.71,7.5,2.38,10.39,4.35
	c2.89,1.97,6.89,1.88,9.15,1.88c3.02,0,4.45-1.61,5.66-3.68c-0.21-2.53-0.36-4.26-0.4-4.91L38.95,64.24z"/>
<path class="st1" d="M35.92,68c-0.33,0.61-0.64,1.21-0.98,1.78c0.89,10.52,3.06,34.99,4.68,53.86c1.34,0.56,2.71,1.06,4.09,1.53
	C42.13,104.69,40.56,81.2,39.56,70C38.36,69.64,37.13,69.02,35.92,68z"/>
<path class="st1" d="M39.56,70c-0.24-2.7-0.45-4.7-0.61-5.76l-4.4,0.64c0.04,0.64,0.18,2.37,0.4,4.91c0.33-0.57,0.65-1.17,0.98-1.78
	C37.13,69.02,38.36,69.64,39.56,70z"/>
<path class="st1" d="M115.56,40.14c-0.25-1.52-0.01-3.87-0.73-3.27c-0.68,0.55-1.26,1-2.12,1.81c0.16-3.78,0.1-8.07,0.08-8.54
	c-0.03-0.68-0.32-0.73-0.88-0.39c-0.56,0.34-4.29,3.2-5.51,4.1c-0.85-0.87-1.99-2.47-2.31-2.47c-0.32,0-1.41,0.61-2.09,1.43
	c-1.11-1.51-2.26-2.74-3.86-4.05c-1.26,0.97-3.54,5.39-4.2,6.94c-0.56-0.92-1.26-1.31-2.84-1.87c-1.58-0.56-3.18-1.65-4.15-2.26
	c-1.31,1.72-1.53,3.4-1.58,5.46c-2.18-1.58-4.17-2.04-5.53-2.28c0.15,2.11,1.14,3.59,2.43,5.78c0,0-3.64-0.9-4.71-1.31
	c-1.07-0.41-0.82,0.2-0.53,1.65c0.29,1.45,1.24,3.47,2.31,5.2c0,0-1.36,0.36-1.97,0.75c-0.61,0.39-0.92,1.02,0.27,2.48
	c1.19,1.46,5.99,5.27,7.94,6.29c-0.97,0.29-3.45,1.29-5.44,2.14c1.07,1.31,5.73,1.82,7.94,3.32c2.21,1.51,5.27,1.43,6.99,1.43
	c2.28,0,3.37-1.21,4.3-2.76c-0.15-2-0.24-3.34-0.27-3.8l3.36-0.49c0.12,0.74,0.26,2.26,0.42,4.38c2.31,0.71,4.49,0.14,6.03-0.1
	c6.41,1.77,9.37-2.43,10.34-3.16c0.97-0.73,0.56-0.8-0.49-1.19c-1.04-0.39-4.1-0.68-5.24-0.51c0.1-0.46,3.54-4.27,5.29-6.89
	c1.65-2.47,3.08-4.8,4.17-9.88c-0.15-0.33-0.29-0.66-0.45-0.99c-1.39,0.06-2.87,0.64-4.38,1.25
	C117.41,38.65,116.48,39.35,115.56,40.14z"/>
<path class="st1" d="M100.14,58.3c-0.26,0.49-0.51,0.96-0.78,1.41c0.75,10.25,2.83,38.03,4.09,55.51c0.95-0.73,1.87-1.49,2.78-2.27
	c-1.28-18.74-2.57-42.93-3.36-53.14C101.97,59.53,101.05,59.07,100.14,58.3z"/>
<path class="st1" d="M99.09,55.91c0.03,0.46,0.13,1.8,0.27,3.8c0.26-0.45,0.52-0.92,0.78-1.41c0.91,0.77,1.83,1.23,2.74,1.51
	c-0.16-2.12-0.31-3.65-0.42-4.38L99.09,55.91z"/>
<path class="st1" d="M60.28,64.16c1.36,0.51,1.91,0.6,0.64,1.56c-1.27,0.95-5.15,6.45-13.53,4.13c-0.53,0.08-1.12,0.2-1.75,0.3
	c0.38,0.91,0.8,1.72,1.24,2.55c1.31,2.46,4,6.11,4.05,6.52c-0.99-0.25-3.7-0.26-4.65-0.01c-0.95,0.25-1.32,0.28-0.53,1
	c0.79,0.73,3.03,4.68,8.82,3.68c1.32,0.35,3.18,1.03,5.25,0.62c0.34-1.8,0.62-3.13,0.8-3.83l3.68,0.72
	c-0.09,0.52-0.37,2.07-0.79,4.32c0.62,0.96,1.47,1.66,2.99,1.81c1.52,0.15,4.2,0.48,6.28-0.65c2.07-1.13,6.22-1.17,7.27-2.23
	c-1.68-0.92-3.77-2.01-4.6-2.36c1.8-0.73,6.36-3.66,7.53-4.83c1.17-1.18,0.95-1.76,0.45-2.15c-0.5-0.4-1.66-0.83-1.66-0.83
	c1.09-1.42,2.1-3.11,2.48-4.37c0.38-1.25,0.65-1.77-0.33-1.5c-0.98,0.27-4.26,0.74-4.26,0.74c1.32-1.81,2.33-3.02,2.64-4.87
	c-1.22,0.09-3.01,0.33-5.07,1.52c0.14-1.82,0.09-3.31-0.91-4.94c-0.91,0.45-2.41,1.27-3.85,1.62c-1.43,0.35-2.09,0.63-2.66,1.4
	c-0.44-1.42-2.06-5.51-3.09-6.47c-1.52,1.01-2.63,2-3.75,3.23c-0.53-0.79-1.43-1.42-1.71-1.44c-0.28-0.03-1.42,1.28-2.25,1.98
	c-0.47-0.43-1.4-1.29-2.3-2.12c-1.7,2.1-3.21,3.88-3.28,4.23C54.91,63.27,58.92,63.65,60.28,64.16z"/>
<path class="st1" d="M53.72,57.56c-0.06,0.41-0.49,4.18-0.68,7.52c-0.68-0.79-1.16-1.24-1.71-1.78c-0.59-0.59-0.58,1.49-0.93,2.81
	c-0.74-0.78-1.5-1.48-2.12-1.81c-1.48-0.77-2.91-1.52-4.31-1.53c0.32,3.42,0.91,5.59,1.65,7.37c0.64-0.1,1.22-0.22,1.75-0.3
	c8.39,2.32,12.26-3.18,13.53-4.13c1.27-0.95,0.73-1.05-0.64-1.56c-1.36-0.51-5.37-0.89-6.86-0.67c0.07-0.34,1.58-2.13,3.28-4.23
	c-0.99-0.91-1.94-1.78-2.18-1.97C54.06,56.95,53.8,56.97,53.72,57.56z"/>
<path class="st1" d="M62.38,83.43c-0.88,0.6-1.75,0.93-2.58,1.1c-1.64,8.6-4.88,28.12-7.58,42.88c1.1,0.21,2.21,0.39,3.34,0.54
	c2.24-12.13,6.22-33.05,7.93-42.21C63.05,85.06,62.72,84.27,62.38,83.43z"/>
<path class="st1" d="M60.6,80.7c-0.18,0.7-0.46,2.03-0.8,3.83c0.83-0.16,1.7-0.49,2.58-1.1c0.34,0.84,0.67,1.63,1.11,2.31
	c0.42-2.25,0.7-3.79,0.79-4.32L60.6,80.7z"/>
</svg>
