<svg xmlns="http://www.w3.org/2000/svg" width="38.124" height="48.34" viewBox="0 0 38.124 48.34">
  <defs>
    <style>
      .cls-1 {
        fill: #fff;
        fill-rule: evenodd;
      }
    </style>
  </defs>
  <path id="fountain" class="cls-1" d="M157.792,2208a0.692,0.692,0,0,1-.691-0.69v-2.04a2.665,2.665,0,0,1,.686-1.96c0.66-.65,1.634-0.78,2.991-0.78h0.405v-3.38l-0.252-.07a21.133,21.133,0,0,1-5.944-2.36c-3.959-2.36-6.051-5.76-6.051-9.83a0.692,0.692,0,0,1,.691-0.69h13.6v-3.01l-0.274-.04a20.206,20.206,0,0,1-4.322-1.2c-3.773-1.56-4.565-3.73-4.565-5.28a0.692,0.692,0,0,1,.691-0.69h12.553v-11.56a3.392,3.392,0,0,0-6.784,0v1.02a0.691,0.691,0,0,1-1.381,0v-1.02a4.777,4.777,0,0,1,4.773-4.77,4.724,4.724,0,0,1,3.819,1.91l0.263,0.35,0.264-.35a4.724,4.724,0,0,1,3.819-1.91,4.777,4.777,0,0,1,4.773,4.77v1.02a0.691,0.691,0,0,1-1.382,0v-1.02a3.392,3.392,0,0,0-6.783,0v11.56h12.553a0.692,0.692,0,0,1,.691.69,5.031,5.031,0,0,1-2.536,4.23,16.421,16.421,0,0,1-6.35,2.25l-0.276.05v3h13.6a0.692,0.692,0,0,1,.691.69,10.462,10.462,0,0,1-3.508,7.93,19.091,19.091,0,0,1-8.488,4.24l-0.251.06v3.41H175.2a4.191,4.191,0,0,1,3.009.78,2.665,2.665,0,0,1,.686,1.96v2.04a0.692,0.692,0,0,1-.691.69H157.792Zm3.084-4.09a3.352,3.352,0,0,0-2.115.38,1.36,1.36,0,0,0-.279.98v1.35h19.031v-1.35a1.331,1.331,0,0,0-.276-0.97,3.188,3.188,0,0,0-2.078-.39H174.67l-12.8.01-0.551-.01h-0.447Zm1.689-1.38H173.43v-3.12l-0.384.06a31.685,31.685,0,0,1-10.1.03l-0.383-.07v3.1Zm-12.192-14.59c0.358,3.36,2.464,6.14,6.089,8.04a25.221,25.221,0,0,0,11.466,2.53,25.587,25.587,0,0,0,11.555-2.53c3.655-1.9,5.778-4.68,6.139-8.04l0.039-.36H150.334Zm14.233-1.74h6.783v-2.82l-0.361.03a32.87,32.87,0,0,1-6.061,0l-0.361-.03v2.82Zm-8.929-8.38c1.253,2.99,7.265,4.35,12.32,4.35s11.068-1.36,12.321-4.35l0.191-.45H155.485Zm20.485-5.56a0.692,0.692,0,0,1-.691-0.69v-2.04a0.691,0.691,0,0,1,1.382,0v2.04A0.692,0.692,0,0,1,176.162,2172.26Zm-16.329,0a0.692,0.692,0,0,1-.691-0.69v-2.04a0.691,0.691,0,0,1,1.381,0v2.04A0.691,0.691,0,0,1,159.833,2172.26Z" transform="translate(-148.938 -2159.66)"/>
</svg>
