<?xml version="1.0" encoding="utf-8"?>
<!-- Generator: Adobe Illustrator 24.1.2, SVG Export Plug-In . SVG Version: 6.00 Build 0)  -->
<svg version="1.1" id="Layer_1" xmlns="http://www.w3.org/2000/svg" xmlns:xlink="http://www.w3.org/1999/xlink" x="0px" y="0px"
	 viewBox="0 0 128.55 128.55" style="enable-background:new 0 0 128.55 128.55;" xml:space="preserve">
<style type="text/css">
	.st0{clip-path:url(#SVGID_2_);fill:#D15433;}
	.st1{clip-path:url(#SVGID_2_);fill:#FFFFFF;}
</style>
<g>
	<defs>
		<path id="SVGID_1_" d="M0,64.27c0,35.5,28.78,64.27,64.27,64.27c35.5,0,64.27-28.78,64.27-64.27C128.55,28.78,99.77,0,64.27,0
			C28.78,0,0,28.78,0,64.27"/>
	</defs>
	<clipPath id="SVGID_2_">
		<use xlink:href="#SVGID_1_"  style="overflow:visible;"/>
	</clipPath>
	<path class="st0" d="M128.55,64.27c0,35.5-28.78,64.27-64.27,64.27S0,99.77,0,64.27S28.78,0,64.27,0S128.55,28.78,128.55,64.27"/>
	<polygon class="st1" points="45.24,8.66 42.57,9.93 45.93,22.32 52.69,19.12 	"/>
	<path class="st1" d="M57.92,15.8c0.32,0.68-0.24,1.61-1.24,2.09c-1.01,0.48-2.08,0.31-2.4-0.36c-0.32-0.67,0.24-1.61,1.24-2.09
		C56.52,14.96,57.6,15.12,57.92,15.8"/>
	<polygon class="st1" points="50.47,18.76 55.58,16.34 55.95,17.1 50.83,19.52 	"/>
	<path class="st1" d="M56.55,13.82c0.32,0.68-0.24,1.61-1.24,2.09c-1.01,0.48-2.08,0.31-2.4-0.36c-0.32-0.67,0.24-1.61,1.24-2.09
		C55.16,12.98,56.23,13.15,56.55,13.82"/>
	
		<rect x="49.01" y="15.53" transform="matrix(0.9039 -0.4277 0.4277 0.9039 -1.8438 23.7038)" class="st1" width="5.66" height="0.85"/>
	<path class="st1" d="M55.19,11.85c0.32,0.68-0.24,1.61-1.24,2.09c-1.01,0.48-2.08,0.31-2.4-0.36c-0.32-0.68,0.24-1.61,1.24-2.09
		C53.79,11.01,54.87,11.17,55.19,11.85"/>
	
		<rect x="47.65" y="13.56" transform="matrix(0.9038 -0.4279 0.4279 0.9038 -1.1283 22.9423)" class="st1" width="5.66" height="0.85"/>
	<path class="st1" d="M53.82,9.87c0.32,0.68-0.24,1.61-1.24,2.09c-1.01,0.48-2.08,0.31-2.4-0.36c-0.32-0.68,0.24-1.61,1.24-2.09
		C52.42,9.03,53.5,9.19,53.82,9.87"/>
	
		<rect x="46.28" y="11.58" transform="matrix(0.9038 -0.4279 0.4279 0.9038 -0.4136 22.172)" class="st1" width="5.66" height="0.85"/>
	<path class="st1" d="M40.05,24.25c0.32,0.68,1.4,0.84,2.4,0.36c1.01-0.48,1.56-1.41,1.25-2.09c-0.32-0.68-1.4-0.84-2.4-0.36
		C40.29,22.64,39.73,23.58,40.05,24.25"/>
	
		<rect x="41.86" y="21.54" transform="matrix(0.9038 -0.4279 0.4279 0.9038 -5.1002 21.2371)" class="st1" width="5.66" height="0.84"/>
	<path class="st1" d="M39.39,21.94c0.32,0.68,1.39,0.84,2.4,0.36c1.01-0.48,1.56-1.41,1.24-2.09c-0.32-0.67-1.4-0.84-2.4-0.36
		C39.63,20.33,39.07,21.27,39.39,21.94"/>
	<polygon class="st1" points="46.4,18.06 41.29,20.48 41.65,21.25 46.76,18.83 	"/>
	<path class="st1" d="M38.73,19.63c0.32,0.68,1.4,0.84,2.4,0.36c1.01-0.48,1.56-1.41,1.24-2.09c-0.32-0.67-1.39-0.84-2.4-0.36
		C38.97,18.03,38.41,18.96,38.73,19.63"/>
	<polygon class="st1" points="45.74,15.75 40.63,18.17 40.99,18.94 46.1,16.52 	"/>
	<path class="st1" d="M38.07,17.33c0.32,0.68,1.39,0.84,2.4,0.36c1.01-0.48,1.56-1.41,1.24-2.09c-0.32-0.68-1.4-0.84-2.4-0.36
		C38.3,15.71,37.75,16.65,38.07,17.33"/>
	
		<rect x="39.87" y="14.61" transform="matrix(0.9038 -0.428 0.428 0.9038 -2.3274 19.7248)" class="st1" width="5.66" height="0.85"/>
	<path class="st1" d="M113.08,79.28c-5.24-9.1-23.57-24.7-30.64-27.71c-4.99-2.13-11.79-4.7-16.26-7.39L53.22,20.24l-6.76,3.2
		l10.4,25.15c-0.76,5.15-3.08,12.05-4.6,17.26c-2.15,7.37-1.71,31.44,2.01,41.26c3.72,9.82,10.76,31.22,41.43,16.7l4.03-1.91
		C130.4,107.39,118.32,88.39,113.08,79.28 M68.49,101.66c-2.35,1.11-5.16,0.11-6.28-2.24c-1.11-2.35-0.11-5.16,2.24-6.27
		c2.35-1.11,5.16-0.11,6.28,2.24C71.85,97.73,70.84,100.55,68.49,101.66 M94.43,109.59L81.82,82.95c-0.46,0.46-0.98,0.88-1.55,1.23
		l12.41,26.23l-1.4,0.66L78.89,84.89c-0.61,0.26-1.24,0.44-1.88,0.56l12.52,26.45l-1.4,0.66L75.38,85.6
		c-3.43-0.01-6.71-1.93-8.28-5.24c-1.56-3.3-0.97-7.06,1.2-9.72l-7.2-15.21l1.4-0.66l6.96,14.7c0.49-0.42,1.03-0.79,1.62-1.1
		l-6.83-14.43l1.4-0.66l6.85,14.47c0.64-0.21,1.29-0.35,1.94-0.42l-7.04-14.88l1.4-0.66l7.35,15.52c3.15,0.26,6.09,2.14,7.54,5.21
		c1.45,3.07,1.04,6.52-0.75,9.13l12.91,27.28L94.43,109.59z M98.59,87.41c-2.35,1.11-5.16,0.11-6.28-2.24
		c-1.11-2.35-0.11-5.16,2.24-6.27c2.35-1.11,5.16-0.11,6.28,2.24C101.95,83.49,100.95,86.3,98.59,87.41"/>
</g>
</svg>
