<svg xmlns="http://www.w3.org/2000/svg" width="38.75" height="38.75" viewBox="0 0 38.75 38.75">
  <defs>
    <style>
      .cls-1 {
        fill: #fff;
        fill-rule: evenodd;
      }
    </style>
  </defs>
  <path id="area" class="cls-1" d="M1130.5,2297.76a1.085,1.085,0,0,1,.01-2.17h8.08a4.012,4.012,0,0,0,4-4v-26.41a4.014,4.014,0,0,0-4-4.01h-26.41a4.016,4.016,0,0,0-4.01,4.01v8.31a1.085,1.085,0,0,1-2.17-.01v-8.3a6.184,6.184,0,0,1,6.18-6.18h26.41a6.182,6.182,0,0,1,6.17,6.18v26.41a6.18,6.18,0,0,1-6.17,6.17h-8.09Zm-19.87,0a4.631,4.631,0,0,1-4.63-4.62v-11.53a4.631,4.631,0,0,1,4.63-4.62h11.52a4.631,4.631,0,0,1,4.63,4.62v11.53a4.631,4.631,0,0,1-4.63,4.62h-11.52Zm0-18.6a2.456,2.456,0,0,0-2.46,2.45v11.53a2.456,2.456,0,0,0,2.46,2.45h11.52a2.463,2.463,0,0,0,2.46-2.45v-11.53a2.463,2.463,0,0,0-2.46-2.45h-11.52Zm24.13,12.39a1.039,1.039,0,0,1-1.08-1.09v-8.43a1.037,1.037,0,0,1,1.08-1.08,1.052,1.052,0,0,1,1.09,1.09v8.43a1.049,1.049,0,0,1-1.09,1.08h0Zm0-14.65a1.045,1.045,0,0,1-1.08-1.09v-4.34l-4.9,4.89a1.075,1.075,0,0,1-.76.32,1.1,1.1,0,0,1-.77-0.32,1.086,1.086,0,0,1,0-1.54l4.89-4.89h-4.35a1.085,1.085,0,1,1,.01-2.17h6.52a1.528,1.528,0,0,1,1.53,1.52v6.54A1.056,1.056,0,0,1,1134.76,2276.9Zm-21.47-6.97a1.085,1.085,0,1,1,.01-2.17h8.28a1.085,1.085,0,0,1-.01,2.17h-8.28Z" transform="translate(-1106 -2259)"/>
</svg>
