<?xml version="1.0" encoding="utf-8"?>
<!-- Generator: Adobe Illustrator 24.1.2, SVG Export Plug-In . SVG Version: 6.00 Build 0)  -->
<svg version="1.1" id="Layer_1" xmlns="http://www.w3.org/2000/svg" xmlns:xlink="http://www.w3.org/1999/xlink" x="0px" y="0px"
	 viewBox="0 0 740.9 665.5" style="enable-background:new 0 0 740.9 665.5;" xml:space="preserve">
<style type="text/css">
	.st0{fill:#b3ca36;}
</style>
<g>
	<path class="st0" d="M735.6,218.9c-13.9-28.3-39.1-51-50.5-80.2C615.7,74.2,452.3-39.5,417.1,13.8c2.1-3.2,8.7,29.3,13,36.7
		C383,41.9,308,64.9,261.7,73.7c3.3,2.8,6.4,5.8,9.3,9.1c-26.1-0.2-49.2,6.9-69.4,21.4c6.4,1.7,11.5,5,15.4,9.8
		c-17.2-2.6-136.5,89.5-140,90.9c-32.4,13.7-41,142.5-64.4,177.6c-64.3,95.9,133.6,224.4,190.9,237.9c0.7,2.8,272,32.8,272.9,45.2
		c26,0,166.2-84.8,180.1-122c0,0,0,0,0.1,0c0.5,0,0.6,0.1,0.7,0.1c2.8,0.3,1,0.1-0.8-0.1c1.3-3.5,1.5-6.6,0.4-9.2
		c16.9-57.3,67.5-92,72.5-170.3C732.6,315.4,749.3,246.6,735.6,218.9z"/>
	<path class="st0" d="M735.6,218.9C740.8,229.5,725.4,198.3,735.6,218.9L735.6,218.9z"/>
</g>
</svg>
