<?xml version="1.0" encoding="utf-8"?>
<!-- Generator: Adobe Illustrator 24.1.3, SVG Export Plug-In . SVG Version: 6.00 Build 0)  -->
<svg version="1.1" id="Layer_1" xmlns="http://www.w3.org/2000/svg" xmlns:xlink="http://www.w3.org/1999/xlink" x="0px" y="0px"
	 viewBox="0 0 813.9 765" style="enable-background:new 0 0 813.9 765;" xml:space="preserve">
<style type="text/css">
	.st0{fill:#5CA133;}
	.st1{opacity:0.3;fill:#6DB045;enable-background:new    ;}
	.st2{fill:none;}
	.st3{opacity:0.3;fill:#FFFFFF;enable-background:new    ;}
	.st4{fill:#47853F;}
	.st5{fill:#794400;}
</style>
<path class="st0" d="M0,0v765h813.9V0H0z M780.2,263.5c-0.1-0.2-0.2-0.4-0.4-0.8C780,263,780.1,263.3,780.2,263.5z M327,749.4
	c17.9-0.3,35.4-1.8,52.6-4.5c42.3-6.7,82.2-20.7,118.4-40.6c-36.2,19.9-76,33.8-118.3,40.6C362.4,747.6,344.9,749.1,327,749.4z
	 M773.4,399.9c-0.1,1.6-0.3,3.1-0.4,4.6c-0.1,0.8-0.1,1.5-0.2,2.3c-5,78.3-55.6,113-72.5,170.3c0.4,1,0.6,2,0.7,3.1
	c0,0.7,0,1.5-0.1,2.3c-0.2,1.2-0.5,2.5-1,3.8c0,0,0,0,0.1,0c0.3,0,0.5,0,0.6,0.1h0.1c2.4,0.3,1.4,0.2-0.1,0c-0.2,0-0.5-0.1-0.7-0.1
	c-5.5,14.7-30.7,36.9-60.9,58.3c-46.1,32.7-103.5,63.7-119.2,63.7l0,0c0-0.1,0-0.2-0.1-0.3c0-0.1-0.1-0.2-0.1-0.2s0,0,0-0.1
	c-1.2-1.7-6.8-3.6-15.5-5.7c-0.5-0.1-1-0.2-1.5-0.4l0,0c-1.8-0.4-3.6-0.8-5.6-1.3c-0.2,0-0.3-0.1-0.5-0.1s-0.4-0.1-0.6-0.1
	c-38.1-8.1-114.4-18.4-172.5-26c-40.2-5.3-71.7-9.4-76-10.7l0,0c-0.1,0-0.2-0.1-0.2-0.1l0,0c-0.1,0-0.1,0-0.1-0.1l0,0
	c0,0-0.1,0-0.1-0.1c-32.2-7.6-109-51.6-158.5-105.7c-9.3-8.6-18.2-17.7-26.1-27c-33.2-38.7-51.3-82-29.2-120.5
	c0.9-1.6,1.9-3.2,3-4.8c23.4-35.1,32-163.9,64.4-177.6c3.5-1.4,122.8-93.5,140-90.9c-3.9-4.9-9.3-8.3-15.4-9.8
	c20.2-14.5,43.3-21.6,69.4-21.4c-2.9-3.3-6-6.3-9.3-9.1c46.3-8.8,121.3-31.8,168.4-23.2c-3.5-6-8.5-28.5-11.4-35.1l0,0l0,0
	c-0.7-1.5-1.2-2.2-1.6-1.6c0.9-1.3,1.8-2.5,2.8-3.6C483.8-11.4,641,98.4,708.7,161.3c0.5,1.2,0.9,2.3,1.4,3.5
	c6.7,5.8,13,11.3,18.6,16.5c11.2,28.6,35.5,50.9,49.6,78.4c-2.3-4.6-5-10.1,0.9,1.8c0.2,0.3,0.3,0.6,0.4,0.8
	C791.9,289.2,777.6,352.2,773.4,399.9z"/>
<path class="st1" d="M100.6,227.6c3.5-1.4,122.8-93.5,140-90.9c-3.9-4.9-9.3-8.3-15.4-9.8c20.2-14.5,43.3-21.6,69.4-21.4
	c-2.9-3.3-6-6.3-9.3-9.1c46.3-8.8,121.3-31.8,168.4-23.2c-3.5-6-8.5-28.5-11.4-35.1l0,0l0,0c-0.7-1.5-1.2-2.2-1.6-1.6
	c0.9-1.3,1.8-2.5,2.8-3.6c-17.3-2.6-35-3.9-53-3.9c-197.7,0-358,160.3-358,358c0,7.7,0.2,15.4,0.7,23c0.9-1.6,1.9-3.2,3-4.8
	C59.6,370.1,68.2,241.3,100.6,227.6z"/>
<path class="st1" d="M519.9,708.3L519.9,708.3c0-0.1,0-0.2-0.1-0.3c0-0.1-0.1-0.2-0.1-0.2s0,0,0-0.1c-1.2-1.7-6.8-3.6-15.5-5.7
	c-0.5-0.1-1-0.2-1.5-0.4l0,0c-1.8-0.4-3.6-0.8-5.6-1.3c-0.2,0-0.3-0.1-0.5-0.1s-0.4-0.1-0.6-0.1c-38.1-8.1-114.4-18.4-172.5-26
	c-40.2-5.3-71.7-9.4-76-10.7l0,0c-0.1,0-0.2-0.1-0.2-0.1l0,0c-0.1,0-0.1,0-0.1-0.1l0,0c0,0-0.1,0-0.1-0.1
	c-32.2-7.6-109-51.6-158.5-105.7c-9.3-8.6-18.2-17.7-26.1-27c53.9,123.2,175.2,210.1,317.2,214.4c42.3-6.7,82.2-20.7,118.4-40.6
	c-36.2,19.9-76,33.8-118.3,40.6c3.6,0.1,7.2,0.2,10.9,0.2c96.6,0,184.2-38.3,248.6-100.4C593.1,677.3,535.6,708.3,519.9,708.3
	L519.9,708.3z"/>
<path class="st2" d="M779.6,262.4L779.6,262.4c-0.1-0.2-0.2-0.5-0.4-0.8c-5.9-11.9-3.2-6.4-0.9-1.8c-14.1-27.5-38.4-49.8-49.6-78.4
	c-5.6-5.2-11.9-10.7-18.6-16.5c-0.5-1.2-0.9-2.3-1.4-3.5c-69.4-64.5-232.8-178.2-268-124.9c0.4-0.6,1,0.1,1.6,1.6
	c2.9,6.6,7.9,29.1,11.4,35.1c-47.1-8.6-122.1,14.4-168.4,23.2c3.3,2.8,6.4,5.8,9.3,9.1c-26.1-0.2-49.2,6.9-69.4,21.4
	c6.1,1.5,11.5,4.9,15.4,9.8c-17.2-2.6-136.5,89.5-140,90.9c-32.4,13.7-41,142.5-64.4,177.6c-32.7,48.8,2.4,106,52.3,152.2
	C138,611.5,214.8,655.5,247,663.1c0.6,2.4,196,24.3,255.7,38.5c10.7,2.5,17,4.8,17.2,6.7c26,0,166.2-84.8,180.1-122
	c0.2,0,0.5,0.1,0.7,0.1c-0.1-0.1-0.3-0.1-0.6-0.1c-0.1,0-0.1,0-0.1,0c1.3-3.5,1.5-6.6,0.4-9.2c16.9-57.3,67.5-92,72.5-170.3
	C776.1,358.5,792.5,290.5,779.6,262.4L779.6,262.4z"/>
<path class="st3" d="M390.8,746.3h-0.3c-3.9,0-7.8-0.1-11.7-0.2l0.1-2.5c3.9,0.1,7.8,0.2,11.6,0.2h0.3V746.3z M402.8,746l-0.1-2.5
	c4-0.1,8-0.3,11.9-0.6l0.2,2.5C410.9,745.7,406.8,745.9,402.8,746z M366.8,745.5c-4-0.3-8-0.6-12-1l0.2-2.5c3.9,0.4,7.9,0.7,11.9,1
	L366.8,745.5z M426.8,744.4l-0.2-2.5c3.9-0.4,7.9-0.9,11.8-1.4l0.3,2.5C434.8,743.6,430.8,744,426.8,744.4z M342.9,743.1
	c-4-0.5-8-1.1-11.9-1.8l0.4-2.5c3.9,0.6,7.9,1.2,11.8,1.8L342.9,743.1z M450.6,741.3l-0.4-2.5c3.9-0.7,7.8-1.4,11.7-2.2l0.5,2.4
	C458.4,739.9,454.5,740.6,450.6,741.3z M319.3,739.2c-3.9-0.8-7.9-1.6-11.7-2.6l0.6-2.4c3.8,0.9,7.8,1.8,11.6,2.5L319.3,739.2z
	 M474.1,736.5l-0.6-2.4c3.8-0.9,7.7-1.9,11.5-3l0.7,2.4C481.9,734.6,478,735.6,474.1,736.5z M295.9,733.7c-3.8-1-7.7-2.2-11.5-3.3
	l0.7-2.4c3.8,1.2,7.6,2.3,11.4,3.3L295.9,733.7z M497.2,730.1l-0.7-2.4c3.8-1.2,7.6-2.4,11.3-3.7l0.8,2.4
	C504.9,727.7,501.1,728.9,497.2,730.1z M272.9,726.6c-3.8-1.3-7.6-2.7-11.3-4.1l0.9-2.3c3.7,1.4,7.5,2.8,11.2,4.1L272.9,726.6z
	 M519.9,722.2l-0.9-2.3c3.7-1.4,7.4-2.9,11-4.5l1,2.3C527.4,719.3,523.6,720.8,519.9,722.2z M250.5,717.9c-3.7-1.6-7.4-3.2-11-4.9
	l1.1-2.3c3.6,1.7,7.3,3.3,10.9,4.8L250.5,717.9z M541.9,712.9l-1.1-2.3c3.6-1.7,7.2-3.4,10.7-5.2l1.1,2.2
	C549.2,709.4,545.5,711.2,541.9,712.9z M228.6,707.8c-3.6-1.8-7.1-3.7-10.6-5.6l1.2-2.2c3.5,1.9,7,3.8,10.6,5.6L228.6,707.8z
	 M563.3,702l-1.2-2.2c3.5-1.9,6.9-3.9,10.3-5.9l1.3,2.2C570.3,698.1,566.8,700.1,563.3,702z M207.6,696.2c-3.4-2-6.9-4.2-10.2-6.3
	l1.3-2.1c3.3,2.1,6.8,4.2,10.2,6.3L207.6,696.2z M583.9,689.8l-1.3-2.1c3.3-2.1,6.7-4.4,9.9-6.6l1.4,2.1
	C590.6,685.4,587.3,687.7,583.9,689.8z M187.3,683.3c-3.3-2.3-6.6-4.6-9.8-7l1.5-2c3.2,2.4,6.5,4.7,9.7,6.9L187.3,683.3z
	 M603.6,676.2l-1.5-2c3.2-2.4,6.4-4.8,9.5-7.2l1.6,2C610.1,671.4,606.9,673.8,603.6,676.2z M168,669.1c-3.1-2.5-6.3-5-9.3-7.6
	l1.6-1.9c3,2.6,6.1,5.1,9.2,7.5L168,669.1z M622.5,661.3l-1.6-1.9c3-2.6,6-5.2,9-7.8l1.7,1.9C628.5,656.1,625.5,658.8,622.5,661.3z
	 M149.6,653.5c-3-2.7-5.9-5.4-8.8-8.2l1.7-1.8c2.8,2.7,5.8,5.5,8.7,8.1L149.6,653.5z M640.2,645.2l-1.7-1.8c2.8-2.8,5.7-5.6,8.4-8.4
	l1.8,1.7C646,639.6,643.1,642.5,640.2,645.2z M132.4,636.9c-2.8-2.9-5.5-5.8-8.2-8.8l1.9-1.7c2.6,2.9,5.4,5.9,8.1,8.7L132.4,636.9z
	 M656.9,628l-1.9-1.7c2.6-2.9,5.3-5.9,7.9-9l1.9,1.6C662.3,622,659.6,625,656.9,628z M116.3,619.1c-2.6-3-5.1-6.2-7.6-9.3l2-1.6
	c2.4,3.1,5,6.2,7.5,9.2L116.3,619.1z M672.5,609.7l-2-1.6c2.5-3.1,4.9-6.3,7.2-9.5l2,1.5C677.4,603.3,674.9,606.5,672.5,609.7z
	 M101.4,600.3c-2.4-3.2-4.7-6.5-7-9.8l2.1-1.4c2.2,3.3,4.6,6.5,6.9,9.7L101.4,600.3z M686.7,590.3l-2.1-1.4c2.2-3.3,4.5-6.6,6.6-9.9
	l2.1,1.3C691.2,583.7,689,587,686.7,590.3z M87.8,580.5c-2.1-3.4-4.3-6.8-6.3-10.2l2.1-1.3c2,3.4,4.1,6.8,6.3,10.1L87.8,580.5z
	 M699.7,570.1l-2.2-1.3c2-3.4,4-6.9,5.9-10.4l2.2,1.2C703.7,563.1,701.7,566.7,699.7,570.1z M75.5,559.9c-1.9-3.5-3.8-7.1-5.6-10.6
	l2.2-1.1c1.8,3.5,3.7,7,5.6,10.5L75.5,559.9z M711.2,549l-2.2-1.1c1.8-3.5,3.5-7.1,5.2-10.7l2.3,1.1
	C714.8,541.8,713,545.4,711.2,549z M64.7,538.6c-1.7-3.6-3.3-7.3-4.9-10.9l2.3-1c1.5,3.6,3.2,7.3,4.8,10.9L64.7,538.6z M721.4,527.2
	l-2.3-1c1.5-3.6,3.1-7.4,4.5-11.1l2.3,0.9C724.4,519.8,722.9,523.5,721.4,527.2z M730,504.7l-2.4-0.8c1.3-3.8,2.6-7.6,3.7-11.4
	l2.4,0.7C732.6,497.1,731.3,500.9,730,504.7z M737.1,481.7l-2.4-0.7c1-3.8,2-7.7,2.9-11.6l2.4,0.6
	C739.2,474,738.2,477.9,737.1,481.7z M742.7,458.4l-2.5-0.5c0.8-3.9,1.5-7.8,2.2-11.7l2.5,0.4C744.2,450.5,743.4,454.5,742.7,458.4z
	 M746.6,434.7l-2.5-0.3c0.5-3.9,2.2-7.9,2.6-11.8l1.3,0.2C747.6,426.7,747.1,430.8,746.6,434.7z M31.5,399.5c-0.1-4-0.2-8-0.2-12
	h2.5c0,4,0.1,8,0.2,11.9L31.5,399.5z M33.9,375.6l-2.5-0.1c0.1-4,0.3-8,0.6-12l2.5,0.2C34.2,367.6,34.1,371.6,33.9,375.6z
	 M35.5,351.8l-2.5-0.2c0.4-4,0.9-8,1.4-11.9l2.5,0.3C36.3,343.8,35.9,347.8,35.5,351.8z M38.6,328.1l-2.5-0.4
	c0.7-3.9,1.4-7.9,2.2-11.8l2.5,0.5C40,320.3,39.2,324.2,38.6,328.1z M43.3,304.8l-2.4-0.6c0.9-3.9,1.9-7.8,3-11.6l2.4,0.7
	C45.2,297,44.2,300.9,43.3,304.8z M49.5,281.8l-2.4-0.7c1.2-3.8,2.4-7.7,3.7-11.4l2.4,0.8C51.9,274.2,50.7,278,49.5,281.8z
	 M57.3,259.2l-2.3-0.9c1.4-3.7,2.9-7.5,4.5-11.2l2.3,1C60.3,251.7,58.8,255.5,57.3,259.2z M66.6,237.2l-2.3-1.1
	c1.7-3.6,3.4-7.3,5.2-10.8l2.2,1.1C70.1,230,68.3,233.6,66.6,237.2z M77.4,215.8l-2.2-1.2c1.9-3.5,3.9-7,6-10.4l2.2,1.3
	C81.3,208.9,79.3,212.4,77.4,215.8z M89.6,195.3l-2.1-1.3c2.1-3.4,4.4-6.7,6.6-10l2.1,1.4C93.9,188.6,91.7,192,89.6,195.3z
	 M103.1,175.6l-2-1.5c2.4-3.2,4.8-6.4,7.3-9.6l2,1.5C107.9,169.3,105.4,172.4,103.1,175.6z M117.9,156.9l-1.9-1.6
	c2.6-3.1,5.2-6.1,7.9-9l1.9,1.7C123.1,150.9,120.4,153.9,117.9,156.9z M133.8,139.2l-1.8-1.7c2.8-2.9,5.6-5.7,8.5-8.5l1.7,1.8
	C139.4,133.5,136.6,136.4,133.8,139.2z M151,122.6l-1.7-1.9c3-2.7,6-5.3,9-7.9l1.6,1.9C156.9,117.3,153.9,120,151,122.6z
	 M169.1,107.2l-1.6-2c3.1-2.5,6.3-4.9,9.5-7.3l1.5,2C175.4,102.3,172.2,104.8,169.1,107.2z M188.3,93.1l-1.4-2.1
	c3.3-2.3,6.6-4.5,10-6.6l1.3,2.1C194.9,88.6,191.5,90.8,188.3,93.1z M208.3,80.2l-1.3-2.1c3.4-2,6.9-4,10.4-6l1.2,2.2
	C215.2,76.2,211.7,78.2,208.3,80.2z M229.1,68.7l-1.1-2.2c3.5-1.8,7.2-3.6,10.8-5.2l1.1,2.3C236.3,65.2,232.7,67,229.1,68.7z
	 M250.7,58.7l-1-2.3c3.7-1.6,7.4-3.1,11.1-4.5l0.9,2.3C258,55.6,254.3,57.1,250.7,58.7z M272.9,50.1l-0.8-2.4
	c3.8-1.3,7.6-2.6,11.4-3.8l0.7,2.4C280.4,47.5,276.6,48.8,272.9,50.1z M295.6,43l-0.7-2.4c3.8-1.1,7.7-2.1,11.6-3l0.6,2.4
	C303.3,41,299.4,42,295.6,43z M318.8,37.5l-0.5-2.4c3.9-0.8,7.9-1.5,11.8-2.2l0.4,2.5C326.6,35.9,322.7,36.7,318.8,37.5z
	 M442.4,34.1c-3.9-0.7-0.5-0.1-4.4-0.7l0.3-2.5c3.9,0.5,2.3,0.2,6.3,0.9L442.4,34.1z M342.3,33.5L342,31c3.9-0.5,8-1,11.9-1.4
	l0.3,2.5C350.2,32.5,346.2,32.9,342.3,33.5z M426.2,32c-3.9-0.4-7.9-0.7-11.9-1l0.2-2.5c4,0.3,8,0.6,12,1L426.2,32z M366,31.1
	l-0.2-2.5c4-0.3,8-0.5,12-0.6l0.1,2.5C374,30.6,370,30.8,366,31.1z M402.4,30.4c-3.9-0.1-8-0.2-11.9-0.2h-0.6v-2.5h0.6
	c4,0,8,0.1,12,0.2L402.4,30.4z"/>
<path class="st2" d="M700.8,586.4L700.8,586.4C702.2,586.6,703.2,586.7,700.8,586.4z"/>
<path class="st2" d="M327,749.4c17.9-0.3,35.5-1.8,52.6-4.5l0,0C362.4,747.6,344.8,749.1,327,749.4z"/>
<path class="st2" d="M779.8,262.7c0.2,0.4,0.3,0.6,0.4,0.8C780.1,263.3,780,263,779.8,262.7z"/>
<path class="st2" d="M700.7,586.4c-0.1-0.1-0.3-0.1-0.6-0.1c-0.1,0-0.1,0-0.1,0l0,0C700.2,586.3,700.5,586.4,700.7,586.4z"/>
<path class="st2" d="M748.5,387c0,12.4-0.6,24.7-1.9,36.8c3.2-11.3,5.4-23.5,6.3-37c3.1-48.2,19.5-116.2,6.5-144.4
	c-0.1-0.2-0.2-0.5-0.4-0.8c-5.9-11.9-3.2-6.4-0.9-1.8c-13.5-26.3-36.4-48-48.1-74.9c6.7,5.7,13,11.3,18.6,16.5
	c11.2,28.6,35.5,50.9,49.6,78.4c0.5,0.9,0.9,1.8,1.3,2.6c12.4,26.8-1.9,89.8-6.1,137.5c4.1-47.7,18.5-110.7,6.2-137.5
	c-0.1-0.2-0.2-0.5-0.4-0.8c-5.9-11.9-3.2-6.4-0.9-1.8c-14.1-27.5-38.4-49.8-49.6-78.4c-5.6-5.2-11.9-10.7-18.6-16.5
	c-0.5-1.2-0.9-2.3-1.4-3.5C641,98.5,483.8-11.3,443.5,32.9"/>
<path class="st2" d="M701,582.5c0.1-0.8,0.1-1.6,0.1-2.3C701.1,581,701.1,581.7,701,582.5z"/>
<path class="st1" d="M519.9,708.3L519.9,708.3c0-0.1,0-0.2-0.1-0.3C519.9,708.1,519.9,708.2,519.9,708.3z"/>
<path class="st1" d="M323.5,674c-40.2-5.3-71.7-9.4-76-10.7C251.7,664.7,283.3,668.7,323.5,674z"/>
<path class="st1" d="M379.6,744.8L379.6,744.8c42.3-6.7,82.2-20.7,118.4-40.6C461.8,724.1,421.9,738.1,379.6,744.8z"/>
<path class="st1" d="M519.7,707.7L519.7,707.7L519.7,707.7z"/>
<path class="st1" d="M496.6,700.2c-0.2,0-0.4-0.1-0.6-0.1C496.2,700.1,496.4,700.2,496.6,700.2z"/>
<path class="st1" d="M247.5,663.3c-0.1,0-0.2-0.1-0.2-0.1C247.3,663.3,247.4,663.3,247.5,663.3z"/>
<path class="st1" d="M247.2,663.2c-0.1,0-0.1,0-0.1-0.1C247.1,663.2,247.2,663.2,247.2,663.2z"/>
<path class="st1" d="M502.7,701.6L502.7,701.6c0.5,0.1,1,0.2,1.5,0.4c-2.2-0.5-4.5-1.1-7.1-1.6C499.1,700.8,500.9,701.2,502.7,701.6
	z"/>
<path class="st4" d="M759.4,242.4L759.4,242.4c0.1,0.1,0.1,0.2,0.2,0.3C759.5,242.6,759.5,242.5,759.4,242.4z"/>
<path class="st4" d="M759.6,242.7C760.4,244.5,760.2,244,759.6,242.7L759.6,242.7z"/>
<path class="st4" d="M639.1,644.6L639.1,644.6c30.1-21.4,55.4-43.6,60.9-58.3l0,0C694.5,601,669.3,623.2,639.1,644.6z"/>
<path class="st4" d="M773.4,399.9c-0.1,1.6-0.3,3.1-0.4,4.6C773.2,403,773.3,401.4,773.4,399.9z"/>
<path class="st4" d="M680.8,566.4L680.8,566.4C682.2,566.6,683.2,566.7,680.8,566.4z"/>
<path class="st4" d="M504.2,702c8.7,2.1,14.3,4.1,15.5,5.7C518.5,706,512.9,704.1,504.2,702z"/>
<path class="st4" d="M247.1,663.2L247.1,663.2L247.1,663.2z"/>
<path class="st4" d="M519.9,708.3L519.9,708.3c15.7,0,73.2-31,119.2-63.7l0,0C593.1,677.3,535.6,708.3,519.9,708.3z"/>
<path class="st4" d="M496,700.1c-38.1-8.2-114.4-18.4-172.5-26C381.6,681.7,457.8,692,496,700.1z"/>
<path class="st4" d="M497.1,700.3c-0.2,0-0.3-0.1-0.5-0.1C496.8,700.3,496.9,700.3,497.1,700.3z"/>
<path class="st4" d="M519.8,708c0-0.1-0.1-0.2-0.1-0.2S519.8,707.9,519.8,708z"/>
<path class="st4" d="M247.3,663.3C247.2,663.3,247.2,663.3,247.3,663.3C247.2,663.3,247.2,663.3,247.3,663.3z"/>
<path class="st4" d="M247.5,663.3L247.5,663.3L247.5,663.3z"/>
<path class="st5" d="M779.5,262.4c-0.4-0.8-0.8-1.7-1.3-2.6c-14.1-27.5-38.4-49.8-49.6-78.4c-5.6-5.2-11.9-10.8-18.6-16.5
	c11.7,26.9,34.6,48.6,48.1,74.9c-2.3-4.6-5-10.1,0.9,1.8c0.2,0.3,0.3,0.6,0.4,0.8l0,0l0,0c13,28.2-3.4,96.2-6.5,144.4
	c-0.9,13.5-3.1,25.8-6.3,37c-15.2,53.9-52.2,85.9-66.2,133.3c1.1,2.6,0.9,5.7-0.4,9.2h0.1c0.2,0,0.4,0,0.6,0.1h0.1
	c2.4,0.3,1.4,0.2-0.1,0c-0.2,0-0.5-0.1-0.7-0.1c-13.9,37.2-154.1,122-180.1,122c-0.9-12.4-272.2-42.4-272.9-45.2
	c-28.2-6.6-90.3-41-138.5-85.7C138,611.5,214.8,655.5,247,663.1c0,0,0,0,0.1,0.1l0,0c0,0,0.1,0,0.1,0.1l0,0c0.1,0,0.1,0.1,0.2,0.1
	l0,0c4.3,1.3,35.8,5.4,76,10.7c58.1,7.7,134.4,17.9,172.5,26c0.2,0,0.4,0.1,0.6,0.1s0.3,0.1,0.5,0.1c2.5,0.6,4.9,1.1,7.1,1.6
	c8.7,2.1,14.3,4.1,15.5,5.7c0,0,0,0,0,0.1c0.1,0.1,0.1,0.2,0.1,0.2c0,0.1,0.1,0.2,0.1,0.3c15.7,0,73.2-31,119.2-63.7
	c30.1-21.4,55.4-43.6,60.9-58.3l0,0c0.5-1.3,0.8-2.6,1-3.8c0.1-0.8,0.1-1.6,0.1-2.3c-0.1-1.1-0.3-2.2-0.7-3.1
	c16.9-57.3,67.5-92,72.5-170.3c0-0.8,0.1-1.5,0.2-2.3c0.1-1.5,0.2-3.1,0.4-4.6C777.6,352.2,791.9,289.2,779.5,262.4z M759.8,243.2
	c0.1,0.1,0.1,0.3,0.2,0.4C759.9,243.5,759.9,243.4,759.8,243.2z"/>
</svg>
