<?xml version="1.0" encoding="iso-8859-1"?>
<!-- Generator: Adobe Illustrator 21.0.0, SVG Export Plug-In . SVG Version: 6.00 Build 0)  -->
<svg version="1.1" id="Layer_1" xmlns="http://www.w3.org/2000/svg" xmlns:xlink="http://www.w3.org/1999/xlink" x="0px" y="0px"
     viewBox="0 0 508 508" style="enable-background:new 0 0 508 508;" xml:space="preserve">
	<style>
		path{
			fill:#5ca133 !important
		}
	</style>
    <g>
	<defs>
		<rect id="SVGID_1_" width="508" height="508"/>
	</defs>
        <clipPath id="SVGID_2_">
		<use xlink:href="#SVGID_1_"  style="overflow:visible;"/>
	</clipPath>
        <path style="clip-path:url(#SVGID_2_);fill: #FFF;" d="M384,226c-9.925,0-18-8.075-18-18c0-9.925,8.075-18,18-18c9.925,0,18,8.075,18,18
		C402,217.925,393.925,226,384,226"/>
        <path style="clip-path:url(#SVGID_2_);fill:#FFFFFF;" d="M384,224c-8.822,0-16-7.178-16-16c0-8.822,7.178-16,16-16
		c8.822,0,16,7.178,16,16C400,216.822,392.822,224,384,224"/>
        <path style="clip-path:url(#SVGID_2_);fill: #FFF;" d="M78,508c-43.009,0-78-34.99-78-78V118c0-43.009,34.991-78,78-78h27V18
		c0-9.925,8.075-18,18-18c9.925,0,18,8.075,18,18v22h94V18c0-9.925,8.075-18,18-18c9.925,0,18,8.075,18,18v22h95V18
		c0-9.925,8.075-18,18-18s18,8.075,18,18v22h28c43.01,0,78,34.991,78,78v114c0,9.925-8.075,18-18,18s-18-8.075-18-18V118
		c0-23.159-18.841-42-42-42h-28v22c0,9.925-8.075,18-18,18s-18-8.075-18-18V76h-95v22c0,9.925-8.075,18-18,18
		c-9.925,0-18-8.075-18-18V76h-94v22c0,9.925-8.075,18-18,18c-9.925,0-18-8.075-18-18V76H78c-23.159,0-42,18.841-42,42v312
		c0,23.159,18.841,42,42,42h153c9.925,0,18,8.075,18,18s-8.075,18-18,18H78z"/>
        <path style="clip-path:url(#SVGID_2_);fill:#FFFFFF;" d="M78,506c-41.907,0-76-34.094-76-76V118c0-41.907,34.093-76,76-76h29V18
		c0-8.822,7.178-16,16-16s16,7.178,16,16v24h98V18c0-8.822,7.178-16,16-16c8.822,0,16,7.178,16,16v24h99V18c0-8.822,7.178-16,16-16
		s16,7.178,16,16v24h30c41.906,0,76,34.093,76,76v114c0,8.822-7.178,16-16,16s-16-7.178-16-16V118c0-24.262-19.738-44-44-44h-30v24
		c0,8.822-7.178,16-16,16s-16-7.178-16-16V74h-99v24c0,8.822-7.178,16-16,16c-8.822,0-16-7.178-16-16V74h-98v24
		c0,8.822-7.178,16-16,16s-16-7.178-16-16V74H78c-24.262,0-44,19.738-44,44v312c0,24.262,19.738,44,44,44h153
		c8.822,0,16,7.178,16,16s-7.178,16-16,16H78z"/>
        <path style="clip-path:url(#SVGID_2_);fill: #FFF;" d="M389,508c-65.617,0-119-53.383-119-119s53.383-119,119-119s119,53.383,119,119
		S454.617,508,389,508 M389,306c-45.767,0-83,37.233-83,83s37.233,83,83,83s83-37.233,83-83S434.767,306,389,306"/>
        <path style="clip-path:url(#SVGID_2_);fill:#FFFFFF;" d="M389,506c-64.514,0-117-52.486-117-117s52.486-117,117-117
		s117,52.486,117,117S453.514,506,389,506 M389,304c-46.869,0-85,38.131-85,85s38.131,85,85,85s85-38.131,85-85S435.869,304,389,304
		"/>
        <path style="clip-path:url(#SVGID_2_);fill: #FFF;" d="M389,407c-9.925,0-18-8.075-18-18v-41c0-9.925,8.075-18,18-18c9.925,0,18,8.075,18,18
		v23h11c9.925,0,18,8.075,18,18s-8.075,18-18,18H389z"/>
        <path style="clip-path:url(#SVGID_2_);fill:#FFFFFF;" d="M389,405c-8.822,0-16-7.178-16-16v-41c0-8.822,7.178-16,16-16
		c8.822,0,16,7.178,16,16v25h13c8.822,0,16,7.178,16,16c0,8.822-7.178,16-16,16H389z"/>
        <path style="clip-path:url(#SVGID_2_);fill: #FFF;" d="M297,226c-9.925,0-18-8.075-18-18c0-9.925,8.075-18,18-18c9.925,0,18,8.075,18,18
		C315,217.925,306.925,226,297,226"/>
        <path style="clip-path:url(#SVGID_2_);fill:#FFFFFF;" d="M297,224c-8.822,0-16-7.178-16-16c0-8.822,7.178-16,16-16
		c8.822,0,16,7.178,16,16C313,216.822,305.822,224,297,224"/>
        <path style="clip-path:url(#SVGID_2_);fill: #FFF;" d="M210,313c-9.925,0-18-8.075-18-18s8.075-18,18-18c9.925,0,18,8.075,18,18
		S219.925,313,210,313"/>
        <path style="clip-path:url(#SVGID_2_);fill:#FFFFFF;" d="M210,311c-8.822,0-16-7.178-16-16c0-8.822,7.178-16,16-16
		c8.822,0,16,7.178,16,16C226,303.822,218.822,311,210,311"/>
        <path style="clip-path:url(#SVGID_2_);fill: #FFF;" d="M123,226c-9.925,0-18-8.075-18-18c0-9.925,8.075-18,18-18c9.925,0,18,8.075,18,18
		C141,217.925,132.925,226,123,226"/>
        <path style="clip-path:url(#SVGID_2_);fill:#FFFFFF;" d="M123,224c-8.822,0-16-7.178-16-16c0-8.822,7.178-16,16-16
		c8.822,0,16,7.178,16,16C139,216.822,131.822,224,123,224"/>
        <path style="clip-path:url(#SVGID_2_);fill: #FFF;" d="M123,313c-9.925,0-18-8.075-18-18s8.075-18,18-18c9.925,0,18,8.075,18,18
		S132.925,313,123,313"/>
        <path style="clip-path:url(#SVGID_2_);fill:#FFFFFF;" d="M123,311c-8.822,0-16-7.178-16-16c0-8.822,7.178-16,16-16
		c8.822,0,16,7.178,16,16C139,303.822,131.822,311,123,311"/>
        <path style="clip-path:url(#SVGID_2_);fill: #FFF;" d="M123,400c-9.925,0-18-8.075-18-18s8.075-18,18-18c9.925,0,18,8.075,18,18
		S132.925,400,123,400"/>
        <path style="clip-path:url(#SVGID_2_);fill:#FFFFFF;" d="M123,398c-8.822,0-16-7.178-16-16c0-8.822,7.178-16,16-16
		c8.822,0,16,7.178,16,16C139,390.822,131.822,398,123,398"/>
        <path style="clip-path:url(#SVGID_2_);fill: #FFF;" d="M210,400c-9.925,0-18-8.075-18-18s8.075-18,18-18c9.925,0,18,8.075,18,18
		S219.925,400,210,400"/>
        <path style="clip-path:url(#SVGID_2_);fill:#FFFFFF;" d="M210,398c-8.822,0-16-7.178-16-16c0-8.822,7.178-16,16-16
		c8.822,0,16,7.178,16,16C226,390.822,218.822,398,210,398"/>
        <path style="clip-path:url(#SVGID_2_);fill: #FFF;" d="M210,226c-9.925,0-18-8.075-18-18c0-9.925,8.075-18,18-18c9.925,0,18,8.075,18,18
		C228,217.925,219.925,226,210,226"/>
        <path style="clip-path:url(#SVGID_2_);fill:#FFFFFF;" d="M210,224c-8.822,0-16-7.178-16-16c0-8.822,7.178-16,16-16
		c8.822,0,16,7.178,16,16C226,216.822,218.822,224,210,224"/>
</g>
</svg>
