<svg xmlns="http://www.w3.org/2000/svg" width="55.969" height="45.34" viewBox="0 0 55.969 45.34">
  <defs>
    <style>
      .cls-1 {
        fill: #fff;
        fill-rule: evenodd;
      }
    </style>
  </defs>
  <path id="card-white" class="cls-1" d="M514.845,2087.47h14.923a0.879,0.879,0,0,0,.933-0.93v-8.33a0.876,0.876,0,0,0-.933-0.92H514.845a0.876,0.876,0,0,0-.932.92v8.33A0.879,0.879,0,0,0,514.845,2087.47Zm0.933-8.33h13.058v6.48H515.778v-6.48Zm-26.115-3.7h7.462a0.93,0.93,0,1,0,0-1.86h-7.462A0.93,0.93,0,1,0,489.663,2075.44Zm11.192,0h7.462a0.93,0.93,0,1,0,0-1.86h-7.462A0.93,0.93,0,1,0,500.855,2075.44Zm-11.192,3.7h12.125a0.925,0.925,0,1,0,0-1.85H489.663A0.925,0.925,0,1,0,489.663,2079.14Zm18.654-1.85h-2.8a0.925,0.925,0,1,0,0,1.85h2.8A0.925,0.925,0,1,0,508.317,2077.29Zm31.8-11.48a3.485,3.485,0,0,0-2.518-1.39l-2.239-.27v-4.45a3.73,3.73,0,0,0-3.73-3.7h-42.9a3.73,3.73,0,0,0-3.731,3.7v29.62a3.727,3.727,0,0,0,2.673,3.55,3.617,3.617,0,0,0,3.3,3.67l43.09,4.81h0.373a3.726,3.726,0,0,0,3.73-3.15l2.8-29.71A3.576,3.576,0,0,0,540.121,2065.81Zm-53.256-3.33H533.5v5.55H486.865v-5.55Zm1.866-4.63h42.9a1.862,1.862,0,0,1,1.866,1.85v0.93H486.865v-0.93A1.862,1.862,0,0,1,488.731,2057.85Zm-1.866,31.47v-19.44H533.5v19.44a1.861,1.861,0,0,1-1.865,1.85h-42.9A1.862,1.862,0,0,1,486.865,2089.32Zm52.23-21.2-2.8,29.71a1.881,1.881,0,0,1-2.052,1.67l-43-4.81a1.891,1.891,0,0,1-1.679-1.67h42.063a3.73,3.73,0,0,0,3.731-3.7V2065.9l2.145,0.19a1.6,1.6,0,0,1,1.213.65A1.848,1.848,0,0,1,539.1,2068.12Z" transform="translate(-485 -2056)"/>
</svg>
