<svg xmlns="http://www.w3.org/2000/svg" width="24.187" height="24.16" viewBox="0 0 24.187 24.16">
  <defs>
    <style>
      .cls-1 {
        fill: #5ca133;
        fill-rule: evenodd;
      }
    </style>
  </defs>
  <path id="check" class="cls-1" d="M778.472,1828.17a12.085,12.085,0,1,1,8.546-3.54A12.012,12.012,0,0,1,778.472,1828.17Zm0-22.73a10.646,10.646,0,1,0,7.525,3.12A10.568,10.568,0,0,0,778.472,1805.44Zm-1.695,14.6a0.737,0.737,0,0,1-.51-0.21l-3.077-3.08a0.734,0.734,0,0,1-.212-0.51,0.716,0.716,0,0,1,.212-0.51,0.726,0.726,0,0,1,1.021,0l2.566,2.57,5.951-5.96a0.723,0.723,0,0,1,1.233.51,0.7,0.7,0,0,1-.212.51l-6.462,6.47A0.73,0.73,0,0,1,776.777,1820.04Z" transform="translate(-766.375 -1804)"/>
</svg>
