<?xml version="1.0" encoding="utf-8"?>
<!-- Generator: Adobe Illustrator 21.0.0, SVG Export Plug-In . SVG Version: 6.00 Build 0)  -->
<svg version="1.1" id="Layer_1" xmlns="http://www.w3.org/2000/svg" xmlns:xlink="http://www.w3.org/1999/xlink" x="0px" y="0px"
	 viewBox="0 0 423.3 423.2" style="enable-background:new 0 0 423.3 423.2;" xml:space="preserve">
<style type="text/css">
	.st0{clip-path:url(#SVGID_2_);fill:#F37976;}
	.st1{clip-path:url(#SVGID_2_);fill-rule:evenodd;clip-rule:evenodd;fill:#FFFFFF;}
</style>
<g>
	<defs>
		<rect id="SVGID_1_" width="423.3" height="423.2"/>
	</defs>
	<clipPath id="SVGID_2_">
		<use xlink:href="#SVGID_1_"  style="overflow:visible;"/>
	</clipPath>
	<path class="st0" d="M0,211.6c0,116.9,94.8,211.6,211.6,211.6c116.9,0,211.6-94.7,211.6-211.6C423.3,94.8,328.5,0,211.6,0
		C94.8,0,0,94.8,0,211.6"/>
	<path class="st1" d="M255.3,138.2c5.9,10.4,3.5,46.8-13.6,45c-12.1-1.3-19.4-20.3-13.7-33.8c4.1-9.8,13.2-10.2,17.8-17.4
		c-6-17.8,8-90.6,35.7-83.9c23,5.6,0.9,37.3-6.3,58.6C269,124.9,271.5,132.4,255.3,138.2"/>
	<path class="st1" d="M190.5,179.1c4.9,28.7,52.3,18.7,64.4,43.5c-1.2,6-7.6,2.2-7.7,10.2c7,10,19.1,8,28,13
		c5.6,3.1,6.1,11.3,11.3,19.4c5,7.9,11.3,12.5,11.3,22.8c-8.2,28.5-22.2,43.5-36.9,65.3c-16.1,24-33.3,56.5-65.4,46.4
		c-13.3-4.2-19.4-16-18-27.1c1.5-12.5,17.7-41.6,26.9-51.2c5.6-5.8,12.5-6.5,15.9-11.2c9.3-12.5,5.5-23.2,4.9-35
		c-6.3-4.1-10.7-11.8-21.4-12.2c-6.4-0.2-10.4,7.1-16.2,12.2c-7.8,6.8-18.4,11.7-20.6,18.9c-2.2,7.6,5.2,16,8,26.4
		c4.1,15.2,2.1,50.1-18.2,52.7c-9,1.1-20.9-1.7-30.2-5.7c-29.4-12.8-43.5-44.2-28.3-87.3c5.6-5.8,16.4-5.5,23.9-11
		c3-2.2,5.2-7.7,9-11c6.1-5.2,14.9-6.6,18.3-11.6c5.8-8.3,1.8-19.1,3.6-30.8c1.9-12.1,11.4-20.8,12.6-30.4
		c1.4-11.2-10.8-21.5-10.9-31.8c-0.1-6.8,3.8-16,4.1-25c0.8-24.4,0.7-51.6,6.1-65.5c5.1-13,22.6-24.1,32.6-9.5
		c6.8,9.9-3.6,35-4.8,49.9c-0.4,4.9,1.4,9.1,1.4,14.1c0.1,7.7-3,15.3-2.9,20.8C191.7,152.7,204.9,162.4,190.5,179.1"/>
	<path class="st1" d="M369.8,118.1c-6.1,21.8-18.2,32.5-31,42c-3.5,10.6-10.4,19.9-16.8,29.1c-5.9,8.5-12.4,19.1-19,25.1
		c-3.6,3.3-15.6,8.6-20.2,6.4c-4.5-2.2-7.4-15.1-5.8-22.3c4.5-20.8,33.7-24.1,46.3-51c9-19.3,12.5-42.2,31-42
		C363.3,105.5,368.5,112.8,369.8,118.1"/>
	<path class="st1" d="M330.4,252.3c2.8-4.1,1.3-11,3.7-16c1.2-2.6,5.4-4.3,9.8-9.6c6.9-8.6,17.3-22.3,24.5-24.5
		c9.1-2.8,17.7,1.9,19.6,10.5c-5.2,19.7-18.3,24.8-32.4,27.9C349.4,248.4,342.7,255.6,330.4,252.3"/>
	<path class="st1" d="M327,255.8c-2.9,13-12.2,14.3-20.2,17.8C306.1,267.3,318.7,250.5,327,255.8"/>
	<path class="st1" d="M73.2,261.9c-20.6-2.7-23.4-17.1-29.9-33c-4.4-10.7-15.2-33.2,5.7-30.2c0.3,0,0.8,0.2,1,0.3
		C70.5,209.2,95.1,232.7,73.2,261.9"/>
</g>
</svg>
