<svg xmlns="http://www.w3.org/2000/svg" width="20.719" height="20.72" viewBox="0 0 20.719 20.72">
  <defs>
    <style>
      .cls-1 {
        fill: #fff;
        fill-rule: evenodd;
      }
    </style>
  </defs>
  <path id="clok" class="cls-1" d="M730.022,1766.45a0.863,0.863,0,0,0-.4,1.15,8.641,8.641,0,1,1-2.419-3.01,0.863,0.863,0,0,0,1.074-1.35,10.318,10.318,0,1,0,2.9,3.61A0.859,0.859,0,0,0,730.022,1766.45Zm-8.179-2a0.867,0.867,0,0,0-.863.87v6.04a0.858,0.858,0,0,0,.863.86h4.316a0.86,0.86,0,1,0,0-1.72h-3.453v-5.18A0.867,0.867,0,0,0,721.843,1764.45Z" transform="translate(-711.469 -1761)"/>
</svg>
