<?xml version="1.0" encoding="utf-8"?>
<!-- Generator: Adobe Illustrator 24.1.3, SVG Export Plug-In . SVG Version: 6.00 Build 0)  -->
<svg version="1.1" id="Layer_1" xmlns="http://www.w3.org/2000/svg" xmlns:xlink="http://www.w3.org/1999/xlink" x="0px" y="0px"
	 viewBox="0 0 24.28 26.19" style="enable-background:new 0 0 24.28 26.19;" xml:space="preserve">
<style type="text/css">
	.st0{fill-rule:evenodd;clip-rule:evenodd;fill:#5CA133;}
</style>
<path id="download" class="st0" d="M2.59,26.2C1.16,26.2,0,25.04,0,23.61V11.19C0,9.76,1.16,8.6,2.59,8.6h4.78
	c0.37,0,0.68,0.3,0.68,0.68s-0.3,0.68-0.68,0.68H2.59c-0.68,0-1.23,0.56-1.24,1.24v12.42c0,0.68,0.55,1.24,1.24,1.24h19.12
	c0.68,0,1.23-0.56,1.24-1.24V11.19c0-0.68-0.55-1.24-1.24-1.24h-4.78c-0.37,0-0.68-0.3-0.68-0.68s0.3-0.68,0.68-0.68l0,0h4.78
	c1.43,0,2.59,1.16,2.59,2.59v12.42c0,1.43-1.16,2.59-2.59,2.59H2.59z M12.15,19.51c-0.18,0-0.35-0.07-0.48-0.2l-4.78-4.78
	c-0.25-0.26-0.25-0.67,0-0.93c0.13-0.14,0.3-0.21,0.49-0.21c0.17,0,0.34,0.07,0.47,0.19l3.62,3.62V0.68c0-0.37,0.3-0.68,0.67-0.68
	c0.37,0,0.68,0.3,0.68,0.67c0,0,0,0,0,0.01V17.2l3.63-3.62c0.12-0.12,0.29-0.19,0.47-0.19c0.37,0,0.68,0.3,0.68,0.68
	c0,0.18-0.07,0.34-0.19,0.47l-4.78,4.77C12.5,19.44,12.33,19.51,12.15,19.51L12.15,19.51L12.15,19.51z"/>
</svg>
