<svg xmlns="http://www.w3.org/2000/svg" width="24.281" height="26.19" viewBox="0 0 24.281 26.19">
  <defs>
    <style>
      .cls-1 {
        fill: #fff;
        fill-rule: evenodd;
      }
    </style>
  </defs>
  <path id="download" class="cls-1" d="M630.588,3439.2a2.591,2.591,0,0,1-2.588-2.59v-12.42a2.591,2.591,0,0,1,2.588-2.59h4.78a0.675,0.675,0,1,1,0,1.35h-4.78a1.242,1.242,0,0,0-1.236,1.24v12.42a1.242,1.242,0,0,0,1.236,1.24h19.12a1.242,1.242,0,0,0,1.236-1.24v-12.42a1.242,1.242,0,0,0-1.236-1.24h-4.78a0.675,0.675,0,1,1,0-1.35h4.78a2.591,2.591,0,0,1,2.587,2.59v12.42a2.591,2.591,0,0,1-2.587,2.59h-19.12Zm9.561-6.69a0.666,0.666,0,0,1-.479-0.2l-4.78-4.78a0.666,0.666,0,0,1,0-.93,0.65,0.65,0,0,1,.487-0.21,0.683,0.683,0,0,1,.469.19l3.623,3.62v-16.52a0.676,0.676,0,1,1,1.352,0v16.52l3.628-3.62a0.668,0.668,0,0,1,.466-0.19,0.678,0.678,0,0,1,.486,1.15l-4.778,4.77a0.663,0.663,0,0,1-.477.2h0Z" transform="translate(-628 -3413)"/>
</svg>
