<?xml version="1.0" encoding="utf-8"?>
<!-- Generator: Adobe Illustrator 21.0.0, SVG Export Plug-In . SVG Version: 6.00 Build 0)  -->
<svg version="1.1" id="Layer_1" xmlns="http://www.w3.org/2000/svg" xmlns:xlink="http://www.w3.org/1999/xlink" x="0px" y="0px"
	 viewBox="0 0 350.8 431" style="enable-background:new 0 0 350.8 431;" xml:space="preserve">
<style type="text/css">
	.st0{clip-path:url(#SVGID_2_);fill:#76AF52;}
</style>
<g>
	<defs>
		<rect id="SVGID_1_" width="350.8" height="431"/>
	</defs>
	<clipPath id="SVGID_2_">
		<use xlink:href="#SVGID_1_"  style="overflow:visible;"/>
	</clipPath>
	<path class="st0" d="M234.4,367.7c-6.6,0-12-5.4-12-12v-189c0-6.6,5.4-12,12-12c6.6,0,12,5.4,12,12v189
		C246.4,362.3,241,367.7,234.4,367.7"/>
	<path class="st0" d="M234.4,156.7c-5.5,0-10,4.5-10,10v189c0,5.5,4.5,10,10,10c5.5,0,10-4.5,10-10v-189
		C244.4,161.2,239.9,156.7,234.4,156.7"/>
	<path class="st0" d="M116.4,367.7c-6.6,0-12-5.4-12-12v-189c0-6.6,5.4-12,12-12c6.6,0,12,5.4,12,12v189
		C128.4,362.3,123,367.7,116.4,367.7"/>
	<path class="st0" d="M116.4,156.7c-5.5,0-10,4.5-10,10v189c0,5.5,4.5,10,10,10c5.5,0,10-4.5,10-10v-189
		C126.4,161.2,121.9,156.7,116.4,156.7"/>
	<path class="st0" d="M80.8,431c-14,0-27.6-5.9-37.2-16.1c-9.7-10.2-15.2-24.5-15.2-39.4V130.6C9.8,124.9-2.2,106.4,0.3,87
		c2.6-19.9,19.7-35,39.9-35h49.2V41.5c-0.1-11,4.4-21.7,12.1-29.4C109.3,4.3,119.7,0,130.7,0h89.4c11,0,21.4,4.3,29.2,12.1
		c7.8,7.8,12.2,18.5,12.1,29.5V52h49.2c20.1,0,37.3,15.1,39.9,35c2.5,19.4-9.5,37.9-28.1,43.6v244.9c0,14.9-5.5,29.3-15.2,39.4
		c-9.6,10.2-23.2,16-37.2,16.1H80.8z M52.4,375.5c0,17.7,12.5,31.5,28.4,31.5H270c15.9,0,28.4-13.8,28.4-31.5V132h-246V375.5z
		 M40.2,76c-8.8,0-16,7.2-16,16c0,8.8,7.2,16,16,16h270.4c8.8,0,16-7.2,16-16c0-8.8-7.2-16-16-16H40.2z M237.4,52V41.5
		c0.1-4.7-1.8-9.2-5.1-12.5c-3.3-3.2-7.6-5-12.2-5h-89.5c-4.6,0-8.9,1.8-12.2,5c-3.3,3.3-5.1,7.8-5.1,12.5V52H237.4z"/>
	<path class="st0" d="M30.4,129.1v246.4c0,14.6,5.3,28.2,14.7,38.1c9.3,9.8,22.2,15.4,35.7,15.4H270c13.5,0,26.4-5.6,35.7-15.4
		c9.3-9.8,14.7-23.5,14.7-38.1V129.1c18.5-4.9,30.6-22.8,28.1-41.9C346,68.2,329.8,54,310.6,54h-51.2V41.5
		c0.1-10.5-4.1-20.6-11.5-28C240.4,6,230.3,1.9,219.8,2H131c-10.5-0.1-20.6,4-28.1,11.5c-7.4,7.4-11.6,17.5-11.5,28V54H40.2
		C21,54,4.8,68.2,2.3,87.3C-0.2,106.3,11.9,124.2,30.4,129.1 M270,409H80.8c-17.1,0-30.4-14.7-30.4-33.5V130h250v245.5
		C300.4,394.3,287.1,409,270,409 M111.4,41.5c-0.1-5.2,2-10.2,5.7-13.9c3.7-3.7,8.7-5.7,13.9-5.6h88.8c5.2-0.1,10.2,1.9,13.9,5.6
		c3.7,3.7,5.7,8.7,5.7,13.9V54h-128V41.5z M40.2,74h270.4c9.9,0,18,8.1,18,18c0,9.9-8.1,18-18,18H40.2c-9.9,0-18-8.1-18-18
		C22.2,82.1,30.3,74,40.2,74"/>
	<path class="st0" d="M175.4,367.7c-6.6,0-12-5.4-12-12v-189c0-6.6,5.4-12,12-12c6.6,0,12,5.4,12,12v189
		C187.4,362.3,182,367.7,175.4,367.7"/>
	<path class="st0" d="M175.4,156.7c-5.5,0-10,4.5-10,10v189c0,5.5,4.5,10,10,10c5.5,0,10-4.5,10-10v-189
		C185.4,161.2,180.9,156.7,175.4,156.7"/>
</g>
</svg>
