<?xml version="1.0" encoding="utf-8"?>
<!-- Generator: Adobe Illustrator 24.1.3, SVG Export Plug-In . SVG Version: 6.00 Build 0)  -->
<svg version="1.1" id="Layer_1" xmlns="http://www.w3.org/2000/svg" xmlns:xlink="http://www.w3.org/1999/xlink" x="0px" y="0px"
	 viewBox="0 0 424.68 502.68" style="enable-background:new 0 0 424.68 502.68;" xml:space="preserve">
<style type="text/css">
	.st0{fill-rule:evenodd;clip-rule:evenodd;fill:#FFFFFF;}
</style>
<path id="evening_garden-watermark" class="st0" d="M150.55,215.62c39.99,27.43,92.68,27.66,132.9,0.56
	c-8.18-1.09-16.45-2.05-24.84-2.77C222.61,210.28,186.39,211.02,150.55,215.62z M217.4,0C152.14-0.01,99.23,52.89,99.22,118.15
	c0,34.82,15.36,67.88,41.98,90.33c33.25-7.06,67.13-10.74,101.11-11l-9.69-2.51c0,0-1.25-17.52-3.39-20.8
	c-2.78-2.06-2.2-4.82-1.63-5.61c-1.17-0.1-11.81-0.79-30.66-10.66c-6.96-1.42-36.33-8.19-43.04-14.24
	c-0.34-0.98,1.52-1.22,1.52-1.22s-7.96-0.87-8.13-1.46c-0.19-0.61-0.57-1.31,4.95-1.23s33.18-0.59,33.18-0.59
	c3.62-2.47,7.88-3.84,12.26-3.94c1.98-1.01,4.23-1.39,6.44-1.08c3.7-1.16,16.68-9.2,44.78-5.84c0,0,9.41-13.59,20.36-6.93
	c5.82,3.54,7.83,7.62,8.49,14.68c0,0,7.7,5.96,7.96,10.03c0,0-10.55-5.85-14.4-5.38c0,0,0.68,9.51-8.89,18.06
	c-7.24,6.48-13.95,8.42-18.52,9l0.11-0.01c0,0-2.27,0.4-5.79,0.67c-0.21,1.9-2.04,14.96-0.78,23.84c3.51,1.09,11.72,2.8,11.45,2.93
	c-0.53,0.24-0.77,0.87-0.52,1.4c0.02,0.05,0.05,0.11,0.09,0.15c0,0-0.68-0.13-1.37-0.32c-1.24-0.36-1.52,0.36-1.54,1.02
	c0.59,0,1.17-0.02,1.76-0.02c18.37,0.01,36.72,0.99,54.99,2.93c45.41-46.85,44.23-121.64-2.62-167.05
	C277.61,11.93,248.11-0.01,217.4,0z M234.55,168.65c-1.11,0.04-2.2,0.08-3.29,0.08c-0.27,3.19,3.34,21.73,3.34,21.73
	s1.4-13.9,0-16.23c-1.55-1.51-1.59-4-0.07-5.55C234.54,168.66,234.55,168.65,234.55,168.65z M424.57,230.27
	c-36.11-14.78-77.56-25.2-122.29-29.93c-5.71,5.92-12.02,11.23-18.83,15.83c51.99,6.91,99.7,21.22,140.25,40.71
	c0.6-7.36,0.98-14.78,0.98-22.29C424.68,233.15,424.59,231.72,424.57,230.27z M150.55,215.62c-3.24-2.22-6.35-4.61-9.35-7.13
	c-48.35,10.39-91.28,27.63-125.45,49.83C52.53,237.23,98.83,222.37,150.55,215.62z M245.63,198.34c-0.07-0.3-0.1-0.6-0.09-0.9
	c-1.08,0-2.15,0.03-3.23,0.04L245.63,198.34z M87.16,377.4c-1.54-14.51-10.21-18.86-11.74-33.38c31.17-4.1,41.48-22.83,41.68-48.66
	c-34.25,1.94-40.71,23.38-45.06,46.29c-3.7-5.68-9.21-27.18-12.61-21.41l3.22,8.96l1.45,4.45c-15.76-23.7-35.22-29.58-60.6-17.85
	c14.59,29.95,37.55,33.48,62.91,23.84l0.38,0.77c12.1,31.35,25.39,67.12,19.44,99.18C74.43,411.69,31.58,395.82,0,419.25
	c15.52,27.39,47.83,48.01,87.75,28.92c0.44,18.15,0.03,35.72-4.79,50.17c6.51,1.7,13.14,3.11,19.84,4.33
	c2.82-36.16,3.97-84.73-13.63-120.85c38.3,13.37,86.25-11.77,88.04-46.77C137.61,319.89,97.11,349.02,87.16,377.4z"/>
</svg>
