<?xml version="1.0" encoding="iso-8859-1"?>
<!-- Generator: Adobe Illustrator 21.0.0, SVG Export Plug-In . SVG Version: 6.00 Build 0)  -->
<svg version="1.1" id="Layer_1" xmlns="http://www.w3.org/2000/svg" xmlns:xlink="http://www.w3.org/1999/xlink" x="0px" y="0px"
	 viewBox="0 0 60.398 39.888" style="enable-background:new 0 0 60.398 39.888;" xml:space="preserve">
<g>
	<defs>
		<rect id="SVGID_1_" y="0" width="60.398" height="39.888"/>
	</defs>
	<clipPath id="SVGID_2_">
		<use xlink:href="#SVGID_1_"  style="overflow:visible;"/>
	</clipPath>
	<path style="clip-path:url(#SVGID_2_);fill-rule:evenodd;clip-rule:evenodd;fill:#5CA133;" d="M7.666,21.246
		c-1.483,0-2.689-1.198-2.689-2.669c0-1.472,1.206-2.669,2.689-2.669c1.482,0,2.688,1.198,2.688,2.669S9.148,21.246,7.666,21.246
		 M7.666,17.016c-0.866,0-1.57,0.701-1.57,1.561s0.704,1.562,1.57,1.562c0.866,0,1.57-0.7,1.57-1.562
		C9.236,17.717,8.531,17.016,7.666,17.016"/>
	<path style="clip-path:url(#SVGID_2_);fill-rule:evenodd;clip-rule:evenodd;fill:#5CA133;" d="M21.125,7.337
		c-2.038,0-3.696-1.646-3.696-3.668C17.429,1.646,19.086,0,21.125,0c2.038,0,3.696,1.646,3.696,3.669
		C24.821,5.691,23.163,7.337,21.125,7.337 M21.125,1.108c-1.421,0-2.577,1.148-2.577,2.561c0,1.412,1.156,2.559,2.577,2.559
		c1.421,0,2.577-1.148,2.577-2.559C23.702,2.256,22.546,1.108,21.125,1.108"/>
	<path style="clip-path:url(#SVGID_2_);fill-rule:evenodd;clip-rule:evenodd;fill:#5CA133;" d="M27.249,22.619
		c-0.504-0.378-0.8-0.869-0.9-1.432l-1.343-7.521v23.911c0,1.423-0.783,2.309-2.044,2.309c-0.766,0-1.415-0.304-1.838-0.806
		c-0.429,0.499-1.078,0.806-1.832,0.806c-1.284,0-2.05-0.863-2.05-2.309V15.77l-0.967,5.419c-0.153,0.854-0.759,1.53-1.525,1.712
		l-3.71,1.989v12.955c0.002,1.183-0.794,2.041-1.889,2.041c-0.579,0-1.093-0.232-1.46-0.611c-0.355,0.386-0.881,0.611-1.514,0.611
		c-1.111,0-1.886-0.84-1.886-2.041V27.168l-1.416,2.035c-0.41,0.611-1.407,0.754-2.117,0.284c-0.734-0.488-0.977-1.409-0.542-2.055
		l3.399-5.057c0.055-0.083,0.124-0.161,0.209-0.235c0.239-0.304,0.523-0.352,0.677-0.352h5.691l2.389-1.369l1.903-10.663
		c0.104-0.58,0.426-1.098,0.885-1.421c0.214-0.204,0.575-0.342,0.96-0.342h9.86c0.956,0.001,1.768,0.742,1.949,1.762l0.894,5.003
		l1.779-3.982c0.328-0.734,1.048-1.209,1.833-1.209l9.44-0.007c0.327,0,0.649,0.105,0.907,0.296c0.324,0.174,0.636,0.514,0.817,0.92
		l4.206,9.405c0.029,0.067,0.056,0.137,0.079,0.207l2.483,1.399h5.313c0.258,0,0.494,0.12,0.674,0.343
		c0.091,0.077,0.162,0.157,0.222,0.246l3.397,5.054c0.435,0.646,0.192,1.567-0.542,2.055c-0.708,0.469-1.702,0.334-2.121-0.291
		l-0.908-1.346l1.232,5.649h-1.736v4.345c0,1.068-0.917,2.041-1.925,2.041c-0.504,0-1.053-0.264-1.449-0.687
		c-0.396,0.427-0.944,0.69-1.448,0.69c-1.009,0-1.928-0.973-1.928-2.041v-4.344h-1.735l1.735-7.958v-0.841l-3.554-1.82
		c-0.152-0.041-0.297-0.099-0.435-0.174c-0.297-0.108-0.564-0.355-0.725-0.678c-0.036-0.037-0.106-0.16-0.164-0.288l-2.429-5.43
		l3.521,12.58h-4.295v8.687c0,1.467-0.756,2.309-2.076,2.309c-0.712,0-1.325-0.277-1.741-0.742c-0.38,0.463-0.92,0.74-1.517,0.74
		c-1.523,0-2.431-0.863-2.431-2.309V28.89h-4.294l3.797-13.571l-2.87,6.421c-0.329,0.734-1.047,1.208-1.832,1.208
		c-0.296-0.004-0.533-0.057-0.758-0.158c-0.058-0.027-0.11-0.053-0.16-0.081L27.249,22.619z M28.014,21.78
		c0.086,0.039,0.22,0.076,0.258,0.059c0.379,0,0.702-0.22,0.849-0.547l3.918-8.763h1.591l-0.02,1.237l-3.923,14.016h3.943v9.795
		c0,0.831,0.405,1.2,1.313,1.2c0.483,0,0.902-0.473,0.953-1.076c-0.004,0.031-0.008-0.052-0.009-0.124v-9.795h1.119l0.013,0.554
		v9.241c0,0.073-0.003,0.146-0.008,0.217c0.043,0.428,0.378,0.983,1.189,0.983c0.464,0,0.959-0.092,0.959-1.2v-9.795h3.942
		l-3.942-14.164v-1.09h1.424l3.919,8.763c0.026,0.058,0.059,0.116,0.098,0.17c0.073,0.13,0.12,0.197,0.2,0.227l0.109,0.047
		c0.069,0.038,0.145,0.066,0.221,0.085l0.13,0.046l4.216,2.16l-0.012,1.69l-1.455,6.675h1.467v5.453c0,0.541,0.485,0.933,0.81,0.933
		c0.352,0,0.889-0.418,0.889-0.933v-4.898h1.118v4.899c0,0.515,0.539,0.933,0.892,0.933c0.325,0,0.807-0.392,0.807-0.933v-5.453
		h1.468l-1.602-7.345h1.211l2.383,3.534c0.082,0.12,0.363,0.121,0.568-0.015c0.227-0.15,0.314-0.402,0.235-0.518l-3.502-5.15h-5.469
		l-3.176-1.788l-0.047-0.255c-0.015-0.081-0.036-0.154-0.067-0.222l-4.205-9.406c-0.086-0.19-0.225-0.343-0.404-0.441
		c-0.127-0.089-0.21-0.115-0.298-0.115H32.74c-0.431,0.007-0.757,0.227-0.904,0.556l-3.266,7.305l-1.531-8.581
		c-0.084-0.473-0.447-0.844-0.828-0.844L16.33,9.105c-0.099,0-0.192,0.033-0.254,0.092c-0.278,0.201-0.435,0.46-0.488,0.756
		l-1.951,11.061l-0.26,0.235L10.494,22.9H4.656l-0.071,0.058L1.148,28.05c-0.079,0.116,0.007,0.368,0.233,0.519
		c0.204,0.134,0.489,0.135,0.569,0.016l2.44-3.509h1.02v12.771c0,0.281,0.075,0.933,0.768,0.933c0.791,0,0.908-0.584,0.908-0.933
		v-7.991h1.119l0.039,0.554v7.436c0,0.541,0.382,0.934,0.908,0.934c0.569,0,0.772-0.503,0.772-0.934V24.23l4.531-2.398
		c0.348-0.063,0.643-0.406,0.72-0.836l1.759-9.86h1.429v26.442c0,1.2,0.629,1.2,0.932,1.2c0.74,0,1.257-0.493,1.257-1.2V23.329
		h1.119l0.049,0.554v13.694c0,0.554,0.326,1.2,1.245,1.2c0.253,0,0.925,0,0.925-1.2V11.136h1.804l1.759,9.86
		c0.051,0.283,0.2,0.535,0.409,0.694L28.014,21.78z"/>
	<path style="clip-path:url(#SVGID_2_);fill-rule:evenodd;clip-rule:evenodd;fill:#5CA133;" d="M52.733,21.246
		c-1.482,0-2.689-1.198-2.689-2.669c0-1.472,1.207-2.669,2.689-2.669c1.483,0,2.688,1.198,2.688,2.669S54.216,21.246,52.733,21.246
		 M52.733,17.016c-0.866,0-1.57,0.701-1.57,1.561s0.704,1.562,1.57,1.562c0.866,0,1.57-0.7,1.57-1.562
		C54.303,17.717,53.598,17.016,52.733,17.016"/>
	<path style="clip-path:url(#SVGID_2_);fill-rule:evenodd;clip-rule:evenodd;fill:#5CA133;" d="M37.394,8.789
		c-2.038,0-3.696-1.646-3.696-3.668s1.658-3.668,3.696-3.668c2.038,0,3.696,1.646,3.696,3.668S39.432,8.789,37.394,8.789
		 M37.394,2.561c-1.421,0-2.577,1.147-2.577,2.56c0,1.411,1.156,2.56,2.577,2.56c1.421,0,2.577-1.149,2.577-2.56
		C39.971,3.708,38.815,2.561,37.394,2.561"/>
</g>
</svg>
