<svg 
 xmlns="http://www.w3.org/2000/svg"
 xmlns:xlink="http://www.w3.org/1999/xlink"
 width="13px" height="28px">
<path fill-rule="evenodd"  fill="rgb(255, 255, 255)"
 d="M8.305,9.329 L8.305,6.995 C8.305,6.644 8.320,6.372 8.352,6.181 C8.384,5.989 8.457,5.800 8.569,5.614 C8.681,5.427 8.863,5.298 9.114,5.227 C9.366,5.155 9.700,5.120 10.118,5.120 L12.395,5.120 L12.395,0.449 L8.754,0.449 C6.647,0.449 5.134,0.963 4.214,1.988 C3.295,3.012 2.835,4.522 2.835,6.518 L2.835,9.329 L0.108,9.329 L0.108,14.000 L2.835,14.000 L2.835,27.549 L8.305,27.549 L8.305,14.000 L11.946,14.000 L12.427,9.329 L8.305,9.329 Z"/>
</svg>