<?xml version="1.0" encoding="utf-8"?>
<!-- Generator: Adobe Illustrator 21.0.0, SVG Export Plug-In . SVG Version: 6.00 Build 0)  -->
<svg version="1.1" id="Layer_1" xmlns="http://www.w3.org/2000/svg" xmlns:xlink="http://www.w3.org/1999/xlink" x="0px" y="0px"
	 viewBox="0 0 378 500" style="enable-background:new 0 0 378 500;" xml:space="preserve">
<style type="text/css">
	.st0{clip-path:url(#SVGID_2_);fill:#5CA133;}
	.st1{clip-path:url(#SVGID_4_);fill:#5CA133;}
	.st2{clip-path:url(#SVGID_6_);fill:#5CA133;}
	.st3{clip-path:url(#SVGID_8_);fill:#5CA133;}
	.st4{clip-path:url(#SVGID_10_);fill:#5CA133;}
</style>
<g>
	<g>
		<defs>
			<rect id="SVGID_1_" width="378" height="500"/>
		</defs>
		<clipPath id="SVGID_2_">
			<use xlink:href="#SVGID_1_"  style="overflow:visible;"/>
		</clipPath>
		<path class="st0" d="M39,500c-21.5,0-39-17.5-39-39V39C0,17.5,17.5,0,39,0h210c2.4,0,4.7,1,6.4,2.6l120,120c1.7,1.6,2.6,4,2.6,6.4
			v332c0,21.5-17.5,39-39,39H39z M39,18c-11.6,0-21,9.4-21,21v422c0,11.6,9.4,21,21,21h300c11.6,0,21-9.4,21-21V138h-81
			c-21.5,0-39-17.5-39-39V18H39z M258,99c0,11.6,9.4,21,21,21h68.3L258,30.7V99z"/>
	</g>
	<g>
		<defs>
			<rect id="SVGID_3_" width="378" height="500"/>
		</defs>
		<clipPath id="SVGID_4_">
			<use xlink:href="#SVGID_3_"  style="overflow:visible;"/>
		</clipPath>
		<path class="st1" d="M99,230c-5,0-9-4-9-9s4-9,9-9h180c5,0,9,4,9,9s-4,9-9,9H99z"/>
	</g>
	<g>
		<defs>
			<rect id="SVGID_5_" width="378" height="500"/>
		</defs>
		<clipPath id="SVGID_6_">
			<use xlink:href="#SVGID_5_"  style="overflow:visible;"/>
		</clipPath>
		<path class="st2" d="M99,290c-5,0-9-4-9-9s4-9,9-9h180c5,0,9,4,9,9s-4,9-9,9H99z"/>
	</g>
	<g>
		<defs>
			<rect id="SVGID_7_" width="378" height="500"/>
		</defs>
		<clipPath id="SVGID_8_">
			<use xlink:href="#SVGID_7_"  style="overflow:visible;"/>
		</clipPath>
		<path class="st3" d="M99,350c-5,0-9-4-9-9s4-9,9-9h180c5,0,9,4,9,9s-4,9-9,9H99z"/>
	</g>
	<g>
		<defs>
			<rect id="SVGID_9_" width="378" height="500"/>
		</defs>
		<clipPath id="SVGID_10_">
			<use xlink:href="#SVGID_9_"  style="overflow:visible;"/>
		</clipPath>
		<path class="st4" d="M99,410c-5,0-9-4-9-9s4-9,9-9h120c5,0,9,4,9,9s-4,9-9,9H99z"/>
	</g>
</g>
</svg>
