<?xml version="1.0" encoding="utf-8"?>
<!-- Generator: Adobe Illustrator 21.0.0, SVG Export Plug-In . SVG Version: 6.00 Build 0)  -->
<svg version="1.1" id="Layer_1" xmlns="http://www.w3.org/2000/svg" xmlns:xlink="http://www.w3.org/1999/xlink" x="0px" y="0px"
	 viewBox="0 0 378 500" style="enable-background:new 0 0 378 500;" xml:space="preserve">
<style type="text/css">
	.st0{clip-path:url(#SVGID_2_);fill:#FFFFFF;}
</style>
<g>
	<defs>
		<rect id="SVGID_1_" width="378" height="500"/>
	</defs>
	<clipPath id="SVGID_2_">
		<use xlink:href="#SVGID_1_"  style="overflow:visible;"/>
	</clipPath>
	<path class="st0" d="M39,500c-21.5,0-39-17.5-39-39V39C0,17.5,17.5,0,39,0h210c2.4,0,4.7,1,6.4,2.6l120,120c1.7,1.6,2.6,4,2.6,6.4
		v332c0,21.5-17.5,39-39,39H39z M39,18c-11.6,0-21,9.4-21,21v422c0,11.6,9.4,21,21,21h300c11.6,0,21-9.4,21-21V138h-81
		c-21.5,0-39-17.5-39-39V18H39z M258,99c0,11.6,9.4,21,21,21h68.3L258,30.7V99z"/>
	<path class="st0" d="M99,230c-5,0-9-4-9-9c0-5,4-9,9-9h180c5,0,9,4,9,9c0,5-4,9-9,9H99z"/>
	<path class="st0" d="M99,290c-5,0-9-4-9-9s4-9,9-9h180c5,0,9,4,9,9s-4,9-9,9H99z"/>
	<path class="st0" d="M99,350c-5,0-9-4-9-9s4-9,9-9h180c5,0,9,4,9,9s-4,9-9,9H99z"/>
	<path class="st0" d="M99,410c-5,0-9-4-9-9s4-9,9-9h120c5,0,9,4,9,9s-4,9-9,9H99z"/>
</g>
</svg>
