<svg xmlns="http://www.w3.org/2000/svg" width="45.81" height="58.094" viewBox="0 0 45.81 58.094">
  <defs>
    <style>
      .cls-1 {
        fill: #5ca133;
        fill-rule: evenodd;
      }
    </style>
  </defs>
  <path id="fountain" class="cls-1" d="M4487.98,596.8h-16.34v-3.6l0.33-.056a19.509,19.509,0,0,0,7.63-2.709,6.058,6.058,0,0,0,3.05-5.075,0.829,0.829,0,0,0-.83-0.83h-15.09V570.633a4.08,4.08,0,0,1,8.16,0v1.228a0.83,0.83,0,0,0,1.66,0v-1.228a5.737,5.737,0,0,0-10.33-3.439l-0.32.422-0.31-.422a5.737,5.737,0,0,0-10.33,3.439v1.228a0.83,0.83,0,0,0,1.66,0v-1.228a4.08,4.08,0,0,1,8.16,0v13.895h-15.09a0.829,0.829,0,0,0-.83.83c0,1.855.95,4.46,5.49,6.344a24.051,24.051,0,0,0,5.19,1.434l0.33,0.055V596.8h-16.34a0.83,0.83,0,0,0-.83.831c0,4.89,2.51,8.978,7.27,11.822a25.856,25.856,0,0,0,7.14,2.836l0.31,0.074v4.064l-0.49,0c-1.63,0-2.8.159-3.59,0.945a3.168,3.168,0,0,0-.83,2.348v2.454a0.83,0.83,0,0,0,.83.83h24.53a0.83,0.83,0,0,0,.83-0.83v-2.454a3.168,3.168,0,0,0-.83-2.348c-0.87-.871-2.26-0.944-3.61-0.944h-0.47v-4.1l0.31-.074a22.978,22.978,0,0,0,10.19-5.085,12.583,12.583,0,0,0,4.22-9.539A0.83,0.83,0,0,0,4487.98,596.8Zm-36.88-10.059-0.23-.551h30.07l-0.23.551c-1.51,3.59-8.73,5.225-14.81,5.225S4452.61,590.329,4451.1,586.739Zm18.88,6.677V596.8h-8.15v-3.385l0.43,0.041c1.19,0.114,2.42.171,3.64,0.171s2.46-.057,3.65-0.168Zm4.53,24.669c1.25,0,2.11.078,2.5,0.463a1.632,1.632,0,0,1,.33,1.168v1.623h-22.87v-1.623a1.593,1.593,0,0,1,.34-1.17c0.39-.383,1.26-0.46,2.54-0.46,0.18,0,.36,0,0.53,0l0.67,0,15.37,0C4474.12,618.087,4474.31,618.085,4474.51,618.085Zm-15.13-1.656V612.7l0.46,0.076a37.449,37.449,0,0,0,12.13-.029l0.46-.078v3.758Zm27.7-17.531c-0.43,4.036-2.98,7.376-7.37,9.66a30.753,30.753,0,0,1-13.89,3.042,30.318,30.318,0,0,1-13.78-3.042c-4.35-2.284-6.88-5.625-7.31-9.66l-0.05-.439h42.45Zm-11.36-22.96a0.83,0.83,0,0,0-.83.831v2.454a0.83,0.83,0,0,0,1.66,0v-2.454A0.837,0.837,0,0,0,4475.72,575.938Zm-19.63,4.115a0.829,0.829,0,0,0,.83-0.83v-2.454a0.83,0.83,0,1,0-1.66,0v2.454A0.836,0.836,0,0,0,4456.09,580.053Z" transform="translate(-4443 -564.906)"/>
</svg>
