<?xml version="1.0" encoding="iso-8859-1"?>
<!-- Generator: Adobe Illustrator 21.0.0, SVG Export Plug-In . SVG Version: 6.00 Build 0)  -->
<svg version="1.1" id="Layer_1" xmlns="http://www.w3.org/2000/svg" xmlns:xlink="http://www.w3.org/1999/xlink" x="0px" y="0px"
	 viewBox="0 0 28.571 40" style="enable-background:new 0 0 28.571 40;" xml:space="preserve">
<g>
	<defs>
		<rect id="SVGID_1_" width="28.571" height="40"/>
	</defs>
	<clipPath id="SVGID_2_">
		<use xlink:href="#SVGID_1_"  style="overflow:visible;"/>
	</clipPath>
	<path style="clip-path:url(#SVGID_2_);fill-rule:evenodd;clip-rule:evenodd;fill:#5CA133;" d="M8.449,40
		c-0.608,0-1.157-0.292-1.539-0.759C6.529,39.708,5.982,40,5.373,40c-1.105,0-2.341-1.002-2.341-2.342V23.937
		c-0.314,0.158-0.695,0.25-1.153,0.25C0.843,24.187,0,23.233,0,22.062V10.324c0-1.172,0.843-2.125,1.879-2.125h9.973
		c1.127,0,1.97,0.953,1.97,2.125v11.738c0,1.171-0.843,2.125-1.879,2.125c-0.426,0-0.818-0.101-1.151-0.28v13.751
		C10.792,38.998,9.554,40,8.449,40 M1.858,9.31c-0.402,0-0.759,0.464-0.759,1.014v11.738c0,0.55,0.357,1.014,0.78,1.014
		c0.742,0,1.151-0.36,1.151-1.014v-9.519h1.1v5.389v19.726c0,0.664,0.683,1.232,1.243,1.232c0.536,0,0.989-0.565,0.989-1.232V24.961
		h1.1v12.697c0,0.667,0.452,1.232,0.988,1.232c0.56,0,1.243-0.568,1.243-1.232V12.543h1.1v9.519c0,0.587,0.483,1.014,1.15,1.014
		c0.423,0,0.781-0.464,0.781-1.014V10.324c0-0.55-0.358-1.014-0.781-1.014H1.97H1.858z"/>
	<path style="clip-path:url(#SVGID_2_);fill-rule:evenodd;clip-rule:evenodd;fill:#5CA133;" d="M6.911,7.455
		c-2.036,0-3.692-1.672-3.692-3.727S4.875,0,6.911,0c2.037,0,3.693,1.672,3.693,3.727S8.948,7.455,6.911,7.455 M6.911,1.111
		c-1.43,0-2.594,1.174-2.594,2.616c0,1.442,1.164,2.616,2.594,2.616s2.595-1.174,2.595-2.616C9.506,2.285,8.341,1.111,6.911,1.111"
		/>
	<path style="clip-path:url(#SVGID_2_);fill-rule:evenodd;clip-rule:evenodd;fill:#5CA133;" d="M23.197,40
		c-0.608,0-1.156-0.292-1.538-0.759C21.279,39.708,20.73,40,20.122,40c-1.105,0-2.342-1.002-2.342-2.342V23.937
		c-0.313,0.157-0.694,0.25-1.151,0.25c-1.036,0-1.88-0.954-1.88-2.125V10.324c0-1.172,0.844-2.125,1.88-2.125h9.973
		c1.125,0,1.969,0.953,1.969,2.125v11.738c0,1.171-0.844,2.125-1.879,2.125c-0.427,0-0.818-0.101-1.151-0.281v13.752
		C25.541,38.998,24.303,40,23.197,40 M16.608,9.31c-0.402,0-0.759,0.464-0.759,1.014v11.738c0,0.55,0.357,1.014,0.78,1.014
		c0.742,0,1.151-0.36,1.151-1.014v-9.519h1.099v5.389v19.726c0,0.664,0.684,1.232,1.244,1.232c0.536,0,0.989-0.565,0.989-1.232
		V24.961h1.1v12.697c0,0.667,0.452,1.232,0.988,1.232c0.559,0,1.243-0.568,1.243-1.232V12.543h1.1v9.519
		c0,0.587,0.484,1.014,1.152,1.014c0.423,0,0.78-0.464,0.78-1.014V10.324c0-0.55-0.357-1.014-0.78-1.014H16.72H16.608z"/>
	<path style="clip-path:url(#SVGID_2_);fill-rule:evenodd;clip-rule:evenodd;fill:#5CA133;" d="M21.66,7.455
		c-2.036,0-3.692-1.672-3.692-3.727S19.624,0,21.66,0c2.037,0,3.693,1.672,3.693,3.727S23.697,7.455,21.66,7.455 M21.66,1.111
		c-1.43,0-2.594,1.174-2.594,2.616c0,1.442,1.163,2.616,2.594,2.616c1.432,0,2.595-1.174,2.595-2.616
		C24.255,2.285,23.09,1.111,21.66,1.111"/>
</g>
</svg>
