<?xml version="1.0" encoding="utf-8"?>
<!-- Generator: Adobe Illustrator 24.1.3, SVG Export Plug-In . SVG Version: 6.00 Build 0)  -->
<svg version="1.1" id="Layer_1" xmlns="http://www.w3.org/2000/svg" xmlns:xlink="http://www.w3.org/1999/xlink" x="0px" y="0px"
	 viewBox="0 0 880 860" style="enable-background:new 0 0 880 860;" xml:space="preserve">
<g>
	<path d="M536.63,1.12c0.6-0.02,1.17-0.05,1.68-0.11C537.61,1.03,537.06,1.06,536.63,1.12z"/>
	<path d="M381.5,4.26c0,0-0.06,0.04-0.1,0.11C381.46,4.33,381.5,4.3,381.5,4.26z"/>
	<path d="M339.34,856.61c0-0.01,0-0.02,0-0.02C339.29,856.59,339.3,856.6,339.34,856.61z"/>
	<path d="M487.02,855.6c0.3,0.06,0.65,0.12,1.07,0.19C487.73,855.72,487.38,855.66,487.02,855.6z"/>
	<path d="M4.26,278.52c0,0,0.04,0.06,0.11,0.1C4.33,278.56,4.3,278.52,4.26,278.52z"/>
	<path d="M1.12,123.39c-0.02-0.6-0.05-1.17-0.11-1.68C1.03,122.41,1.06,122.96,1.12,123.39z"/>
	<path d="M875.6,173c0.06-0.3,0.12-0.65,0.19-1.07C875.72,172.29,875.66,172.64,875.6,173z"/>
	<path d="M876.61,320.68c-0.01,0-0.02,0-0.02,0C876.59,320.73,876.6,320.72,876.61,320.68z"/>
	<path d="M811,2.65c-0.3-0.06-0.65-0.12-1.07-0.19C810.29,2.53,810.64,2.58,811,2.65z"/>
	<path d="M165.72,2.65c-0.3-0.06-0.65-0.12-1.07-0.19C165.01,2.53,165.36,2.58,165.72,2.65z"/>
	<path d="M811,858.15c-0.36,0.06-0.71,0.12-1.07,0.19C810.35,858.27,810.7,858.21,811,858.15z"/>
	<path d="M165.72,858.15c-0.36,0.06-0.71,0.12-1.07,0.19C165.07,858.27,165.42,858.21,165.72,858.15z"/>
	<path d="M4.26,634.44c0,0,0.04,0.06,0.11,0.1C4.33,634.49,4.3,634.44,4.26,634.44z"/>
	<path d="M1.12,479.31c-0.02-0.6-0.05-1.17-0.11-1.68C1.03,478.33,1.06,478.88,1.12,479.31z"/>
	<path d="M875.94,795.61l2.06-1.71c-0.03-10.77,1.78-21.68-0.09-32.33c0.3,0.18,0.9,0.49,0.98,2.24c0.05-4.89,1.3-18.6-1.15-17.91
		c-0.08,0.08-0.18,0.12-0.28,0.13c0.1-0.06,0.19-0.1,0.28-0.13c1.37-1.24-0.15-11.32-0.91-16.8l1.36,0.91
		c-1.74-4.91-2.21-5.07-2.69-11.93c0.18-1.62,1.09-1.42,0.74,0.73c0.71-5.41-1.29-4.22-0.56-10.79l0.87,2.45
		c0.1-5.57-0.36-5.13-1.38-8.2c-0.54-3.5,0.34-10.57,1.57-11.39c-0.75-0.75-1.75-3.8-1.4-7.09c0.47-0.44,0.75,0.75,0.9,1.35
		c0.92-9.32-1.58-13.86-0.25-20.26c0.45-0.13,0.68-0.55,0.81-1.08c-0.03,6.81-0.1,12.38-0.18,12.8c1.23-0.08,1.46-5.94,3.18-1.22
		c-0.95-4.8-3-13.01-2.41-18.83c0.12-0.28,0.24-0.56,0.43-0.77l0.14,0.6c0.12-1.34,0.01-2.55-0.2-3.68c0.2-1.86,0.36-3.04,0.38-4.83
		c1.04-0.69,0.56-6.86,0.61-9.84c-1.36,0.24-1.16-3.56-2.25-0.11c0.08-0.09,0.14,0.92,0.19,2.65c0.04,0.45,0.06,0.98,0.14,1.27
		c-0.03-0.06-0.08-0.13-0.12-0.2c0.02,1.96,0.06,4.51,0.09,7.41c-0.7-2.35-1.28-4.82-0.52-8.11c-0.88-1.53-1.79-3.21-2.21-4.16
		c1.91-4.08,2.95-11.94,4.12-13.04c-0.77-9.1-0.51-21.44-3.08-27.17c-0.33-2.59,0.74-2.98,1.14-3.94c0.26,1.49,0.22,3.27,0.59,4.08
		c-0.66-5.17-0.26-15.33-2.06-16.57c0.81-6.52,1.66,3.67,1.36-5.3l0.55,1.21c2.82-17.3-4.31-28.26-1.09-47.14
		c-0.12,0.66-0.24,1.04-0.45,1.23c0.96-13.15,0.26-26.77,0.05-40.24c0.98,0.03,1.95,0.06,2.9,0.09c0.16-1.1,0.36-2.07,0.61-2.94
		c-0.2-2.14-0.42-4.53-0.64-6.91c-0.16-1.79-0.32-3.57-0.64-5.15l1.38,0.17c0.35-8.86,0.52-13.28,0.2-24.23l0.99,2.23
		c0.09-6.18-3.98-7.8-4.06-13.49l2.06-1.71c-0.03-10.77,1.78-21.68-0.09-32.33c0.3,0.18,0.9,0.49,0.98,2.24
		c0.05-4.89,1.3-18.6-1.15-17.91c-0.08,0.08-0.18,0.12-0.28,0.13c0.1-0.06,0.19-0.1,0.28-0.13c1.37-1.24-0.15-11.32-0.91-16.8
		l1.36,0.91c-1.74-4.91-2.21-5.07-2.69-11.93c0.18-1.62,1.09-1.42,0.74,0.73c0.71-5.41-1.29-4.22-0.56-10.79l0.87,2.45
		c0.1-5.57-0.36-5.13-1.38-8.2c-0.54-3.5,0.34-10.57,1.57-11.39c-0.75-0.75-1.75-3.8-1.4-7.09c0.47-0.44,0.75,0.75,0.9,1.35
		c0.92-9.32-1.58-13.86-0.25-20.26c0.45-0.13,0.68-0.55,0.81-1.08c-0.03,6.81-0.1,12.38-0.18,12.8c1.23-0.08,1.46-5.94,3.18-1.22
		c-0.95-4.8-3-13.01-2.41-18.83c0.12-0.28,0.24-0.56,0.43-0.77l0.14,0.6c0.12-1.34,0.01-2.55-0.2-3.68c0.2-1.86,0.36-3.04,0.38-4.83
		c1.04-0.69,0.56-6.86,0.61-9.84c-1.36,0.24-1.16-3.56-2.25-0.11c0.08-0.09,0.14,0.92,0.19,2.65c0.04,0.45,0.06,0.98,0.14,1.27
		c-0.03-0.06-0.08-0.13-0.12-0.2c0.02,1.96,0.06,4.51,0.09,7.41c-0.7-2.35-1.28-4.82-0.52-8.11c-0.88-1.53-1.79-3.21-2.21-4.16
		c1.91-4.08,2.95-11.94,4.12-13.04c-0.77-9.1-0.51-21.44-3.08-27.17c-0.33-2.59,0.74-2.98,1.14-3.94c0.26,1.5,0.22,3.27,0.59,4.08
		c-0.66-5.17-0.26-15.33-2.06-16.57c0.81-6.52,1.66,3.67,1.36-5.3l0.55,1.21c2.82-17.3-4.31-28.26-1.09-47.14
		c-0.12,0.66-0.24,1.04-0.45,1.23c1.63-22.29-1.53-45.92,1.05-67.91c0.52-6.25-0.63-6.93-1.5-10.74l1.47-1.35l-1.7-6.52
		c-1.24-9.25,3.61-16.02,1.26-27.73l-0.99,1.51c0.19-4.2-0.59-13.32,0.56-12.62c-0.18-0.43-1.03-1.38-0.51-3.02l0.77-0.13
		l-0.87-6.83l2.1-4.49c-0.28,0.55-1.15,0.87-2.24,1.08l-0.15,1.17l-0.14-1.12c0.1-0.02,0.2-0.03,0.29-0.05l0.44-3.5
		c0.95-1.19,2.34,1.63,2.46-7.02c-0.11-1.6-0.44-3.7-0.85-5.64l2.05-16.17c-2.59,0.33-2.98-0.74-3.94-1.14
		c1.49-0.26,3.27-0.22,4.08-0.59c-5.17,0.66-15.33,0.26-16.57,2.06c-6.52-0.81,3.67-1.66-5.3-1.36l1.21-0.55
		c-17.3-2.82-28.26,4.31-47.14,1.09c0.66,0.12,1.04,0.24,1.23,0.45c-22.29-1.63-45.92,1.53-67.91-1.05
		c-6.25-0.52-6.93,0.63-10.74,1.5l-1.35-1.47l-6.52,1.7c-9.25,1.24-16.02-3.61-27.73-1.26l1.51,0.99
		c-4.21-0.19-13.32,0.59-12.62-0.56c-0.43,0.18-1.38,1.03-3.02,0.51l-0.13-0.77l-10.33,1.32c-8.01-0.56,1.25-3.06-10.43-3.21
		c-4.34,0.3-12.37,2.24-10.74,2.76c1.75,0.04,4.48,0.48,4.61,1.25l-3.97,0.4c-0.08,0.26-3.2-1.11-4.85-1.68c0-0.07,0-0.14,0-0.21
		c-0.21,0.01-0.42,0.01-0.63,0.02c-0.21-0.05-0.35-0.07-0.37-0.02l-0.01,0.03c-0.93,0.03-1.86,0.05-2.78,0.08
		c-0.62-0.01-1.23-0.01-1.84-0.02l-1.39-0.08c-1.63-0.14-3.24-0.45-4.83-1.01c-3.25,1.13,6.68,0.8,3.77,2.13
		c-5.66-0.22-11.55-2.55-13.32-2.55c-7.75-0.9-7.23,2.37-15.34,1.76c1.04,0.58,2.02,2.12-4.04,2.67c-5.66-0.21-6.96-2.43-3.38-2.89
		c1.36-0.05,2.01,0.14,1.95,0.33c1.83-0.21,4.23-0.46,1.99-1.09l-0.73,0.58c-2.81-0.59-10.6-0.53-8.77-1.48
		c-3.67,0.47-2.38,0.83,0.06,1.11c-6.48-0.61-10.51,0.08-17.53-0.45c1.19,0.32,2.28,1,1.1,0.99c-10.96-0.72-4.83,1.1-12.26,1.35
		c-4.22-0.88,1.51-2.11-5.96-1.37c-4.57-0.6-0.97-1.54,0.85-2.01c-6.81,1.11-12.73-0.73-16.62-0.94L551.48,0
		c-2.15,0.28-3.9,0.27-5.69,0.27l2.05,1.16c-2.11-0.2-3.89-0.21-3.85-0.69c-2.17,0.76,1.66,1.93-2.65,2.96
		c-2.81-0.59-8.55,0.63-9.52-0.9c8,0.47,0.7-1.18,4.82-1.68c-1.08,0.03-2.27-0.01-3.63-0.14c-0.32-0.17,0.3-0.32,0.87-0.41
		c-8.45-1.37-3.88,1.74-12.65,1.7c1.11-0.87-2.03-1.64-3.46-1.46c3.53,0.02,1.69,1.44-1.55,2.11c-5.62-0.67-6.1,0.5-9.05,0.42
		l3.36,0.32c-1.14,0.87-3.95,0.75-7.86,1.02c-0.34-0.67,3.56-0.46,2.16-0.76c-4.35,1.52-9.83-1.58-15.89-0.55
		c-2.81-0.59-0.27-1.63-2.74-2.02c-6.8,1.12-7.36-1.19-14.5-0.26c2.06,1.16,2.42,0.88-2.61,2.01l11.74-0.82l-7.54,1.69
		c3.54,0.02,7.48-0.73,9.6-0.53c-3.59,0.95-3.22,0.66-1.53,1.63c-4.85-1.75-9.61,1.02-15.22-0.16l0.17-2.88
		c-8.43-1.29-14.97,1.48-25.91,0.75l3.52,0.5c-1.47,1.15-6.76,0.16-10.3,0.62c0.33-0.96-1.88-1.31-3.4-1.91
		c0.18,0.71-8.01-0.07-9,1.86l-4.89-1.27c-8.84-0.52-10.08,2.74-18.57,2.41c2.56-1.05-1.3-1.73,4.39-2.48
		c-2.84-0.01-5.39-0.19-5.43,0.48c-1.66-0.6-7.86,1.3-10.47,0.38c-1.19,0.42-1.59,1.43-4.77,1.35c-0.21-0.12-0.16-0.27-0.09-0.37
		c-0.67,0.4-4.66,0.62-2.1,1.6c-8.73-3-24.41,0.22-32.02-2.36c-6.19,0.32-13.64,0.63-19.26,0.7c0.36-0.29,0.02-0.48,1.08-0.38
		c-7.75-0.9-4.76,2.77-13.58,1.77c-4.51-1.56,4.68-0.84,1.87-1.43c-1.22-3.17-10.64,0.43-16.58-1.42l1.44-0.19
		c-4.54-1.08-11.07,1.2-18.48,0.98c0,0,0.36-0.28,0.04-0.48c-5.07,1.61-14.66,2.15-21.79,2.6c2.22-1.24,3.24-0.66,1.89-1.91
		c-3.2,0.18,0.94,2.02-5.44,2.38c-2.07-0.68-6.68-1.27-7.29-2.62l6.02-0.07c-3.08-1.74-7.79,0.06-10.96-0.24l0.4-0.76
		c-6.94,0.19-8.73,1.32-13.43,1.81l0.15-1.19c-2.59,0.33-2.98-0.74-3.94-1.14c1.49-0.26,3.27-0.22,4.08-0.59
		c-5.17,0.66-15.33,0.26-16.57,2.06c-6.52-0.81,3.67-1.66-5.3-1.36l1.21-0.55c-13.42-2.19-23.03,1.61-35.47,1.92
		c-1.79-0.03-3.62-0.07-5.45-0.11c-1.98-0.13-4.05-0.36-6.22-0.73c0.66,0.12,1.04,0.24,1.23,0.45c-22.29-1.63-45.92,1.53-67.91-1.05
		c-6.25-0.52-6.93,0.63-10.74,1.5l-1.35-1.47l-6.52,1.7C71.17,5.01,64.4,0.15,52.69,2.51L54.2,3.5C50,3.31,40.88,4.08,41.58,2.94
		c-0.43,0.18-1.38,1.03-3.02,0.51l-0.13-0.77L28.1,4.01c-8.01-0.56,1.25-3.06-10.43-3.21C13.32,1.09,5.3,3.04,6.93,3.56
		c1.75,0.04,4.48,0.48,4.61,1.25l-3.97,0.4C7.46,5.55,1.87,2.98,1.71,3.32L0,6.62l3.37,11.73l-0.04,0.7
		c-0.14,1.63-0.45,3.24-1.01,4.83c0.89,2.54,0.87-2.97,1.46-4.11l0.18,0.62c0,0,0,0,0,0v3.91c-0.75,4.14-2.06,7.8-2.07,9.13
		C1,41.18,4.27,40.66,3.65,48.77c0.58-1.04,2.12-2.02,2.67,4.04c-0.21,5.66-2.43,6.96-2.89,3.38c-0.05-1.36,0.14-2.01,0.33-1.95
		c-0.21-1.83-0.46-4.23-1.09-1.99l0.58,0.73c-0.59,2.81-0.53,10.6-1.48,8.77c0.47,3.67,0.83,2.39,1.11-0.06
		c-0.61,6.48,0.08,10.51-0.45,17.53c0.32-1.19,1-2.28,0.99-1.1c-0.72,10.96,1.1,4.83,1.35,12.26c-0.88,4.22-2.11-1.51-1.37,5.96
		c-0.6,4.57-1.54,0.97-2.01-0.85c1.11,6.81-0.73,12.73-0.94,16.62L0,108.54c0.28,2.15,0.27,3.9,0.27,5.69l1.16-2.05
		c-0.2,2.11-0.21,3.89-0.69,3.85c0.76,2.17,1.93-1.66,2.96,2.65c-0.59,2.81,0.63,8.55-0.9,9.52c0.47-8-1.18-0.7-1.68-4.82
		c0.03,1.08-0.01,2.27-0.14,3.63c-0.17,0.32-0.32-0.3-0.41-0.87c-1.37,8.45,1.74,3.88,1.7,12.65c-0.87-1.11-1.64,2.03-1.46,3.46
		c0.02-3.53,1.44-1.69,2.11,1.55c-0.67,5.62,0.5,6.1,0.42,9.05l0.32-3.36c0.87,1.14,0.75,3.95,1.02,7.86
		c-0.67,0.34-0.46-3.56-0.76-2.16c1.52,4.35-1.58,9.83-0.55,15.89c-0.59,2.81-1.63,0.27-2.02,2.74c1.12,6.8-1.19,7.36-0.26,14.5
		c1.16-2.06,0.88-2.42,2.01,2.61l-0.82-11.74l1.69,7.54c0.02-3.54-0.73-7.48-0.53-9.6c0.95,3.59,0.66,3.22,1.63,1.53
		c-1.75,4.85,1.02,9.61-0.16,15.22l-2.88-0.17c-1.29,8.43,1.48,14.97,0.75,25.91l0.5-3.52c1.15,1.47,0.16,6.76,0.62,10.3
		c-0.96-0.33-1.31,1.88-1.91,3.4c0.71-0.18-0.07,8.01,1.86,9l-1.27,4.89c-0.52,8.84,2.74,10.08,2.41,18.57
		c-1.05-2.56-1.73,1.3-2.48-4.39c-0.01,2.84-0.19,5.39,0.48,5.43c-0.6,1.66,1.3,7.86,0.38,10.47c0.42,1.19,1.43,1.59,1.35,4.77
		c-0.12,0.21-0.27,0.16-0.37,0.09c0.4,0.67,0.62,4.66,1.6,2.1c-3,8.73,0.22,24.41-2.36,32.02c0.32,6.19,0.63,13.64,0.7,19.26
		c-0.29-0.36-0.48-0.02-0.38-1.08c-0.9,7.75,2.77,4.76,1.77,13.58c-1.56,4.51-0.84-4.68-1.43-1.87c-3.17,1.22,0.43,10.64-1.42,16.58
		l-0.19-1.44c-0.79,3.33,0.22,7.73,0.73,12.76c0.01,0.41,0.02,0.82,0.03,1.22c-0.01,0.62-0.01,1.23-0.02,1.84l-0.08,1.39
		c-0.03,0.4-0.08,0.79-0.13,1.18c-0.01,0.02-0.03,0.03-0.04,0.05c0.01,0.02,0.01,0.05,0.02,0.08c-0.17,1.19-0.45,2.36-0.86,3.53
		c0.67,1.92,0.83-0.74,1.11-2.66c0.22,0.82,0.41,1.73,0.59,2.7c-0.73,4.29-2.13,8.14-2.13,9.51c-0.9,7.75,2.37,7.23,1.76,15.34
		c0.37-0.67,1.14-1.3,1.79-0.06c-0.46,1.9-1,3.82-1.84,4.2l-0.07-6.02c-0.79,1.4-0.85,3.13-0.71,4.9c-0.05,0.13-0.1,0.27-0.15,0.46
		l0.22,0.28c0.06,0.53,0.12,1.05,0.19,1.57c-0.13,1.01-0.22,2.26-0.31,3.47l-0.24-0.13c0.02,0.72,0.05,1.39,0.09,2.01
		c-0.17,1.88-0.39,3.17-0.84,2.3c0.45,3.5,0.8,2.49,1.07,0.28c0,0.02,0.01,0.04,0.01,0.06c-0.54,6.25,0.1,10.26-0.42,17.13
		c0.32-1.19,1-2.28,0.99-1.1c-0.51,7.84,0.27,6.94,0.85,8.5l-0.73,0.62c0.15,1.12,0.38,2.76,0.65,4.69
		c-0.51,0.58-0.98-0.39-1.01,1.04c-0.14-0.92-0.28-1.79-0.42-2.57c-0.01,1.83,0.03,4.99,0.2,7.87c-0.55,1.09-1.2-1.37-1.56-2.78
		c1.11,6.81-0.73,12.73-0.94,16.62L0,464.47c0.28,2.15,0.27,3.9,0.27,5.69l1.16-2.05c-0.2,2.11-0.21,3.89-0.69,3.85
		c0.76,2.17,1.93-1.66,2.96,2.65c-0.25,1.21-0.17,2.95-0.12,4.63c-0.04,0.81-0.06,1.66-0.08,2.54c-0.01,0.32-0.01,0.65-0.02,0.97
		c-0.12,0.66-0.32,1.16-0.68,1.39c0.47-8-1.18-0.7-1.68-4.82c0.03,1.08-0.01,2.27-0.14,3.63c-0.17,0.32-0.32-0.3-0.41-0.87
		c-1.37,8.45,1.74,3.88,1.7,12.65c-0.87-1.11-1.64,2.03-1.46,3.46c0.02-3.53,1.44-1.69,2.11,1.55c-0.67,5.62,0.5,6.1,0.42,9.05
		l0.32-3.36c0.87,1.14,0.75,3.95,1.02,7.86c-0.67,0.34-0.46-3.56-0.76-2.16c1.52,4.35-1.58,9.83-0.55,15.89
		c-0.59,2.81-1.63,0.27-2.02,2.74c1.12,6.8-1.19,7.36-0.26,14.5c1.16-2.06,0.88-2.42,2.01,2.61l-0.82-11.74l1.69,7.54
		c0.02-3.54-0.73-7.48-0.53-9.6c0.95,3.59,0.66,3.22,1.63,1.53c-1.75,4.85,1.02,9.61-0.16,15.22l-2.88-0.17
		c-1.29,8.43,1.48,14.97,0.75,25.91l0.5-3.52c1.15,1.47,0.16,6.76,0.62,10.3c-0.96-0.33-1.31,1.88-1.91,3.4
		c0.71-0.18-0.07,8.01,1.86,9l-1.27,4.88c-0.52,8.84,2.74,10.08,2.41,18.57c-1.05-2.56-1.73,1.3-2.48-4.39
		c-0.01,2.84-0.19,5.39,0.48,5.43c-0.6,1.66,1.3,7.86,0.38,10.47c0.42,1.19,1.43,1.59,1.35,4.77c-0.12,0.21-0.27,0.16-0.37,0.09
		c0.4,0.67,0.62,4.66,1.6,2.1c-3,8.73,0.22,24.41-2.36,32.02c0.32,6.19,0.63,13.64,0.7,19.26c-0.29-0.36-0.48-0.02-0.38-1.08
		c-0.9,7.75,2.77,4.76,1.77,13.58c-1.56,4.51-0.84-4.68-1.43-1.87c-3.17,1.22,0.43,10.64-1.42,16.58l-0.19-1.44
		c-1.08,4.54,1.2,11.07,0.98,18.48c0,0-0.28-0.36-0.48-0.04c1.61,5.07,2.15,14.66,2.6,21.79c-1.24-2.22-0.66-3.24-1.91-1.89
		c0.18,3.2,2.02-0.94,2.38,5.44c-0.68,2.07-1.27,6.68-2.62,7.29l-0.07-6.02c-1.74,3.08,0.06,7.79-0.24,10.96l-0.76-0.41
		c0.25,9.22,2.16,9.35,2.03,19.26l0.58-1.02c1.9,5.41-1.07,4.54,0.34,9.94l-1.93,1.64c0.47,3.57,1.86,12.52,2.22,18.93
		c-1.43-3.63-2.16-11.13-3.01-15.77c-0.01,3.54,0.14,12.04,1.09,13.88c-0.19-1.43-0.66-3.23-0.36-4.64
		c1.31,3.77,2.04,8.57,2.19,14.38c-0.32-0.01-0.63-0.02-0.95-0.03c-0.02,1.03-0.04,2.07-0.05,3.11c-0.51,0.65-0.8,2.05-0.96,3.89
		c-0.13,1.41-0.19,3.07-0.23,4.82c-0.03,1.51-0.06,3.08-0.09,4.64L0,854.17l1.71,3.3c0.16,0.34,5.74-2.23,5.85-1.89l3.97,0.4
		c-0.13,0.77-2.86,1.21-4.61,1.25c-1.63,0.52,6.4,2.46,10.74,2.76c11.69-0.15,2.43-2.65,10.43-3.21l10.33,1.32l0.13-0.77
		c1.64-0.52,2.59,0.33,3.02,0.51c-0.7-1.14,8.41-0.37,12.62-0.56l-1.51,0.99c11.71,2.35,18.48-2.5,27.73-1.26l6.52,1.7l1.35-1.47
		c3.82,0.87,4.49,2.02,10.74,1.5c21.99-2.58,45.63,0.57,67.91-1.05c-0.19,0.21-0.58,0.32-1.23,0.45c1.49-0.25,2.92-0.44,4.31-0.57
		c-0.01,0.17-0.01,0.35-0.02,0.53c1.1,0.16,2.07,0.36,2.94,0.61c2.14-0.2,4.53-0.42,6.91-0.64c1.17-0.11,2.33-0.21,3.45-0.36
		c0.55,0.06,1.1,0.12,1.65,0.18l-0.11,0.92c3.57,0.14,6.42,0.25,9.27,0.32c4.19,0.55,8.44,0.95,13.08,0.71l-0.36,0.16
		c1.24,0.02,2.29-0.14,3.23-0.39c0.91-0.1,1.84-0.22,2.79-0.37l-0.78-0.36c0.12-0.06,0.25-0.11,0.37-0.17
		c7.53,0.22-1.82-0.6,4.5-1.39c1.24,1.8,11.39,1.4,16.57,2.06c-0.81-0.37-2.59-0.33-4.08-0.59c0.32-0.14,0.59-0.35,0.88-0.55
		c8.06,0.41,16.13,1.06,24.06-0.33c-0.18,0.3-0.49,0.9-2.24,0.98c4.89,0.05,18.6,1.3,17.91-1.15c-0.08-0.08-0.12-0.18-0.13-0.28
		c0.06,0.1,0.1,0.19,0.13,0.28c1.24,1.37,11.32-0.15,16.8-0.91l-0.91,1.36c4.91-1.74,5.07-2.21,11.93-2.69
		c1.62,0.18,1.42,1.09-0.73,0.74c5.41,0.71,4.22-1.29,10.79-0.56l-2.45,0.87c5.57,0.1,5.13-0.36,8.2-1.38
		c3.5-0.54,10.57,0.34,11.39,1.57c0.75-0.75,3.8-1.75,7.09-1.4c0.44,0.47-0.75,0.75-1.35,0.9c9.32,0.92,13.86-1.58,20.26-0.25
		c0.13,0.45,0.55,0.68,1.08,0.81c-6.81-0.03-12.38-0.1-12.8-0.18c0.08,1.23,5.94,1.46,1.22,3.18c4.8-0.95,13.01-3,18.83-2.41
		c0.28,0.12,0.56,0.24,0.77,0.43l-0.6,0.14c1.34,0.12,2.55,0.01,3.68-0.2c1.86,0.2,3.04,0.36,4.83,0.38
		c0.69,1.04,6.86,0.56,9.84,0.61c-0.24-1.36,3.56-1.16,0.11-2.25c0.09,0.08-0.92,0.14-2.65,0.19c-0.45,0.04-0.98,0.06-1.27,0.14
		c0.06-0.03,0.13-0.08,0.2-0.12c-1.96,0.02-4.51,0.06-7.41,0.09c2.35-0.7,4.82-1.28,8.11-0.52c1.53-0.88,3.21-1.79,4.16-2.21
		c4.08,1.91,11.94,2.95,13.04,4.12c9.1-0.77,21.44-0.51,27.17-3.08c2.59-0.33,2.98,0.74,3.94,1.14c-1.5,0.26-3.27,0.22-4.08,0.59
		c5.17-0.66,15.33-0.26,16.57-2.06c6.52,0.81-3.67,1.66,5.3,1.36l-1.21,0.55c17.3,2.82,28.26-4.31,47.14-1.09
		c-0.66-0.12-1.04-0.24-1.23-0.45c22.29,1.63,45.92-1.53,67.91,1.05c6.25,0.52,6.93-0.63,10.74-1.5l1.35,1.47l6.52-1.7
		c9.25-1.24,16.02,3.61,27.73,1.26l-1.51-0.99c4.21,0.19,13.32-0.59,12.62,0.56c0.43-0.18,1.38-1.03,3.02-0.51l0.13,0.77l10.33-1.32
		c8.01,0.56-1.25,3.06,10.43,3.21c3.51-0.24,9.43-1.56,10.7-2.33l1.22,2.35c0.16,0.34,5.74-2.23,5.85-1.89l3.97,0.4
		c-0.13,0.77-2.86,1.21-4.61,1.25c-1.63,0.52,6.4,2.46,10.74,2.76c11.69-0.15,2.43-2.65,10.43-3.21l10.33,1.32l0.13-0.77
		c1.64-0.52,2.59,0.33,3.02,0.51c-0.7-1.14,8.41-0.37,12.62-0.56l-1.51,0.99c11.71,2.35,18.48-2.5,27.73-1.26l6.52,1.7l1.35-1.47
		c3.82,0.87,4.49,2.02,10.74,1.5c21.99-2.58,45.63,0.57,67.91-1.05c-0.19,0.21-0.58,0.32-1.23,0.45
		c18.88-3.23,29.83,3.91,47.14,1.09l-1.21-0.55c8.96,0.3-1.23-0.55,5.3-1.36c1.24,1.8,11.39,1.4,16.57,2.06
		c-0.81-0.37-2.59-0.33-4.08-0.59c0.97-0.4,1.35-1.48,3.94-1.14l-1.49-11.75c0.31,0.01,0.63,0.02,0.94,0.03
		c0.16-1.1,0.36-2.07,0.61-2.94c-0.2-2.14-0.42-4.53-0.64-6.91c-0.16-1.79-0.32-3.57-0.64-5.15l1.38,0.17
		c0.35-8.86,0.52-13.28,0.2-24.23l0.99,2.23C880.09,802.93,876.02,801.3,875.94,795.61z M3.61,376.21c0.01-0.04,0.02-0.08,0.03-0.12
		c0,0.05,0,0.1,0,0.15C3.64,376.24,3.63,376.23,3.61,376.21z M641.2,853.44l3.97-0.4c0.11-0.34,0.27-0.69,0.44-1.04h0.3l-0.63,2.17
		l0.26,0.51C643.8,854.61,641.32,854.17,641.2,853.44z"/>
	<path d="M876.61,676.61c-0.01,0-0.02,0-0.02,0C876.59,676.65,876.6,676.64,876.61,676.61z"/>
	<path d="M875.6,528.92c0.06-0.3,0.12-0.65,0.19-1.07C875.72,528.21,875.66,528.57,875.6,528.92z"/>
</g>
</svg>
