<?xml version="1.0" encoding="utf-8"?>
<!-- Generator: Adobe Illustrator 21.0.0, SVG Export Plug-In . SVG Version: 6.00 Build 0)  -->
<svg version="1.1" id="Layer_1" xmlns="http://www.w3.org/2000/svg" xmlns:xlink="http://www.w3.org/1999/xlink" x="0px" y="0px"
	 viewBox="0 0 322 322" style="enable-background:new 0 0 322 322;" xml:space="preserve">
<style type="text/css">
	.st0{clip-path:url(#SVGID_2_);fill:#B3CA36;}
	.st1{clip-path:url(#SVGID_2_);fill:#FFFFFF;}
</style>
<g>
	<defs>
		<path id="SVGID_1_" d="M0,161c0,88.9,72.1,161,161,161s161-72.1,161-161C322,72.1,249.9,0,161,0S0,72.1,0,161"/>
	</defs>
	<clipPath id="SVGID_2_">
		<use xlink:href="#SVGID_1_"  style="overflow:visible;"/>
	</clipPath>
	<rect x="-17.9" y="-0.3" class="st0" width="340.1" height="337.1"/>
	<path class="st1" d="M-5,343.2c6.7-17.5,66.8-143.9,78.1-166.9c11.2-23,25.5-48,30-58.7c4.5-10.7,19.4-41.8,19.7-48
		c0.3-6.2,4.2-15.7,3.6-8.4c-0.6,7.3-7.6,33.7-10.1,42.7c-2.5,9-23,84.5-29.5,103c-6.5,18.5-52.5,121.9-59.5,136.3"/>
	<path class="st1" d="M26.1,325.1c16.1-20.1,48.3-65.4,58.8-82.2c10.5-16.8,38.9-70.8,55-88.7s44.9-51.3,53.9-58
		c9-6.7,35.6-29.8,38.9-31.8c3.4-1.9,9.7-5.6,3,0c-6.7,5.6-37.1,31-38.6,32.9c-4.9,9.4-35.6,64-44.2,79.7
		c-8.6,15.7-67.8,126.5-98.5,163.2"/>
	<path class="st1" d="M52,332.4c27.1-26.8,85-92.8,100-103.7c15-10.9,38.2-30.1,45.3-33.2c7.1-3.1,1.5,2.2-3,5.3
		c-4.5,3.1-34.8,25.2-48.3,46.9c-13.5,21.7-39.3,56.2-62.1,97.3"/>
	<path class="st1" d="M-7.9,333.9c12.5-12.3,156.5-141.5,173.3-160.2c16.8-18.7,33.7-43,37.1-49.8c3.4-6.7,4.9-9.4,0-3.7
		c-4.9,5.6-43.1,49-64,67.8c-21,18.7-137.8,118.4-156.9,137.2"/>
	<path class="st1" d="M-27,307.3c12.7-21.3,77.9-123.5,95.1-152.7c17.2-29.2,41.3-67.3,48.7-79.7c3.7-6.4,4.9-13.5-4.5,0
		C102.9,88.3,3.7,225.3-9.8,245.5c-13.5,20.2-21,29.2-21,29.2"/>
	<path class="st1" d="M-29.3,258.6c8.2-13.4,95.1-95,108.6-105.1s64-58.8,78.6-70.4c14.6-11.6,34.4-26,37.4-29.1
		c3-3.1,10.1-5.5,5.3,0c-4.9,5.5-43.4,52.9-61.4,63.1c-18,10.2-71.8,56.6-78.4,63.3c-6.6,6.7-87.8,93.2-90.8,97.7"/>
	<path class="st1" d="M-18.4,314.8c26.6-31.1,119.4-141.5,134-156.1c14.6-14.6,31.8-29.9,35.6-32.6c3.7-2.6-0.4,3.7-3.4,6.4
		c-3,2.6-31.4,41.9-40.8,51.3C97.6,193.1,3.7,312.9-5,320.8"/>
	<path class="st1" d="M101,345.1c4.9-6.7,70.8-133.8,81.2-157.9c10.5-24.1,30.2-61,32.6-65.6c3.7-7.4,5.3-7.3,1.8,0
		c-2.5,5.2-7.7,13.9-11,33.6c-3.3,19.7-18.5,56.3-23.8,70.3c-5.3,14-65.7,111.9-71.3,119.6"/>
	<path class="st1" d="M101,348.8c2.2-7.5,59.1-148.3,61.8-156.1c2.6-7.9,5.2-12.4,6.4-15c1.1-2.6,2.8-1.8,0,5
		c-2.8,6.7-49.4,128.5-63.5,162.4"/>
	<path class="st1" d="M170.7,231.6c9.3-14.9,42.6-54.4,53.1-67.2c10.5-12.8,28.1-44.3,32.2-52.1l4.1-7.9c-4.1,7.9-15,39.3-21.4,49
		c-6.3,9.7-40,65.9-57.3,99.2c-17.2,33.3-52.1,74-62.4,90.6"/>
	<path class="st1" d="M132.4,251.9c2.6-12.4,12.7-42.7,15.4-51c1.5-4.7,7.5-13.3,3.4,0c-4.1,13.2-5.2,34.5-8.7,43.2"/>
	<path class="st1" d="M152.6,346.6c7.6-22.5,47.6-144.1,62.2-188.3c14.6-44.2,6.4-11.2,3.7,0c-2.6,11.2-29.2,83.9-38.9,131.4
		c-9.7,47.5-11.6,53.5-11.6,53.5"/>
	<path class="st1" d="M-33.8,230.6c5.6-8.7,83.9-113.1,85.7-118c1.9-4.9,9-8.2,4.9-2.2c-4.1,6-78.2,108.4-85.4,121.2"/>
	<path class="st1" d="M-30,164.4C1.8,129.5,66.6,88.7,78.5,85.3c12-3.4,7.9-3,1.9-2.2c-6,0.7-82.1,33.7-104.2,47.2"/>
	<path class="st1" d="M-40.5,215.9c15.2-25.5,82-126.5,101.3-146.4c19.3-19.8,17-21.3,20-24c3-2.6,6-4.1,2.6,0
		C80,49.7,48.2,99.1,40.7,110c-7.5,10.9-57.7,88.7-74.5,125.4"/>
	<path class="st1" d="M-30,253.8c10.1-15.3,80.5-82.8,94.7-195.2C78.9-54,72.9,58.3,71,67.1c-1.9,8.8-7.9,136.5-87.6,206.5"/>
	<path class="st1" d="M-18.4,280c15.7-19.9,90.6-102.6,126.2-128.4c35.6-25.8,5.2-1.9,0,2.6C102.5,158.7,3.8,264.6-7.9,280"/>
	<path class="st1" d="M-5,290.4c7.5-11.6,71.1-126.9,82-144.5c10.9-17.6,7.5-9.7,3.7-1.9C77,151.9,12.3,275.2-0.1,294.8"/>
	<path class="st1" d="M126.5,346.6c11.7-15.6,59.8-76.3,64.8-82.2c5-5.9,9.2-8.3-0.9,6.7c-10.1,15-54.7,67.4-59.5,72
		c-4.8,4.6,36.6,0.5,41.3-5.8c4.7-6.2,43.2-101.9,49.7-125.8c6.5-23.9,16-50.3,12.9-36.8c-3.1,13.5-27.5,121-59,164"/>
	<path class="st1" d="M187.9,333.9c2.3-9.3,23.6-94.7,26.1-111.7c2.5-17,3.1-19.5,2.5-11.1c-0.6,8.4-16.3,101.4-19.4,117.4"/>
	<path class="st1" d="M139.1,343.2c7.6-9.7,92.5-103.3,102.8-114.7c12.9-14.3,4.5-3.3,0,2.1c-4.5,5.5-87.6,100.1-96.6,112.6"/>
	<path class="st1" d="M89.4,345.1c16.1-22.8,102.6-100.6,107.4-103.8c4.9-3.2,6.7-2.9,1.5,1.6c-5.2,4.5-93.6,91.6-101.5,100.3"/>
</g>
</svg>
