<svg xmlns="http://www.w3.org/2000/svg" width="25" height="25" viewBox="0 0 25 25">
  <metadata><?xpacket begin="﻿" id="W5M0MpCehiHzreSzNTczkc9d"?>
<x:xmpmeta xmlns:x="adobe:ns:meta/" x:xmptk="Adobe XMP Core 5.6-c138 79.159824, 2016/09/14-01:09:01        ">
   <rdf:RDF xmlns:rdf="http://www.w3.org/1999/02/22-rdf-syntax-ns#">
      <rdf:Description rdf:about=""/>
   </rdf:RDF>
</x:xmpmeta>
                                                                                                    
                                                                                                    
                                                                                                    
                                                                                                    
                                                                                                    
                                                                                                    
                                                                                                    
                                                                                                    
                                                                                                    
                                                                                                    
                                                                                                    
                                                                                                    
                                                                                                    
                                                                                                    
                                                                                                    
                                                                                                    
                                                                                                    
                                                                                                    
                                                                                                    
                                                                                                    
                           
<?xpacket end="w"?></metadata>
<defs>
    <style>
      .cls-1 {
        fill: #5ca133;
        fill-rule: evenodd;
      }
    </style>
  </defs>
  <path class="cls-1" d="M948.739,98.227a2.9,2.9,0,1,0-2.9-2.9,2.9,2.9,0,0,0,2.9,2.9m0-4.5a1.6,1.6,0,1,1-1.6,1.6,1.6,1.6,0,0,1,1.6-1.6m-1.081,16.6a0.664,0.664,0,0,0,.059.112,0.7,0.7,0,0,0,.082.1,0.469,0.469,0,0,0,.047.042,0.561,0.561,0,0,0,.051.038,0.646,0.646,0,0,0,.113.06,0.6,0.6,0,0,0,.121.037,0.608,0.608,0,0,0,.127.013,0.583,0.583,0,0,0,.125-0.013,0.576,0.576,0,0,0,.123-0.037,0.664,0.664,0,0,0,.112-0.059,0.641,0.641,0,0,0,.052-0.039,0.469,0.469,0,0,0,.047-0.042,0.658,0.658,0,0,0,.141-0.211,0.683,0.683,0,0,0,.037-0.122,0.651,0.651,0,0,0,.013-0.127,0.659,0.659,0,0,0-.013-0.127,0.7,0.7,0,0,0-.037-0.121,0.6,0.6,0,0,0-.06-0.112,0.627,0.627,0,0,0-.081-0.1,0.62,0.62,0,0,0-.1-0.081,0.72,0.72,0,0,0-.113-0.06,0.666,0.666,0,0,0-.121-0.037,0.683,0.683,0,0,0-.127-0.012,0.664,0.664,0,0,0-.126.012,0.652,0.652,0,0,0-.122.037,0.669,0.669,0,0,0-.112.06,0.585,0.585,0,0,0-.1.081,0.627,0.627,0,0,0-.081.1,0.6,0.6,0,0,0-.06.112,0.666,0.666,0,0,0-.037.121,0.693,0.693,0,0,0-.013.127,0.665,0.665,0,0,0,.013.126,0.652,0.652,0,0,0,.037.122M939.138,88.9a0.627,0.627,0,0,0,.06.113,0.733,0.733,0,0,0,.08.1,0.624,0.624,0,0,0,.1.081,0.646,0.646,0,0,0,.112.06,0.688,0.688,0,0,0,.121.037,0.637,0.637,0,0,0,.127.013,0.629,0.629,0,0,0,.127-0.013,0.64,0.64,0,0,0,.121-0.037,0.609,0.609,0,0,0,.112-0.059,0.664,0.664,0,0,0,.1-0.081,0.7,0.7,0,0,0,.081-0.1,0.725,0.725,0,0,0,.059-0.111,0.607,0.607,0,0,0,.037-0.122,0.619,0.619,0,0,0,.013-0.127,0.6,0.6,0,0,0-.013-0.126,0.593,0.593,0,0,0-.037-0.123,0.683,0.683,0,0,0-.06-0.112,0.622,0.622,0,0,0-.179-0.179,0.7,0.7,0,0,0-.112-0.06,0.651,0.651,0,0,0-.122-0.037A0.636,0.636,0,0,0,939.737,88a0.644,0.644,0,0,0-.127.013,0.7,0.7,0,0,0-.122.037,0.644,0.644,0,0,0-.11.059,0.613,0.613,0,0,0-.1.081,0.791,0.791,0,0,0-.082.1,0.665,0.665,0,0,0-.058.111,0.549,0.549,0,0,0-.037.122,0.62,0.62,0,0,0-.013.127,0.669,0.669,0,0,0,.012.126,0.6,0.6,0,0,0,.038.123m-8.027,21.7a3.21,3.21,0,0,0,3.115,2.4h18.552A3.226,3.226,0,0,0,956,109.777V91.223a3.226,3.226,0,0,0-3.048-3.217,0.013,0.013,0,0,0,0-.006H941.9a0.65,0.65,0,1,0,0,1.3h9.964l1.079,0.008a1.934,1.934,0,0,1,1.755,1.915v12.991l-1.68-1.54-1.1-.836-0.013,0a2.224,2.224,0,0,0-2.27.334l-2.435,2.02a1.049,1.049,0,0,1-.67.243,1.063,1.063,0,0,1-.925-0.549l-4.382-8.049a2.187,2.187,0,0,0-1.9-1.154h-0.036a2.192,2.192,0,0,0-1.906,1.088l-5.077,8.61V91.223a1.924,1.924,0,0,1,1.922-1.923h3.346a0.65,0.65,0,0,0,0-1.3h-3.346A3.226,3.226,0,0,0,931,91.223v18.061h0l0.068,1.257m23.633-.762a1.925,1.925,0,0,1-1.923,1.922H934.226a1.933,1.933,0,0,1-1.8-1.242,1.9,1.9,0,0,1-.125-0.68v-2.844l6.2-10.507a0.905,0.905,0,0,1,.786-0.449H939.3a0.9,0.9,0,0,1,.786.476l6.561,12.05a0.65,0.65,0,0,0,1.142-.621l-1.174-2.156a2.347,2.347,0,0,0,1.418-.54l2.435-2.02a0.915,0.915,0,0,1,1.2.03l3.033,2.78v3.8Z" transform="translate(-931 -88)"/>
</svg>
