<svg xmlns="http://www.w3.org/2000/svg" width="18.562" height="35.97" viewBox="0 0 18.562 35.97">
  <defs>
    <style>
      .cls-1 {
        fill: #fff;
        fill-rule: evenodd;
      }
    </style>
  </defs>
  <path id="Individual_Booking_" data-name="Individual Booking " class="cls-1" d="M991.487,1066.82h-1.493l-3.727,6.39-3.721-6.39H981.06a4.075,4.075,0,0,0-4.06,4.06V1079a4.074,4.074,0,0,0,3.48,4.02v9.91h11.587v-9.9a4.073,4.073,0,0,0,3.48-4.02v-8.13A4.068,4.068,0,0,0,991.487,1066.82Zm-11.014,15.02a2.885,2.885,0,0,1-2.313-2.83v-8.13a2.9,2.9,0,0,1,.453-1.54l1.86,5.13v7.37Zm10.441-7.57v17.5h-4.067v-6.38h-1.16v6.38h-4.054v-17.5l-2.115-5.83a4.1,4.1,0,0,1,2.363-.45l4.393,7.53,4.392-7.53a4.1,4.1,0,0,1,2.363.45Zm3.473,4.73a2.9,2.9,0,0,1-2.32,2.84v-7.37l1.86-5.12a2.783,2.783,0,0,1,.46,1.53V1079Zm-8.113-22.03a4.64,4.64,0,1,0,4.633,4.64A4.646,4.646,0,0,0,986.274,1056.97Zm0,8.12a3.48,3.48,0,1,1,3.48-3.48A3.487,3.487,0,0,1,986.274,1065.09Z" transform="translate(-977 -1056.97)"/>
</svg>
