<?xml version="1.0" encoding="utf-8"?>
<!-- Generator: Adobe Illustrator 24.1.2, SVG Export Plug-In . SVG Version: 6.00 Build 0)  -->
<svg version="1.1" id="Layer_1" xmlns="http://www.w3.org/2000/svg" xmlns:xlink="http://www.w3.org/1999/xlink" x="0px" y="0px"
	 viewBox="0 0 871.4 803.6" style="enable-background:new 0 0 871.4 803.6;" xml:space="preserve">
<style type="text/css">
	.st0{fill:#47853F;}
	.st1{fill:#5CA133;}
	.st2{fill:none;}
	.st3{opacity:0.3;fill:#6DB045;}
	.st4{opacity:0.3;fill:#FFFFFF;}
</style>
<path class="st0" d="M835.7,286.8c-14.1-27.5-38.4-49.8-49.6-78.4c-5.6-5.2-11.9-10.8-18.6-16.5c11.7,26.9,34.6,48.6,48.1,74.9
	c-2.3-4.6-5-10.1,0.9,1.8c1.6,3.2,1.3,2.6,0.4,0.8c13,28.2-3.4,96.2-6.5,144.4c-5,78.3-55.6,113-72.5,170.3c1.1,2.6,0.9,5.7-0.4,9.2
	h0.1c0.2,0,0.4,0,0.6,0.1c1.5,0.2,2.5,0.3,0.1,0h-0.1c-0.2,0-0.5-0.1-0.7-0.1c-13.9,37.2-154.1,122-180.1,122
	c-0.9-12.4-272.2-42.4-272.9-45.2c-28.2-6.6-90.3-41-138.5-85.7c49.5,54.1,126.3,98.1,158.5,105.7c0.7,2.8,272,32.8,272.9,45.2
	c26,0,166.2-84.8,180.1-122c1.3-3.5,1.5-6.6,0.4-9.2c16.9-57.3,67.5-92,72.5-170.3c3.2-48.3,19.6-116.3,6.6-144.4
	C836.6,288.6,836.2,287.7,835.7,286.8z"/>
<path class="st1" d="M304.5,690.1c-32.2-7.6-109-51.6-158.5-105.7C96.1,538.2,61,481,93.7,432.2c23.4-35.1,32-163.9,64.4-177.6
	c3.5-1.4,122.8-93.5,140-90.9c-3.9-4.9-9.3-8.3-15.4-9.8c20.2-14.5,43.3-21.6,69.4-21.4c-2.9-3.3-6-6.3-9.3-9.1
	c46.3-8.8,121.3-31.8,168.4-23.2c-3.5-6-8.5-28.5-11.4-35.1c-37.8-13.2-78.3-20.3-120.6-20.3c-202,0-365.8,163.8-365.8,365.8
	s163.8,365.8,365.8,365.8c65.8,0,127.6-17.4,181-47.8C500.5,714.4,305.1,692.5,304.5,690.1z"/>
<path class="st2" d="M837.1,289.4C837.1,289.4,837.1,289.4,837.1,289.4c-0.1-0.2-0.2-0.5-0.4-0.8c-5.9-11.9-3.2-6.4-0.9-1.8
	c-14.1-27.5-38.4-49.8-49.6-78.4c-5.6-5.2-11.9-10.7-18.6-16.5c-0.5-1.2-0.9-2.3-1.4-3.5c-69.4-64.5-232.8-178.2-268-124.9
	c0.4-0.6,1,0.1,1.6,1.6c2.9,6.6,7.9,29.1,11.4,35.1c-47.1-8.6-122.1,14.4-168.4,23.2c3.3,2.8,6.4,5.8,9.3,9.1
	c-26.1-0.2-49.2,6.9-69.4,21.4c6.1,1.5,11.5,4.9,15.4,9.8c-17.2-2.6-136.5,89.5-140,90.9c-32.4,13.7-41,142.5-64.4,177.6
	C61,481,96.1,538.2,146,584.4c49.5,54.1,126.3,98.1,158.5,105.7c0.6,2.4,196,24.3,255.7,38.5c10.7,2.5,17,4.8,17.2,6.7
	c26,0,166.2-84.8,180.1-122c0.2,0,0.5,0.1,0.7,0.1c-0.1-0.1-0.3-0.1-0.6-0.1c-0.1,0-0.1,0-0.1,0c1.3-3.5,1.5-6.6,0.4-9.2
	c16.9-57.3,67.5-92,72.5-170.3C833.6,385.5,850,317.5,837.1,289.4C837.1,289.4,837.1,289.4,837.1,289.4z"/>
<path class="st1" d="M0.5,0v803h870.9V0H0.5z M830.4,433.8c-5,78.3-55.6,113-72.5,170.3c1.1,2.6,0.9,5.7-0.4,9.2c0,0,0,0,0.1,0
	c0.3,0,0.5,0,0.6,0.1h0.1c2.4,0.3,1.4,0.2-0.1,0c-0.2,0-0.5-0.1-0.7-0.1c-13.9,37.2-154.1,122-180.1,122c-0.1-1.9-6.5-4.2-17.2-6.7
	c-53.4,30.4-115.1,47.8-181,47.8c-202,0-365.8-163.8-365.8-365.8S177.2,44.8,379.2,44.8c42.2,0,82.8,7.2,120.6,20.3
	c-0.7-1.5-1.2-2.2-1.6-1.6c35.2-53.3,198.6,60.4,268,124.9c0.5,1.2,0.9,2.3,1.4,3.5c6.7,5.8,13,11.3,18.6,16.5
	c11.2,28.6,35.5,50.9,49.6,78.4c-2.3-4.6-5-10.1,0.9,1.8c0.2,0.3,0.3,0.6,0.4,0.8c0.1,0.1,0.1,0.2,0.2,0.3c0.2,0.3,0.3,0.6,0.4,0.8
	c0.1,0.2,0.1,0.3,0.2,0.4c0,0,0,0,0,0c0,0,0,0,0,0c0-0.1-0.1-0.2-0.2-0.4c-0.1-0.2-0.2-0.4-0.4-0.8c-0.1-0.1-0.1-0.2-0.2-0.3
	C850,317.5,833.6,385.5,830.4,433.8z"/>
<path class="st3" d="M304.5,690.1c-32.2-7.6-109-51.6-158.5-105.7C96.1,538.2,61,481,93.7,432.2c23.4-35.1,32-163.9,64.4-177.6
	c3.5-1.4,122.8-93.5,140-90.9c-3.9-4.9-9.3-8.3-15.4-9.8c20.2-14.5,43.3-21.6,69.4-21.4c-2.9-3.3-6-6.3-9.3-9.1
	c46.3-8.8,121.3-31.8,168.4-23.2c-3.5-6-8.5-28.5-11.4-35.1c-37.8-13.2-78.3-20.3-120.6-20.3c-202,0-365.8,163.8-365.8,365.8
	s163.8,365.8,365.8,365.8c65.8,0,127.6-17.4,181-47.8C500.5,714.4,305.1,692.5,304.5,690.1z"/>
<path class="st4" d="M372.8,777.9c-4.4-0.1-8.9-0.2-13.3-0.5l0.2-3.1c4.3,0.2,8.8,0.4,13.1,0.5L372.8,777.9z M386.1,777.9l-0.1-3.1
	c4.4-0.1,8.8-0.2,13.1-0.5l0.2,3.1C394.9,777.7,390.5,777.8,386.1,777.9z M346.3,776.5c-4.4-0.4-8.8-0.9-13.2-1.4l0.4-3
	c4.3,0.5,8.7,1,13.1,1.4L346.3,776.5z M412.5,776.5l-0.3-3.1c4.3-0.4,8.7-0.9,13.1-1.4l0.4,3C421.4,775.6,416.9,776.1,412.5,776.5z
	 M320,773.2c-4.3-0.7-8.7-1.5-13.1-2.4l0.6-3c4.3,0.9,8.6,1.6,12.9,2.3L320,773.2z M438.9,773.2l-0.5-3c4.3-0.7,8.7-1.5,12.9-2.4
	l0.6,3C447.6,771.7,443.2,772.5,438.9,773.2z M294,768c-4.3-1-8.6-2.1-12.8-3.3l0.8-3c4.2,1.2,8.5,2.3,12.7,3.3L294,768z
	 M464.9,767.9l-0.7-3c4.3-1,8.6-2.1,12.7-3.3l0.8,3C473.5,765.8,469.2,766.9,464.9,767.9z M268.4,761c-4.2-1.3-8.4-2.8-12.6-4.2
	l1-2.9c4.1,1.5,8.3,2.9,12.5,4.2L268.4,761z M490.4,760.9l-0.9-2.9c4.2-1.3,8.4-2.7,12.5-4.2l1,2.9
	C498.8,758.1,494.6,759.5,490.4,760.9z M243.4,752c-4.1-1.6-8.2-3.4-12.3-5.1l1.2-2.8c4,1.8,8.1,3.5,12.2,5.1L243.4,752z
	 M515.4,751.9l-1.1-2.8c4-1.6,8.1-3.3,12.1-5.1l1.2,2.8C523.5,748.6,519.4,750.3,515.4,751.9z M219.1,741.3c-4-1.9-7.9-3.9-11.8-6
	l1.4-2.7c3.9,2.1,7.8,4.1,11.7,6L219.1,741.3z M539.6,741.2l-1.3-2.8c3.9-1.9,7.8-3.9,11.7-5.9l1.4,2.7
	C547.5,737.3,543.5,739.3,539.6,741.2z M195.6,728.8c-3.8-2.2-7.6-4.5-11.4-6.9l1.6-2.6c3.7,2.3,7.5,4.6,11.3,6.8L195.6,728.8z
	 M173.1,714.7c-3.6-2.5-7.3-5-10.8-7.7l1.8-2.5c3.5,2.6,7.2,5.1,10.8,7.6L173.1,714.7z M151.7,699c-3.4-2.7-6.9-5.5-10.3-8.4l2-2.3
	c3.3,2.8,6.8,5.6,10.2,8.3L151.7,699z M131.5,681.9c-3.3-3-6.5-6-9.6-9.1l2.1-2.2c3.1,3.1,6.3,6.1,9.5,9L131.5,681.9z M112.6,663.3
	c-3-3.2-6-6.5-8.9-9.8l2.3-2c2.9,3.3,5.9,6.5,8.9,9.7L112.6,663.3z M95,643.4c-2.8-3.4-5.6-6.9-8.2-10.4l2.4-1.9
	c2.6,3.5,5.4,6.9,8.1,10.3L95,643.4z M79,622.3c-2.5-3.6-5-7.3-7.4-11l2.6-1.7c2.4,3.7,4.9,7.3,7.4,10.9L79,622.3z M64.5,600.1
	c-2.3-3.8-4.5-7.6-6.6-11.5l2.7-1.5c2.1,3.8,4.3,7.6,6.6,11.4L64.5,600.1z M51.6,577c-2-3.9-3.9-7.9-5.8-11.9l2.8-1.3
	c1.8,4,3.8,7.9,5.7,11.8L51.6,577z M40.5,553c-1.7-4-3.4-8.2-4.9-12.3l2.9-1.1c1.5,4.1,3.2,8.2,4.9,12.2L40.5,553z M31.1,528.2
	c-1.4-4.2-2.8-8.4-4-12.6l2.9-0.9c1.2,4.2,2.6,8.4,4,12.5L31.1,528.2z M23.5,502.8c-1.1-4.3-2.1-8.6-3.1-12.9l3-0.7
	c0.9,4.3,2,8.6,3.1,12.8L23.5,502.8z M17.8,476.9c-0.8-4.3-1.5-8.7-2.1-13.1l3-0.4c0.6,4.3,1.3,8.7,2.1,13L17.8,476.9z M14,450.7
	c-0.5-4.4-0.9-8.8-1.2-13.2l3.1-0.2c0.3,4.4,0.7,8.8,1.2,13.1L14,450.7z M12.1,424.2c-0.2-4.4-0.2-8.9-0.2-13.3l3.1,0
	c0,4.4,0.1,8.8,0.2,13.2L12.1,424.2z M15.2,397.8l-3.1-0.1c0.2-4.4,0.4-8.8,0.7-13.2l3.1,0.2C15.5,389,15.3,393.5,15.2,397.8z
	 M17,371.6l-3-0.3c0.5-4.4,1-8.8,1.6-13.2l3,0.4C18,362.9,17.5,367.2,17,371.6z M20.7,345.6l-3-0.5c0.8-4.3,1.7-8.7,2.6-13l3,0.7
	C22.4,336.9,21.5,341.3,20.7,345.6z M26.3,319.9l-3-0.8c1.1-4.3,2.3-8.6,3.5-12.8l2.9,0.9C28.6,311.4,27.4,315.6,26.3,319.9z
	 M33.8,294.6l-2.9-1c1.4-4.2,2.9-8.4,4.5-12.5l2.9,1.1C36.7,286.3,35.2,290.5,33.8,294.6z M43.1,270l-2.8-1.2
	c1.7-4.1,3.5-8.2,5.4-12.2l2.8,1.3C46.6,261.9,44.8,265.9,43.1,270z M54.1,246l-2.7-1.4c2-3.9,4.1-7.9,6.2-11.7l2.7,1.5
	C58.2,238.2,56.1,242.1,54.1,246z M66.9,223l-2.6-1.6c2.3-3.8,4.6-7.6,7.1-11.3l2.6,1.7C71.5,215.5,69.1,219.2,66.9,223z
	 M81.3,200.9l-2.5-1.8c2.5-3.6,5.2-7.2,7.8-10.7l2.4,1.9C86.4,193.8,83.8,197.4,81.3,200.9z M97.2,180l-2.4-1.9
	c2.8-3.4,5.7-6.8,8.6-10.1l2.3,2C102.8,173.2,100,176.6,97.2,180z M114.6,160.2l-2.2-2.1c3-3.2,6.1-6.4,9.3-9.5l2.1,2.2
	C120.7,153.9,117.6,157.1,114.6,160.2z M133.3,141.8l-2.1-2.3c3.2-3,6.6-5.9,9.9-8.8l2,2.3C139.9,135.9,136.6,138.9,133.3,141.8z
	 M153.4,124.8l-1.9-2.4c3.4-2.7,7-5.4,10.5-8l1.8,2.5C160.3,119.4,156.8,122.1,153.4,124.8z M174.5,109.2l-1.7-2.5
	c3.6-2.5,7.4-4.9,11.1-7.3l1.6,2.6C181.8,104.3,178.1,106.8,174.5,109.2z M196.8,95.2l-1.5-2.6c3.8-2.2,7.7-4.4,11.6-6.4l1.4,2.7
	C204.4,90.9,200.5,93,196.8,95.2z M219.9,82.9l-1.3-2.8c3.9-1.9,8-3.8,12-5.6l1.2,2.8C227.8,79.1,223.8,81,219.9,82.9z M525.8,77
	l1.2-2.8 M243.9,72.3l-1.1-2.8c4.1-1.6,8.3-3.2,12.4-4.7l1,2.9C252.1,69.1,248,70.6,243.9,72.3z M268.7,63.4l-0.9-2.9
	c4.2-1.3,8.5-2.6,12.7-3.8l0.8,3C277.1,60.8,272.8,62.1,268.7,63.4z M488.8,63.1c-4.2-1.3-8.4-2.6-12.6-3.7l0.8-3
	c4.2,1.2,8.5,2.4,12.7,3.8L488.8,63.1z M294,56.3l-0.7-3c4.3-1,8.6-2,13-2.9l0.6,3C302.6,54.4,298.2,55.3,294,56.3z M463.4,56.1
	c-4.2-1-8.6-1.9-12.9-2.8l0.6-3c4.3,0.9,8.7,1.8,13,2.8L463.4,56.1z M319.8,51.1l-0.5-3c4.3-0.7,8.8-1.4,13.1-1.9l0.4,3
	C328.5,49.8,324.1,50.4,319.8,51.1z M437.6,50.9c-4.3-0.7-8.7-1.3-13-1.9l0.4-3c4.4,0.5,8.8,1.2,13.1,1.9L437.6,50.9z M345.9,47.8
	l-0.3-3.1c4.4-0.4,8.8-0.7,13.2-1l0.2,3.1C354.6,47.1,350.2,47.4,345.9,47.8z M411.5,47.7c-4.3-0.4-8.8-0.7-13.1-0.9l0.2-3.1
	c4.4,0.2,8.8,0.5,13.2,0.9L411.5,47.7z M372.1,46.4l-0.1-3.1c2.4,0,4.8-0.1,7.2-0.1c2,0,4.1,0,6.1,0l0,3.1c-2.1,0-4.1-0.1-6.2,0
	C376.8,46.3,374.4,46.3,372.1,46.4z"/>
</svg>
