<?xml version="1.0" encoding="utf-8"?>
<!-- Generator: Adobe Illustrator 24.1.3, SVG Export Plug-In . SVG Version: 6.00 Build 0)  -->
<svg version="1.1" id="Layer_1" xmlns="http://www.w3.org/2000/svg" xmlns:xlink="http://www.w3.org/1999/xlink" x="0px" y="0px"
	 viewBox="0 0 879.47 832.28" style="enable-background:new 0 0 879.47 832.28;" xml:space="preserve">
<style type="text/css">
	.st0{fill:#FFFFFF;}
</style>
<path class="st0" d="M879.47,1.95c-26.11-3.74-45.96,1.84-69.45,3.42L806.73,5l-4.44-1.23l-3.87-0.88L795,3.31l0.66-0.27l0.01-1.09
	C776.51-0.8,760.72,1.47,744.4,3.5c-4.32-0.04-8.64-0.04-12.98-0.02l0.21-0.14c-5.97-1.24-10.97-0.9-15.57-0.12l-1.45-0.33
	l-5.19,0.63c-0.79-0.01-1.56-0.01-2.34-0.02c-1.28-0.27-3.65-0.74-5.21-0.87c-2.21-0.19-9.42-0.75-9.42-0.75l-2.79,1.17l-0.54,0.33
	c-4.29-0.03-8.47-0.06-12.5-0.08c-1.42-0.16-3.18-0.2-5.59-0.04c-8.93-0.06-17.14-0.11-24.54-0.16c-3.63-0.63-6.91-0.69-9.96-0.44
	c-4.14-0.32-8.26-0.71-12.35-1.19c-3.44-0.29-6.12-0.36-8.35-0.29l-0.01,1.71c-0.46,0-0.9-0.01-1.33-0.01l0,0.55
	c-7.57-0.05-14.82-0.1-21.67-0.14c-1.42-0.16-3.18-0.2-5.59-0.04c-1.41-0.01-2.8-0.02-4.17-0.03l0-0.32
	c-11.7-1.79-22.05-1.43-32.08-0.39c-3.55-0.3-7.09-0.64-10.6-1.05c-3.44-0.29-6.12-0.36-8.35-0.29l-0.01,1.71
	c-0.46,0-0.9-0.01-1.33-0.01l-0.01,0.94c-10.57-0.3-21.1-0.44-31.43,0.13l0.01-1.04c-17.56-2.69-32.1-0.53-47.05,1.47
	c-1.36,0.01-2.74,0.05-4.14,0.11c-4.69,0.01-9.4,0.06-14.11,0.13c-28.78-0.19-53.64-0.35-72.25-0.47
	c-5.66-0.38-11.28-0.9-16.85-1.59c-2.35-0.21-4.33-0.31-6.03-0.31l0.01-1.01c-22.13-3.38-39.45,0.92-58.87,2.92
	c-0.69,0-1.39-0.01-2.07-0.01c-5.66-0.38-11.28-0.9-16.85-1.59c-2.35-0.21-4.33-0.31-6.03-0.31l0.01-1.01
	c-17.89-2.74-32.64-0.45-47.89,1.59c-5.79,0-11.59,0.05-17.41,0.13c-28.78-0.19-53.64-0.35-72.25-0.47
	c-5.66-0.38-11.28-0.9-16.85-1.59C97.36,0.62,87.86,0.5,85.78,0.58L84.54,0.6c-0.42,0,0.39,1.68-0.01,1.68l0.01,0.55
	C64.74,2.71,47.45,2.59,33.61,2.5c-5.66-0.38-11.28-0.9-16.85-1.59C13.55,0.62,4.05,0.5,1.96,0.58L0.73,0.6
	c-0.42,0,0.39,1.68-0.01,1.68L0.95,17.3l3.52,27.05H4.32H2.55c0.01,0.26,0.02,0.52,0.02,0.8l-0.34-0.8H1.15
	C-2.41,70.48,3.3,90.3,5.04,113.78l-0.34,3.29l-1.2,4.45l-0.85,3.87l0.85,6.65c0,0-0.85,3.88-1.02,6.11
	c-0.17,2.21-0.68,9.43-0.68,9.43l1.19,2.79l1.3,2.08c-0.69,13.17-0.75,26.52-0.59,39.95l-0.14-0.21c-1.36,6.78-0.7,12.3,0.33,17.39
	c0,13.48,0.01,26.1,0.01,37.64c-0.15,1.42-0.17,3.18,0,5.59c0,10.67,0,20.34,0.01,28.8c-0.34,6.07-0.82,12.1-1.47,18.07
	c-0.27,3.44-0.32,6.13-0.23,8.36H3.9c0,0.46,0,0.9,0,1.33h0.94c-0.22,10.57-0.3,21.1,0.34,31.43H4.15
	c-2.57,17.58-0.31,32.1,1.8,47.04c0.07,4.16,0.31,8.47,0.94,13.13h0.73c1.17,11.27,1.52,23.3-0.9,37.43c0.26-1.39,0.5-2.2,0.94-2.6
	c-1.3,17.74-1.15,35.89-0.77,54.1c0.01,28.78,0.01,53.64,0.02,72.25C6.56,567.8,6.08,573.42,5.42,579c-0.2,2.35-0.28,4.33-0.27,6.03
	H4.15c-5.18,35.45,9.25,58.45,2.56,97.6c0.26-1.39,0.5-2.2,0.94-2.6c-1.3,17.74-1.15,35.89-0.77,54.1
	c0.01,28.78,0.01,53.64,0.02,72.25c-0.34,5.66-0.82,11.29-1.47,16.86c-0.27,3.21-0.32,5.72-0.23,7.8H6.9c0,0.42,0,0.84,0,1.24H17.4
	h53.14h44.78v-2.26h694.75h14.18h35.96h13.08h1.77c-0.01-0.26-0.02-0.52-0.02-0.8l0.34,0.8h1.09c3.56-26.13-2.15-45.95-3.89-69.43
	l0.34-3.29l1.2-4.45l0.85-3.87l-0.85-6.65c0,0,0.85-3.88,1.02-6.11c0.17-2.21,0.68-9.43,0.68-9.43l-1.19-2.79l-1.3-2.08
	c0.69-13.17,0.75-26.52,0.59-39.95l0.14,0.21c1.36-6.78,0.7-12.3-0.33-17.39c0-13.48-0.01-26.1-0.01-37.64
	c0.15-1.42,0.17-3.18,0-5.59c0-10.67,0-20.34-0.01-28.8c0.34-6.07,0.82-12.1,1.47-18.07c0.27-3.44,0.32-6.13,0.23-8.36h-1.71
	c0-0.46,0-0.9,0-1.33h-0.94c0.22-10.57,4.3-21.1,3.66-31.43h1.04c2.57-17.58,0.31-32.1-1.8-47.04c-0.07-4.16-0.31-8.47-0.94-13.13
	H874c-1.17-11.27-1.52-23.3,0.9-37.43c-0.26,1.39-0.5,2.2-0.94,2.6c1.3-17.74,1.15-35.89,0.77-54.1
	c-0.01-28.78-0.01-53.64-0.02-72.25c0.34-5.66,0.82-11.29,1.47-16.86c0.2-2.35,0.28-4.33,0.27-6.03h1.01
	c5.18-35.45-7.25-58.45-0.56-97.6c-0.26,1.39-0.5,2.2-0.94,2.6c1.12-15.32,1.7-30.95,0.22-46.66l0.84-79.35l0.1-14.18l2.25-35.96
	l0.09-13.08l0.01-1.77c-0.26,0.01-0.52,0.01-0.8,0.02l0.8-0.33L879.47,1.95z"/>
</svg>
