<?xml version="1.0" encoding="utf-8"?>
<!-- Generator: Adobe Illustrator 24.1.3, SVG Export Plug-In . SVG Version: 6.00 Build 0)  -->
<svg version="1.1" id="Layer_1" xmlns="http://www.w3.org/2000/svg" xmlns:xlink="http://www.w3.org/1999/xlink" x="0px" y="0px"
	 viewBox="0 0 540 832.28" style="enable-background:new 0 0 540 832.28;" xml:space="preserve">
<style type="text/css">
	.st0{fill:#898989;}
</style>
<path class="st0" d="M540,1.71c-16-3.74-28.17,1.84-42.57,3.42l-2.02-0.36l-2.72-1.23l-2.37-0.88l-2.1,0.42l0.4-0.27l0-1.09
	c-11.74-2.74-21.42-0.47-31.42,1.55c-2.65-0.04-5.3-0.04-7.95-0.02l0.13-0.14c-3.66-1.24-6.73-0.9-9.55-0.12l-0.89-0.33l-3.18,0.63
	c-0.48-0.01-0.96-0.01-1.44-0.02c-0.78-0.27-2.24-0.74-3.2-0.87c-1.36-0.19-5.78-0.75-5.78-0.75l-1.71,1.17l-0.33,0.33
	c-2.63-0.03-5.19-0.06-7.66-0.08c-0.87-0.16-1.95-0.2-3.42-0.04c-5.47-0.06-10.51-0.11-15.04-0.16c-2.22-0.63-4.24-0.69-6.11-0.44
	c-2.54-0.32-5.06-0.71-7.57-1.19c-2.11-0.29-3.75-0.36-5.12-0.29l-0.01,1.71c-0.28,0-0.55-0.01-0.81-0.01l0,0.55
	c-4.64-0.05-9.08-0.1-13.28-0.14c-0.87-0.16-1.95-0.2-3.42-0.04c-0.86-0.01-1.72-0.02-2.56-0.03l0-0.32
	c-7.17-1.79-13.52-1.43-19.67-0.39c-2.18-0.3-4.34-0.64-6.5-1.05c-2.11-0.29-3.75-0.36-5.12-0.29l-0.01,1.71
	c-0.28,0-0.55-0.01-0.81-0.01l0,0.94c-6.48-0.3-12.93-0.44-19.27,0.13l0-1.04C296.14,0,287.23,2.16,278.07,4.16
	c-0.83,0.01-1.68,0.05-2.54,0.11c-2.88,0.01-5.76,0.06-8.65,0.13C249.24,4.22,234,4.05,222.59,3.93c-3.47-0.38-6.91-0.9-10.33-1.59
	c-1.44-0.21-2.65-0.31-3.7-0.31l0-1.01c-13.57-3.38-24.18,0.92-36.09,2.92c-0.42,0-0.85-0.01-1.27-0.01
	c-3.47-0.38-6.91-0.9-10.33-1.59c-1.44-0.21-2.65-0.31-3.7-0.31l0-1.01c-10.97-2.74-20.01-0.45-29.36,1.59
	c-3.55,0-7.11,0.05-10.67,0.13C99.53,2.55,84.29,2.39,72.88,2.26c-3.47-0.38-6.91-0.9-10.33-1.59c-1.97-0.29-7.79-0.41-9.07-0.33
	l-0.76,0.02c-0.26,0,0.24,1.68-0.01,1.68l0.01,0.55C40.59,2.47,29.99,2.36,21.5,2.26c-3.47-0.38-6.91-0.9-10.33-1.59
	C9.21,0.39,3.38,0.27,2.11,0.34L1.35,0.37c-0.26,0,0.24,1.68-0.01,1.68l0.15,15.02l2.16,27.05H3.55H2.47c0,0.26,0.01,0.52,0.01,0.8
	l-0.21-0.8H1.61c-2.18,26.13,1.32,45.95,2.38,69.43l-0.21,3.29l-0.74,4.45l-0.52,3.87l0.52,6.65c0,0-0.52,3.88-0.63,6.11
	c-0.1,2.21-0.42,9.43-0.42,9.43l0.73,2.79l0.79,2.08c-0.42,13.17-0.46,26.52-0.36,39.95l-0.08-0.21c-0.83,6.78-0.43,12.3,0.2,17.39
	c0,13.48,0,26.1,0.01,37.64c-0.09,1.42-0.11,3.18,0,5.59c0,10.67,0,20.34,0,28.8c-0.21,6.07-0.5,12.1-0.9,18.07
	c-0.16,3.44-0.2,6.13-0.14,8.36H3.3c0,0.46,0,0.9,0,1.33h0.58c-0.14,10.57-0.18,21.1,0.21,31.43H3.44
	c-1.57,17.58-0.19,32.1,1.1,47.04c0.04,4.16,0.19,8.47,0.58,13.13h0.45c0.72,11.27,0.93,23.3-0.55,37.43
	c0.16-1.39,0.31-2.2,0.58-2.6c-0.79,17.74-0.71,35.89-0.47,54.1c0,28.78,0.01,53.64,0.01,72.25c-0.21,5.66-0.5,11.29-0.9,16.86
	c-0.12,2.35-0.17,4.33-0.17,6.03H3.44c-3.17,35.45,5.67,58.45,1.57,97.6c0.16-1.39,0.31-2.2,0.58-2.6
	c-0.79,17.74-0.71,35.89-0.47,54.1c0,28.78,0.01,53.64,0.01,72.25c-0.21,5.66-0.5,11.29-0.9,16.86c-0.16,3.21-0.2,5.72-0.14,7.8
	h1.05c0,0.42,0,0.84,0,1.24h6.43h32.57h27.45v-2.26h425.86h8.69h22.04h8.02h1.08c0-0.26-0.01-0.52-0.01-0.8l0.21,0.8h0.67
	c2.18-26.13-1.32-45.95-2.38-69.43l0.21-3.29l0.74-4.45l0.52-3.87l-0.52-6.65c0,0,0.52-3.88,0.63-6.11c0.1-2.21,0.42-9.43,0.42-9.43
	l-0.73-2.79l-0.79-2.08c0.42-13.17,0.46-26.52,0.36-39.95l0.08,0.21c0.83-6.78,0.43-12.3-0.2-17.39c0-13.48,0-26.1-0.01-37.64
	c0.09-1.42,0.11-3.18,0-5.59c0-10.67,0-20.34,0-28.8c0.21-6.07,0.5-12.1,0.9-18.07c0.16-3.44,0.2-6.13,0.14-8.36h-1.05
	c0-0.46,0-0.9,0-1.33h-0.58c0.14-10.57,2.63-21.1,2.24-31.43h0.64c1.57-17.58,0.19-32.1-1.1-47.04c-0.04-4.16-0.19-8.47-0.58-13.13
	h-0.45c-0.72-11.27-0.93-23.3,0.55-37.43c-0.16,1.39-0.31,2.2-0.58,2.6c0.79-17.74,0.71-35.89,0.47-54.1
	c0-28.78-0.01-53.64-0.01-72.25c0.21-5.66,0.5-11.29,0.9-16.86c0.12-2.35,0.17-4.33,0.17-6.03h0.62c3.17-35.45-4.44-58.45-0.34-97.6
	c-0.16,1.39-0.31,2.2-0.58,2.6c0.69-15.32,1.04-30.95,0.13-46.66l0.52-79.35l0.06-14.18l1.38-35.96l0.05-13.08l0.01-1.77
	c-0.16,0.01-0.32,0.01-0.49,0.02L540,2.8L540,1.71z"/>
</svg>
