<svg xmlns="http://www.w3.org/2000/svg" width="35.344" height="30.25" viewBox="0 0 35.344 30.25">
  <defs>
    <style>
      .cls-1 {
        fill: #5ca133;
        fill-rule: evenodd;
      }
    </style>
  </defs>
  <path id="leaf" class="cls-1" d="M976.812,1429.62c0-.02,0-0.05-0.006-0.07l-1.771-12.33a0.7,0.7,0,0,0-.338-0.5,0.706,0.706,0,0,0-.6-0.04l-8.15,3.28a0.69,0.69,0,1,0,.515,1.28l7.334-2.95,1.634,11.38a0.551,0.551,0,0,0,.01.09,9.226,9.226,0,0,1-1.1,6.14,9.221,9.221,0,0,1-12.6,3.35c-0.015-.01-0.03-0.01-0.045-0.02a13.056,13.056,0,0,0,1.29-1.13l8.079-2.16a0.693,0.693,0,0,0-.357-1.34l-6.216,1.67a12.56,12.56,0,0,0,1.582-3.34l5.546-1.49a0.68,0.68,0,0,0,.488-0.84,0.688,0.688,0,0,0-.845-0.49l-4.081,1.09,1.535-2.66,3.243-.86a0.694,0.694,0,0,0-.358-1.34l-1.909.51,1.468-2.54a0.69,0.69,0,0,0-1.2-.69l-1.468,2.54-0.512-1.91a0.69,0.69,0,1,0-1.333.36l0.869,3.24-0.9,1.56a12.474,12.474,0,0,0-8.013-11.77h-0.014l-3.122-1.27a0.691,0.691,0,0,0-.519,1.28l3.094,1.26c0.014,0,.028.01,0.043,0.01a11.165,11.165,0,0,1,5.664,4.82,11.124,11.124,0,0,1-3.5,14.82l-1.159-2.01,2.511-9.37a0.69,0.69,0,1,0-1.333-.36l-2.153,8.04-2.555-4.43,1.742-6.5a0.691,0.691,0,0,0-1.334-.36l-1.384,5.17-2.014-3.49,1.049-3.91a0.69,0.69,0,1,0-1.333-.36l-0.692,2.58-1.908-3.3a0.69,0.69,0,1,0-1.195.69l1.908,3.3-2.582-.69a0.689,0.689,0,0,0-.845.49,0.68,0.68,0,0,0,.488.84l3.915,1.05,2.014,3.49-5.168-1.38a0.689,0.689,0,1,0-.357,1.33l6.5,1.75,2.555,4.42-8.038-2.15a0.689,0.689,0,1,0-.357,1.33l9.37,2.51,1.158,2.01a11.087,11.087,0,0,1-15.9-11.76,0.818,0.818,0,0,0,.01-0.11l1.97-13.72,4.572,1.86a0.691,0.691,0,0,0,.519-1.28l-5.389-2.19a0.708,0.708,0,0,0-.6.04,0.7,0.7,0,0,0-.34.5l-2.109,14.69a0.572,0.572,0,0,0-.006.07,12.481,12.481,0,0,0,17.97,13.1l0.848,1.47a0.688,0.688,0,0,0,.6.34,0.716,0.716,0,0,0,.345-0.09,0.686,0.686,0,0,0,.252-0.94l-0.314-.55a10.573,10.573,0,0,0,4.871,1.2,10.765,10.765,0,0,0,2.749-.36A10.569,10.569,0,0,0,976.812,1429.62Zm-23.791-14.19a0.7,0.7,0,0,0-.976,0,0.7,0.7,0,0,0,0,.98,0.7,0.7,0,0,0,.976,0A0.7,0.7,0,0,0,953.021,1415.43Zm19.225,6.07,0-.01a0.689,0.689,0,0,0-1.116.81l0,0.01a0.7,0.7,0,0,0,.559.28A0.686,0.686,0,0,0,972.246,1421.5Z" transform="translate(-941.594 -1412)"/>
</svg>
