<svg xmlns="http://www.w3.org/2000/svg" width="202" height="183" viewBox="0 0 202 183">
  <metadata><?xpacket begin="﻿" id="W5M0MpCehiHzreSzNTczkc9d"?>
<x:xmpmeta xmlns:x="adobe:ns:meta/" x:xmptk="Adobe XMP Core 5.6-c138 79.159824, 2016/09/14-01:09:01        ">
   <rdf:RDF xmlns:rdf="http://www.w3.org/1999/02/22-rdf-syntax-ns#">
      <rdf:Description rdf:about=""/>
   </rdf:RDF>
</x:xmpmeta>
                                                                                                    
                                                                                                    
                                                                                                    
                                                                                                    
                                                                                                    
                                                                                                    
                                                                                                    
                                                                                                    
                                                                                                    
                                                                                                    
                                                                                                    
                                                                                                    
                                                                                                    
                                                                                                    
                                                                                                    
                                                                                                    
                                                                                                    
                                                                                                    
                                                                                                    
                                                                                                    
                           
<?xpacket end="w"?></metadata>
<defs>
    <style>
      .cls-1 {
        fill: #5ca133;
        fill-rule: evenodd;
      }
    </style>
  </defs>
  <path id="Shape_505_copy_5" data-name="Shape 505 copy 5" class="cls-1" d="M1375.03,393.908h0.09a0.1,0.1,0,0,1-.04.094,1.459,1.459,0,0,0,1.04,1.789h0a1.47,1.47,0,0,0,1.8-1.036v-0.094a0.178,0.178,0,0,0,.1.047,1.469,1.469,0,0,0,2.04-.424h0a1.455,1.455,0,0,0-.47-2.024c-0.05,0-.05-0.047-0.1-0.047,0.05,0,.05-0.047.1-0.047a1.418,1.418,0,0,0,.18-2.024h0a1.446,1.446,0,0,0-2.04-.188,0.782,0.782,0,0,1-.09.094c0-.047,0-0.094-0.05-0.094a1.418,1.418,0,0,0-1.9-.8h0a1.428,1.428,0,0,0-.8,1.883c0,0.047.04,0.047,0.04,0.094h-0.09a1.445,1.445,0,0,0-1.38,1.553h0A1.478,1.478,0,0,0,1375.03,393.908Zm2.28-2.542h0Zm-1,1.553h0Zm17.47-3.342c0.62,0.142,1.23-.141,1.61.189a1.888,1.888,0,0,0-.42.235c1.56,1.365-.57,3.53-1.57,4.425a0.967,0.967,0,0,0-.95-0.236c-1.85-3.53-4.18-3.153-6.79-2.824-0.24.235,0.19,0.706,0.52,1.459s1.33,4.048,3.85,4.425c0.76,0.141,1.52-.283,2.28-0.094,1.18,0.282,1.9,1.223,3.04.517a10.787,10.787,0,0,0,4.51-8.566c-0.05-.518-2.14-0.848-2.33-1.177-0.24-.33,0-0.988-0.28-1.318s-1.43-.329-2-1.506-2.14.047-3.32-.565a2.022,2.022,0,0,0-.43.471C1390.17,386.847,1391.55,389.107,1393.78,389.577Zm2.75-8.755a10.461,10.461,0,0,0,1.24-2.118,12.28,12.28,0,0,0,1.14-4.189,0.974,0.974,0,0,0-1.29-.423c-1.47,1.082-1.23,4.659-1.94,6.778-0.29.847-1.19,2.118-.29,2.777C1396.44,383.882,1396.96,381.764,1396.53,380.822Zm-3.13-2.682a4.276,4.276,0,0,0,.43-3.531,0.872,0.872,0,0,0-1.05-.094c-1.33,2.4-.99,5.743-1.28,8.426C1393.78,384.353,1392.83,379.646,1393.4,378.14Zm4.46,6.919c1.57,0.847,2.04-1.318,2.71-2.542,0.9-1.695,2.61-3.3,1.9-5.225a0.8,0.8,0,0,0-1.24-.094c-0.85,1.083-.99,2.636-1.56,3.907-0.15.329-.53,0.612-0.67,0.941a4.327,4.327,0,0,1-.14.848C1398.48,383.6,1397.25,384.635,1397.86,385.059Zm3.14,2.259c-0.1.565-.95,1.13-0.62,1.271,1.47,0,2.75-1.318,3.61-2.589,0.52-.282,1.66-0.753,1.85-1.647,0.57-2.354-2.8-.659-2.57,1.129C1402.47,386,1402.04,387.083,1401,387.318Zm-20.51.894c1.04,0.753,1.71,1.507,2.94,1.177a2.893,2.893,0,0,0-2.18-2.777c-0.53-.141-1.95-0.235-2.14.33C1378.97,387.459,1379.96,387.789,1380.49,388.212Zm1.56-5.977h0a1.7,1.7,0,0,0,2.09,1.176c0.05,0,.1,0,0.1-0.047v0.094a1.69,1.69,0,0,0,1.61,1.789h0a1.662,1.662,0,0,0,1.76-1.6v-0.142a0.735,0.735,0,0,1,.09.048,1.68,1.68,0,0,0,2.19-.989h0a1.654,1.654,0,0,0-1-2.165,0.161,0.161,0,0,1-.14-0.047,0.782,0.782,0,0,1,.09-0.094,1.647,1.647,0,0,0-.28-2.354h0a1.687,1.687,0,0,0-2.38.283c0.05,0,0,.047,0,0.047a0.159,0.159,0,0,1-.04-0.094,1.708,1.708,0,0,0-2.38-.471h0a1.675,1.675,0,0,0-.47,2.353c0,0.047.05,0.047,0.05,0.094h-0.1a1.71,1.71,0,0,0-1.19,2.119h0Zm4.04-2.213h0Zm21.6,6.4h0.09a0.1,0.1,0,0,1-.04.094,1.318,1.318,0,0,0,.9,1.694h0a1.3,1.3,0,0,0,1.66-.894v-0.094l0.05,0.047a1.385,1.385,0,0,0,1.9-.329h0a1.36,1.36,0,0,0-.34-1.883,0.057,0.057,0,1,1,0-.094,1.341,1.341,0,0,0,.29-1.883h0a1.325,1.325,0,0,0-1.9-.236,0.735,0.735,0,0,0-.09.048,0.093,0.093,0,0,0-.05-0.1,1.351,1.351,0,0,0-1.71-.847h0a1.308,1.308,0,0,0-.81,1.695,0.142,0.142,0,0,0,.05.094h-0.1a1.324,1.324,0,0,0-1.32,1.365h0A1.4,1.4,0,0,0,1407.69,386.424Zm1.23-.848h0Zm-14.76,14.5h0a1.194,1.194,0,0,0-1.57-.8,0.1,0.1,0,0,0-.09.047v-0.094a1.271,1.271,0,0,0-1.28-1.271h0a1.231,1.231,0,0,0-1.24,1.271v0.094a0.74,0.74,0,0,1-.09-0.047,1.282,1.282,0,0,0-1.62.8h0a1.2,1.2,0,0,0,.81,1.553,0.128,0.128,0,0,1,.09.047l-0.04.047a1.208,1.208,0,0,0,.23,1.742h0a1.248,1.248,0,0,0,1.76-.283,0.161,0.161,0,0,0,.05-0.094c0,0.047.05,0.047,0.05,0.094a1.235,1.235,0,0,0,1.75.283h0a1.227,1.227,0,0,0,.29-1.742,0.048,0.048,0,0,0-.05-0.047,0.082,0.082,0,0,0,.09-0.047A1.184,1.184,0,0,0,1394.16,400.074Zm-3.7,1.177h0Zm1.28-.895h0Zm32.85,14.215h0a1.258,1.258,0,0,0-.81-1.647,0.74,0.74,0,0,0-.09-0.047,0.161,0.161,0,0,0,.05-0.094,1.274,1.274,0,0,0-.24-1.789h0a1.3,1.3,0,0,0-1.81.235,0.174,0.174,0,0,0-.04.094c0-.047-0.05-0.047-0.05-0.094a1.259,1.259,0,0,0-1.8-.329h0a1.277,1.277,0,0,0-.34,1.789,0.048,0.048,0,0,0,.05.047h-0.09a1.213,1.213,0,0,0-.86,1.6h0a1.261,1.261,0,0,0,1.61.847,0.1,0.1,0,0,0,.1-0.047v0.094a1.27,1.27,0,0,0,1.23,1.318h0a1.3,1.3,0,0,0,1.33-1.271v-0.094c0.05,0,.05.047,0.1,0.047A1.148,1.148,0,0,0,1424.59,414.571Zm-2.99,15.957h0a0.977,0.977,0,0,0-1.28-.659c-0.05,0-.05,0-0.05.047v-0.094a0.972,0.972,0,0,0-1-.989h0a0.964,0.964,0,0,0-.99.989v0.094a0.048,0.048,0,0,1-.05-0.047,1.007,1.007,0,0,0-1.28.612h0a0.993,0.993,0,0,0,.61,1.271h0.05l-0.05.047a1.031,1.031,0,0,0,.19,1.412h0a1.056,1.056,0,0,0,1.43-.188,0.048,0.048,0,0,1,.05-0.048,0.045,0.045,0,0,0,.04.048,1.015,1.015,0,0,0,1.43.235h0a0.984,0.984,0,0,0,.23-1.412,0.042,0.042,0,0,0-.04-0.047h0.04A0.988,0.988,0,0,0,1421.6,430.528Zm3.89,13.273c0.38-.423.71-0.847,1-1.176,1.52-2.071,1-3.531-.33-4.1a5.5,5.5,0,0,0-2.14-.094,0.84,0.84,0,0,1-.62-1.318c0.43-.8,1.62-0.706,2.23-0.848,0.76-.141,1.29-1.318-0.23-1.977-2.66-1.035-6.46.236-8.79,1.648-0.71-1.365-1.18-2.26-1.18-2.26a1.15,1.15,0,0,0,.19-0.47,0.88,0.88,0,0,0-.52-0.565,2.8,2.8,0,0,1-.72-0.894c0,0.423-.09.941-0.09,1.365,0,0.517.62,0.612,0.71,0.847,0.1,0.282.47,1.506,0.85,2.542a3.607,3.607,0,0,0-.52.376c-2.85-1.694-4.89-2.918-4.89-2.918a1.543,1.543,0,0,0-.04-0.612,0.784,0.784,0,0,0-.76-0.235,3.93,3.93,0,0,1-1.19-.424c0.24,0.377.24,1.13,0.47,1.365a2.1,2.1,0,0,0,1.19.33c0.33,0.094,2.42,1.788,4.32,3.153a9.147,9.147,0,0,0-.95.895c-2.7,2.4-6.55,10.4,2.8,9.743A15.729,15.729,0,0,0,1420.6,447c1,1.977,1.81,3.577,2.14,4.095,0.47,0.8.47,0.518,0.47,0.518a24.439,24.439,0,0,0-1.85-4.942,14.828,14.828,0,0,0,3.56-2.354c0.9,0.565,1.62.942,2,1.13,0.9,0.423.71,0.188,0.71,0.188A10.875,10.875,0,0,0,1425.49,443.8Zm-11.06,3.625a1.318,1.318,0,0,1-1.47-1.036,1.289,1.289,0,0,1,1.47-.988,1.231,1.231,0,0,1,1.42,1.035A1.2,1.2,0,0,1,1414.43,447.426Zm4.27-.424a1.316,1.316,0,0,1-1.71-.565,1.285,1.285,0,0,1,1.1-1.365,1.35,1.35,0,0,1,1.71.518A1.293,1.293,0,0,1,1418.7,447Zm3.9-1.788a1.392,1.392,0,0,1-1.81-.189,1.329,1.329,0,0,1,.81-1.6,1.267,1.267,0,0,1,1.76.188A1.294,1.294,0,0,1,1422.6,445.214Zm1.52-2.683a1.256,1.256,0,0,1,.47-1.695,1.287,1.287,0,0,1,1.76-.141,1.26,1.26,0,0,1-.48,1.694A1.275,1.275,0,0,1,1424.12,442.531Zm-37.08-5.319c-3.09-2.872-8.07-4.425-11.11-4.142a40.4,40.4,0,0,0-4.7.659l-6.88-4.143,0.42-.659a0.579,0.579,0,0,0,.38-0.329c0.15-.235.19-0.518,0.05-0.565a0.445,0.445,0,0,0-.52.283,0.469,0.469,0,0,0-.14.517l-0.43.659-0.43-.282,0.43-.659a0.479,0.479,0,0,0,.47-0.283,0.462,0.462,0,0,0,0-.611,0.344,0.344,0,0,0-.47.141,0.307,0.307,0,0,0-.05-0.377,0.218,0.218,0,0,0-.24,0,0.228,0.228,0,0,0-.09-0.235,0.393,0.393,0,0,0-.43.188,0.36,0.36,0,0,0,.05-0.423,0.6,0.6,0,0,0-.48.329,1.137,1.137,0,0,0-.19.424l-0.47.706-0.24-.142,0.48-.706a0.625,0.625,0,0,0,.38-0.329c0.14-.235.19-0.518,0.04-0.565a0.445,0.445,0,0,0-.52.283,0.469,0.469,0,0,0-.14.517l-0.47.706-0.72-.423-0.23.376-0.1.141-0.24.377,0.81,0.612-0.24.377a0.523,0.523,0,0,0-.38.329c-0.14.235-.19,0.518-0.04,0.565a0.27,0.27,0,1,1,.42.329,0.239,0.239,0,0,0,.29-0.047,0.2,0.2,0,0,0,.05.236,0.549,0.549,0,0,0,.47-0.33,1.578,1.578,0,0,0,.19-0.424l0.24-.376,0.23,0.188-0.33.518a0.523,0.523,0,0,0-.38.329c-0.14.236-.19,0.518-0.04,0.565a0.45,0.45,0,0,0,.52-0.282,0.418,0.418,0,0,0,.14-0.471l0.33-.518,0.24,0.236-0.29.423a0.384,0.384,0,0,0-.42.33,0.463,0.463,0,0,0,0,.612,0.469,0.469,0,0,0,.57-0.236,0.388,0.388,0,0,0,.09-0.517l0.29-.424,0.33,0.235,6.6,4.613a41.426,41.426,0,0,0,1.28,4.566c0.95,2.871,4.37,6.778,8.26,8.425,3.94,1.648,5.65-.847,5.93-1.318,0.24-.376,1-1.553,1.29-1.929a0.846,0.846,0,0,0,.09-0.142c0.24-.376,1-1.553,1.24-1.929C1388.51,442.719,1390.12,440.13,1387.04,437.212Zm-25.68-7.3a0.275,0.275,0,0,0-.19.047,0.245,0.245,0,0,0,0-.235l0.23-.377,0.19,0.141Zm0.33,0.235h-0.05v-0.094l0.24-.376,0.09,0.047Zm0.85-1.506-0.19-.094,0.48-.706a1.855,1.855,0,0,1,.14-0.141,0.2,0.2,0,0,0,0,.282Zm0.33,0.188-0.09-.047,0.43-.659h0.04a0.142,0.142,0,0,0,.05.094Zm0.53,0.283-0.29-.141,0.43-.659a0.349,0.349,0,0,0,.24-0.142,0.322,0.322,0,0,0,.04.283Zm70.35,4.189c1.71-.282,10.02-1.459,8.55-8.426-0.86,1.177-7.36-3.483-9.97,6.826,0.57-5.508-2.8-5.413-1.95-6.873-2.28,1.365-3.04,3.013.48,7.626-1.48-1.742-2.76-3.436-4.7-1.6,1.47-.141,1.52,3.672,4.41,3.389,0.57,5.084,3.56,3.813,4.18,5.178,0.43-1.883-.67-3.719-1.95-4.942,0.29,0.235,4.94,4.66,9.02,1.271C1440.49,436.364,1439.4,432.458,1433.75,433.305Zm0.14,4.754a6.959,6.959,0,0,1-1.89-3.2A7.366,7.366,0,0,0,1433.89,438.059Zm-1.89-4.425a1.528,1.528,0,0,0-.05.895,4.327,4.327,0,0,1-.14-0.848,5.391,5.391,0,0,1-3.14-1.459,3.988,3.988,0,0,0,3.04,1.177,10.885,10.885,0,0,1-1.95-6.872c-0.23,2.353,1.33,5.789,2.14,6.825,1.19-.518,4.51-1.93,9.59-7.343-2.75,3.107-5.17,5.743-9.3,7.531a9.857,9.857,0,0,0,7.02,2.071C1439.21,435.564,1436.22,436.459,1432,433.634Zm6.21-17.227a3.285,3.285,0,0,0-1.18.941,0.38,0.38,0,0,0-.24-0.329,3.159,3.159,0,0,0-1.14,1.506c-0.09-.141-0.19-0.329-0.38-0.235a3.768,3.768,0,0,0-.66,2.212c-0.1,0-.29-0.141-0.29.047a3.166,3.166,0,0,0,1,2.4s0.14,0.141.19,0.188a0.843,0.843,0,0,0,.24.094,3.355,3.355,0,0,0,2.61-.094c0.14-.094,0-0.188-0.1-0.282a3.613,3.613,0,0,0,1.76-1.507c0-.188-0.19-0.188-0.33-0.235,0.76-.989.99-1.553,0.9-1.647-0.05-.142-0.24-0.095-0.38-0.095a3.147,3.147,0,0,0,.38-1.459c-0.05-.141-0.19-0.094-0.33-0.094a1.4,1.4,0,0,0,.09-1.13,1.527,1.527,0,0,0-.66-0.047,0.986,0.986,0,0,0-.34-0.564,1.631,1.631,0,0,0-.99.564C1438.4,416.5,1438.4,416.36,1438.21,416.407Zm-33.37,29.183a3.536,3.536,0,0,0,2.85.094,1.2,1.2,0,0,1,.24-0.094c0.04-.047.19-0.188,0.19-0.188a3.615,3.615,0,0,0,1.09-2.636c0-.188-0.19-0.094-0.33-0.047a3.738,3.738,0,0,0-.72-2.448c-0.19-.094-0.28.094-0.38,0.236a3.227,3.227,0,0,0-1.23-1.648,0.4,0.4,0,0,0-.24.377,2.85,2.85,0,0,0-1.33-1.036c-0.14-.047-0.19.141-0.23,0.283a1.63,1.63,0,0,0-1.1-.612,1.317,1.317,0,0,0-.33.612,1.189,1.189,0,0,0-.71.047,1.621,1.621,0,0,0,.09,1.223c-0.19-.047-0.33-0.047-0.38.1a2.86,2.86,0,0,0,.38,1.6c-0.14,0-.38-0.047-0.42.094a3.247,3.247,0,0,0,.99,1.789c-0.14.047-.38,0.047-0.38,0.235a3.69,3.69,0,0,0,1.95,1.648C1404.84,445.355,1404.65,445.5,1404.84,445.59Zm-9.3,1.742a4.512,4.512,0,0,0-1.43-2.542c0.1-.094.38-0.141,0.19-0.283a3.922,3.922,0,0,0-3.04-1.223h-0.33a1.8,1.8,0,0,0-.28.094,4.272,4.272,0,0,0-2.23,2.4c-0.05.189,0.19,0.189,0.33,0.189a4.132,4.132,0,0,0-.19,2.871c0.19,0.188.38,0,.52-0.094,0.19,1.553.52,2.212,0.66,2.259a0.563,0.563,0,0,0,.43-0.282,3.131,3.131,0,0,0,1,1.6c0.14,0.094.24-.094,0.38-0.235a1.962,1.962,0,0,0,.9,1.082,1.377,1.377,0,0,0,.62-0.565,1.911,1.911,0,0,0,.8.236,1.68,1.68,0,0,0,.38-1.365c0.19,0.094.34,0.188,0.43,0.047a3.114,3.114,0,0,0,.19-1.883,0.734,0.734,0,0,0,.52.094c0.1-.094.15-0.847-0.38-2.353C1395.2,447.473,1395.44,447.567,1395.54,447.332Zm-27.44-12.521c-0.15-.094-0.19.094-0.24,0.236a4.176,4.176,0,0,0-2.52-.989c-0.19.094-.09,0.33-0.04,0.471-1.43-.283-2.14-0.189-2.24-0.047a0.508,0.508,0,0,0,.15.47,3.056,3.056,0,0,0-1.71.424c-0.14.094,0,.235,0.09,0.377a1.915,1.915,0,0,0-1.23.47,1.2,1.2,0,0,0,.33.706,1.151,1.151,0,0,0-.43.659,1.772,1.772,0,0,0,1.1.706c-0.15.142-.29,0.236-0.19,0.377a2.948,2.948,0,0,0,1.61.706c-0.1.141-.29,0.282-0.19,0.424,0.05,0.141.71,0.376,2.18,0.376-0.09.141-.23,0.33-0.04,0.471a4.291,4.291,0,0,0,2.65-.518c0.05,0.094.05,0.377,0.19,0.282a3.831,3.831,0,0,0,2-2.306,1.206,1.206,0,0,1,.09-0.282v-0.283A4.143,4.143,0,0,0,1368.1,434.811Zm39.16-23.488a2.567,2.567,0,0,0,2.04.142,0.594,0.594,0,0,0,.19-0.094,0.386,0.386,0,0,0,.15-0.095,2.642,2.642,0,0,0,.8-1.835c0-.141-0.14-0.047-0.23-0.047a2.775,2.775,0,0,0-.48-1.742c-0.14-.047-0.19.094-0.28,0.188a2.31,2.31,0,0,0-.81-1.223,0.326,0.326,0,0,0-.19.235,2,2,0,0,0-.9-0.753,0.238,0.238,0,0,0-.19.188,1.286,1.286,0,0,0-.76-0.471,0.742,0.742,0,0,0-.24.424,1.917,1.917,0,0,0-.52,0,1.05,1.05,0,0,0,.05.847c-0.15,0-.24-0.047-0.29.047a2.308,2.308,0,0,0,.24,1.13,0.3,0.3,0,0,0-.29.047,2.42,2.42,0,0,0,.67,1.271c-0.1,0-.29,0-0.29.141a2.568,2.568,0,0,0,1.33,1.177A1.243,1.243,0,0,0,1407.26,411.323Zm-4.03-11.343a3.117,3.117,0,0,0,2.28-.9,0.648,0.648,0,0,0,.14-0.188,1.238,1.238,0,0,1,.09-0.235,2.915,2.915,0,0,0-.09-2.448c-0.1-.141-0.19,0-0.29.047a3.139,3.139,0,0,0-1.37-1.647c-0.19,0-.19.188-0.24,0.329a2.841,2.841,0,0,0-1.57-.894,0.469,0.469,0,0,0-.09.377,2.878,2.878,0,0,0-1.38-.377c-0.14.047-.09,0.188-0.09,0.329a1.219,1.219,0,0,0-1.05-.094,1.36,1.36,0,0,0-.05.612,1.634,1.634,0,0,0-.57.283,1.433,1.433,0,0,0,.53.941c-0.15.047-.29,0.047-0.29,0.188a2.334,2.334,0,0,0,.9,1.13,1.462,1.462,0,0,0-.19.282,2.945,2.945,0,0,0,1.43,1.083c-0.14.094-.29,0.141-0.24,0.33a3.2,3.2,0,0,0,2.09.611C1403.13,399.791,1403.04,399.98,1403.23,399.98Zm29.29-3.53a0.291,0.291,0,0,1-.33.094,1.065,1.065,0,0,1-.15.659,4.342,4.342,0,0,0,.76,2.212l-0.04.047c-0.76-.471-1.48-1.036-2.24-1.459a0.356,0.356,0,0,0-.14.376,1.537,1.537,0,0,0-.81-0.141,2.031,2.031,0,0,0,1.29,1.271,3.189,3.189,0,0,0-1.62.047,0.8,0.8,0,0,0,.57.33,7.258,7.258,0,0,0,2.38.894c-1,.141-2.28-0.424-3.04.518a0.579,0.579,0,0,0,.28.188,1.369,1.369,0,0,0-.05.471,4.019,4.019,0,0,0,1.67-.094c-0.34.329-1.19,0.611-1.24,0.8a0.892,0.892,0,0,0,0,.706,2.551,2.551,0,0,0,.95-0.471,0.948,0.948,0,0,1,.29-0.329,3.946,3.946,0,0,1,1.66-.33,3.248,3.248,0,0,0-1.47,1.648,1.249,1.249,0,0,0,.14.376,6.055,6.055,0,0,0,1.99-1.365c0.1,0.424-.47.941-0.05,1.553,0.43-.141.57,0.33,1.19,0.706,0.52-.282.38-0.941,0.52-1.412,0.29,0.33.67,1.742,0.86,1.6,0.19-.094,0-0.283.28-0.33a8.825,8.825,0,0,0,.05-1.93c0.38,0.094.76,0.518,1,.565,0.28,0.047.24,0.236,0.33,0.424a1.262,1.262,0,0,0,.38-0.471,1.723,1.723,0,0,0-.52-0.941c0.28,0.047.61,0,.9,0.047a0.964,0.964,0,0,0,.62.188,1.764,1.764,0,0,0-1.24-1.459,0.759,0.759,0,0,1-.57-0.094,7.091,7.091,0,0,0,1.09-.189,0.747,0.747,0,0,0,.57-0.047,1.652,1.652,0,0,0-1.8-.753,2.669,2.669,0,0,1,1.47-.894,0.318,0.318,0,0,0-.28-0.377,1.819,1.819,0,0,0-1.57.1,3.861,3.861,0,0,1,.67-1.413c-0.48-.611-1.24.612-1.81,0.848a2.545,2.545,0,0,0,.05-1.695,0.829,0.829,0,0,1-.29-0.47,0.554,0.554,0,0,0-.33.094,16.677,16.677,0,0,0-.47,1.647,4.468,4.468,0,0,0-.24-1.647,0.248,0.248,0,0,0-.24.047,0.856,0.856,0,0,0-.24-0.518,1.159,1.159,0,0,1-.47.612,4.558,4.558,0,0,0,.05.847A6.151,6.151,0,0,1,1432.52,396.45Zm-64.95-8.191c-0.09.048-.23,0.095-0.19,0.189a2.29,2.29,0,0,0,.81.8,0.349,0.349,0,0,0-.24.188,2.5,2.5,0,0,0,1.24.706c-0.1.094-.19,0.141-0.14,0.283a2.775,2.775,0,0,0,1.75.235c0,0.094-.04.235,0.05,0.188a2.455,2.455,0,0,0,1.71-.988l0.09-.141a1.03,1.03,0,0,1,.05-0.189,2.518,2.518,0,0,0-.33-1.93c-0.1-.094-0.14.048-0.19,0.095a2.607,2.607,0,0,0-1.33-1.177c-0.14,0-.14.188-0.14,0.282a2.5,2.5,0,0,0-1.33-.517c-0.1.047-.05,0.188,0,0.282a1.929,1.929,0,0,0-1.14-.141c-0.1.047-.05,0.141,0,0.282a1.193,1.193,0,0,0-.86.047,1.071,1.071,0,0,0,.05.518,0.83,0.83,0,0,0-.38.282A1.081,1.081,0,0,0,1367.57,388.259Zm45.06,3.2c-0.15,0-.38-0.047-0.34.141a4.236,4.236,0,0,0,1.95,2.542s0.19,0.094.29,0.141c0.04,0,.28.047,0.28,0.047a4.386,4.386,0,0,0,3.09-.941c0.14-.141-0.1-0.235-0.19-0.329a4.244,4.244,0,0,0,1.61-2.354c-0.05-.235-0.28-0.188-0.47-0.141,0.61-1.412.66-2.118,0.52-2.259-0.1-.142-0.33,0-0.48.047a3.184,3.184,0,0,0-.04-1.883c-0.1-.141-0.24-0.047-0.43,0a1.84,1.84,0,0,0-.24-1.365,1.746,1.746,0,0,0-.81.141,1.294,1.294,0,0,0-.57-0.565,1.749,1.749,0,0,0-.99.989c-0.1-.142-0.19-0.33-0.34-0.236a3.231,3.231,0,0,0-1.09,1.507,0.6,0.6,0,0,0-.38-0.33c-0.19.047-.52,0.659-0.85,2.165-0.14-.141-0.33-0.329-0.48-0.141A3.823,3.823,0,0,0,1412.63,391.46Zm-51.61,19.958s-0.14.282,0.05,0.329c1.38-.376,4.89-3.671,5.7-4.471a13.507,13.507,0,0,0,4.13-3.154,0.693,0.693,0,0,0,.9.282,14.991,14.991,0,0,1,3.09,1.365l1.61-1.412s-0.38-.141-0.14-0.376c0.09-.094.14-0.142,0.14-0.142a0.138,0.138,0,0,1-.14-0.188c0-.047-0.95.894-1.38,1.271a18.552,18.552,0,0,1-3.13-2.165,5.826,5.826,0,0,0,.42-0.847h0a5.129,5.129,0,0,0,.43-3.248,3.6,3.6,0,0,0-1.66-2.73,6.851,6.851,0,0,1,1.99-1.459,3.608,3.608,0,0,0-2.04.188,2.652,2.652,0,0,0-2.7-.141c-1.86.894-.86,3.3-0.86,3.3a12.146,12.146,0,0,0-3.13,6.448,1.685,1.685,0,0,0-.43.941,3.485,3.485,0,0,0-.52,1.977s-2.33,3.719-2.85,4.472c-0.47.706-.38,0.753-0.28,0.753Zm10.45-8.238a0.616,0.616,0,0,0,.76.471,9.79,9.79,0,0,1,2.18,1.412,28.56,28.56,0,0,1-3.18-1.459C1371.28,403.51,1371.37,403.369,1371.47,403.18Zm41.01,1.46a45.44,45.44,0,0,1,.95,5.318c0.38-.235.24-0.658,0.48-0.611a1.073,1.073,0,0,0,.38,1.318c0-.424,0-1.318.24-1.318a1.15,1.15,0,0,0,.47,1.129c-0.05-.565-0.05-1.365.19-1.412a0.672,0.672,0,0,0,.33.659,13.41,13.41,0,0,1,.38-1.836,8.246,8.246,0,0,0-.05-6.354,3.871,3.871,0,0,1-2.18-1.553c-0.19-.612.81-1.318,0.43-1.977-0.38-.612-1.47-0.141-1.95-0.659a4,4,0,0,1-.19-2.683,8.408,8.408,0,0,0-5.46-3.3,10.16,10.16,0,0,1-1.8-.612,0.673,0.673,0,0,0,.38.612c-0.14.188-.81-0.235-1.33-0.565a1.192,1.192,0,0,0,.71.989c-0.09.188-.85-0.283-1.23-0.471a1.144,1.144,0,0,0,.95.988c-0.1.236-.38-0.094-0.81,0.095a35.938,35.938,0,0,1,4.13,3.53c1,1.082.81,3.059,0.9,4.283a18.709,18.709,0,0,1-4.79,1.789c0.23,0.659,1.28.612,1.8,0.894,0.05,0,.05,0,0.05.047,0,0.565-.62,1.412-0.14,1.977a18.951,18.951,0,0,1,3.98-3.154C1410.25,402.38,1412.06,403.228,1412.48,404.64Zm11.3-12.05s-0.42.518-1.18,1.6c-0.38.518-3.33,4.048-3.42,4.472s0.14,0.894.05,1.318c-0.05.423-1,3.436,0,5.036,0.99,1.648.61,1.93,0.61,1.93l-3.27,3.907a11.914,11.914,0,0,0-.67,1.271,7.417,7.417,0,0,1-.95,1.176c-0.76.848-1.71,1.883-2.09,2.26-0.09.094-.14,0.141-0.14,0.141a1.044,1.044,0,0,1-.81.235h0a0.91,0.91,0,0,0-.95.706,3.218,3.218,0,0,0-.09.659h0a7.269,7.269,0,0,0,1.42.424h0a0.41,0.41,0,0,0,.38-0.377V417.16c0.15-.376,1.1-0.235,1.33-0.706h0a0.238,0.238,0,0,0,.19-0.188c1.19-2.165,5.89-6.872,7.03-8.1,0.19-.188.28-0.283,0.28-0.283s6.6,4.566,7.08,4.943c-0.33.706,0.09,4.565,0.66,6.872a3.339,3.339,0,0,1-1.23,3.483l-3.18,1.883a1.244,1.244,0,0,1-.95.282,1.616,1.616,0,0,0-1,.141c-0.47.189,0.33,1.695,0.52,1.648a4.582,4.582,0,0,0,.67-0.424,1.44,1.44,0,0,1,.47-0.047,1.493,1.493,0,0,0,.57-0.423c0.29-.283,2.42-1.554,2.42-1.554s-2.56,2.165-2.94,2.4a1.412,1.412,0,0,1-1.09.423,1.658,1.658,0,0,0-1.33.471h0a2.631,2.631,0,0,0,1.38,1.13c0.23,0.047.33-.753,0.94-0.706a0.879,0.879,0,0,0,.67-0.142,2.749,2.749,0,0,1,.38-0.329c0.71-.706,3.23-3.154,4.89-4.8a8.815,8.815,0,0,0,1.38-1.365c0.14-.33-0.19-3.248-0.1-4.519s1.19-.706,1.61-0.706c-0.71.8-.14,2.448-0.14,2.448a0.673,0.673,0,0,0,.1.141c0.09,0.094.19,0.094,0.14-.282-0.1-.659.57-0.9,1.85-1.695a5.15,5.15,0,0,0,1.85-2.871,5.007,5.007,0,0,0,.19-1.459,5.376,5.376,0,0,0-.57-2.307,11.171,11.171,0,0,0-1.18-1.977c-0.1-.141-0.24-0.282-0.38-0.47-0.05-.047-0.05-0.094-0.1-0.142-0.57-.658-4.94-3.859-6.5-5.318l-0.1-.094-0.04-.048c-0.34-.329-0.72-0.659-1.05-0.941-1.04-.894-2.09-1.553-3.09-2.306a0.2,0.2,0,0,1-.09-0.094c-1.14-.942-0.38-1.554-0.24-1.695,0.1-.094,1.09-1.318,1.71-2.118a7.054,7.054,0,0,1,.52-0.612,0.048,0.048,0,0,1,.05-0.047c1.43-.941,3.18.329,3.18,0.329a2.356,2.356,0,0,0,3.09-.706c-1.81-1.176-3.94-.706-4.75-0.988a0.746,0.746,0,0,0-.24-0.094c-0.33-.283.43-0.753,0.43-0.753,1.47-.659,1.42-0.706,2.33-1.13,1.28-.612,1.37-2.118,1.09-2.306h-0.05a2.517,2.517,0,0,1-.85,1.459c-1.62.847-3.56,1.883-3.56,1.883l-0.53-.471-0.33-.377s0.71-2.071,1.28-3.765a2.409,2.409,0,0,1,1.29-1.083h0a1.914,1.914,0,0,0-2.14,1.459c-0.29.942-.33,0.895-0.76,2.448,0,0-.33.847-0.67,0.565a0.884,0.884,0,0,1-.14-0.189c-0.38-.753-0.28-2.918-1.75-4.471a2.326,2.326,0,0,0-.19,3.153C1422.93,389.53,1424.49,391.037,1423.78,392.59Zm-47.04,34.737a2.082,2.082,0,0,0,.04-1.318,0.8,0.8,0,0,1-.23-0.329,0.3,0.3,0,0,0-.24.047c-0.05,0-.24.847-0.38,1.271a3.181,3.181,0,0,0-.19-1.271,0.156,0.156,0,0,0-.19.047,0.347,0.347,0,0,0-.19-0.377,1.856,1.856,0,0,1-.33.471,2.129,2.129,0,0,0,0,.565c-0.24-.188-0.33-0.565-0.57-0.8-0.1.094-.1,0.047-0.24,0.047a0.571,0.571,0,0,1-.14.47,3.174,3.174,0,0,0,.57,1.7h0a17.206,17.206,0,0,0-1.71-1.083,0.514,0.514,0,0,0-.14.283,1.413,1.413,0,0,0-.62-0.094,1.71,1.71,0,0,0,1,.988,2.254,2.254,0,0,0-1.24.047,0.467,0.467,0,0,0,.43.235,4.981,4.981,0,0,0,1.8.706c-0.76.095-1.75-.329-2.32,0.424,0.04,0.141.14,0.047,0.23,0.141a0.938,0.938,0,0,0-.04.33,2.946,2.946,0,0,0,1.28-.047c-0.24.282-.9,0.47-0.95,0.612a0.612,0.612,0,0,0,0,.517,2.133,2.133,0,0,0,.71-0.376c0.1-.094.1-0.188,0.19-0.283a7.118,7.118,0,0,1,1.28-.235,2.684,2.684,0,0,0-1.14,1.271,1.771,1.771,0,0,1,.1.282,4.192,4.192,0,0,0,1.52-1.082c0.05,0.329-.38.753-0.05,1.224,0.33-.095.47,0.282,0.95,0.517a1.505,1.505,0,0,0,.43-1.082,8.125,8.125,0,0,0,.66,1.224c0.14-.095,0-0.236.24-0.236a7.769,7.769,0,0,0,.05-1.459,6.533,6.533,0,0,0,.76.424,0.337,0.337,0,0,1,.23.329,0.789,0.789,0,0,0,.29-0.376,1.341,1.341,0,0,0-.38-0.706c0.24,0.047.47,0,.66,0.047a0.6,0.6,0,0,0,.48.141,1.5,1.5,0,0,0-.95-1.13,0.757,0.757,0,0,1-.43-0.047,4.11,4.11,0,0,0,.81-0.141,0.655,0.655,0,0,0,.43-0.047,1.257,1.257,0,0,0-1.38-.565,2.049,2.049,0,0,1,1.14-.706c0.05-.141-0.05-0.235-0.24-0.33a1.324,1.324,0,0,0-1.19.095,2.818,2.818,0,0,1,.53-1.083C1377.78,426.15,1377.16,427.092,1376.74,427.327Zm-3.85-2.259a1.257,1.257,0,0,0,.1-0.565,1.721,1.721,0,0,0,.76-0.282,7.417,7.417,0,0,0-1.29-2.589c0.76,0.282,1.86,1.459,2.19,1.412a1.387,1.387,0,0,0,1.09-.518,3.833,3.833,0,0,0-1.42-1.13,3.552,3.552,0,0,1-.76-0.188,11.385,11.385,0,0,1-1.67-2.5,6.562,6.562,0,0,0,3.66,1.224,4.682,4.682,0,0,0,.52-0.518c-0.19-.47-2.7-1.929-3.61-2.165,0.67-.423,1.9.094,2.57-1.035-0.52-.565.14-1.177,0.28-2.4-0.85-.659-1.8.047-2.7,0.141,0.33-.706,2.32-2.259,2.04-2.494s-0.48.188-.71-0.236c-1.05.094-2.14,0.942-3.18,1.271-0.1-.659.33-1.553,0.23-2.024s0.19-.518.48-0.847a2.67,2.67,0,0,0-1.05-.282c-0.23-.142-0.85.988-1.14,1.506-0.09-.518-0.42-0.989-0.52-1.459a1.346,1.346,0,0,0-.19-1.13,3.26,3.26,0,0,0-1.52,3.012c0.24,0.706.38,0.612,0.29,0.942a13.1,13.1,0,0,0-1.05-1.6c-0.28-.376-0.04-0.753-0.47-0.847-0.9,1.177-.52,2.26.05,3.342-0.95-.047-1.9-1.13-2.47-1.694a0.576,0.576,0,0,0-.43.706,3.313,3.313,0,0,0,1.28,2.447c-0.95.424-2.23-.094-2.75-0.094-0.71,1.177,1.85,1.553,2.66,2.259-0.91.33-1.81,0.048-2.76,1.13a2.024,2.024,0,0,1-.52.8,0.812,0.812,0,0,0,.38.471c0.05,0.047,2.04-.235,3.04-0.377a7.335,7.335,0,0,0-2.52,1.554,0.529,0.529,0,0,0,.24.329,1.129,1.129,0,0,0-.66.753c0.42,0.283.9-.188,1.32,0.283a6.488,6.488,0,0,0,1.14-.565,14.4,14.4,0,0,1-1.23,1.883,0.559,0.559,0,0,1,.38.47,1.65,1.65,0,0,1,1.14-.188,7.493,7.493,0,0,0,3.04-2.777l0.04,0.047c-0.23,1.506-.66,3.06-0.76,4.566a0.681,0.681,0,0,0,.67,0c0.19,0.471-.05.941,0.38,1.412,1.09-.753,1.04-1.977,1.19-2.965,0.23,0.659.38,1.929,1.23,2.541a1.1,1.1,0,0,0,.1-1.129c0.47-1.507-.1-2.919-0.19-4.425C1370.8,422.1,1370.8,424.6,1372.89,425.068Zm28.58,18.074c-0.19-.706-1.71-4.895-1.61-5.554a4.97,4.97,0,0,1,.8-2.024c0.86-1.318,1.71-2.918,2.66-4.142a22.057,22.057,0,0,0,1.43,2.871c0.9,1.13,1.8,2.166,2.75,3.248a10.3,10.3,0,0,0,.28-3.106c0-2.4-.04-4.9-2.37-5.978a8.26,8.26,0,0,1,2.61-1.883c1,1.083,1.9,2.683,3.94,3.06,0.48,0.094,2.19.329,2.47-.048s-0.28-1.976-.47-2.4a3.478,3.478,0,0,0-3.33-1.883,2.449,2.449,0,0,1,1.95-.659,6.187,6.187,0,0,0,4.03.33c2.57-.565,3.99-5.131,6.65-6.5-6.31-2.165-10.11,1.742-10.87,3.012a13.328,13.328,0,0,0-.52,1.883c-0.86.424-1.81,0.848-2.8,1.224,0.99-2.071,1.89-5.6,1.52-6.684-0.38.471-.38,0.283-0.53,0.518-1.85,1.836-4.6,3.107-5.22,6.59a11.337,11.337,0,0,0-.24,2.118c-0.95,1.129-4.41,7.86-5.31,8.378-0.57-2.212-1.24-4.377-1.9-6.542a3.759,3.759,0,0,0,3.46-.8,11.992,11.992,0,0,0,2.19-2.683,39.561,39.561,0,0,0,2.37-4.895c0.29-.612.86-1.082,0.71-1.741-1.33.329-7.12,3.389-9.02,6.354a1.905,1.905,0,0,0-.42,1.036c-1-1.13-1.19-2.919-1.48-4.237,3.47,0.283,6.03-1.647,7.5-4.707,0.62-1.271.95-2.777,1.52-4.048,0.38-.894,1.24-1.365,1.29-2.306-9.4,1.694-11.45,7.249-11.54,7.625a7.447,7.447,0,0,1-.86-1.741,12.618,12.618,0,0,0,5.42-7.579,29.413,29.413,0,0,0,.61-3.012,18.452,18.452,0,0,0-.04-5.931,2.174,2.174,0,0,0-.48.471c-2.18,2.259-6.07,3.483-7.07,7.249a17.3,17.3,0,0,0-.19,5.224c-0.48-.706-0.76-1.506-1.24-2.212a16.97,16.97,0,0,0-2.75-8.331c-1.95-2.73-7.74-5.46-8.59-5.366a54.982,54.982,0,0,0,2.89,8.661c1.1,2.353,6.7,5.366,7.31,5.554a7.008,7.008,0,0,1,1.24,2.165,10.517,10.517,0,0,0-3.99-2.4c-1.19-.329-5.51-0.611-8.59-3.624-0.19.989,0.43,1.883,0.85,2.777a22.4,22.4,0,0,0,4.51,5.413c2.04,1.93,6.08,3.06,9.55,2.777a10.772,10.772,0,0,1,1.23,3.2,7.165,7.165,0,0,0-2.85-.894c-6.31-.471-8.35-0.33-13.43-3.719-0.67,1.6.52,3.013,1.56,4.189a14.419,14.419,0,0,0,7.22,4.66c1.57,0.377,5.89.8,8.4-1.553a22.246,22.246,0,0,1,.76,2.589c-0.47-.047-3.94-2.354-9.73,2.683-1.38,1.177-5.56,1.365-5.75,1.459a3.265,3.265,0,0,0,1.24.988,17.489,17.489,0,0,0,5.08,1.46,9.856,9.856,0,0,0,6.83-2.071c1-.754,1.76-1.789,2.9-2.589a13.051,13.051,0,0,1,.86,2.589c0.14,0.47.94,1.788,0.75,2.353-0.18.753-2.89,1.789-3.37,1.977a3.475,3.475,0,0,0-2.94-1.036c-3.84.895-2.42,4.566-.71,5.366,1.47,0.706,4.32.33,4.22-2.73a5.672,5.672,0,0,1,3.14-1.93c0.85,2.589,3.65,13.039,3.23,13.556,0,0-.91.895-1.67-1.035a13.615,13.615,0,0,0-4.7-6.872c-0.19,0-.28-0.047-0.28.235a19.894,19.894,0,0,1,3.65,7.437c7.74,11.485-.99,32.807,7.84,52.012,0.19,0,3.23.329,4.08-1.6-3.75-7.531-6.6-44.2-6.88-46.551A35.607,35.607,0,0,0,1401.47,443.142Zm-83.89,74.606a1.2,1.2,0,0,0,.86-0.377,1.135,1.135,0,0,0,0-1.695,1.16,1.16,0,0,0-1.71,0,1.135,1.135,0,0,0,0,1.695A1.034,1.034,0,0,0,1317.58,517.748Zm-4.13,0a1.2,1.2,0,0,0,.86-0.377,1.135,1.135,0,0,0,0-1.695,1.16,1.16,0,0,0-1.71,0,1.135,1.135,0,0,0,0,1.695A1.034,1.034,0,0,0,1313.45,517.748Zm8.6,11.249h-9.07a6.229,6.229,0,0,1-4.56-1.553,5.888,5.888,0,0,1-1.52-4.378,10.787,10.787,0,0,1,.05-1.27c0.05-.424.1-0.9,0.19-1.365l-1.85-.33a11.043,11.043,0,0,0-.24,1.553,14.235,14.235,0,0,0-.05,1.459,7.367,7.367,0,0,0,2.19,5.79,8.423,8.423,0,0,0,5.93,1.977h10.87V519.772h-1.9V529h-0.04Zm4.84-17.086h1.9V530.88h-1.9V511.911Zm5.17,19.816c0,0.659-.04,1.271-0.09,1.883a5.353,5.353,0,0,1-.38,1.6,2.436,2.436,0,0,1-.95,1.13,2.9,2.9,0,0,1-1.66.424v1.882a4.84,4.84,0,0,0,2.66-.612,4.645,4.645,0,0,0,1.52-1.647,6.566,6.566,0,0,0,.66-2.259,19.871,19.871,0,0,0,.14-2.4V519.772h-1.9v11.955Zm32.95-11.532a8.936,8.936,0,0,0-2.52,2.071,4.819,4.819,0,0,0-1.09,3.154,5.461,5.461,0,0,0,.34,2.118,6.043,6.043,0,0,0,.85,1.459h-23.83V511.911h-1.9V530.88h33.37V518.642a16.591,16.591,0,0,0-2.32.423A9.272,9.272,0,0,0,1365.01,520.2Zm3.32,8.708a8.485,8.485,0,0,1-3.7-.8,2.763,2.763,0,0,1-1.33-2.73,3.314,3.314,0,0,1,.52-1.789,5.194,5.194,0,0,1,1.33-1.318,8.588,8.588,0,0,1,1.66-.894,10.042,10.042,0,0,1,1.52-.518V528.9Zm8.26,7.013a1.116,1.116,0,0,1-.23-1.694,1.2,1.2,0,0,1,.76-0.235,4.021,4.021,0,0,1,1.52.376l0.38-.847a8.2,8.2,0,0,0-.95-0.33,3.724,3.724,0,0,0-1-.141,2.221,2.221,0,0,0-1.33.424,1.583,1.583,0,0,0-.62,1.459,2.5,2.5,0,0,0,.14.8,0.64,0.64,0,0,0,.34.471h-1.66v0.941h5.12V536.2h-1.09A2.09,2.09,0,0,1,1376.59,535.916Zm9.45-8.425q-0.495-1.129-1.14-2.4c-0.43-.847-0.99-1.741-1.56-2.636a31.214,31.214,0,0,0,1.85-4.754,17.51,17.51,0,0,0,.66-4.377v-1.412h-1.9v1.412a14.5,14.5,0,0,1-.52,3.483,26.677,26.677,0,0,1-1.38,3.86c-0.8-.942-1.52-1.742-2.04-2.4-0.57-.612-1.04-1.223-1.52-1.694-0.47-.518-0.95-0.989-1.42-1.459s-1-1.036-1.66-1.648l-1.33,1.318c0.38,0.424.9,0.942,1.52,1.553s1.28,1.318,1.94,2.024,1.33,1.46,1.95,2.213a22.836,22.836,0,0,1,1.61,2.071,22.855,22.855,0,0,1-1.66,2.542,12.524,12.524,0,0,1-1.85,2.024,9.07,9.07,0,0,1-2.04,1.365,5.005,5.005,0,0,1-2.14.47h-0.28v1.883h14.15l-0.48-1.412A19.057,19.057,0,0,0,1386.04,527.491ZM1378.4,529c0.43-.329.76-0.659,1.09-0.941a8.258,8.258,0,0,0,.9-0.942,8.487,8.487,0,0,0,.86-1.176q0.42-.636.99-1.554c0.57,0.942,1.05,1.789,1.43,2.589s0.71,1.506.9,2.024h-6.17Zm11.3-17.086h1.9V530.88h-1.9V511.911Zm14.67,8.284a8.173,8.173,0,0,0-2.52,2.071,4.819,4.819,0,0,0-1.09,3.154,5.474,5.474,0,0,0,.33,2.118,6.065,6.065,0,0,0,.86,1.459h-0.81a1.668,1.668,0,0,0-1.24.612,2.051,2.051,0,0,0-.52,1.365v6.59h1.9v-6.731h8.31V518.6a16.941,16.941,0,0,0-2.33.423A11.245,11.245,0,0,0,1404.37,520.2Zm3.37,8.708a8.659,8.659,0,0,1-3.75-.8,2.747,2.747,0,0,1-1.33-2.73,3.314,3.314,0,0,1,.52-1.789,5.919,5.919,0,0,1,1.33-1.318,8.042,8.042,0,0,1,1.66-.894,9.684,9.684,0,0,1,1.52-.518V528.9h0.05Zm6.69-20.24a4.19,4.19,0,0,1,1.57.377l0.38-.9a5.05,5.05,0,0,0-1.95-.423,2.249,2.249,0,0,0-1.33.423,1.514,1.514,0,0,0-.62,1.365,2.528,2.528,0,0,0,.15.848,0.792,0.792,0,0,0,.28.47h-1.57v0.942h4.89v-0.942h-0.9a2.348,2.348,0,0,1-1.33-.329,1.01,1.01,0,0,1-.57-0.989,0.734,0.734,0,0,1,.29-0.659A1.067,1.067,0,0,1,1414.43,508.663Zm-1.66,4.66h1.9V530.88h-1.9V513.323Zm13.91,2.683a1.224,1.224,0,0,0,0-2.448,1.216,1.216,0,0,0-.86.377,1.134,1.134,0,0,0,0,1.694A1.05,1.05,0,0,0,1426.68,516.006Zm4.13,0a1.224,1.224,0,0,0,0-2.448,1.216,1.216,0,0,0-.86.377,1.134,1.134,0,0,0,0,1.694A1.05,1.05,0,0,0,1430.81,516.006Zm26.77,0.377a1.212,1.212,0,0,0,1.24-1.177,1.36,1.36,0,0,0-.38-0.895,1.235,1.235,0,0,0-2.09.895,1.164,1.164,0,0,0,.38.847A1.148,1.148,0,0,0,1457.58,516.383Zm4.13,0a1.212,1.212,0,0,0,1.24-1.177,1.36,1.36,0,0,0-.38-0.895,1.235,1.235,0,0,0-2.09.895,1.164,1.164,0,0,0,.38.847A1.148,1.148,0,0,0,1461.71,516.383Zm17.52,3.389h-1.9V529h-14.1a6.215,6.215,0,0,0,1-1.93,7.267,7.267,0,0,0,.38-2.306,7.869,7.869,0,0,0-.38-2.4,6.78,6.78,0,0,0-1.04-1.977,4.7,4.7,0,0,0-1.57-1.318,3.942,3.942,0,0,0-1.9-.47,4.783,4.783,0,0,0-1.95.47,4.67,4.67,0,0,0-1.56,1.318,6.569,6.569,0,0,0-1.05,1.977,8.187,8.187,0,0,0-.38,2.4,7.56,7.56,0,0,0,.38,2.306,6.786,6.786,0,0,0,1,1.93h-23.59a0.428,0.428,0,0,1-.43-0.518V517.842c-0.62.188-1.43,0.47-2.42,0.847a13.817,13.817,0,0,0-2.95,1.6,9.625,9.625,0,0,0-2.47,2.5,5.685,5.685,0,0,0-1.04,3.436,5.892,5.892,0,0,0,.19,1.553,3.493,3.493,0,0,0,.85,1.507,5.07,5.07,0,0,0,1.76,1.223,9.5,9.5,0,0,0,2.99.612l0.14-1.883a7.173,7.173,0,0,1-3.08-.8,2.423,2.423,0,0,1-1-2.212,3.884,3.884,0,0,1,.57-2.071,7.309,7.309,0,0,1,1.33-1.6,8.253,8.253,0,0,1,1.66-1.177,16.168,16.168,0,0,1,1.52-.8l0.05,7.907a2.616,2.616,0,0,0,.57,1.789,1.942,1.942,0,0,0,1.52.612h46.95V519.772h-0.05Zm-17.33,7.813A2.9,2.9,0,0,1,1460,529h-0.75a2.9,2.9,0,0,1-1.9-1.412,4.977,4.977,0,0,1-.76-2.824,6.385,6.385,0,0,1,.23-1.648,4.145,4.145,0,0,1,.67-1.365,3.7,3.7,0,0,1,1-.941,2.3,2.3,0,0,1,2.37,0,3.059,3.059,0,0,1,.95.941,5.414,5.414,0,0,1,.66,1.365,5.985,5.985,0,0,1,.24,1.648A5,5,0,0,1,1461.9,527.585Zm12.63,5.978a1.224,1.224,0,0,0,0,2.447,1.2,1.2,0,0,0,.86-2.071A1.052,1.052,0,0,0,1474.53,533.563Zm3.7,0a1.193,1.193,0,0,0-.85.376,1.135,1.135,0,0,0,0,1.7,1.16,1.16,0,0,0,1.71,0,1.135,1.135,0,0,0,0-1.7A0.939,0.939,0,0,0,1478.23,533.563Zm27.63-4.8a1.516,1.516,0,0,1-.95-1.318q-0.21-1.059-.42-3.53a7.257,7.257,0,0,0-1.52-4.19,4.722,4.722,0,0,0-3.66-1.412,6.1,6.1,0,0,0-2.13.377,5.9,5.9,0,0,0-1.66.894l1.18,1.506a4.9,4.9,0,0,1,2.61-.847,8.376,8.376,0,0,1,1.09.094,1.955,1.955,0,0,1,1,.471,2.728,2.728,0,0,1,.81,1.13,5.932,5.932,0,0,1,.43,2.118,20.832,20.832,0,0,0,.33,3.012,6.71,6.71,0,0,0,.57,1.883H1492a7.875,7.875,0,0,0,.43-1.647,8.883,8.883,0,0,0,.19-1.977,9.645,9.645,0,0,0-.33-2.542,7.055,7.055,0,0,0-1.09-2.212,5.283,5.283,0,0,0-1.81-1.554,5.427,5.427,0,0,0-2.56-.611,6.04,6.04,0,0,0-2.71.564,8.231,8.231,0,0,0-1.85,1.177l1.14,1.459a7.779,7.779,0,0,1,1.8-.988,4.662,4.662,0,0,1,1.57-.283,3.339,3.339,0,0,1,1.66.424,4.05,4.05,0,0,1,1.24,1.083,5.612,5.612,0,0,1,.76,1.6,6.545,6.545,0,0,1,.28,1.93,9.44,9.44,0,0,1-.24,2.212c-0.19.612-.33,1.083-0.47,1.459h-7.83v1.883h24.78l0.04-1.789Zm-190.6,11.861a0.322,0.322,0,0,0-.33.33v10.026a14.093,14.093,0,0,1-.1,1.882,3.683,3.683,0,0,1-.76,1.648,3.589,3.589,0,0,1-2.99,1.318,3.515,3.515,0,0,1-2.99-1.459,4.662,4.662,0,0,1-.76-1.648,14.635,14.635,0,0,1-.09-1.883V541a0.322,0.322,0,0,0-.29-0.33h-0.62a0.284,0.284,0,0,0-.28.33v9.837a7.316,7.316,0,0,0,.66,3.625,4.79,4.79,0,0,0,1.85,1.883,5,5,0,0,0,2.57.658,4.868,4.868,0,0,0,3.84-1.694,4.409,4.409,0,0,0,1-1.789,9.129,9.129,0,0,0,.29-2.541V540.953a0.322,0.322,0,0,0-.29-0.33h-0.71Zm16.23,4.095a4.4,4.4,0,0,0-3.41,1.459,3.266,3.266,0,0,0-.62.895,4.261,4.261,0,0,0-1.28-1.459,5.093,5.093,0,0,0-2.8-.9,4.244,4.244,0,0,0-3.28,1.412v-0.8a0.27,0.27,0,0,0-.28-0.282h-0.67a0.314,0.314,0,0,0-.33.282v11.062a0.286,0.286,0,0,0,.33.282h0.62a0.314,0.314,0,0,0,.33-0.282v-6.308a4.4,4.4,0,0,1,.86-3.012,3.4,3.4,0,0,1,5.22.188,5.193,5.193,0,0,1,.8,3.107v6.072a0.294,0.294,0,0,0,.34.282h0.61a0.324,0.324,0,0,0,.34-0.282v-6.214a6.49,6.49,0,0,1,.28-2.306,2.991,2.991,0,0,1,1.24-1.412,3.339,3.339,0,0,1,4.32.518,4.463,4.463,0,0,1,.99,3.248v6.213a0.286,0.286,0,0,0,.33.282h0.62a0.314,0.314,0,0,0,.33-0.282v-6.213a5.959,5.959,0,0,0-.61-3.107A4.866,4.866,0,0,0,1331.49,544.718Zm19.94,0a4.4,4.4,0,0,0-3.41,1.459,3.266,3.266,0,0,0-.62.895,4.261,4.261,0,0,0-1.28-1.459,5.093,5.093,0,0,0-2.8-.9,4.229,4.229,0,0,0-3.28,1.412v-0.8a0.286,0.286,0,0,0-.33-0.282h-0.67a0.314,0.314,0,0,0-.33.282v11.062a0.286,0.286,0,0,0,.33.282h0.62a0.314,0.314,0,0,0,.33-0.282v-6.308a4.4,4.4,0,0,1,.86-3.012,3.256,3.256,0,0,1,2.56-1.13,3.21,3.21,0,0,1,2.66,1.318,5.191,5.191,0,0,1,.81,3.107v6.072a0.286,0.286,0,0,0,.33.282h0.52a0.314,0.314,0,0,0,.33-0.282v-6.214a6.434,6.434,0,0,1,.29-2.306,2.918,2.918,0,0,1,1.23-1.412,3.3,3.3,0,0,1,1.85-.565,3.231,3.231,0,0,1,2.47,1.083,4.42,4.42,0,0,1,1,3.248v6.213a0.286,0.286,0,0,0,.33.282h0.62a0.314,0.314,0,0,0,.33-0.282v-6.213a5.848,5.848,0,0,0-.62-3.107A4.488,4.488,0,0,0,1351.43,544.718Zm19.75-3.906a0.318,0.318,0,0,0-.28-0.189h-0.81a0.307,0.307,0,0,0-.28.189l-6.7,15.438a0.213,0.213,0,0,0,.05.283,0.263,0.263,0,0,0,.24.141h0.66a0.269,0.269,0,0,0,.29-0.188l2.27-5.178h7.74l2.23,5.178a0.335,0.335,0,0,0,.29.188h0.66a0.324,0.324,0,0,0,.34-0.282,0.24,0.24,0,0,0-.1-0.189Zm-4.03,9.366,3.32-7.86,3.32,7.86h-6.64Zm12.29-9.555a0.322,0.322,0,0,0-.33.33v15.439a0.286,0.286,0,0,0,.33.282h0.62a0.314,0.314,0,0,0,.33-0.282V540.953a0.322,0.322,0,0,0-.33-0.33h-0.62Zm9.88,0a0.33,0.33,0,0,0-.34.33v15.439a0.294,0.294,0,0,0,.34.282h8.54a0.314,0.314,0,0,0,.33-0.282v-0.565a0.321,0.321,0,0,0-.33-0.33h-7.59v-6.354h7.59a0.314,0.314,0,0,0,.33-0.283V548.3a0.321,0.321,0,0,0-.33-0.33h-7.59v-6.213h7.59a0.321,0.321,0,0,0,.33-0.33v-0.564a0.321,0.321,0,0,0-.33-0.33h-8.54v0.094Zm23.69,4.095a4.406,4.406,0,0,0-3.42,1.459,3.266,3.266,0,0,0-.62.895,4.261,4.261,0,0,0-1.28-1.459,5.068,5.068,0,0,0-2.8-.9,4.244,4.244,0,0,0-3.28,1.412v-0.8a0.27,0.27,0,0,0-.28-0.282h-0.67a0.314,0.314,0,0,0-.33.282v11.062a0.286,0.286,0,0,0,.33.282h0.62a0.277,0.277,0,0,0,.29-0.282v-6.308a4.4,4.4,0,0,1,.85-3.012,3.256,3.256,0,0,1,2.56-1.13,3.2,3.2,0,0,1,2.66,1.318,5.191,5.191,0,0,1,.81,3.107v6.072a0.27,0.27,0,0,0,.28.282h0.62a0.314,0.314,0,0,0,.33-0.282v-6.214a6.434,6.434,0,0,1,.29-2.306,2.773,2.773,0,0,1,1.23-1.412,3.3,3.3,0,0,1,1.85-.565,3.231,3.231,0,0,1,2.47,1.083,4.42,4.42,0,0,1,1,3.248v6.213a0.286,0.286,0,0,0,.33.282h0.62a0.314,0.314,0,0,0,.33-0.282v-6.213a5.848,5.848,0,0,0-.62-3.107A4.6,4.6,0,0,0,1413.01,544.718ZM1431.24,545a0.324,0.324,0,0,0-.34.282v1.883a5.962,5.962,0,0,0-.9-0.989,6.416,6.416,0,0,0-4.18-1.506,6.243,6.243,0,0,0-4.46,1.789,5.993,5.993,0,0,0,0,8.661,6.4,6.4,0,0,0,4.56,1.788,5.883,5.883,0,0,0,5.03-2.4v1.836a0.286,0.286,0,0,0,.33.282h0.62a0.314,0.314,0,0,0,.33-0.282V545.33a0.286,0.286,0,0,0-.33-0.282h-0.66V545Zm-0.34,5.931a4.591,4.591,0,0,1-1.47,3.483,4.944,4.944,0,0,1-3.61,1.412,5.153,5.153,0,0,1-3.65-1.412,4.591,4.591,0,0,1-1.47-3.483,4.693,4.693,0,0,1,1.47-3.531,5.109,5.109,0,0,1,3.65-1.459,4.957,4.957,0,0,1,3.61,1.459A4.693,4.693,0,0,1,1430.9,550.932Zm9.02-5.272v-0.612a0.347,0.347,0,0,0-.09-0.236,0.366,0.366,0,0,0-.24-0.094,4.952,4.952,0,0,0-3.61,1.554V545.33a0.286,0.286,0,0,0-.33-0.282h-0.57a0.314,0.314,0,0,0-.33.282v11.062a0.286,0.286,0,0,0,.33.282h0.62a0.314,0.314,0,0,0,.33-0.282v-5.978a7.444,7.444,0,0,1,.29-2.4,3.157,3.157,0,0,1,1.09-1.318,4.6,4.6,0,0,1,2.23-.706A0.314,0.314,0,0,0,1439.92,545.66Zm11.07-.659a0.277,0.277,0,0,0-.29.282v1.883a5.962,5.962,0,0,0-.9-0.989,6.416,6.416,0,0,0-4.18-1.506,6.21,6.21,0,0,0-4.46,1.789,5.993,5.993,0,0,0,0,8.661,6.364,6.364,0,0,0,4.56,1.788,5.883,5.883,0,0,0,5.03-2.4v1.836a0.27,0.27,0,0,0,.28.282h0.62a0.268,0.268,0,0,0,.28-0.282V545.33a0.27,0.27,0,0,0-.28-0.282h-0.66V545Zm-0.29,5.931a4.591,4.591,0,0,1-1.47,3.483,4.941,4.941,0,0,1-3.56,1.412,5.094,5.094,0,0,1-3.66-1.412,4.85,4.85,0,0,1-.04-7.014,5.092,5.092,0,0,1,3.65-1.459A5,5,0,0,1,1450.7,550.932Zm5.55-5.931v-4.1a0.321,0.321,0,0,0-.33-0.33h-0.61a0.33,0.33,0,0,0-.34.33V545h-2.13a0.277,0.277,0,0,0-.29.282v0.565a0.314,0.314,0,0,0,.29.329h2.13v10.215a0.294,0.294,0,0,0,.34.282h0.61a0.314,0.314,0,0,0,.33-0.282V546.177h2.57a0.321,0.321,0,0,0,.33-0.329V545.33a0.286,0.286,0,0,0-.33-0.282h-2.57V545Zm17.38-3.766a6.3,6.3,0,0,0-3.04-.565h-4.13a0.322,0.322,0,0,0-.33.33v15.439a0.286,0.286,0,0,0,.33.282h0.62a0.314,0.314,0,0,0,.33-0.282v-6.4h2.66a8.184,8.184,0,0,0,3.28-.47,3.938,3.938,0,0,0,1.85-1.742,5.1,5.1,0,0,0,.66-2.5,4.992,4.992,0,0,0-.62-2.4A4.62,4.62,0,0,0,1473.63,541.235Zm-3.51,7.625h-2.71v-7.013h2.56a7.123,7.123,0,0,1,3,.424,2.789,2.789,0,0,1,1.18,1.271,3.9,3.9,0,0,1,.43,1.788,3.288,3.288,0,0,1-1.19,2.73A5.163,5.163,0,0,1,1470.12,548.86Zm17.7-3.859a0.314,0.314,0,0,0-.33.282v1.883a5.962,5.962,0,0,0-.9-0.989,6.416,6.416,0,0,0-4.18-1.506,6.226,6.226,0,0,0-4.46,1.789,5.993,5.993,0,0,0,0,8.661,6.364,6.364,0,0,0,4.56,1.788,5.883,5.883,0,0,0,5.03-2.4v1.836a0.286,0.286,0,0,0,.33.282h0.62a0.314,0.314,0,0,0,.33-0.282V545.33a0.286,0.286,0,0,0-.33-0.282h-0.67V545Zm-0.33,5.931a4.591,4.591,0,0,1-1.47,3.483,4.941,4.941,0,0,1-3.56,1.412,5.094,5.094,0,0,1-3.66-1.412,4.872,4.872,0,0,1-.04-7.014,5.059,5.059,0,0,1,3.6-1.459,4.878,4.878,0,0,1,3.61,1.459A4.564,4.564,0,0,1,1487.49,550.932Zm8.69-6.167a4.955,4.955,0,0,0-3.61,1.554V545.33a0.286,0.286,0,0,0-.33-0.282h-0.62a0.314,0.314,0,0,0-.33.282v11.062a0.286,0.286,0,0,0,.33.282h0.62a0.314,0.314,0,0,0,.33-0.282v-5.978a7.444,7.444,0,0,1,.29-2.4,3.157,3.157,0,0,1,1.09-1.318,4.791,4.791,0,0,1,2.23-.706,0.314,0.314,0,0,0,.28-0.329v-0.612a0.347,0.347,0,0,0-.09-0.236A0.145,0.145,0,0,0,1496.18,544.765ZM1506.2,556.2l-4.32-5.46,3.98-5.224a0.394,0.394,0,0,0,.05-0.33,0.319,0.319,0,0,0-.28-0.188h-0.76a0.263,0.263,0,0,0-.24.141l-5.55,7.3V540.953a0.322,0.322,0,0,0-.29-0.33h-0.62a0.284,0.284,0,0,0-.28.33v15.439a0.27,0.27,0,0,0,.28.282h0.62a0.277,0.277,0,0,0,.29-0.282v-1.93l2.08-2.73,3.85,4.895a0.229,0.229,0,0,0,.24.094h0.76a0.258,0.258,0,0,0,.28-0.188A0.464,0.464,0,0,0,1506.2,556.2Z" transform="translate(-1305 -374)"/>
</svg>
