<?xml version="1.0" encoding="utf-8"?>
<!-- Generator: Adobe Illustrator 24.0.3, SVG Export Plug-In . SVG Version: 6.00 Build 0)  -->
<svg version="1.1" id="Layer_1" xmlns="http://www.w3.org/2000/svg" xmlns:xlink="http://www.w3.org/1999/xlink" x="0px" y="0px"
	 viewBox="0 0 42.52 38.88" style="enable-background:new 0 0 42.52 38.88;" xml:space="preserve">
<style type="text/css">
	.st0{fill:#FFFFFF;}
</style>
<g>
	<g>
		<path class="st0" d="M14.75,4.23c0.01,0,0.01,0,0.02,0c0,0.01,0,0.01-0.01,0.02c-0.04,0.17,0.05,0.33,0.22,0.38c0,0,0,0,0,0
			s0,0,0,0c0.17,0.04,0.33-0.05,0.38-0.22c0-0.01,0-0.02,0-0.02c0,0,0.01,0.01,0.02,0.01c0.15,0.09,0.33,0.06,0.43-0.09c0,0,0,0,0,0
			c0,0,0,0,0,0c0.09-0.15,0.05-0.33-0.1-0.43c-0.01,0-0.01-0.01-0.02-0.01c0.01,0,0.01-0.01,0.02-0.01c0.13-0.11,0.15-0.3,0.04-0.43
			c0,0,0,0,0,0c0,0,0,0,0,0c-0.11-0.13-0.3-0.15-0.43-0.04c-0.01,0.01-0.01,0.01-0.02,0.02c0-0.01,0-0.02-0.01-0.02
			c-0.06-0.16-0.24-0.24-0.4-0.17c0,0,0,0,0,0c0,0,0,0,0,0c-0.16,0.06-0.23,0.24-0.17,0.4c0,0.01,0.01,0.01,0.01,0.02
			c-0.01,0-0.01,0-0.02,0c-0.17,0.01-0.3,0.15-0.29,0.33v0v0C14.43,4.11,14.58,4.24,14.75,4.23z M15.23,3.69L15.23,3.69L15.23,3.69
			L15.23,3.69z M15.02,4.02L15.02,4.02C15.02,4.02,15.02,4.02,15.02,4.02L15.02,4.02z"/>
		<path class="st0" d="M18.7,3.31c0.13,0.03,0.26-0.03,0.34,0.04c-0.01,0.04-0.08,0-0.09,0.05c0.33,0.29-0.12,0.75-0.33,0.94
			c-0.04-0.03-0.13-0.09-0.2-0.05c-0.39-0.75-0.88-0.67-1.43-0.6c-0.05,0.05,0.04,0.15,0.11,0.31c0.07,0.16,0.28,0.86,0.81,0.94
			c0.16,0.03,0.32-0.06,0.48-0.02c0.25,0.06,0.4,0.26,0.64,0.11c0.52-0.33,0.95-1.09,0.95-1.82c-0.01-0.11-0.45-0.18-0.49-0.25
			c-0.05-0.07,0-0.21-0.06-0.28c-0.06-0.07-0.3-0.07-0.42-0.32c-0.12-0.25-0.45,0.01-0.7-0.12c-0.04,0.03-0.07,0.07-0.09,0.1
			C17.94,2.73,18.23,3.21,18.7,3.31z"/>
		<path class="st0" d="M19.28,1.45c0.09-0.13,0.2-0.29,0.26-0.45c0.14-0.32,0.2-0.52,0.24-0.89c0-0.09-0.2-0.14-0.27-0.09
			c-0.31,0.23-0.26,0.99-0.41,1.44c-0.06,0.18-0.25,0.45-0.06,0.59C19.26,2.1,19.37,1.65,19.28,1.45z"/>
		<path class="st0" d="M18.62,0.88c0.13-0.18,0.18-0.57,0.09-0.75c-0.02-0.05-0.19-0.07-0.22-0.02c-0.28,0.51-0.21,1.22-0.27,1.79
			C18.7,2.2,18.5,1.2,18.62,0.88z"/>
		<path class="st0" d="M19.56,2.35c0.33,0.18,0.43-0.28,0.57-0.54c0.19-0.36,0.55-0.7,0.4-1.11c-0.06-0.1-0.2-0.09-0.26-0.02
			c-0.18,0.23-0.21,0.56-0.33,0.83c-0.03,0.07-0.11,0.13-0.14,0.2c-0.02,0.06,0,0.13-0.03,0.18C19.69,2.04,19.43,2.26,19.56,2.35z"
			/>
		<path class="st0" d="M20.22,2.83c-0.02,0.12-0.2,0.24-0.13,0.27c0.31,0,0.58-0.28,0.76-0.55c0.11-0.06,0.35-0.16,0.39-0.35
			c0.12-0.5-0.59-0.14-0.54,0.24C20.53,2.55,20.44,2.78,20.22,2.83z"/>
		<path class="st0" d="M15.9,3.02c0.22,0.16,0.36,0.32,0.62,0.25c0.03-0.25-0.2-0.52-0.46-0.59c-0.11-0.03-0.41-0.05-0.45,0.07
			C15.58,2.86,15.79,2.93,15.9,3.02z"/>
		<path class="st0" d="M16.23,1.75C16.23,1.75,16.23,1.75,16.23,1.75c0.06,0.2,0.25,0.3,0.44,0.25c0.01,0,0.02,0,0.02-0.01
			c0,0.01,0,0.02,0,0.02c-0.01,0.2,0.14,0.37,0.34,0.38h0h0c0.2,0.01,0.36-0.14,0.37-0.34c0-0.01,0-0.02,0-0.03
			c0.01,0,0.01,0.01,0.02,0.01c0.19,0.07,0.39-0.02,0.46-0.21c0,0,0,0,0,0c0,0,0,0,0,0c0.07-0.19-0.02-0.39-0.21-0.46
			c-0.01,0-0.02,0-0.03-0.01c0.01-0.01,0.01-0.01,0.02-0.02c0.12-0.16,0.1-0.38-0.06-0.5c0,0,0,0,0,0c0,0,0,0,0,0
			c-0.16-0.12-0.38-0.1-0.5,0.06C17.11,0.89,17.1,0.9,17.1,0.9c-0.01-0.01-0.01-0.02-0.01-0.02c-0.11-0.17-0.33-0.21-0.5-0.1
			c0,0,0,0,0,0c0,0,0,0,0,0c-0.17,0.11-0.21,0.33-0.1,0.5c0,0.01,0.01,0.01,0.01,0.02c-0.01,0-0.02,0-0.02,0
			C16.28,1.36,16.18,1.55,16.23,1.75C16.23,1.74,16.23,1.75,16.23,1.75z M17.08,1.28L17.08,1.28L17.08,1.28
			C17.08,1.28,17.08,1.28,17.08,1.28z"/>
		<path class="st0" d="M21.63,2.64c0.01,0,0.01,0,0.02,0c0,0.01,0,0.01-0.01,0.02c-0.05,0.15,0.03,0.31,0.19,0.36c0,0,0,0,0,0h0
			c0.15,0.05,0.31-0.04,0.35-0.19c0-0.01,0-0.01,0-0.02c0,0,0.01,0.01,0.01,0.01c0.13,0.09,0.3,0.06,0.4-0.07c0,0,0,0,0,0v0
			c0.09-0.13,0.06-0.3-0.07-0.4c-0.01,0-0.01-0.01-0.02-0.01c0.01,0,0.01-0.01,0.02-0.01c0.13-0.1,0.15-0.27,0.06-0.4c0,0,0,0,0,0
			c0,0,0,0,0,0c-0.1-0.13-0.27-0.15-0.4-0.05c-0.01,0-0.01,0.01-0.02,0.01c0-0.01,0-0.01-0.01-0.02c-0.05-0.15-0.21-0.23-0.36-0.18
			c0,0,0,0,0,0c0,0,0,0,0,0c-0.15,0.05-0.22,0.21-0.17,0.36c0,0,0,0.01,0.01,0.02h-0.02c-0.16,0-0.28,0.13-0.28,0.29v0v0
			C21.34,2.52,21.47,2.64,21.63,2.64z M21.89,2.46L21.89,2.46L21.89,2.46C21.89,2.46,21.89,2.46,21.89,2.46L21.89,2.46z"/>
		<path class="st0" d="M18.78,5.54C18.78,5.54,18.78,5.54,18.78,5.54L18.78,5.54c-0.05-0.15-0.19-0.22-0.33-0.17
			c-0.01,0-0.01,0-0.02,0.01c0-0.01,0-0.01,0-0.02c0-0.15-0.12-0.27-0.27-0.27h0h0c-0.15,0-0.26,0.12-0.26,0.27
			c0,0.01,0,0.01,0,0.02c-0.01,0-0.01-0.01-0.02-0.01c-0.14-0.05-0.29,0.03-0.34,0.17c0,0,0,0,0,0c0,0,0,0,0,0
			c-0.05,0.14,0.03,0.29,0.17,0.33c0,0,0.01,0,0.02,0.01c0,0-0.01,0.01-0.01,0.01c-0.09,0.12-0.07,0.28,0.05,0.37c0,0,0,0,0,0
			c0,0,0,0,0,0c0.12,0.09,0.28,0.06,0.37-0.06c0,0,0.01-0.01,0.01-0.02c0,0.01,0.01,0.01,0.01,0.02c0.09,0.12,0.25,0.15,0.37,0.06
			c0,0,0,0,0,0c0,0,0,0,0,0c0.12-0.09,0.15-0.25,0.06-0.37c0-0.01-0.01-0.01-0.01-0.01c0.01,0,0.01,0,0.02-0.01
			C18.75,5.83,18.83,5.68,18.78,5.54z M18,5.79C18,5.79,18,5.79,18,5.79L18,5.79C18,5.79,18,5.79,18,5.79z M18.27,5.6L18.27,5.6
			L18.27,5.6C18.27,5.6,18.27,5.6,18.27,5.6L18.27,5.6z"/>
		<path class="st0" d="M25.19,8.62C25.19,8.62,25.2,8.62,25.19,8.62C25.2,8.62,25.2,8.62,25.19,8.62c0.05-0.15-0.02-0.3-0.17-0.35
			c-0.01,0-0.01-0.01-0.02-0.01c0,0,0.01-0.01,0.01-0.02c0.09-0.12,0.07-0.29-0.05-0.38l0,0c0,0,0,0,0,0
			c-0.12-0.09-0.29-0.07-0.38,0.05c0,0-0.01,0.01-0.01,0.02c0-0.01-0.01-0.01-0.01-0.02c-0.09-0.13-0.25-0.16-0.38-0.07c0,0,0,0,0,0
			c0,0,0,0,0,0c-0.13,0.09-0.15,0.25-0.07,0.38c0,0.01,0.01,0.01,0.01,0.01c-0.01,0-0.01,0-0.02,0c-0.15,0.04-0.23,0.19-0.18,0.34
			c0,0,0,0,0,0c0,0,0,0,0,0c0.04,0.15,0.19,0.22,0.34,0.18c0.01,0,0.01,0,0.02-0.01c0,0.01,0,0.01,0,0.02
			c0,0.15,0.11,0.28,0.26,0.28h0h0c0.15,0,0.27-0.11,0.28-0.27c0-0.01,0-0.01,0-0.02c0.01,0,0.01,0.01,0.02,0.01
			C24.99,8.84,25.14,8.76,25.19,8.62z"/>
		<path class="st0" d="M24.56,12.01C24.56,12.01,24.56,12.01,24.56,12.01L24.56,12.01c-0.04-0.12-0.15-0.18-0.27-0.14
			c-0.01,0-0.01,0-0.01,0.01c0-0.01,0-0.01,0-0.02c0-0.12-0.09-0.21-0.21-0.21h0c-0.12,0-0.21,0.09-0.21,0.21c0,0,0,0.01,0,0.02
			c0,0-0.01,0-0.01-0.01c-0.11-0.04-0.23,0.02-0.27,0.13c0,0,0,0,0,0v0c-0.04,0.11,0.02,0.23,0.13,0.27c0.01,0,0.01,0,0.01,0
			c0,0-0.01,0.01-0.01,0.01c-0.07,0.1-0.05,0.23,0.04,0.3h0c0,0,0,0,0,0c0.1,0.07,0.22,0.05,0.3-0.04c0,0,0-0.01,0.01-0.01
			c0,0,0,0.01,0.01,0.01c0.07,0.1,0.2,0.12,0.3,0.05c0,0,0,0,0,0c0,0,0,0,0,0c0.1-0.07,0.12-0.2,0.05-0.3
			c0-0.01-0.01-0.01-0.01-0.01c0.01,0,0.01,0,0.01,0C24.54,12.24,24.6,12.12,24.56,12.01z"/>
		<path class="st0" d="M25.38,14.83c0.08-0.09,0.15-0.18,0.21-0.25c0.32-0.44,0.21-0.75-0.07-0.87c-0.17-0.07-0.29-0.01-0.45-0.02
			c-0.08-0.01-0.22-0.09-0.13-0.28c0.09-0.17,0.34-0.15,0.47-0.18c0.16-0.03,0.27-0.28-0.05-0.42c-0.56-0.22-1.36,0.05-1.85,0.35
			c-0.15-0.29-0.25-0.48-0.25-0.48s0.04-0.06,0.04-0.1c0-0.05-0.06-0.09-0.11-0.12c-0.08-0.05-0.09-0.11-0.15-0.19
			c0,0.09-0.02,0.2-0.02,0.29c0,0.11,0.13,0.13,0.15,0.18c0.02,0.06,0.1,0.32,0.18,0.54c-0.04,0.02-0.07,0.05-0.11,0.08
			c-0.6-0.36-1.03-0.62-1.03-0.62s0.01-0.09-0.01-0.13c-0.03-0.04-0.06-0.05-0.16-0.05c-0.1,0-0.15-0.06-0.25-0.09
			c0.05,0.08,0.05,0.24,0.1,0.29c0.09,0.08,0.18,0.05,0.25,0.07c0.07,0.02,0.51,0.38,0.91,0.67c-0.08,0.07-0.15,0.13-0.2,0.19
			c-0.57,0.51-1.38,2.21,0.59,2.07c0.33-0.04,0.63-0.13,0.91-0.25c0.21,0.42,0.38,0.76,0.45,0.87c0.1,0.17,0.1,0.11,0.1,0.11
			c-0.01-0.14-0.17-0.55-0.39-1.05c0.3-0.15,0.56-0.32,0.75-0.5c0.19,0.12,0.34,0.2,0.42,0.24c0.19,0.09,0.15,0.04,0.15,0.04
			C25.78,15.14,25.62,15.01,25.38,14.83z M23.05,15.6c-0.17,0-0.31-0.1-0.31-0.22c0-0.12,0.14-0.21,0.31-0.21
			c0.17,0,0.31,0.1,0.3,0.22C23.36,15.51,23.22,15.6,23.05,15.6z M23.95,15.51c-0.16,0.05-0.32,0-0.36-0.12
			c-0.03-0.11,0.07-0.25,0.23-0.29c0.16-0.05,0.32,0,0.36,0.11C24.22,15.33,24.11,15.46,23.95,15.51z M24.77,15.13
			c-0.15,0.08-0.32,0.06-0.38-0.04c-0.06-0.1,0.02-0.25,0.17-0.34c0.15-0.08,0.32-0.07,0.37,0.04
			C24.99,14.89,24.92,15.04,24.77,15.13z M25.09,14.56c-0.08-0.09-0.03-0.25,0.1-0.36c0.13-0.11,0.3-0.12,0.37-0.03
			c0.08,0.09,0.03,0.25-0.1,0.36C25.33,14.64,25.16,14.65,25.09,14.56z"/>
		<path class="st0" d="M17.28,13.43c-0.65-0.61-1.7-0.94-2.34-0.88c-0.64,0.06-0.99,0.14-0.99,0.14l-1.45-0.88l0.09-0.14
			c0.03,0,0.05-0.03,0.08-0.07c0.03-0.05,0.04-0.11,0.01-0.12c-0.03-0.02-0.08,0.01-0.11,0.06c-0.03,0.04-0.05,0.08-0.03,0.11
			l-0.09,0.14l-0.09-0.06l0.09-0.14c0.04,0.01,0.07-0.02,0.1-0.06c0.03-0.05,0.03-0.11,0-0.13c-0.03-0.02-0.07-0.01-0.1,0.03
			c0.01-0.04,0.01-0.07-0.01-0.08c-0.01-0.01-0.03-0.01-0.05,0c0-0.02,0-0.04-0.02-0.05c-0.02-0.01-0.06,0-0.09,0.04
			c0.02-0.04,0.03-0.08,0.01-0.09c-0.02-0.01-0.06,0.02-0.1,0.07c-0.02,0.03-0.04,0.07-0.04,0.09l-0.1,0.15l-0.05-0.03l0.1-0.15
			c0.03,0,0.05-0.03,0.08-0.07c0.03-0.05,0.04-0.11,0.01-0.12c-0.03-0.02-0.08,0.01-0.11,0.06c-0.03,0.04-0.05,0.08-0.03,0.11
			l-0.1,0.15l-0.15-0.09l-0.05,0.08l-0.02,0.03l-0.05,0.08l0.17,0.13l-0.05,0.08c-0.03,0-0.06,0.03-0.08,0.07
			c-0.03,0.05-0.04,0.11-0.01,0.12c0.02,0.01,0.05,0,0.08-0.02c-0.01,0.04-0.01,0.07,0.01,0.09c0.01,0.01,0.03,0.01,0.06-0.01
			c-0.01,0.02,0,0.04,0.01,0.05c0.02,0.01,0.07-0.02,0.1-0.07c0.02-0.04,0.04-0.07,0.04-0.09l0.05-0.08l0.05,0.04l-0.07,0.11
			c-0.03,0-0.06,0.03-0.08,0.07c-0.03,0.05-0.04,0.11-0.01,0.12c0.03,0.02,0.08-0.01,0.11-0.06c0.03-0.04,0.05-0.07,0.03-0.1
			l0.07-0.11L12.21,12l-0.06,0.09c-0.04-0.01-0.07,0.02-0.09,0.07c-0.03,0.05-0.03,0.11,0,0.13c0.03,0.02,0.09,0,0.12-0.05
			c0.03-0.04,0.05-0.08,0.02-0.11l0.06-0.09l0.07,0.05l1.39,0.98c0,0,0.07,0.36,0.27,0.97c0.2,0.61,0.92,1.44,1.74,1.79
			c0.83,0.35,1.19-0.18,1.25-0.28c0.05-0.08,0.21-0.33,0.27-0.41c0,0,0.01-0.01,0.02-0.03c0.05-0.08,0.21-0.33,0.26-0.41
			C17.59,14.6,17.93,14.05,17.28,13.43z M11.87,11.88c-0.01,0-0.03,0-0.04,0.01c0.01-0.02,0.01-0.03,0-0.05l0.05-0.08l0.04,0.03
			L11.87,11.88z M11.94,11.93c0,0-0.01,0-0.01,0c0-0.01,0-0.01,0-0.02l0.05-0.08l0.02,0.01L11.94,11.93z M12.12,11.61l-0.04-0.02
			l0.1-0.15c0.01-0.01,0.02-0.02,0.03-0.03c-0.01,0.02-0.02,0.04,0,0.06L12.12,11.61z M12.19,11.65l-0.02-0.01l0.09-0.14
			c0,0,0.01,0,0.01,0c0,0,0,0.01,0.01,0.02L12.19,11.65z M12.3,11.71l-0.06-0.03l0.09-0.14c0.02,0,0.03-0.01,0.05-0.03
			c-0.01,0.02,0,0.04,0.01,0.06L12.3,11.71z"/>
		<path class="st0" d="M27.12,12.6c0.36-0.06,2.11-0.31,1.8-1.79c-0.18,0.25-1.55-0.74-2.1,1.45c0.12-1.17-0.59-1.15-0.41-1.46
			c-0.48,0.29-0.64,0.64,0.1,1.62c-0.31-0.37-0.58-0.73-0.99-0.34c0.31-0.03,0.32,0.78,0.93,0.72c0.12,1.08,0.75,0.81,0.88,1.1
			c0.09-0.4-0.14-0.79-0.41-1.05c0.06,0.05,1.04,0.99,1.9,0.27C28.54,13.25,28.31,12.42,27.12,12.6z M27.15,13.61
			c0,0-0.3-0.27-0.4-0.68C26.78,13.09,26.89,13.31,27.15,13.61z M26.75,12.67c0,0-0.03,0.06-0.01,0.19
			c-0.01-0.06-0.03-0.11-0.03-0.18c0,0-0.33-0.01-0.66-0.31c0.23,0.2,0.47,0.28,0.64,0.25c-0.32-0.47-0.47-1.1-0.41-1.46
			c-0.05,0.5,0.28,1.23,0.45,1.45c0.25-0.11,0.95-0.41,2.02-1.56c-0.58,0.66-1.09,1.22-1.96,1.6c0,0,0.6,0.53,1.48,0.44
			C28.27,13.08,27.64,13.27,26.75,12.67z"/>
		<path class="st0" d="M28.06,9.01c-0.09,0.03-0.19,0.13-0.25,0.2c-0.01-0.03-0.02-0.07-0.05-0.07c-0.03,0-0.12,0.09-0.24,0.32
			c-0.02-0.03-0.04-0.07-0.08-0.05c-0.03,0.02-0.16,0.28-0.14,0.47c-0.02,0-0.06-0.03-0.06,0.01c-0.01,0.18,0.08,0.4,0.21,0.51
			c0,0,0.03,0.03,0.04,0.04c0.01,0.01,0.05,0.02,0.05,0.02c0.16,0.07,0.39,0.06,0.55-0.02c0.03-0.02,0-0.04-0.02-0.06
			c0.19-0.06,0.37-0.29,0.37-0.32c0-0.04-0.04-0.04-0.07-0.05c0.16-0.21,0.21-0.33,0.19-0.35c-0.01-0.03-0.05-0.02-0.08-0.02
			c0.04-0.08,0.09-0.22,0.08-0.31c-0.01-0.03-0.04-0.02-0.07-0.02c0.03-0.11,0.06-0.21,0.02-0.24c-0.04-0.02-0.09-0.01-0.14-0.01
			c-0.02-0.05-0.03-0.1-0.07-0.12c-0.04-0.02-0.12,0.05-0.21,0.12C28.1,9.03,28.1,9,28.06,9.01z"/>
		<path class="st0" d="M21.03,15.21c0.17,0.09,0.43,0.1,0.6,0.02c0,0,0.04-0.02,0.05-0.02c0.01-0.01,0.04-0.04,0.04-0.04
			c0.14-0.13,0.24-0.36,0.23-0.56c0-0.04-0.04-0.02-0.07-0.01c0.03-0.21-0.11-0.5-0.15-0.52c-0.04-0.02-0.06,0.02-0.08,0.05
			c-0.13-0.26-0.23-0.35-0.26-0.35c-0.03,0-0.04,0.04-0.05,0.08c-0.06-0.08-0.17-0.19-0.28-0.22c-0.03-0.01-0.04,0.03-0.05,0.06
			c-0.09-0.08-0.18-0.15-0.23-0.13c-0.04,0.02-0.05,0.09-0.07,0.13c-0.05,0-0.11-0.02-0.15,0.01c-0.04,0.03-0.01,0.14,0.02,0.26
			c-0.04-0.01-0.07-0.01-0.08,0.02c-0.02,0.1,0.03,0.25,0.08,0.34c-0.03,0-0.08-0.01-0.09,0.02c-0.01,0.03,0.03,0.16,0.21,0.38
			c-0.03,0.01-0.08,0.01-0.08,0.05c0,0.04,0.2,0.29,0.41,0.35C21.03,15.16,20.99,15.19,21.03,15.21z"/>
		<path class="st0" d="M19.07,15.58c0.01-0.04-0.1-0.39-0.3-0.54c0.02-0.02,0.08-0.03,0.04-0.06c-0.15-0.17-0.42-0.28-0.64-0.26
			c0,0-0.05,0-0.07,0c-0.01,0-0.06,0.02-0.06,0.02c-0.2,0.08-0.4,0.3-0.47,0.51c-0.01,0.04,0.04,0.04,0.07,0.04
			c-0.12,0.22-0.07,0.58-0.04,0.61c0.04,0.04,0.08,0,0.11-0.02c0.04,0.33,0.11,0.47,0.14,0.48c0.03,0.01,0.06-0.03,0.09-0.06
			c0.03,0.11,0.11,0.27,0.21,0.34c0.03,0.02,0.05-0.02,0.08-0.05c0.07,0.12,0.14,0.24,0.19,0.23c0.05-0.01,0.09-0.07,0.13-0.12
			c0.06,0.02,0.12,0.06,0.17,0.05c0.06-0.02,0.07-0.15,0.08-0.29c0.04,0.02,0.07,0.04,0.09,0.01c0.06-0.11,0.06-0.28,0.04-0.4
			c0.04,0.01,0.08,0.04,0.11,0.02c0.02-0.02,0.03-0.18-0.08-0.5C19,15.61,19.05,15.63,19.07,15.58z"/>
		<path class="st0" d="M13.29,12.92c-0.03-0.02-0.04,0.02-0.05,0.05c-0.16-0.16-0.5-0.23-0.53-0.21c-0.04,0.02-0.02,0.07-0.01,0.1
			c-0.3-0.06-0.45-0.04-0.47-0.01c-0.02,0.03,0.01,0.06,0.03,0.1c-0.11,0-0.27,0.02-0.36,0.09c-0.03,0.02,0,0.05,0.02,0.08
			c-0.13,0.03-0.25,0.05-0.26,0.1c-0.01,0.05,0.04,0.1,0.07,0.15c-0.04,0.04-0.09,0.09-0.09,0.14c0,0.05,0.11,0.1,0.23,0.15
			c-0.03,0.03-0.06,0.05-0.04,0.08c0.08,0.08,0.23,0.14,0.34,0.15c-0.02,0.03-0.06,0.06-0.04,0.09c0.01,0.03,0.15,0.08,0.46,0.08
			c-0.02,0.03-0.05,0.07-0.01,0.1c0.03,0.02,0.37,0.02,0.56-0.11c0.01,0.02,0.01,0.08,0.04,0.06c0.19-0.09,0.37-0.29,0.42-0.49
			c0,0,0.01-0.05,0.02-0.06c0-0.01,0-0.06,0-0.06C13.6,13.28,13.46,13.05,13.29,12.92z"/>
		<path class="st0" d="M21.54,7.93c0.12,0.07,0.3,0.08,0.43,0.03c0,0,0.03-0.01,0.04-0.02c0.01,0,0.03-0.02,0.03-0.02
			c0.1-0.09,0.17-0.25,0.17-0.39c0-0.03-0.03-0.01-0.05-0.01c0.02-0.15-0.07-0.35-0.1-0.37c-0.03-0.01-0.04,0.02-0.06,0.04
			C21.92,7,21.85,6.93,21.83,6.93c-0.02,0-0.03,0.03-0.04,0.05c-0.04-0.06-0.12-0.14-0.19-0.16c-0.02,0-0.03,0.02-0.04,0.04
			c-0.06-0.06-0.13-0.11-0.16-0.1c-0.03,0.02-0.04,0.06-0.05,0.09c-0.04,0-0.08-0.01-0.11,0c-0.03,0.02-0.01,0.1,0.01,0.18
			c-0.03,0-0.05-0.01-0.06,0.01c-0.01,0.07,0.02,0.18,0.05,0.24c-0.02,0-0.05-0.01-0.06,0.01c-0.01,0.02,0.02,0.11,0.14,0.27
			c-0.02,0-0.06,0-0.06,0.03c0,0.03,0.14,0.21,0.28,0.25C21.55,7.9,21.52,7.92,21.54,7.93z"/>
		<path class="st0" d="M20.69,5.52c0.17,0.01,0.37-0.07,0.48-0.19c0,0,0.03-0.03,0.03-0.04c0-0.01,0.02-0.05,0.02-0.05
			c0.07-0.15,0.06-0.37-0.02-0.52c-0.02-0.03-0.04,0-0.06,0.01c-0.05-0.18-0.26-0.35-0.29-0.35c-0.04,0-0.04,0.04-0.05,0.07
			c-0.19-0.16-0.3-0.2-0.33-0.19c-0.02,0.01-0.02,0.05-0.02,0.08c-0.08-0.04-0.2-0.09-0.29-0.08c-0.03,0.01-0.02,0.04-0.02,0.07
			c-0.1-0.03-0.2-0.06-0.22-0.02c-0.02,0.03-0.01,0.09-0.01,0.13c-0.04,0.02-0.1,0.03-0.12,0.06c-0.02,0.04,0.04,0.11,0.11,0.2
			c-0.03,0.01-0.06,0.01-0.06,0.04c0.03,0.09,0.11,0.19,0.19,0.24C20.03,5,19.99,5.01,19.99,5.04c0,0.03,0.08,0.11,0.3,0.23
			c-0.03,0.02-0.06,0.03-0.05,0.07c0.02,0.03,0.26,0.16,0.44,0.13C20.67,5.48,20.65,5.52,20.69,5.52z"/>
		<path class="st0" d="M26.86,4.77c-0.03,0.03-0.03,0.02-0.07,0.02c-0.01,0.04,0.01,0.11-0.03,0.14c0.01,0.16,0.06,0.33,0.16,0.47
			c0,0,0,0-0.01,0.01c-0.16-0.1-0.31-0.22-0.47-0.31c-0.02,0.02-0.04,0.04-0.03,0.08c-0.06,0-0.1-0.06-0.17-0.03
			c0.03,0.16,0.17,0.21,0.27,0.27c-0.08,0-0.23-0.05-0.34,0.01c0.03,0.06,0.08,0.05,0.12,0.07c0.15,0.12,0.33,0.13,0.5,0.19
			c-0.21,0.03-0.48-0.09-0.64,0.11c0.01,0.03,0.04,0.02,0.06,0.04c-0.01,0.04-0.01,0.05-0.01,0.1c0.11,0.03,0.24,0,0.35-0.02
			c-0.07,0.07-0.25,0.13-0.26,0.17c-0.01,0.04-0.03,0.08,0,0.15c0.07-0.02,0.14-0.05,0.2-0.1c0.02-0.02,0.03-0.06,0.06-0.07
			C26.61,6.02,26.78,6.01,26.9,6c-0.16,0.09-0.25,0.21-0.31,0.35c0.02,0.04,0.01,0.06,0.03,0.08c0.06,0,0.35-0.2,0.42-0.29
			c0.02,0.09-0.1,0.2-0.01,0.33c0.09-0.03,0.12,0.07,0.25,0.15c0.11-0.06,0.08-0.2,0.11-0.3c0.06,0.07,0.14,0.37,0.18,0.34
			c0.04-0.02,0-0.06,0.06-0.07c0.04-0.12,0-0.28,0.01-0.41c0.08,0.02,0.16,0.11,0.21,0.12c0.06,0.01,0.05,0.05,0.07,0.09
			c0.04,0,0.05-0.08,0.08-0.1c0.03-0.02-0.07-0.15-0.11-0.2c0.06,0.01,0.13,0,0.19,0.01c0.04,0.01,0.08,0.06,0.13,0.04
			c-0.02-0.16-0.17-0.31-0.26-0.31c-0.09-0.01-0.09,0.01-0.12-0.02c0.07,0,0.17-0.03,0.23-0.04c0.06-0.01,0.08,0.03,0.12-0.01
			c-0.09-0.16-0.23-0.17-0.38-0.16c0.05-0.1,0.22-0.16,0.31-0.19c0.01-0.04-0.02-0.07-0.06-0.08c-0.09-0.04-0.26-0.04-0.33,0.02
			c0-0.12,0.12-0.24,0.14-0.3c-0.1-0.13-0.26,0.13-0.38,0.18c0.01-0.12,0.08-0.2,0.01-0.36c-0.03-0.03-0.05-0.05-0.06-0.1
			c-0.03-0.01-0.06,0.02-0.07,0.02c-0.01,0-0.07,0.24-0.1,0.35c-0.01-0.11,0.01-0.21-0.05-0.35c-0.01-0.01-0.03,0-0.05,0.01
			c-0.01-0.03-0.02-0.1-0.05-0.11c-0.05,0.04-0.02,0.11-0.1,0.13C27.02,4.89,27,4.94,27.02,5C26.95,4.95,26.92,4.84,26.86,4.77z"/>
		<path class="st0" d="M13.18,3.03c-0.02,0.01-0.05,0.02-0.04,0.04c0.03,0.07,0.11,0.13,0.17,0.17c-0.02,0.01-0.05,0.02-0.05,0.04
			c0,0.02,0.08,0.08,0.26,0.15c-0.02,0.02-0.04,0.03-0.03,0.06c0.02,0.02,0.22,0.09,0.37,0.05c0,0.02-0.01,0.05,0.01,0.04
			c0.13-0.01,0.29-0.1,0.36-0.21c0,0,0.02-0.03,0.02-0.03c0-0.01,0.01-0.04,0.01-0.04c0.04-0.13,0-0.3-0.07-0.41
			c-0.02-0.02-0.03,0.01-0.04,0.02c-0.06-0.14-0.25-0.25-0.28-0.25c-0.03,0-0.03,0.04-0.03,0.06c-0.17-0.1-0.26-0.12-0.28-0.11
			c-0.02,0.01-0.01,0.04,0,0.06c-0.07-0.03-0.17-0.05-0.24-0.03c-0.02,0.01-0.01,0.03,0,0.06c-0.08-0.01-0.16-0.02-0.18,0.01
			c-0.01,0.03,0,0.07,0.01,0.11c-0.03,0.02-0.07,0.03-0.08,0.06C13.06,2.92,13.12,2.98,13.18,3.03z"/>
		<path class="st0" d="M22.67,3.71c-0.03,0-0.08-0.01-0.07,0.03c0.05,0.21,0.22,0.44,0.41,0.54c0,0,0.04,0.02,0.06,0.03
			c0.01,0,0.06,0.01,0.06,0.01c0.21,0.03,0.48-0.06,0.65-0.2c0.03-0.03-0.02-0.05-0.04-0.07c0.21-0.13,0.35-0.46,0.34-0.5
			c-0.01-0.05-0.06-0.04-0.1-0.03c0.13-0.3,0.14-0.45,0.11-0.48c-0.02-0.03-0.07,0-0.1,0.01c0.03-0.11,0.04-0.29-0.01-0.4
			c-0.02-0.03-0.05-0.01-0.09,0c0-0.14,0-0.27-0.05-0.29c-0.05-0.02-0.11,0.02-0.17,0.03c-0.04-0.05-0.07-0.11-0.12-0.12
			c-0.06-0.01-0.13,0.09-0.21,0.21c-0.02-0.03-0.04-0.07-0.07-0.05c-0.1,0.06-0.19,0.21-0.23,0.32c-0.02-0.03-0.05-0.07-0.08-0.07
			c-0.04,0.01-0.11,0.14-0.18,0.46c-0.03-0.03-0.07-0.07-0.1-0.03C22.64,3.14,22.57,3.49,22.67,3.71z"/>
		<path class="st0" d="M11.8,7.95c0,0-0.03,0.06,0.01,0.07c0.29-0.08,1.03-0.78,1.2-0.95c0.63-0.35,0.84-0.64,0.87-0.67
			c0.01,0.03,0.08,0.1,0.19,0.06c0.13,0,0.65,0.29,0.65,0.29l0.34-0.3c0,0-0.08-0.03-0.03-0.08c0.02-0.02,0.03-0.03,0.03-0.03
			s-0.04,0-0.03-0.04c0-0.01-0.2,0.19-0.29,0.27c-0.27-0.13-0.61-0.42-0.66-0.46c0.06-0.1,0.09-0.18,0.09-0.18l0,0
			c0.07-0.14,0.14-0.36,0.09-0.69c-0.06-0.43-0.35-0.58-0.35-0.58c0.06-0.12,0.42-0.31,0.42-0.31c-0.12-0.07-0.43,0.04-0.43,0.04
			c-0.21-0.11-0.36-0.13-0.57-0.03c-0.39,0.19-0.18,0.7-0.18,0.7c-0.61,0.73-0.63,1.25-0.66,1.37c-0.08,0.08-0.09,0.2-0.09,0.2
			c-0.13,0.22-0.11,0.42-0.11,0.42s-0.49,0.79-0.6,0.95c-0.1,0.15-0.08,0.16-0.06,0.16C11.63,8.16,11.8,7.95,11.8,7.95z M14,6.2
			c0,0.03,0.05,0.12,0.16,0.1c0.09,0,0.46,0.3,0.46,0.3s-0.59-0.24-0.67-0.31C13.96,6.27,13.98,6.24,14,6.2z"/>
		<path class="st0" d="M22.64,6.51c0.09,0.3,0.14,0.75,0.2,1.13c0.08-0.05,0.05-0.14,0.1-0.13c-0.03,0.1-0.02,0.23,0.08,0.28
			c0-0.09,0-0.28,0.05-0.28c0,0.09,0.01,0.19,0.1,0.24c-0.01-0.12-0.01-0.29,0.04-0.3c0,0.05,0.01,0.11,0.07,0.14
			c0.02-0.15,0.05-0.29,0.08-0.39c0.23-0.57,0.1-1.14-0.01-1.35c-0.17-0.06-0.37-0.16-0.46-0.33c-0.04-0.13,0.17-0.28,0.09-0.42
			c-0.08-0.13-0.31-0.03-0.41-0.14c-0.09-0.17-0.08-0.39-0.04-0.57c-0.12-0.2-0.54-0.6-1.15-0.7c-0.1-0.02-0.24-0.07-0.38-0.13
			c-0.01,0.06,0.04,0.1,0.08,0.13c-0.03,0.04-0.17-0.05-0.28-0.12c-0.01,0.1,0.08,0.16,0.15,0.21c-0.02,0.04-0.18-0.06-0.26-0.1
			c0,0.11,0.1,0.18,0.2,0.21c-0.02,0.05-0.08-0.02-0.17,0.02c0.3,0.24,0.66,0.51,0.87,0.75c0.21,0.23,0.17,0.65,0.19,0.91
			c-0.29,0.18-0.65,0.28-1.01,0.38c0.05,0.14,0.27,0.13,0.38,0.19c0.01,0,0.01,0,0.01,0.01c0,0.12-0.13,0.3-0.03,0.42
			c0.27-0.26,0.54-0.51,0.84-0.67C22.17,6.03,22.55,6.21,22.64,6.51z"/>
		<path class="st0" d="M25.02,3.95c0,0-0.09,0.11-0.25,0.34c-0.08,0.11-0.7,0.86-0.72,0.95c-0.02,0.09,0.03,0.19,0.01,0.28
			c-0.01,0.09-0.21,0.73,0,1.07C24.27,6.94,24.19,7,24.19,7L23.5,7.83c-0.08,0.14-0.08,0.14-0.14,0.27c-0.02,0.04-0.1,0.14-0.2,0.25
			c-0.16,0.18-0.36,0.4-0.44,0.48c-0.02,0.02-0.03,0.03-0.03,0.03s-0.04,0.05-0.17,0.05h0c-0.1,0-0.16,0.04-0.2,0.15
			C22.31,9.1,22.3,9.15,22.3,9.2h0c0,0,0,0,0,0c0.08,0.04,0.28,0.09,0.3,0.09c0,0,0,0,0,0c0.02,0,0.06-0.01,0.08-0.08
			c0-0.01,0-0.02,0-0.03c0,0,0-0.01,0-0.01c0.03-0.08,0.23-0.05,0.28-0.15l0,0C22.98,9.02,22.99,9,23,8.98
			c0.25-0.46,1.24-1.46,1.48-1.72c0.04-0.04,0.06-0.06,0.06-0.06s1.39,0.97,1.49,1.05c-0.07,0.15,0.02,0.97,0.14,1.46
			c0.11,0.49-0.26,0.74-0.26,0.74l-0.67,0.4c0,0-0.11,0.09-0.2,0.06c-0.07-0.03-0.18,0.02-0.21,0.03c-0.1,0.04,0.07,0.36,0.11,0.35
			c0.04-0.01,0.07-0.05,0.14-0.09c0.03-0.02,0.06,0,0.1-0.01c0.05-0.01,0.07-0.05,0.12-0.09c0.06-0.06,0.51-0.33,0.51-0.33
			s-0.54,0.46-0.62,0.51c-0.08,0.05-0.16,0.12-0.23,0.09c-0.1-0.04-0.27,0.08-0.28,0.1c0,0,0,0,0,0c0.02,0.04,0.14,0.2,0.29,0.24
			c0.05,0.01,0.07-0.16,0.2-0.15c0.05,0,0.09,0.01,0.14-0.03c0,0,0.06-0.06,0.08-0.07c0.15-0.15,0.68-0.67,1.03-1.02
			c0.17-0.17,0.26-0.22,0.29-0.29c0.03-0.07-0.04-0.69-0.02-0.96c0.02-0.27,0.25-0.15,0.34-0.15C26.88,9.21,27,9.56,27,9.56
			s0.01,0.02,0.02,0.03c0.02,0.02,0.04,0.02,0.03-0.06c-0.02-0.14,0.12-0.19,0.39-0.36c0.28-0.16,0.39-0.61,0.39-0.61
			s0.04-0.12,0.04-0.31c0-0.13-0.03-0.3-0.12-0.49c-0.06-0.13-0.14-0.27-0.25-0.42c-0.02-0.03-0.05-0.06-0.08-0.1
			c-0.01-0.01-0.01-0.02-0.02-0.03c-0.12-0.14-1.04-0.82-1.37-1.13c-0.01-0.01-0.01-0.01-0.02-0.02c0,0,0,0-0.01-0.01
			c-0.07-0.07-0.15-0.14-0.22-0.2c-0.22-0.19-0.44-0.33-0.65-0.49c-0.01-0.01-0.02-0.01-0.02-0.02c-0.24-0.2-0.08-0.33-0.05-0.36
			c0.02-0.02,0.23-0.28,0.36-0.45c0.01-0.01,0.09-0.12,0.11-0.13c0-0.01,0.01-0.01,0.01-0.01c0.3-0.2,0.67,0.07,0.67,0.07
			c0.3,0.14,0.56,0.01,0.65-0.15c-0.38-0.25-0.83-0.15-1-0.21c-0.02-0.01-0.04-0.02-0.05-0.02c-0.07-0.06,0.09-0.16,0.09-0.16
			c0.31-0.14,0.3-0.15,0.49-0.24c0.27-0.13,0.29-0.45,0.23-0.49c0,0,0,0-0.01,0c-0.01,0.05-0.06,0.23-0.18,0.31
			c-0.34,0.18-0.75,0.4-0.75,0.4l-0.11-0.1L25.5,3.72c0,0,0.15-0.44,0.27-0.8c0.05-0.13,0.22-0.21,0.27-0.23c0,0,0,0,0,0
			c-0.05-0.05-0.37,0.02-0.45,0.31c-0.06,0.2-0.07,0.19-0.16,0.52c0,0-0.07,0.18-0.14,0.12c-0.01-0.01-0.02-0.02-0.03-0.04
			c-0.08-0.16-0.06-0.62-0.37-0.95c-0.14,0.12-0.23,0.4-0.04,0.67C24.84,3.3,25.17,3.62,25.02,3.95z"/>
		<path class="st0" d="M15.11,11.33c0.01-0.09,0.06-0.16,0.01-0.28c-0.02-0.02-0.04-0.04-0.05-0.07c-0.02-0.01-0.05,0.01-0.05,0.01
			c-0.01,0-0.05,0.18-0.08,0.27c-0.01-0.09,0.01-0.16-0.04-0.27c-0.01-0.01-0.03,0-0.04,0.01c0-0.03-0.01-0.08-0.04-0.08
			c-0.04,0.03-0.02,0.08-0.07,0.1c0,0.04-0.01,0.07,0,0.12c-0.05-0.04-0.07-0.12-0.12-0.17c-0.02,0.02-0.02,0.01-0.05,0.01
			c-0.01,0.03,0.01,0.08-0.03,0.1c0.01,0.12,0.04,0.26,0.12,0.36c0,0,0,0,0,0c-0.12-0.08-0.24-0.17-0.36-0.23
			c-0.01,0.02-0.03,0.03-0.03,0.06c-0.05,0-0.08-0.04-0.13-0.02c0.03,0.12,0.13,0.16,0.21,0.21c-0.06,0-0.18-0.04-0.26,0.01
			c0.02,0.05,0.06,0.04,0.09,0.05c0.11,0.1,0.25,0.1,0.38,0.15c-0.16,0.02-0.37-0.07-0.49,0.09c0.01,0.03,0.03,0.01,0.05,0.03
			c-0.01,0.03-0.01,0.04-0.01,0.07c0.08,0.03,0.19,0,0.27-0.01c-0.05,0.06-0.19,0.1-0.2,0.13c-0.01,0.03-0.02,0.06,0,0.11
			c0.06-0.02,0.1-0.04,0.15-0.08c0.02-0.02,0.02-0.04,0.04-0.06c0.05-0.03,0.18-0.03,0.27-0.05c-0.12,0.07-0.19,0.16-0.24,0.27
			c0.02,0.03,0.01,0.05,0.02,0.06c0.05,0,0.26-0.15,0.32-0.23c0.01,0.07-0.08,0.16-0.01,0.26c0.07-0.02,0.1,0.06,0.2,0.11
			c0.09-0.05,0.06-0.15,0.09-0.23c0.05,0.05,0.11,0.28,0.14,0.26c0.03-0.02,0-0.05,0.05-0.05c0.03-0.09,0-0.21,0.01-0.31
			c0.06,0.02,0.12,0.09,0.16,0.09c0.04,0.01,0.04,0.04,0.05,0.07c0.03,0,0.04-0.06,0.06-0.08c0.02-0.02-0.05-0.11-0.08-0.15
			c0.05,0.01,0.1,0,0.14,0.01c0.03,0.01,0.06,0.05,0.1,0.03c-0.02-0.12-0.13-0.23-0.2-0.24c-0.07-0.01-0.07,0.01-0.09-0.01
			c0.05,0,0.13-0.02,0.17-0.03c0.04-0.01,0.06,0.02,0.09-0.01c-0.07-0.12-0.17-0.13-0.29-0.12c0.04-0.08,0.16-0.12,0.24-0.15
			c0.01-0.03-0.01-0.05-0.05-0.07c-0.07-0.03-0.19-0.03-0.25,0.02c0-0.09,0.09-0.18,0.11-0.23C15.33,11.08,15.2,11.28,15.11,11.33z"
			/>
		<path class="st0" d="M14.3,10.85c0.04-0.04,0-0.08,0.02-0.12c0.07-0.01,0.09-0.02,0.16-0.06c-0.02-0.2-0.18-0.39-0.27-0.55
			c0.16,0.06,0.39,0.31,0.46,0.3c0.07-0.02,0.15,0,0.23-0.11c-0.08-0.1-0.17-0.18-0.3-0.24c-0.05-0.02-0.12-0.01-0.16-0.04
			c-0.11-0.08-0.24-0.35-0.35-0.53c0.25,0.19,0.51,0.24,0.77,0.26c0.04-0.06,0.09-0.06,0.11-0.11c-0.04-0.1-0.57-0.41-0.76-0.46
			c0.14-0.09,0.4,0.02,0.54-0.22c-0.11-0.12,0.03-0.25,0.06-0.51c-0.18-0.14-0.38,0.01-0.57,0.03c0.07-0.15,0.49-0.48,0.43-0.53
			c-0.06-0.05-0.1,0.04-0.15-0.05c-0.22,0.02-0.45,0.2-0.67,0.27c-0.02-0.14,0.07-0.33,0.05-0.43c-0.02-0.1,0.04-0.11,0.1-0.18
			c-0.04-0.06-0.17-0.03-0.22-0.06c-0.05-0.03-0.18,0.21-0.24,0.32c-0.02-0.11-0.09-0.21-0.11-0.31c-0.01-0.08,0.04-0.18-0.04-0.24
			c-0.24,0.15-0.37,0.49-0.32,0.64c0.05,0.15,0.08,0.13,0.06,0.2c-0.05-0.11-0.16-0.25-0.22-0.34c-0.06-0.08-0.01-0.16-0.1-0.18
			c-0.19,0.25-0.11,0.48,0.01,0.71c-0.2-0.01-0.4-0.24-0.52-0.36c-0.07,0.01-0.09,0.07-0.09,0.15c0,0.17,0.12,0.43,0.27,0.52
			c-0.2,0.09-0.47-0.02-0.58-0.02c-0.15,0.25,0.39,0.33,0.56,0.48c-0.19,0.07-0.38,0.01-0.58,0.24c-0.03,0.07-0.05,0.11-0.11,0.17
			c0.01,0.06,0.07,0.09,0.08,0.1c0.01,0.01,0.43-0.05,0.64-0.08c-0.18,0.1-0.35,0.13-0.53,0.33c0,0.03,0.03,0.05,0.05,0.07
			c-0.05,0.03-0.15,0.1-0.14,0.16c0.09,0.06,0.19-0.04,0.28,0.06c0.08-0.05,0.16-0.05,0.24-0.12c-0.04,0.13-0.19,0.27-0.26,0.4
			c0.07,0.03,0.05,0.04,0.08,0.1c0.08-0.01,0.16-0.09,0.24-0.04c0.25-0.13,0.49-0.33,0.64-0.59c0,0,0.01,0.01,0.01,0.01
			c-0.05,0.32-0.14,0.65-0.16,0.97c0.05,0.02,0.09,0.03,0.14,0c0.04,0.1-0.01,0.2,0.08,0.3c0.23-0.16,0.22-0.42,0.25-0.63
			c0.05,0.14,0.08,0.41,0.26,0.54c0.08-0.08,0.03-0.16,0.02-0.24c0.1-0.32-0.02-0.62-0.04-0.94C13.86,10.22,13.86,10.75,14.3,10.85z
			"/>
		<path class="st0" d="M20.32,14.69c-0.04-0.15-0.36-1.04-0.34-1.18c0.02-0.15,0.09-0.31,0.17-0.43c0.18-0.28,0.36-0.62,0.56-0.88
			c0.11,0.2,0.16,0.42,0.3,0.61c0.19,0.24,0.38,0.46,0.58,0.69c0.06-0.21,0.07-0.48,0.06-0.66c0-0.51-0.01-1.04-0.5-1.27
			c0.13-0.15,0.35-0.31,0.55-0.4c0.21,0.23,0.4,0.57,0.83,0.65c0.1,0.02,0.46,0.07,0.52-0.01c0.06-0.08-0.06-0.42-0.1-0.51
			c-0.11-0.23-0.36-0.41-0.7-0.4c0.07-0.08,0.17-0.13,0.41-0.14c0.32,0.16,0.64,0.11,0.85,0.07c0.54-0.12,0.84-1.09,1.4-1.38
			c-1.33-0.46-2.13,0.37-2.29,0.64c-0.06,0.11-0.06,0.26-0.11,0.4c-0.18,0.09-0.38,0.18-0.59,0.26c0.21-0.44,0.4-1.19,0.32-1.42
			c-0.08,0.1-0.08,0.06-0.11,0.11c-0.39,0.39-0.97,0.66-1.1,1.4c-0.03,0.15-0.05,0.31-0.05,0.45c-0.2,0.24-0.93,1.67-1.12,1.78
			c-0.12-0.47-0.26-0.93-0.4-1.39c0.23,0.1,0.54-0.02,0.73-0.17c0.19-0.15,0.32-0.37,0.46-0.57c0.2-0.28,0.33-0.7,0.5-1.04
			c0.06-0.13,0.18-0.23,0.15-0.37c-0.28,0.07-1.5,0.72-1.9,1.35c-0.04,0.06-0.1,0.16-0.09,0.22c-0.21-0.24-0.25-0.62-0.31-0.9
			c0.73,0.06,1.27-0.35,1.58-1c0.13-0.27,0.2-0.59,0.32-0.86c0.08-0.19,0.26-0.29,0.27-0.49c-1.98,0.36-2.41,1.54-2.43,1.62
			c-0.12-0.13-0.12-0.28-0.18-0.37c0.05-0.05,0.88-0.51,1.14-1.61c0.06-0.22,0.09-0.4,0.13-0.64c0.08-0.38,0.04-1.18-0.01-1.26
			c-0.06,0.05-0.06,0.05-0.1,0.1c-0.46,0.48-1.28,0.74-1.49,1.54c-0.1,0.37-0.05,0.74-0.04,1.11c-0.1-0.15-0.16-0.32-0.26-0.47
			c0.01-0.31-0.17-1.19-0.58-1.77s-1.63-1.16-1.81-1.14c0.03,0.23,0.38,1.34,0.61,1.84c0.23,0.5,1.41,1.14,1.54,1.18
			c0.1,0.15,0.22,0.29,0.26,0.46c-0.04,0.01-0.31-0.37-0.84-0.51c-0.25-0.07-1.16-0.13-1.81-0.77c-0.04,0.21,0.09,0.4,0.18,0.59
			c0.17,0.34,0.52,0.74,0.95,1.15c0.43,0.41,1.28,0.65,2.01,0.59c0.13,0.2,0.2,0.44,0.26,0.68c-0.13-0.09-0.46-0.19-0.6-0.19
			c-1.33-0.1-1.76-0.07-2.83-0.79c-0.14,0.34,0.11,0.64,0.33,0.89c0.34,0.4,0.9,0.85,1.52,0.99c0.33,0.08,1.24,0.17,1.77-0.33
			c0.08,0.17,0.1,0.37,0.16,0.55c-0.1-0.01-0.83-0.5-2.05,0.57c-0.29,0.25-1.17,0.29-1.21,0.31c0.1,0.11,0.16,0.17,0.26,0.21
			c0.28,0.12,0.76,0.3,1.07,0.31c0.59,0.03,1.03-0.13,1.44-0.44c0.21-0.16,0.37-0.38,0.61-0.55c0.08,0.12,0.12,0.36,0.18,0.55
			c0.03,0.1,0.2,0.38,0.16,0.5c-0.04,0.16-0.61,0.38-0.71,0.42c-0.1-0.12-0.38-0.27-0.62-0.22c-0.81,0.19-0.51,0.97-0.15,1.14
			c0.31,0.15,0.91,0.07,0.89-0.58c0.19-0.19,0.38-0.37,0.66-0.41c0.18,0.55,0.77,2.77,0.68,2.88c0,0-0.19,0.19-0.35-0.22
			c-0.19-0.56-0.5-1.11-0.99-1.46c-0.04,0-0.06-0.01-0.06,0.05c0.38,0.42,0.7,1.24,0.77,1.58c1.63,2.44-0.21,6.97,1.65,11.05
			c0.04,0,0.68,0.07,0.86-0.34c-0.79-1.6-1.39-9.39-1.45-9.89C20.63,16.27,20.72,16.1,20.32,14.69z"/>
	</g>
	<g>
		<path class="st0" d="M2.65,30.54c0.07,0,0.13-0.03,0.18-0.08c0.05-0.05,0.08-0.11,0.08-0.18c0-0.07-0.03-0.13-0.08-0.18
			c-0.05-0.05-0.11-0.08-0.18-0.08c-0.07,0-0.13,0.03-0.18,0.08c-0.05,0.05-0.08,0.11-0.08,0.18c0,0.07,0.03,0.13,0.08,0.18
			C2.52,30.52,2.58,30.54,2.65,30.54z"/>
		<path class="st0" d="M1.78,30.54c0.07,0,0.13-0.03,0.18-0.08c0.05-0.05,0.08-0.11,0.08-0.18c0-0.07-0.03-0.13-0.08-0.18
			c-0.05-0.05-0.11-0.08-0.18-0.08S1.65,30.05,1.6,30.1c-0.05,0.05-0.08,0.11-0.08,0.18c0,0.07,0.03,0.13,0.08,0.18
			C1.65,30.52,1.71,30.54,1.78,30.54z"/>
		<path class="st0" d="M3.59,32.93H1.68c-0.42,0-0.74-0.11-0.96-0.33c-0.22-0.22-0.32-0.53-0.32-0.93c0-0.09,0-0.18,0.01-0.27
			c0.01-0.09,0.02-0.19,0.04-0.29l-0.39-0.07c-0.03,0.12-0.04,0.23-0.05,0.33C0,31.47,0,31.58,0,31.68c0,0.54,0.15,0.95,0.46,1.23
			c0.3,0.28,0.72,0.42,1.25,0.42h2.29v-2.36h-0.4V32.93z"/>
		<rect x="4.61" y="29.3" class="st0" width="0.4" height="4.03"/>
		<path class="st0" d="M5.7,33.51c0,0.14-0.01,0.27-0.02,0.4c-0.01,0.13-0.04,0.24-0.08,0.34c-0.04,0.1-0.11,0.18-0.2,0.24
			c-0.09,0.06-0.2,0.09-0.35,0.09v0.4c0.24,0,0.42-0.04,0.56-0.13c0.14-0.09,0.24-0.21,0.32-0.35c0.07-0.14,0.12-0.3,0.14-0.48
			c0.02-0.17,0.03-0.35,0.03-0.51v-2.54H5.7V33.51z"/>
		<path class="st0" d="M12.64,31.06c-0.2,0.11-0.38,0.26-0.53,0.44c-0.15,0.18-0.23,0.41-0.23,0.67c0,0.18,0.02,0.33,0.07,0.45
			c0.05,0.12,0.11,0.22,0.18,0.31H11.6h-0.01h-1.38H8.84H7.45H7.11V29.3h-0.4v4.03h0.74h1.38h1.38h1.38h0.01h2.14v-2.6
			c-0.12,0.01-0.28,0.04-0.49,0.09C13.05,30.86,12.84,30.94,12.64,31.06z M13.34,32.91c-0.33-0.01-0.6-0.07-0.78-0.17
			c-0.19-0.1-0.28-0.29-0.28-0.58c0-0.14,0.04-0.27,0.11-0.38c0.07-0.11,0.17-0.2,0.28-0.28c0.11-0.08,0.23-0.14,0.35-0.19
			c0.12-0.05,0.23-0.09,0.32-0.11V32.91z"/>
		<path class="st0" d="M15.08,34.4c-0.08-0.05-0.11-0.11-0.11-0.2c0-0.07,0.02-0.12,0.06-0.16c0.04-0.03,0.09-0.05,0.16-0.05
			c0.1,0,0.2,0.03,0.32,0.08l0.08-0.18c-0.07-0.03-0.13-0.05-0.2-0.07c-0.07-0.02-0.14-0.03-0.21-0.03c-0.1,0-0.2,0.03-0.28,0.09
			c-0.09,0.06-0.13,0.16-0.13,0.31c0,0.06,0.01,0.11,0.03,0.17c0.02,0.06,0.04,0.09,0.07,0.1h-0.35v0.2h1.08v-0.2h-0.23
			C15.25,34.47,15.15,34.45,15.08,34.4z"/>
		<path class="st0" d="M17.07,32.61c-0.07-0.16-0.15-0.33-0.24-0.51c-0.09-0.18-0.21-0.37-0.33-0.56c0.16-0.33,0.29-0.67,0.39-1.01
			c0.09-0.34,0.14-0.65,0.14-0.93V29.3h-0.4v0.3c0,0.22-0.04,0.46-0.11,0.74c-0.07,0.27-0.17,0.54-0.29,0.82
			c-0.17-0.2-0.32-0.37-0.43-0.51c-0.12-0.13-0.22-0.26-0.32-0.36c-0.1-0.11-0.2-0.21-0.3-0.31c-0.1-0.1-0.21-0.22-0.35-0.35
			l-0.28,0.28c0.08,0.09,0.19,0.2,0.32,0.33c0.13,0.13,0.27,0.28,0.41,0.43c0.14,0.15,0.28,0.31,0.41,0.47
			c0.13,0.16,0.25,0.3,0.34,0.44c-0.11,0.19-0.22,0.37-0.35,0.54c-0.12,0.16-0.25,0.31-0.39,0.43c-0.14,0.12-0.28,0.22-0.43,0.29
			c-0.15,0.07-0.3,0.1-0.45,0.1h-0.06v0.4h2.98l-0.1-0.3C17.19,32.91,17.14,32.77,17.07,32.61z M15.46,32.93
			c0.09-0.07,0.16-0.14,0.23-0.2c0.07-0.06,0.13-0.13,0.19-0.2c0.06-0.07,0.12-0.15,0.18-0.25c0.06-0.09,0.13-0.2,0.21-0.33
			c0.12,0.2,0.22,0.38,0.3,0.55c0.08,0.17,0.15,0.32,0.19,0.43H15.46z"/>
		<rect x="17.84" y="29.3" class="st0" width="0.4" height="4.03"/>
		<path class="st0" d="M20.93,31.06c-0.21,0.11-0.38,0.26-0.53,0.44c-0.15,0.18-0.23,0.41-0.23,0.67c0,0.18,0.02,0.33,0.07,0.45
			c0.05,0.12,0.11,0.22,0.18,0.31h-0.17c-0.1,0-0.19,0.05-0.26,0.13c-0.07,0.08-0.11,0.18-0.11,0.29v1.4h0.4v-1.43h1.75v-2.6
			c-0.12,0.01-0.28,0.04-0.49,0.09C21.34,30.86,21.14,30.94,20.93,31.06z M21.64,32.91c-0.34-0.01-0.6-0.07-0.79-0.17
			c-0.19-0.1-0.28-0.29-0.28-0.58c0-0.14,0.04-0.27,0.11-0.38c0.08-0.11,0.17-0.2,0.28-0.28c0.11-0.08,0.23-0.14,0.35-0.19
			c0.12-0.05,0.23-0.09,0.32-0.11V32.91z"/>
		<path class="st0" d="M23.05,28.61c0.1,0,0.21,0.03,0.33,0.08l0.08-0.19c-0.14-0.06-0.28-0.09-0.41-0.09c-0.1,0-0.2,0.03-0.28,0.09
			c-0.09,0.06-0.13,0.16-0.13,0.29c0,0.06,0.01,0.12,0.03,0.18c0.02,0.06,0.04,0.09,0.06,0.1h-0.33v0.2h1.03v-0.2h-0.19
			c-0.11,0-0.21-0.02-0.28-0.07c-0.08-0.04-0.12-0.11-0.12-0.21c0-0.07,0.02-0.11,0.06-0.14C22.93,28.62,22.99,28.61,23.05,28.61z"
			/>
		<rect x="22.7" y="29.6" class="st0" width="0.4" height="3.73"/>
		<path class="st0" d="M25.63,30.17c0.07,0,0.13-0.03,0.18-0.08c0.05-0.05,0.08-0.11,0.08-0.18s-0.03-0.13-0.08-0.18
			c-0.05-0.05-0.11-0.08-0.18-0.08c-0.07,0-0.13,0.03-0.18,0.08c-0.05,0.05-0.08,0.11-0.08,0.18s0.03,0.13,0.08,0.18
			C25.5,30.15,25.56,30.17,25.63,30.17z"/>
		<path class="st0" d="M26.5,30.17c0.07,0,0.13-0.03,0.18-0.08c0.05-0.05,0.08-0.11,0.08-0.18s-0.03-0.13-0.08-0.18
			c-0.05-0.05-0.11-0.08-0.18-0.08c-0.07,0-0.13,0.03-0.18,0.08c-0.05,0.05-0.08,0.11-0.08,0.18s0.03,0.13,0.08,0.18
			C26.37,30.15,26.43,30.17,26.5,30.17z"/>
		<path class="st0" d="M32.14,30.25c0.07,0,0.13-0.02,0.18-0.07c0.05-0.05,0.08-0.11,0.08-0.18c0-0.07-0.03-0.13-0.08-0.19
			c-0.05-0.05-0.11-0.08-0.18-0.08c-0.07,0-0.13,0.03-0.18,0.08c-0.05,0.05-0.08,0.11-0.08,0.19c0,0.07,0.03,0.13,0.08,0.18
			C32.01,30.23,32.07,30.25,32.14,30.25z"/>
		<path class="st0" d="M33.01,30.25c0.07,0,0.13-0.02,0.18-0.07c0.05-0.05,0.08-0.11,0.08-0.18c0-0.07-0.03-0.13-0.08-0.19
			c-0.05-0.05-0.11-0.08-0.18-0.08c-0.07,0-0.13,0.03-0.18,0.08c-0.05,0.05-0.08,0.11-0.08,0.19c0,0.07,0.03,0.13,0.08,0.18
			C32.88,30.23,32.94,30.25,33.01,30.25z"/>
		<path class="st0" d="M36.7,30.97h-0.4v1.96h-1.04h-1.38h-0.55c0.09-0.12,0.16-0.25,0.21-0.41c0.05-0.15,0.08-0.32,0.08-0.49
			c0-0.18-0.03-0.35-0.08-0.51c-0.05-0.16-0.13-0.3-0.22-0.42c-0.09-0.12-0.2-0.21-0.33-0.28c-0.13-0.07-0.26-0.1-0.4-0.1
			c-0.14,0-0.28,0.04-0.41,0.1c-0.13,0.07-0.24,0.16-0.33,0.28c-0.09,0.12-0.17,0.26-0.22,0.42c-0.05,0.16-0.08,0.33-0.08,0.51
			c0,0.17,0.03,0.34,0.08,0.49c0.05,0.15,0.12,0.29,0.21,0.41h-0.55h-1.38H28.5h-1.38h-0.25c-0.06,0-0.09-0.04-0.09-0.11v-2.26
			c-0.13,0.04-0.3,0.1-0.51,0.18c-0.21,0.08-0.42,0.2-0.62,0.34c-0.2,0.14-0.38,0.32-0.52,0.53c-0.15,0.21-0.22,0.45-0.22,0.73
			c0,0.11,0.01,0.22,0.04,0.33c0.03,0.12,0.09,0.22,0.18,0.32c0.09,0.1,0.21,0.19,0.37,0.26c0.16,0.07,0.37,0.11,0.63,0.13l0.03-0.4
			c-0.3-0.03-0.51-0.08-0.65-0.17c-0.14-0.09-0.21-0.25-0.21-0.47c0-0.16,0.04-0.31,0.12-0.44c0.08-0.13,0.17-0.24,0.28-0.34
			c0.11-0.1,0.22-0.18,0.35-0.25c0.12-0.07,0.23-0.13,0.32-0.17l0.01,1.68c0,0.16,0.04,0.29,0.12,0.38
			c0.08,0.09,0.19,0.13,0.32,0.13h0.31h1.38h1.38h1.38h2.62h1.38h1.44V30.97z M33.05,32.63c-0.11,0.17-0.24,0.27-0.4,0.3h-0.16
			c-0.16-0.03-0.29-0.13-0.4-0.3c-0.11-0.17-0.16-0.37-0.16-0.6c0-0.12,0.02-0.24,0.05-0.35c0.03-0.11,0.08-0.21,0.14-0.29
			c0.06-0.08,0.13-0.15,0.21-0.2c0.08-0.05,0.16-0.07,0.25-0.07s0.17,0.02,0.25,0.07c0.08,0.05,0.14,0.11,0.2,0.2
			c0.06,0.08,0.1,0.18,0.14,0.29c0.03,0.11,0.05,0.23,0.05,0.35C33.22,32.26,33.16,32.46,33.05,32.63z"/>
		<path class="st0" d="M35.71,33.9c-0.07,0-0.13,0.03-0.18,0.08c-0.05,0.05-0.08,0.11-0.08,0.18c0,0.07,0.03,0.13,0.08,0.18
			c0.05,0.05,0.11,0.08,0.18,0.08s0.13-0.03,0.18-0.08c0.05-0.05,0.08-0.11,0.08-0.18c0-0.07-0.03-0.13-0.08-0.18
			C35.84,33.92,35.78,33.9,35.71,33.9z"/>
		<path class="st0" d="M36.49,33.9c-0.07,0-0.13,0.03-0.18,0.08c-0.05,0.05-0.08,0.11-0.08,0.18c0,0.07,0.03,0.13,0.08,0.18
			c0.05,0.05,0.11,0.08,0.18,0.08s0.13-0.03,0.18-0.08c0.05-0.05,0.08-0.11,0.08-0.18c0-0.07-0.03-0.13-0.08-0.18
			C36.63,33.92,36.57,33.9,36.49,33.9z"/>
		<path class="st0" d="M42.31,32.88c-0.1-0.03-0.17-0.12-0.2-0.28c-0.03-0.15-0.06-0.4-0.09-0.75c-0.04-0.39-0.14-0.69-0.32-0.89
			c-0.18-0.2-0.44-0.3-0.77-0.3c-0.16,0-0.32,0.03-0.45,0.08c-0.14,0.05-0.26,0.12-0.35,0.19l0.25,0.32
			c0.19-0.12,0.37-0.18,0.55-0.18c0.08,0,0.15,0.01,0.23,0.02c0.08,0.01,0.15,0.05,0.21,0.1c0.07,0.05,0.12,0.13,0.17,0.24
			c0.05,0.11,0.08,0.26,0.09,0.45c0.01,0.26,0.04,0.47,0.07,0.64c0.03,0.17,0.07,0.3,0.12,0.4h-2.01c0,0,0,0,0,0v0h-0.42
			c0.04-0.1,0.07-0.22,0.09-0.35c0.03-0.13,0.04-0.27,0.04-0.42c0-0.18-0.02-0.36-0.07-0.54c-0.05-0.18-0.13-0.33-0.23-0.47
			c-0.1-0.14-0.23-0.25-0.38-0.33c-0.15-0.08-0.33-0.13-0.54-0.13c-0.22,0-0.41,0.04-0.57,0.12c-0.16,0.08-0.29,0.16-0.39,0.25
			l0.24,0.31c0.14-0.1,0.27-0.17,0.38-0.21s0.22-0.06,0.33-0.06c0.13,0,0.24,0.03,0.35,0.09c0.11,0.06,0.19,0.14,0.26,0.23
			c0.07,0.1,0.12,0.21,0.16,0.34c0.04,0.13,0.06,0.27,0.06,0.41c0,0.18-0.02,0.34-0.05,0.47c-0.04,0.13-0.07,0.23-0.1,0.31h-1.65
			v0.4h2.5v0c0,0,0,0,0,0h2.72l0.01-0.38L42.31,32.88z"/>
	</g>
	<g>
		<path class="st0" d="M2.16,35.4c-0.04,0-0.07,0.03-0.07,0.07v2.13c0,0.19-0.01,0.33-0.02,0.4c-0.02,0.13-0.08,0.24-0.16,0.35
			c-0.15,0.19-0.36,0.28-0.63,0.28c-0.27,0-0.47-0.1-0.63-0.31c-0.08-0.11-0.13-0.23-0.16-0.35c-0.01-0.07-0.02-0.21-0.02-0.4v-2.09
			c0-0.04-0.03-0.07-0.06-0.07H0.28c-0.04,0-0.06,0.03-0.06,0.07v2.09c0,0.35,0.04,0.6,0.14,0.77c0.09,0.17,0.22,0.3,0.39,0.4
			c0.17,0.1,0.35,0.14,0.54,0.14c0.33,0,0.6-0.12,0.81-0.36c0.1-0.11,0.17-0.24,0.21-0.38c0.04-0.14,0.06-0.31,0.06-0.54v-2.13
			c0-0.04-0.03-0.07-0.06-0.07H2.16z"/>
		<path class="st0" d="M5.58,36.27c-0.29,0-0.53,0.1-0.72,0.31c-0.05,0.05-0.09,0.11-0.13,0.19c-0.07-0.13-0.16-0.23-0.27-0.31
			c-0.18-0.12-0.38-0.19-0.59-0.19c-0.28,0-0.51,0.1-0.69,0.3V36.4c0-0.04-0.03-0.06-0.06-0.06H2.98c-0.04,0-0.07,0.03-0.07,0.06
			v2.35c0,0.04,0.03,0.06,0.07,0.06h0.13c0.04,0,0.07-0.03,0.07-0.06v-1.34c0-0.29,0.06-0.51,0.18-0.64
			c0.14-0.16,0.32-0.24,0.54-0.24c0.23,0,0.41,0.09,0.56,0.28c0.11,0.15,0.17,0.37,0.17,0.66v1.29c0,0.04,0.03,0.06,0.07,0.06h0.13
			c0.04,0,0.07-0.03,0.07-0.06v-1.32c0-0.23,0.02-0.4,0.06-0.49c0.05-0.12,0.14-0.23,0.26-0.3c0.12-0.08,0.25-0.12,0.39-0.12
			c0.2,0,0.37,0.07,0.52,0.23c0.14,0.14,0.21,0.37,0.21,0.69v1.32c0,0.04,0.03,0.06,0.07,0.06h0.13c0.04,0,0.07-0.03,0.07-0.06
			v-1.32c0-0.3-0.04-0.52-0.13-0.66C6.25,36.44,5.96,36.27,5.58,36.27z"/>
		<path class="st0" d="M9.78,36.27c-0.29,0-0.53,0.1-0.72,0.31c-0.05,0.05-0.09,0.11-0.13,0.19c-0.07-0.13-0.16-0.23-0.27-0.31
			c-0.18-0.12-0.38-0.19-0.59-0.19c-0.28,0-0.51,0.1-0.69,0.3V36.4c0-0.04-0.03-0.06-0.07-0.06H7.17c-0.04,0-0.07,0.03-0.07,0.06
			v2.35c0,0.04,0.03,0.06,0.07,0.06H7.3c0.04,0,0.07-0.03,0.07-0.06v-1.34c0-0.29,0.06-0.51,0.18-0.64
			c0.14-0.16,0.32-0.24,0.54-0.24c0.23,0,0.41,0.09,0.56,0.28c0.11,0.15,0.17,0.37,0.17,0.66v1.29c0,0.04,0.03,0.06,0.07,0.06H9
			c0.04,0,0.07-0.03,0.07-0.06v-1.32c0-0.23,0.02-0.4,0.06-0.49c0.05-0.12,0.14-0.23,0.26-0.3c0.12-0.08,0.25-0.12,0.39-0.12
			c0.2,0,0.37,0.07,0.52,0.23c0.14,0.14,0.21,0.37,0.21,0.69v1.32c0,0.04,0.03,0.06,0.07,0.06h0.13c0.04,0,0.07-0.03,0.07-0.06
			v-1.32c0-0.3-0.04-0.52-0.13-0.66C10.45,36.44,10.16,36.27,9.78,36.27z"/>
		<path class="st0" d="M13.94,35.44c-0.01-0.02-0.03-0.04-0.06-0.04h-0.17c-0.03,0-0.05,0.02-0.06,0.04l-1.41,3.28
			c-0.01,0.02-0.01,0.04,0.01,0.06c0.01,0.02,0.03,0.03,0.05,0.03h0.14c0.03,0,0.05-0.01,0.06-0.04l0.48-1.1h1.63l0.47,1.1
			c0.01,0.02,0.03,0.04,0.06,0.04h0.14c0,0,0,0,0,0c0.04,0,0.07-0.03,0.07-0.06c0-0.02-0.01-0.03-0.02-0.04L13.94,35.44z
			 M13.09,37.43l0.7-1.67l0.7,1.67H13.09z"/>
		<path class="st0" d="M15.68,35.4c-0.04,0-0.07,0.03-0.07,0.07v3.28c0,0.04,0.03,0.06,0.07,0.06h0.13c0.04,0,0.07-0.03,0.07-0.06
			v-3.28c0-0.04-0.03-0.07-0.07-0.07H15.68z"/>
		<path class="st0" d="M17.76,35.4c-0.04,0-0.07,0.03-0.07,0.07v3.28c0,0.04,0.03,0.06,0.07,0.06h1.8c0.04,0,0.07-0.03,0.07-0.06
			v-0.12c0-0.04-0.03-0.07-0.07-0.07h-1.6v-1.35h1.6c0.04,0,0.07-0.03,0.07-0.06v-0.12c0-0.04-0.03-0.07-0.07-0.07h-1.6v-1.32h1.6
			c0.04,0,0.07-0.03,0.07-0.07v-0.12c0-0.04-0.03-0.07-0.07-0.07H17.76z"/>
		<path class="st0" d="M22.75,36.27c-0.29,0-0.53,0.1-0.72,0.31c-0.05,0.05-0.09,0.11-0.13,0.19c-0.07-0.13-0.16-0.23-0.27-0.31
			c-0.18-0.12-0.38-0.19-0.59-0.19c-0.28,0-0.51,0.1-0.69,0.3V36.4c0-0.04-0.03-0.06-0.06-0.06h-0.14c-0.04,0-0.07,0.03-0.07,0.06
			v2.35c0,0.04,0.03,0.06,0.07,0.06h0.13c0.04,0,0.06-0.03,0.06-0.06v-1.34c0-0.29,0.06-0.51,0.18-0.64
			c0.14-0.16,0.32-0.24,0.54-0.24c0.23,0,0.41,0.09,0.56,0.28c0.11,0.15,0.17,0.37,0.17,0.66v1.29c0,0.04,0.03,0.06,0.06,0.06h0.13
			c0.04,0,0.07-0.03,0.07-0.06v-1.32c0-0.23,0.02-0.4,0.06-0.49c0.05-0.13,0.13-0.22,0.26-0.3c0.12-0.08,0.25-0.12,0.39-0.12
			c0.2,0,0.37,0.07,0.52,0.23c0.14,0.14,0.21,0.37,0.21,0.69v1.32c0,0.04,0.03,0.06,0.07,0.06h0.13c0.04,0,0.07-0.03,0.07-0.06
			v-1.32c0-0.3-0.04-0.52-0.13-0.66C23.42,36.44,23.13,36.27,22.75,36.27z"/>
		<path class="st0" d="M26.59,36.33c-0.04,0-0.07,0.03-0.07,0.06v0.4c-0.06-0.08-0.12-0.15-0.19-0.21
			c-0.25-0.21-0.55-0.32-0.88-0.32c-0.37,0-0.68,0.13-0.94,0.38c-0.26,0.25-0.39,0.56-0.39,0.92c0,0.36,0.13,0.67,0.39,0.92
			c0.26,0.25,0.58,0.38,0.96,0.38c0.46,0,0.81-0.17,1.06-0.51v0.39c0,0.04,0.03,0.06,0.07,0.06h0.13c0.04,0,0.07-0.03,0.07-0.06
			V36.4c0-0.04-0.03-0.06-0.07-0.06H26.59z M26.52,37.59c0,0.29-0.1,0.54-0.31,0.74c-0.21,0.2-0.45,0.3-0.76,0.3
			c-0.3,0-0.56-0.1-0.77-0.3c-0.21-0.2-0.31-0.45-0.31-0.74c0-0.3,0.1-0.54,0.31-0.75c0.21-0.2,0.46-0.31,0.77-0.31
			c0.3,0,0.54,0.1,0.76,0.31C26.42,37.05,26.52,37.29,26.52,37.59z"/>
		<path class="st0" d="M28.42,36.47v-0.13c0-0.02-0.01-0.04-0.02-0.05c-0.01-0.01-0.03-0.02-0.05-0.02
			c-0.33,0.02-0.59,0.13-0.76,0.33V36.4c0-0.04-0.03-0.06-0.07-0.06H27.4c-0.04,0-0.07,0.03-0.07,0.06v2.35
			c0,0.04,0.03,0.06,0.07,0.06h0.13c0.04,0,0.07-0.03,0.07-0.06v-1.27c0-0.23,0.02-0.4,0.06-0.51c0.04-0.1,0.12-0.2,0.23-0.28
			c0.11-0.08,0.27-0.13,0.47-0.15C28.39,36.54,28.42,36.51,28.42,36.47z"/>
		<path class="st0" d="M30.75,36.33c-0.04,0-0.06,0.03-0.06,0.06v0.4c-0.06-0.08-0.12-0.15-0.19-0.21
			c-0.25-0.21-0.55-0.32-0.88-0.32c-0.37,0-0.68,0.13-0.94,0.38c-0.26,0.25-0.39,0.56-0.39,0.92c0,0.36,0.13,0.67,0.39,0.92
			c0.26,0.25,0.58,0.38,0.96,0.38c0.46,0,0.81-0.17,1.06-0.51v0.39c0,0.04,0.03,0.06,0.06,0.06h0.13c0.04,0,0.06-0.03,0.06-0.06
			V36.4c0-0.04-0.03-0.06-0.06-0.06H30.75z M30.69,37.59c0,0.29-0.1,0.54-0.31,0.74c-0.21,0.2-0.45,0.3-0.75,0.3
			c-0.31,0-0.56-0.1-0.77-0.3c-0.21-0.2-0.32-0.45-0.32-0.74c0-0.3,0.1-0.54,0.31-0.75c0.21-0.2,0.46-0.31,0.77-0.31
			c0.3,0,0.55,0.1,0.76,0.31C30.58,37.05,30.69,37.29,30.69,37.59z"/>
		<path class="st0" d="M31.86,36.33v-0.87c0-0.04-0.03-0.07-0.07-0.07h-0.13c-0.04,0-0.07,0.03-0.07,0.07v0.87h-0.45
			c-0.04,0-0.06,0.03-0.06,0.06v0.12c0,0.04,0.03,0.07,0.06,0.07h0.45v2.17c0,0.04,0.03,0.06,0.07,0.06h0.13
			c0.04,0,0.07-0.03,0.07-0.06v-2.17h0.54c0.04,0,0.07-0.03,0.07-0.07V36.4c0-0.04-0.03-0.06-0.07-0.06H31.86z"/>
		<path class="st0" d="M35.52,35.53c-0.14-0.08-0.35-0.12-0.64-0.12h-0.87c-0.04,0-0.07,0.03-0.07,0.07v3.28
			c0,0.04,0.03,0.06,0.07,0.06h0.13c0.04,0,0.07-0.03,0.07-0.06v-1.36h0.56c0.32,0,0.54-0.03,0.69-0.1c0.17-0.08,0.3-0.2,0.39-0.37
			c0.09-0.16,0.14-0.34,0.14-0.53c0-0.17-0.04-0.34-0.13-0.51C35.77,35.74,35.66,35.61,35.52,35.53z M34.78,37.15h-0.57v-1.49h0.54
			c0.31,0,0.52,0.03,0.63,0.09c0.11,0.06,0.19,0.15,0.25,0.27c0.06,0.12,0.09,0.25,0.09,0.38c0,0.25-0.08,0.44-0.25,0.58
			C35.34,37.09,35.11,37.15,34.78,37.15z"/>
		<path class="st0" d="M38.51,36.33c-0.04,0-0.07,0.03-0.07,0.06v0.4c-0.06-0.08-0.12-0.15-0.19-0.21
			c-0.25-0.21-0.55-0.32-0.88-0.32c-0.37,0-0.68,0.13-0.94,0.38c-0.26,0.25-0.39,0.56-0.39,0.92c0,0.36,0.13,0.67,0.39,0.92
			c0.26,0.25,0.58,0.38,0.96,0.38c0.46,0,0.81-0.17,1.06-0.51v0.39c0,0.04,0.03,0.06,0.07,0.06h0.13c0.04,0,0.07-0.03,0.07-0.06
			V36.4c0-0.04-0.03-0.06-0.07-0.06H38.51z M38.44,37.59c0,0.29-0.1,0.54-0.31,0.74c-0.21,0.2-0.45,0.3-0.75,0.3
			c-0.31,0-0.56-0.1-0.77-0.3c-0.21-0.2-0.32-0.45-0.32-0.74c0-0.3,0.1-0.54,0.31-0.75c0.21-0.2,0.46-0.31,0.76-0.31
			c0.3,0,0.55,0.1,0.76,0.31C38.34,37.05,38.44,37.29,38.44,37.59z"/>
		<path class="st0" d="M40.27,36.28c-0.33,0.02-0.59,0.13-0.76,0.33V36.4c0-0.04-0.03-0.06-0.07-0.06h-0.13
			c-0.04,0-0.07,0.03-0.07,0.06v2.35c0,0.04,0.03,0.06,0.07,0.06h0.13c0.04,0,0.07-0.03,0.07-0.06v-1.27c0-0.23,0.02-0.4,0.06-0.51
			c0.04-0.1,0.12-0.2,0.23-0.28c0.12-0.08,0.27-0.13,0.47-0.15c0.03,0,0.06-0.03,0.06-0.07v-0.13c0-0.02-0.01-0.04-0.02-0.05
			C40.3,36.28,40.29,36.27,40.27,36.28z"/>
		<path class="st0" d="M42.38,38.71l-0.91-1.16l0.84-1.11c0.01-0.02,0.02-0.05,0.01-0.07c-0.01-0.02-0.03-0.04-0.06-0.04h-0.16
			c-0.02,0-0.04,0.01-0.05,0.03l-1.17,1.55v-2.44c0-0.04-0.03-0.07-0.06-0.07h-0.13c-0.04,0-0.06,0.03-0.06,0.07v3.28
			c0,0.04,0.03,0.06,0.06,0.06h0.13c0.04,0,0.06-0.03,0.06-0.06v-0.41l0.44-0.58l0.81,1.04c0.01,0.02,0.03,0.02,0.05,0.02h0.16
			c0.03,0,0.05-0.01,0.06-0.04C42.4,38.76,42.4,38.73,42.38,38.71z"/>
	</g>
</g>
</svg>
