<svg xmlns="http://www.w3.org/2000/svg" width="1530.434" height="999.875" viewBox="0 0 1530.434 999.875">
  <metadata><?xpacket begin="﻿" id="W5M0MpCehiHzreSzNTczkc9d"?>
<x:xmpmeta xmlns:x="adobe:ns:meta/" x:xmptk="Adobe XMP Core 5.6-c138 79.159824, 2016/09/14-01:09:01        ">
   <rdf:RDF xmlns:rdf="http://www.w3.org/1999/02/22-rdf-syntax-ns#">
      <rdf:Description rdf:about=""/>
   </rdf:RDF>
</x:xmpmeta>
                                                                                                    
                                                                                                    
                                                                                                    
                                                                                                    
                                                                                                    
                                                                                                    
                                                                                                    
                                                                                                    
                                                                                                    
                                                                                                    
                                                                                                    
                                                                                                    
                                                                                                    
                                                                                                    
                                                                                                    
                                                                                                    
                                                                                                    
                                                                                                    
                                                                                                    
                                                                                                    
                           
<?xpacket end="w"?></metadata>
<defs>
    <style>
      .cls-1 {
        fill: #fbf9f4;
        fill-rule: evenodd;
      }
    </style>
  </defs>
  <path class="cls-1" d="M1721.54,1129.75l0.85-79.32,0.09-14.17,2.25-35.95,0.09-13.069,0.01-1.767-0.8.018,0.8-.334,0.01-1.088c-26.1-3.735-45.96,1.837-69.45,3.415l-3.29-.36-4.44-1.23-3.87-.88-3.43.417,0.66-.274,0.01-1.088c-19.15-2.74-34.94-.473-51.26,1.554q-6.48-.057-12.98-0.018l0.21-.136a40.406,40.406,0,0,0-15.57-.124l-1.45-.331-5.2.631-2.34-.015a50.7,50.7,0,0,0-5.21-.873c-2.22-.186-9.43-0.746-9.43-0.746l-2.79,1.172-0.54.329-12.5-.082a31.5,31.5,0,0,0-5.59-.037l-24.54-.161a38.749,38.749,0,0,0-9.96-.437c-4.14-.324-8.26-0.711-12.35-1.188a71.159,71.159,0,0,0-8.36-.288l-0.01,1.71-1.33-.008v0.551l-21.67-.142a31.5,31.5,0,0,0-5.59-.037l-4.17-.027v-0.319a122.854,122.854,0,0,0-32.08-.394c-3.55-.3-7.09-0.637-10.6-1.046a71.159,71.159,0,0,0-8.36-.288l-0.01,1.71-1.33-.008v0.94c-10.57-.295-21.1-0.441-31.44.126l0.01-1.04c-17.56-2.685-32.09-.531-47.05,1.474-1.36.012-2.74,0.053-4.14,0.111q-7.035.021-14.11,0.132l-72.25-.474c-5.66-.382-11.28-0.9-16.84-1.589-2.36-.211-4.33-0.306-6.04-0.311l0.01-1.008c-22.13-3.384-39.45.916-58.87,2.921l-2.07-.013c-5.66-.382-11.28-0.9-16.85-1.589-2.35-.211-4.32-0.306-6.03-0.311l0.01-1.008c-12.56-1.92-23.57-1.364-34.3-.158-14.01-1.109-26.38.272-38.83,1.823l-37.187-.243,0-.735c-13.359-1.912-25.083-1.384-36.5-.2q-3.81-.366-7.59-0.83c-3.208-.288-12.712-0.408-14.794-0.331l-1.238.024c-0.425,0,.39,1.68-0.012,1.678l0.009,0.552-7.446-.049a39.2,39.2,0,0,0-8.424-.055L896,984.737c-2.445-.2-9.176-0.725-9.176-0.725l-1.562.655L879,984.626c-5.659-.382-11.28-0.9-16.848-1.589-3.208-.288-12.712-0.408-14.794-0.331l-1.238.024c-0.425,0,.391,1.68-0.012,1.678l0.014,0.859-5.261-.034a38.741,38.741,0,0,0-9.959-.437c-4.141-.324-8.262-0.711-12.354-1.188a71.061,71.061,0,0,0-8.355-.288l-0.012,1.71-1.326-.008,0,0.551-21.672-.142a31.458,31.458,0,0,0-5.587-.037l-4.172-.027,0-.319a122.875,122.875,0,0,0-32.083-.394c-3.551-.3-7.088-0.637-10.6-1.046a71.051,71.051,0,0,0-8.354-.288l-0.012,1.71-1.327-.008-0.006.94c-10.57-.295-21.1-0.441-31.433.126l0.007-1.04c-17.562-2.685-32.1-.531-47.053,1.474-1.358.012-2.74,0.053-4.137,0.111q-7.042.021-14.108,0.132l-72.249-.474c-5.66-.382-11.28-0.9-16.848-1.589-2.354-.211-4.326-0.306-6.033-0.311l0.007-1.008c-22.129-3.384-39.449.916-58.87,2.921l-2.068-.013c-5.659-.382-11.28-0.9-16.848-1.589-2.353-.211-4.325-0.306-6.032-0.311l0.007-1.008c-17.89-2.735-32.638-.45-47.892,1.586q-8.683-.007-17.406.13l-72.249-.473c-5.66-.382-11.28-0.9-16.849-1.589-3.208-.288-12.712-0.408-14.794-0.331l-1.238.024c-0.424,0,.391,1.68-0.011,1.678l0.008,0.552-50.928-.334c-5.66-.382-11.28-0.9-16.848-1.589-3.208-.288-12.712-0.408-14.795-0.331l-1.238.024c-0.424,0,.391,1.68-0.011,1.678l0.237,15.015,3.518,27.037h-1.919c0.007,0.26.015,0.52,0.024,0.8l-0.34-.8h-1.088c-3.559,26.12,2.151,45.93,3.89,69.4l-0.338,3.29-1.2,4.45-0.854,3.87,0.854,6.65a58.9,58.9,0,0,0-1.025,6.1c-0.171,2.21-.682,9.42-0.682,9.42l1.191,2.79,1.295,2.07c-0.278,5.35-.45,10.72-0.55,16.12-0.771,0-1.39,0-1.764.02l-1.238.02c-0.424,0,.391,1.68-0.011,1.68l0.237,15.02,1.838,14.12a47.854,47.854,0,0,0,1.092,10.14c0,0.93,0,1.85,0,2.77h-1.332c0.007,0.26.015,0.53,0.024,0.8l-0.34-.8h-1.088c-2.968,21.78.5,39.18,2.75,57.97,0,3.95,0,7.71,0,11.25-0.168,2.96-.368,5.9-0.6,8.84l-0.651,2.95,0.235,1.83c-0.141,1.48-.292,2.97-0.454,4.44a70.845,70.845,0,0,0-.231,8.36h0.14c-0.219,2.98-.543,7.55-0.543,7.55l1.191,2.78,1.295,2.08c-0.422,8.11-.608,16.3-0.651,24.53a114.631,114.631,0,0,0-.484,17.63,43.048,43.048,0,0,0,.739,14.95c0,13.47.007,26.08,0.009,37.62a31.485,31.485,0,0,0,0,5.59c0,10.67,0,20.33.007,28.79-0.344,6.06-.82,12.09-1.474,18.06a70.682,70.682,0,0,0-.231,8.35h1.711v1.33h0.941c-0.224,10.56-.3,21.09.339,31.42h-1.039c-2.567,17.57-.313,32.08,1.8,47.02,0.054,3.44.246,6.99,0.659,10.74q-0.461,6.24-1.175,12.42c-0.2,2.35-.277,4.33-0.271,6.03h-1.008c-2.844,19.48.229,35.19,2.467,51.9,0.008,6.95.118,13.93,0.267,20.93q0,12.3.006,23.59c-0.062.38-.113,0.76-0.179,1.14,0.06-.31.119-0.59,0.179-0.85q0,6.645,0,12.88c-0.4,12.08-.306,24.31-0.066,36.57-0.337,5.28-.788,10.54-1.4,15.74-0.2,2.36-.277,4.33-0.271,6.03h-1.008c-2.953,20.23.474,36.4,2.72,53.83-0.341,5.49-.806,10.95-1.441,16.36a61.541,61.541,0,0,0-.231,7.79h1.71c0,0.42,0,.84,0,1.24h1.566a124.682,124.682,0,0,1-1.764,18.34,4.97,4.97,0,0,1,.939-2.6c-1.295,17.74-1.152,35.88-.766,54.08,0.008,28.77.014,53.62,0.019,72.23-0.344,5.66-.82,11.28-1.474,16.85a61.541,61.541,0,0,0-.231,7.79h1.71c0,0.43,0,.84,0,1.24H309.73v-2.26H850.556q0.01,0.525.031,1.02H852.3V1982H960.711v-2.26H1720.42c-0.01-.26-0.01-0.53-0.02-0.8l0.34,0.8h1.09c3.55-26.12-2.16-45.93-3.89-69.4l0.33-3.29,1.2-4.45,0.86-3.87-0.86-6.65a58.635,58.635,0,0,0,1.03-6.1c0.17-2.22.68-9.43,0.68-9.43l-1.19-2.78-1.3-2.08c0.69-13.16.75-26.51,0.59-39.93l0.14,0.21a41.9,41.9,0,0,0-.33-17.39v-2.77h1.33c-0.01-.26-0.01-0.53-0.02-0.8l0.34,0.8h1.09c2.96-21.78-.51-39.18-2.76-57.97v-11.25q0.255-4.44.61-8.84l0.65-2.96-0.24-1.82c0.14-1.49.29-2.97,0.46-4.45a72.655,72.655,0,0,0,.23-8.35h-0.14c0.22-2.98.54-7.55,0.54-7.55l-1.19-2.78-0.74-1.18c1.23-7.14,2.97-14.23,2.54-21.24h1.04c2.56-17.57.31-32.08-1.8-47.02a110.155,110.155,0,0,0-.94-13.12h-0.73c-0.1-.98-0.19-1.96-0.28-2.94v-11.32a31.91,31.91,0,0,0,0-5.58v-8.76c0.28-2.85.66-5.78,1.18-8.82a4.906,4.906,0,0,1-.94,2.61c0.73-9.87.99-19.87,1.03-29.94,0.06-.64.13-1.29,0.2-1.94a72.655,72.655,0,0,0,.23-8.35h-0.46q-0.075-6.915-.23-13.86v-2.26c1.04-5.58,2.03-11.14,1.7-16.63h1.04c2.56-17.57.31-32.09-1.8-47.02-0.05-3.44-.25-6.99-0.66-10.74,0.31-4.16.69-8.31,1.18-12.42,0.19-2.36.27-4.33,0.27-6.03h1.01c5.17-35.44-7.25-58.43-.57-97.56a4.9,4.9,0,0,1-.94,2.6c1.12-15.32,1.7-30.94.22-46.64l0.28-26.34h1.01c2.41-16.56.99-30.4-.53-44.44l0.09-8.53,0.09-14.18,2.25-35.94,0.09-13.08,0.01-1.76c-0.26,0-.52.01-0.8,0.01l0.8-.33,0.01-1.09c-0.82-.11-1.62-0.2-2.43-0.3A218.377,218.377,0,0,0,1721.54,1129.75Z" transform="translate(-194.406 -982.125)"/>
</svg>
