<svg xmlns="http://www.w3.org/2000/svg" width="42.032" height="31.5" viewBox="0 0 42.032 31.5">
  <defs>
    <style>
      .cls-1 {
        fill: #5ca133;
        fill-rule: evenodd;
      }
    </style>
  </defs>
  <path id="loyalty_card" data-name="loyalty card" class="cls-1" d="M993.972,1055.65h-2.627v-2.62a2.63,2.63,0,0,0-2.627-2.63H957.2a2.63,2.63,0,0,0-2.627,2.63v21.01a2.63,2.63,0,0,0,2.627,2.63h2.626v2.62a2.63,2.63,0,0,0,2.627,2.63h31.52a2.63,2.63,0,0,0,2.626-2.63v-21.01A2.63,2.63,0,0,0,993.972,1055.65Zm-37.649,18.39v-21.01a0.875,0.875,0,0,1,.876-0.88h31.519a0.875,0.875,0,0,1,.876.88v21.01a0.882,0.882,0,0,1-.876.88H957.2A0.882,0.882,0,0,1,956.323,1074.04Zm38.524,5.25a0.875,0.875,0,0,1-.875.88h-31.52a0.875,0.875,0,0,1-.876-0.88v-2.62h27.142a2.63,2.63,0,0,0,2.627-2.63v-16.63h2.627a0.873,0.873,0,0,1,.875.87v21.01Zm-29.768-14a4.379,4.379,0,0,1,4.377,4.37,0.876,0.876,0,1,0,1.751,0,6.129,6.129,0,1,0-12.257,0,0.876,0.876,0,1,0,1.751,0A4.379,4.379,0,0,1,965.079,1065.29Zm0-3.51a3.5,3.5,0,1,0-3.5-3.5A3.5,3.5,0,0,0,965.079,1061.78Zm0-5.25a1.75,1.75,0,1,1-1.752,1.75A1.748,1.748,0,0,1,965.079,1056.53Zm9.631,1.75h11.382a0.875,0.875,0,1,0,0-1.75H974.71A0.875,0.875,0,1,0,974.71,1058.28Zm0,5.25h11.382a0.875,0.875,0,1,0,0-1.75H974.71A0.875,0.875,0,1,0,974.71,1063.53Zm0,5.26h11.382a0.875,0.875,0,1,0,0-1.75H974.71A0.875,0.875,0,1,0,974.71,1068.79Z" transform="translate(-954.562 -1050.41)"/>
</svg>
