<svg xmlns="http://www.w3.org/2000/svg" width="62.78" height="62.781" viewBox="0 0 62.78 62.781">
  <defs>
    <style>
      .cls-1 {
        fill: #5ca133;
        fill-rule: evenodd;
      }
    </style>
  </defs>
  <path id="park_slide-icon" data-name="park slide-icon" class="cls-1" d="M4871.22,590.353a4.925,4.925,0,1,0-4.93,4.925A4.933,4.933,0,0,0,4871.22,590.353Zm-8.02,0a3.09,3.09,0,1,1,3.09,3.086A3.094,3.094,0,0,1,4863.2,590.353Zm4.42-16.841a0.92,0.92,0,1,0,0-1.84h-2.66a0.92,0.92,0,0,0,0,1.84h2.66Zm39.02,47.649h-7.02a4.777,4.777,0,0,0,.56-0.718,4.594,4.594,0,0,0,.59-3.468,4.65,4.65,0,0,0-2.21-2.99l-4.17-2.629,4.35-2.746a4.606,4.606,0,0,0,1.44-6.341c-0.9-1.43-1.97-1.649-5.79-4.183l4.35-2.744a4.6,4.6,0,0,0-2.57-8.488h-7.52a0.92,0.92,0,1,0,0,1.839h3.39l-6.12,3.858h-5.51v-3.858h4.56a0.92,0.92,0,1,0,0-1.839h-4.65a3.016,3.016,0,0,0-2.92-2.28h-0.65v-7.2h3.45a0.91,0.91,0,0,0,.86-0.61,0.921,0.921,0,0,0-.28-1.021l-13.57-11.14v-3.461a0.92,0.92,0,0,0-1.84,0V564.6l-5.6,4.6a0.92,0.92,0,1,0,1.17,1.421l5.35-4.394,11.34,9.306h-22.68l3.13-2.568a0.92,0.92,0,1,0-1.17-1.421l-5.11,4.2a0.921,0.921,0,0,0-.28,1.021,0.911,0.911,0,0,0,.86.61h3.45v15.787a0.92,0.92,0,0,0,1.84,0V581.732h17.24v17.242h-17.24v-2.136a0.92,0.92,0,0,0-1.84,0v24.323h-10.12a0.92,0.92,0,1,0,0,1.839h60.93A0.92,0.92,0,1,0,4906.64,621.161Zm-10.36-19.2a2.758,2.758,0,0,1,1.48,5.092c-10.85,6.678-10.6,7.06-11.99,7.06a2.759,2.759,0,0,1-1.48-5.093l10.53-6.635A2.714,2.714,0,0,1,4896.28,601.963Zm-1.63-1.537a4.506,4.506,0,0,0-.81.4l-4.45,2.8-1.99-1.253c0.77-.292.9-0.491,5.26-3.207Zm-10.36-4.673,10.53-6.635a2.714,2.714,0,0,1,1.46-.424,2.759,2.759,0,0,1,1.48,5.092l-10.52,6.634a2.77,2.77,0,0,1-2.9.032l-0.05-.032a0.039,0.039,0,0,0-.02-0.013A2.761,2.761,0,0,1,4884.29,595.753Zm-26.62-15.86v-2.519h17.24v2.519h-17.24Zm4.46,41.268h-4.46V600.813h4.46v20.348Zm6.48,0h-4.64v-2.622h4.64v2.622Zm0-4.461h-4.64v-2.644h4.64V616.7Zm0-4.483h-4.64v-2.644h4.64v2.644Zm0-4.484h-4.64v-2.644h4.64v2.644Zm0-4.483h-4.64v-2.437h4.64v2.437Zm6.3,17.911h-4.46V600.813h4.46v20.348Zm1.84-34.748h0.65a1.173,1.173,0,0,1,1.17,1.166v6.086a1.173,1.173,0,0,1-1.17,1.166h-0.65v-8.418Zm0,34.748V596.67h0.65a3.016,3.016,0,0,0,2.92-2.28h2.71a4.6,4.6,0,0,0-1.16,6.149c0.88,1.394,1.75,1.516,5.8,4.182l-4.36,2.746a4.606,4.606,0,0,0-1.44,6.341c0.94,1.481,1.56,1.371,10.82,7.353h-15.94Zm15.25-5.876a4.568,4.568,0,0,0-.7,2.824l-3.9-2.458c0.77-.293.89-0.484,5.26-3.208l1.59,1A4.562,4.562,0,0,0,4892,615.285Zm6.62,4.177a2.753,2.753,0,0,1-3.8.863h0l-0.41-.256a2.766,2.766,0,0,1-.86-3.8h0a2.767,2.767,0,0,1,3.81-.863l0.4,0.254h0A2.758,2.758,0,0,1,4898.62,619.462Z" transform="translate(-4844.78 -560.219)"/>
</svg>
