<svg xmlns="http://www.w3.org/2000/svg" width="37.406" height="39.03" viewBox="0 0 37.406 39.03">
  <defs>
    <style>
      .cls-1 {
        fill: #fff;
        fill-rule: evenodd;
      }
    </style>
  </defs>
  <path id="power-source" class="cls-1" d="M561.848,2280.89v-2.94a4,4,0,0,0,3.88-4v-2.46a1.26,1.26,0,0,0,1.243-1.25v-2.97a1.251,1.251,0,0,0-1.25-1.25h-1.182v-4.88a0.762,0.762,0,0,0-1.524,0v4.88h-3.859v-4.88a0.762,0.762,0,0,0-1.524,0v4.88h-1.18a1.252,1.252,0,0,0-1.252,1.25v2.97a1.26,1.26,0,0,0,1.243,1.25v2.46a4,4,0,0,0,3.88,4v2.94a6.769,6.769,0,0,0,0,13.45v0.6a2.939,2.939,0,0,1-2.93,2.94h-13.61a2.939,2.939,0,0,1-2.93-2.94v-2.15h6.815a2.094,2.094,0,0,0,2.09-2.09v-9a0.763,0.763,0,1,0-1.525,0v9a0.572,0.572,0,0,1-.565.56H532.516a0.572,0.572,0,0,1-.565-0.56v-24.85a0.574,0.574,0,0,1,.565-0.57h15.152a0.575,0.575,0,0,1,.565.57v9a0.763,0.763,0,0,0,1.525,0v-9a2.094,2.094,0,0,0-2.09-2.09h-1.441v-0.93a2.453,2.453,0,0,0-2.45-2.45h-7.372a2.453,2.453,0,0,0-2.45,2.45v0.93h-1.439a2.094,2.094,0,0,0-2.09,2.09v24.85a2.094,2.094,0,0,0,2.09,2.09h6.813v2.15a4.462,4.462,0,0,0,4.454,4.46h13.61a4.462,4.462,0,0,0,4.455-4.46v-0.6a6.769,6.769,0,0,0,0-13.45h0Zm-26.369-18.06a0.931,0.931,0,0,1,.926-0.93h7.372a0.93,0.93,0,0,1,.925.93v0.93h-9.223v-0.93Zm21.245,4.72h8.723v2.41h-8.723v-2.41Zm1.243,6.4v-2.46H564.2v2.46a2.465,2.465,0,0,1-2.465,2.47h-1.307A2.465,2.465,0,0,1,557.967,2273.95Zm3.118,18.91a5.245,5.245,0,1,1,5.24-5.24,5.244,5.244,0,0,1-5.24,5.24h0Zm1.259-6.01h-1.286l1.016-2.04a0.763,0.763,0,0,0-1.365-.68l-1.564,3.15a0.771,0.771,0,0,0,.684,1.1h1.285l-1.016,2.05a0.763,0.763,0,0,0,.344,1.02,0.821,0.821,0,0,0,.339.08,0.765,0.765,0,0,0,.683-0.43l1.562-3.14a0.683,0.683,0,0,0,.037-0.09,0.775,0.775,0,0,0-.719-1.02h0Zm-27.957-19.89a0.761,0.761,0,0,0-.762.76v21.1a0.763,0.763,0,0,0,.762.77H545.8a0.763,0.763,0,0,0,.762-0.77v-21.1a0.761,0.761,0,0,0-.762-0.76h-11.41Zm10.648,21.1h-9.886v-3.65h9.886v3.65Zm0-5.18h-9.886v-3.4h9.886v3.4Zm0-4.92h-9.886v-3.85h9.886v3.85Zm0-5.37h-9.886v-4.11h9.886v4.11Zm3.96,4.92a0.761,0.761,0,0,0-.762.76v0.01a0.763,0.763,0,1,0,.762-0.77h0Z" transform="translate(-530.438 -2260.38)"/>
</svg>
