<?xml version="1.0" encoding="utf-8"?>
<!-- Generator: Adobe Illustrator 21.0.0, SVG Export Plug-In . SVG Version: 6.00 Build 0)  -->
<svg version="1.1" id="Layer_1" xmlns="http://www.w3.org/2000/svg" xmlns:xlink="http://www.w3.org/1999/xlink" x="0px" y="0px"
	 viewBox="0 0 512 511.3" style="enable-background:new 0 0 512 511.3;" xml:space="preserve">
<style type="text/css">
	.st0{fill:#FFFFFF;}
</style>
<g>
	<path class="st0" d="M255.2,294.3c33.8,0,61.3-27.5,61.3-61.3s-27.5-61.3-61.3-61.3s-61.3,27.5-61.3,61.3S221.4,294.3,255.2,294.3
		 M255.2,201.7c17.3,0,31.3,14.1,31.3,31.3c0,17.3-14.1,31.3-31.3,31.3s-31.3-14.1-31.3-31.3S238,201.7,255.2,201.7"/>
	<path class="st0" d="M87.8,261.5H68.4c-3,0-5.5,2.5-5.5,5.5v64c0,3,2.5,5.5,5.5,5.5h19.4c3,0,5.5-2.5,5.5-5.5v-64
		C93.3,263.9,90.8,261.5,87.8,261.5"/>
	<path class="st0" d="M87.8,371.2H68.4c-3,0-5.5,2.5-5.5,5.5v64.1c0,3,2.5,5.5,5.5,5.5h19.4c3,0,5.5-2.5,5.5-5.5v-64.1
		C93.3,373.7,90.8,371.2,87.8,371.2"/>
	<path class="st0" d="M424.2,336.5h19.4c3,0,5.5-2.5,5.5-5.5v-64c0-3-2.5-5.5-5.5-5.5h-19.4c-3,0-5.5,2.5-5.5,5.5v64
		C418.7,334.1,421.2,336.5,424.2,336.5"/>
	<path class="st0" d="M424.2,446.3h19.4c3,0,5.5-2.5,5.5-5.5v-64.1c0-3-2.5-5.5-5.5-5.5h-19.4c-3,0-5.5,2.5-5.5,5.5v64.1
		C418.7,443.8,421.2,446.3,424.2,446.3"/>
	<path class="st0" d="M497,196.6H385.8v-63.1l29.3,8.8c19.5,4.8,26.8-22.8,8.6-28.7L271.9,68.2V30h81.8c8.3,0,15-6.7,15-15
		s-6.7-15-15-15h-96.8c-8.3,0-15,6.7-15,15v53.2L90.2,113.5c-18.9,6.8-10.2,33.6,8.6,28.7l27.5-8.2v62.5H15c-8.3,0-15,6.7-15,15
		v284.8c0,8.3,6.7,15,15,15h355.8l0,0l0,0H497c8.3,0,15-6.7,15-15V211.5C512,203.3,505.3,196.6,497,196.6 M256.9,95l98.9,29.5v356.8
		h-33.4v-97.1c0-36.8-29.9-66.7-66.7-66.7S189,347.4,189,384.1v97.1h-33V211.5l0,0V125L256.9,95z M30,226.5h96.2v254.8H30V226.5z
		 M219.1,481.3v-97.1c0-20.2,16.5-36.7,36.7-36.7s36.7,16.5,36.7,36.7v97.1H219.1L219.1,481.3z M482,481.3h-96.2V226.5H482V481.3z"
		/>
</g>
</svg>
