<svg xmlns="http://www.w3.org/2000/svg" width="36.188" height="36.18" viewBox="0 0 36.188 36.18">
  <defs>
    <style>
      .cls-1 {
        fill: #fff;
        fill-rule: evenodd;
      }
    </style>
  </defs>
  <path id="storage_room" data-name="storage room" class="cls-1" d="M542.548,2199.96a0.93,0.93,0,0,1-.925-0.93v-2.11a0.926,0.926,0,1,1,1.851,0v2.11A0.931,0.931,0,0,1,542.548,2199.96Zm0.066-10.7a0.93,0.93,0,0,1,0-1.86h2.765a0.93,0.93,0,0,1,0,1.86h-2.765Zm0,19.29a0.93,0.93,0,0,1,0-1.86h2.765a0.93,0.93,0,0,1,0,1.86h-2.765Zm18.547,9.51a0.931,0.931,0,0,1-.926-0.93v-3.06h-9.591v3.06a0.926,0.926,0,1,1-1.852,0v-3.06H539.2v3.06a0.926,0.926,0,1,1-1.852,0v-3.06h-9.591v3.06a0.926,0.926,0,1,1-1.852,0v-32.9a2.351,2.351,0,0,1,2.351-2.35h31.48a2.35,2.35,0,0,1,2.35,2.35v32.9A0.931,0.931,0,0,1,561.161,2218.06Zm-10.517-5.84h9.093a0.5,0.5,0,0,0,.5-0.5v-27.49a0.5,0.5,0,0,0-.5-0.5h-9.093v28.49Zm-11.443,0h9.591v-28.49H539.2v28.49Zm-10.944-28.49a0.5,0.5,0,0,0-.5.5v27.49a0.5,0.5,0,0,0,.5.5h9.092v-28.49h-9.092Zm25.734,16.23a0.931,0.931,0,0,1-.926-0.93v-2.11a0.926,0.926,0,1,1,1.852,0v2.11A0.931,0.931,0,0,1,553.991,2199.96Zm0.066-10.7a0.93,0.93,0,0,1,0-1.86h2.765a0.93,0.93,0,0,1,0,1.86h-2.765Zm0,19.29a0.93,0.93,0,0,1,0-1.86h2.765a0.93,0.93,0,0,1,0,1.86h-2.765Zm-22.952-8.59a0.93,0.93,0,0,1-.925-0.93v-2.11a0.926,0.926,0,1,1,1.851,0v2.11A0.931,0.931,0,0,1,531.105,2199.96Zm0.066-10.7a0.93,0.93,0,0,1,0-1.86h2.765a0.93,0.93,0,0,1,0,1.86h-2.765Zm0,19.29a0.93,0.93,0,0,1,0-1.86h2.765a0.93,0.93,0,0,1,0,1.86h-2.765Z" transform="translate(-525.906 -2181.88)"/>
</svg>
