<?xml version="1.0" encoding="utf-8"?>
<!-- Generator: Adobe Illustrator 24.1.3, SVG Export Plug-In . SVG Version: 6.00 Build 0)  -->
<svg version="1.1" id="Layer_1" xmlns="http://www.w3.org/2000/svg" xmlns:xlink="http://www.w3.org/1999/xlink" x="0px" y="0px"
	 viewBox="0 0 846 719" style="enable-background:new 0 0 846 719;" xml:space="preserve">
<style type="text/css">
	.st0{fill:#5CA133;}
</style>
<g>
	<path class="st0" d="M771.11,148.06c4.61,0.84,9.17,1.66,14.35,2.6C781.96,144.31,775.64,143.51,771.11,148.06z"/>
	<path class="st0" d="M776.73,386.73c3.38-0.43,6.75-0.86,10.9-1.39C782.25,380.85,779.45,381.01,776.73,386.73z"/>
	<path class="st0" d="M811,0h-11H46H0v719h46h800v-46V0H811z M46,46h0.22c0,96.5,0,192.94,0,289.39c3.86-1.86,7.71-3.73,11.54-5.58
		c0.85-8.31,1.12-17,2.76-25.43c2.02-10.33,3.15-20.36-0.86-30.45c-0.7-1.75-0.38-3.95-0.36-5.94c0.14-12.11,0.47-24.22,0.44-36.33
		c-0.02-8.07,1.12-15.71,6.83-21.82c3.8-4.07,4.46-8.45,2.28-13.31c-2.31-5.16-4.91-10.19-7.28-15.33c-4.34-9.4-2.97-12.99,6.3-17.4
		c1.21-0.57,3.08-1.79,3.04-2.62c-0.42-8.21,3.37-15.84,1.6-24.53c-3.12-15.35,0.69-30.34,4.54-45.47
		c1.85-7.28,6.28-12.12,9.14-18.25c1.38-2.96,2.9-5.85,4.99-10.05c4.51,0.24,10.27,0.58,16.03,0.84c3.68,0.17,7.13,0.32,9.4-3.83
		c0.94-1.71,3.67-3.1,5.76-3.39c4.57-0.62,9.26-0.62,13.89-0.54c6.47,0.11,13.12,1.62,19.37,0.6c15.74-2.59,31.16-1.58,46.67,1.37
		c4.53,0.86,9.21,0.91,13.83,1.3c2.08,0.17,4.21,0.05,6.25,0.42c11.76,2.16,23.49,4.53,35.27,6.55c2.28,0.39,4.77-0.44,7.16-0.7
		c0.04-0.76,0.08-1.52,0.12-2.28c-14.37-3.06-28.73-6.12-43.36-9.23c0.57-0.2,0.87-0.41,1.13-0.37c16.77,2.22,33.1,7.15,50.31,6.81
		c10.58-0.21,21.22,1.15,31.77,2.34c5.74,0.65,9.82-1.25,12.72-5.84c3.44-5.44,7.56-8.76,14.58-7.82c2.58,0.34,5.39-1.46,8.15-2
		c2.01-0.4,4.56-2.14,5.74,1.42c0.11,0.32,1.08,0.55,1.62,0.5c4.78-0.42,9.59-0.74,14.33-1.43c11.51-1.66,22.07-0.2,31.56,7.4
		c2.29,1.84,6.36,1.61,9.64,2c2.56,0.3,5.23-0.25,7.76,0.14c3.6,0.54,7.1,2.12,10.7,2.35c27.59,1.77,55.18,4.1,82.81,4.72
		c28.46,0.65,56.97-0.61,85.45-0.68c15.82-0.04,31.64,0.68,47.46,0.96c1.58,0.03,3.18-0.6,4.77-0.92c-0.02-0.68-0.04-1.35-0.06-2.03
		c-7.59,0-15.17,0-22.76,0c-0.15-0.74-0.31-1.48-0.46-2.22c1.33-0.66,2.63-1.81,3.99-1.89c7.37-0.44,14.76-0.58,22.13-0.9
		c2.65-0.11,5.3-0.54,7.95-0.64c11.38-0.47,22.48-3.51,34.18-1.82c9.61,1.38,19.58,0.13,29.39,0.32c8.08,0.16,16.16,0.66,24.23,1.12
		c4.22,0.24,8.42,0.74,12.16,1.08c1.9,2.1,3.88,4.28,6.21,6.85c-4.02,0-7.85,0-12.19,0c4.16,5.16,9.4,6.74,15.69,5.96
		c2.32-0.29,4.81-0.73,4.85,3.03c0.04,3.29-0.73,5.6-4.6,5.55c-1.43-0.02-2.86,0.13-4.29,0.2c-0.13,0.32-0.25,0.64-0.38,0.97
		c1.64,1.01,3.29,2.01,3.84,2.35c0.11,2.44-0.12,4.6,0.43,6.54c0.29,1.02,1.83,2,3.01,2.39c2.36,0.78,4.86,1.11,7.29,1.67
		c3.36,0.77,6.72,1.44,2.95,5.96c-0.69,0.83-0.1,2.73-0.1,4.52c-4.36-0.51-8.57-1.01-13.16-1.55c1.21,4.4,4.51,8.35-0.08,12.09
		c-0.17,0.14,0.37,1.75,0.88,1.98c0.75,0.33,1.81,0.17,2.67-0.05c2.6-0.68,5.16-1.49,7.74-2.25c0.24,0.54,0.49,1.09,0.73,1.63
		c-1.81,2.53-4.16,4.85-5.25,7.66c-0.95,2.46-1.73,6.78-0.43,8.01c5.56,5.25,11.9,9.67,17.98,14.37c0.38,0.3,0.91,0.39,1.37,0.59
		c2.45,1.06,4.9,2.13,7.34,3.19c-2.13,1.67-4.05,3.81-6.44,4.91c-4.97,2.29-5.93,5.77-4.82,10.76c0.83,3.71,0.9,7.6,1.31,11.4
		c0.84,7.75-3.38,13.16-8.31,18.35c-2.09,2.2-4.06,4.67-5.42,7.35c-0.66,1.3,0.18,3.38,0.34,5.11c2.4-0.48,4.86-0.78,7.16-1.54
		c0.67-0.22,0.9-1.76,1.8-3.71c1.24,3.08,3.03,5.37,2.66,7.22c-0.38,1.93-2.86,3.45-4.23,4.94c2.1,0.29,4.41,0.61,7.46,1.04
		c-3.68,3.31-7.19,5.12-8.54,7.96c-2.41,5.1-5.52,7.65-10.75,6.41c0.41,2.56,0.64,4.79,1.14,6.96c0.58,2.56,0.6,6.09,2.27,7.37
		c3.04,2.33,4.69,6.82,1.83,9.58c-2.83,2.72-2.1,4.04,0.98,5.96c3.19,1.98,5.82,4.86,8.98,7.59c-5.15,2.97-5.15,2.97-7.16,0.29
		c-3.79-5.06-6.54-4.82-10.61,1.79c8.45,6.11,17.57,10.76,27.94,13.13c-1.44,0.29-2.74,0.21-4-0.03c-5.4-1.04-10.58-1.83-13.56,4.65
		c-0.47,1.03-2.75,1.47-4.27,1.73c-1.44,0.24-3.08-0.48-4.44-0.09c-1.2,0.34-2.53,1.47-3,2.58c-0.23,0.55,1.2,2.46,2.16,2.72
		c3.19,0.85,6.48,1.5,9.77,1.72c4.11,0.27,8.1,1.36,9.53,5.23c2.3,6.22,7.19,8.25,12.73,9.87c0.72,0.21,1.41,0.47,2.11,0.75v3.18
		c-1.48,0.24-2.96,0.44-4.38,0.24c-5.1-0.7-10.09-2.23-15.2-2.81c-1.76-0.2-4.61,0.95-5.36,2.34c-0.72,1.33,0.05,4.33,1.24,5.61
		c1.9,2.04,4.69,3.26,7.31,4.97c-1.14,1.37-2.27,2.72-3.24,3.89c0.71,1.59,1.97,3.01,1.75,4.15c-1.01,5.19,2.4,6.71,6.14,7.15
		c6.98,0.82,9.24,5.58,11.73,11.16v2.7c-6.96-0.2-13.11-5.49-19.44-0.78c2.22,4.83,4.36,9.48,6.48,14.12
		c1.53-0.49,2.82-0.9,4.11-1.31c0.14,0.34,0.29,0.67,0.43,1.01c-1.05,0.68-2.11,1.37-3.16,2.05c0.08,0.52,0.16,1.03,0.24,1.55
		c1.9,0,3.81-0.07,5.7,0.02c1.33,0.06,3.44-0.12,3.86,0.59c0.56,0.95,1.16,1.7,1.77,2.3v11.13c-0.13,0-0.25,0-0.38-0.01
		c-2.42-0.06-4.86,0.81-7.29,1.25c1.22,1.92,2.46,2.37,3.52,3.09c1.43,0.97,2.79,2.04,4.16,3.11v1.92c-1.43,1.49-2.83,3-4.43,4.28
		c-0.78,0.62-2.23,0.41-3.38,0.56c-2.97,0.38-5.93,0.74-8.9,1.14c-4.2,0.57-5.08,2.72-3.75,6.69c1.11,3.31,1.42,6.9,2.25,11.21
		c3.31,1.86,7.24,4.51,5.01,10.53c-0.23,0.63,0.18,1.6,0.51,2.3c1.72,3.67,0.28,5.21-3.38,6.27c-3.02,0.87-5.36,3.14-3.94,6.81
		c1.12,2.9,1.7,7,6.75,4.36c0.89-0.47,3.12,0.1,3.76,0.93c2.93,3.79,5.52,7.84,8.62,12.37c-1.15,0.07-2.89,0.26-4.62,0.25
		c-5.43-0.05-10.86-0.38-16.27-0.1c-1.12,0.06-2.95,2.18-3.07,3.49c-0.68,7.23,1.87,13.08,8.5,16.68c2.17,1.18,4.45,2.16,7.33,3.54
		c-1.85,0.53-3.06,1-4.32,1.22c-6.06,1.06-12.16,1.96-18.2,3.14c-1.42,0.28-3.72,1.36-3.79,2.22c-0.15,1.93,0.41,4.24,1.5,5.83
		c0.94,1.36,3.1,1.83,4.57,2.9c1.85,1.35,4.4,2.56,5.16,4.44c3.12,7.65,9.17,10.98,16.6,12.96c1.93,0.52,3.56,2.15,5.33,3.28
		c-0.15,0.58-0.29,1.16-0.44,1.74c-2.35,0.47-4.7,0.93-7.05,1.41c-3.9,0.79-7.94,1.2-11.67,2.48c-5.8,1.99-6.57,5.69-4.5,11.48
		c4.42,12.35,8.32,24.89,12.19,37.43c0.36,1.17-0.63,3.42-1.7,4.26c-6.84,5.38-6.77,13.23,0.35,18.28c1.28,0.91,2.45,1.98,2.99,2.41
		c-1.61,3.36-2.89,6.02-4.16,8.68c0.6,0.83,0.22,1.15-0.21,1.38c-2.35,1.31-5.81,1.75-4.6,5.84c1.07,3.61,3.79,3.95,7.08,4
		c3.19,0.04,6.36,0.9,9.34,1.37c-9.8,3.86-19.39,7.4-28.74,11.51c-2.27,1-3.65,3.94-5.55,5.87c-1.36,1.38-2.72,2.95-4.41,3.79
		c-4.69,2.35-9.95,3.76-14.26,6.63c-7.33,4.89-8.15,5.28-15.36,0.39c-1.52-1.03-3.02-2.07-4.55-3.07c-3.53-2.32-7.1-3.08-11.33-1.53
		c-1.92,0.7-4.61,0.42-6.58-0.35c-5.38-2.09-10.06-0.33-16.28,1.49c5.13,1.83,8.86,3.16,13.58,4.84c-7.69,3.08-7.69,3.08-13.72-0.31
		c-2.02,1.02-3.82,2.52-5.8,2.83c-10.31,1.6-20.64,3.4-31.03,4.15c-11.94,0.87-23.96,0.75-35.94,1
		c-55.61,1.14-111.23,2.24-166.84,3.41c-17.44,0.37-34.92,0.39-52.31,1.53c-25.21,1.65-50.33,4.7-75.55,6.04
		c-8.54,0.45-17.29-2.36-25.87-4.07c-1.14-0.23-1.81-2.79-2.7-4.28c0.3-0.67,0.59-1.33,0.89-2c-6.08,1.06-12.14,2.32-18.26,3.09
		c-2.66,0.34-5.46-0.26-8.19-0.58c-1.25-0.15-2.47-0.97-3.7-0.95c-8.28,0.1-16.57,0.69-24.84,0.42c-6.16-0.21-12.78,0.98-18.15-3.69
		c-0.47-0.41-1.6-0.04-2.42-0.07c-7.26-0.34-14.51-1.01-21.77-0.98c-18.58,0.1-37.25-1.17-55.56,3.54
		c-4.81,1.24-9.78,2.58-14.68,2.58c-8.43-0.01-16.87-0.96-25.3-1.67c-4.44-0.38-7.91-2.13-9.13-7.03
		c-1.35-5.43-3.05-10.77-4.68-16.44c-3.92,0.6-8,1.55-12.11,1.69c-1.68,0.05-3.97-1.26-5.02-2.66c-2.24-3.03-3.66-6.65-5.78-9.78
		c-2.07-3.06-2.3-5.37,1.29-7.33c3.27-1.79,3.46-3.97,0.94-6.81c-0.94-1.06-0.97-2.91-1.46-4.38c-0.59-1.78-0.72-4.06-1.92-5.22
		c-4.98-4.82-5.1-5.77,0.07-10.05c6.71-5.55,6.73-7.23-0.2-12.25c-3.36-2.43-5.91-5.09-4.01-9.58c2.44-5.78,1.89-11.4,0.83-17.52
		c-0.86-4.93-0.77-11.85,2.06-15.21c5.87-6.95,12.65-13.74,22.25-16.24c1.92-0.5,3.41-2.67,5.1-4.08c-1.76-2.03-3.21-4.51-5.35-5.99
		c-5.77-4-11.83-7.57-17.96-11.42c2.99-2.08,5.65-3.93,8.85-6.16c-2.22-1.87-4.14-3-5.39-4.65c-3.45-4.57-7.43-9-9.69-14.15
		c-2.57-5.83,1.51-9.71,7.78-8.4c1.39,0.29,2.79,0.49,4.47,0.78c-0.29-4.12-0.99-7.76-0.71-11.32c0.93-11.91,2.21-23.8,3.34-35.7
		c0.43-4.52,1.87-9.28-3.87-11.96c-0.88-0.41-1.01-2.53-1.37-3.89c-0.38-1.42-0.32-3.04-1-4.28c-3.56-6.45-3.07-11.94,2.03-17.78
		c-0.69-0.77-1.41-1.57-1.53-1.7c0.94-3.37,1.77-6.31,2.61-9.32c-2.69-0.53-4.44-0.87-6.95-1.37c3.01-1.01,5.08-1.71,7.15-2.4
		c-8.57-4.62-19.05-4.35-24.62-13.47c0,106.2,0,212.4,0,318.6H46V46z M799.82,332.17c-1.27-1.2-2.54-2.41-3.8-3.61
		C797.29,329.77,798.55,330.97,799.82,332.17L799.82,332.17z"/>
</g>
</svg>
