<?xml version="1.0" encoding="utf-8"?>
<!-- Generator: Adobe Illustrator 21.0.0, SVG Export Plug-In . SVG Version: 6.00 Build 0)  -->
<svg version="1.1" id="Layer_1" xmlns="http://www.w3.org/2000/svg" xmlns:xlink="http://www.w3.org/1999/xlink" x="0px" y="0px"
	 viewBox="0 0 521.5 492.6" style="enable-background:new 0 0 521.5 492.6;" xml:space="preserve">
<style type="text/css">
	.st0{fill:#5CA133;}
</style>
<g>
	<path class="st0" d="M204.2,491.1c-3,2.4-7.4,1.9-9.8-1.1c-13-16.4-36.9-19.2-53.4-6.3c-3,2.4-7.4,1.9-9.8-1.2L94,435.6
		c-2.4-3-1.9-7.4,1.1-9.8c16.3-13.1,19.1-37,6.1-53.4s-36.9-19.2-53.4-6.3c-3,2.4-7.4,1.9-9.8-1.2L1.5,318.8c-2.4-3-1.9-7.4,1.1-9.8
		c16.2-12.8,18.7-37.7,5.6-54.3c-2.4-3-1.9-7.4,1.1-9.8L316.5,1.5c3-2.4,7.4-1.9,9.8,1.1c13.2,16.6,37.9,19.8,54.1,7
		c3-2.4,7.4-1.9,9.8,1.1l36.5,46.1c1.2,1.5,1.7,3.3,1.5,5.2c-0.2,1.8-1.1,3.5-2.5,4.6l-0.2,0.2c-16.5,13-19.2,37-6.2,53.5
		s37,19.2,53.5,6.2l0.2-0.1c1.4-1.1,3.3-1.6,5.1-1.4c1.9,0.2,3.6,1.2,4.7,2.6l37.2,46.9c1.2,1.5,1.7,3.3,1.5,5.2
		c-0.2,1.8-1.2,3.5-2.6,4.7l-0.1,0.1c-16.5,13.1-19.2,37.1-6.2,53.5c2.4,3,1.9,7.4-1.1,9.8L204.2,491.1z M459.9,270.6l37.3-29.6
		l-2.5-5.7c-7.7-17.4-5.3-37.6,6.2-52.7l3.8-4.9l-28.5-36l-5.7,2.5c-21.8,9.7-47.3,3.5-62.1-15.2c-14.8-18.7-15-45-0.6-63.9l3.8-4.9
		l-27.9-35.3l-5.6,2.5c-8.5,3.7-18,5-27.6,3.8c-9.4-1.2-18.3-4.9-25.7-10.5l-4.9-3.8l-37.5,29.7L459.9,270.6z M251.2,436L449,279.3
		L271.3,55.2L73.6,211.8L251.2,436z M26,257.2c3.8,8.5,5.3,18,4.4,27.4c-1,9.6-4.4,18.5-10,26l-3.7,4.9l28,35.3l5.7-2.5
		c21.7-9.5,47.1-3.2,61.8,15.3c14.7,18.6,15,44.7,0.8,63.7l-3.7,4.9l28.6,36.1l5.7-2.5c17.3-7.6,37.4-5.2,52.4,6.2l4.9,3.7
		l39.3-31.1L62.6,220.5l-39.1,31L26,257.2z"/>
	<path class="st0" d="M335.8,278.1c-2.8,2.2-6.2,3.5-9.7,3.6l-34.9,1.7l-9.6,33.5c-1,3.4-3,6.4-5.8,8.6c-2.9,2.3-6.3,3.5-10,3.7
		c-7.3,0.3-13.8-4.1-16.3-10.9L237.7,286l-34.7,1.7c-7.3,0.4-13.9-4-16.5-10.8c-2.6-6.9-0.4-14.6,5.4-19.2l27.5-21.8l-11.9-32.4
		c-2.5-6.8-0.3-14.5,5.4-19c5.7-4.6,13.7-4.9,19.8-0.9l28.8,19l27.5-21.8c5.8-4.6,13.8-4.9,19.9-0.8c6,4,8.7,11.5,6.7,18.5
		l-9.6,33.4l28.8,18.9c6,4,8.8,11.3,6.9,18.3C340.7,272.8,338.7,275.8,335.8,278.1 M283,273c2.8-2.2,6.2-3.5,9.7-3.7l41.6-2
		L300,244.7c-6.1-4-8.9-11.5-6.8-18.6l11.4-39.7L272,212.2c-5.7,4.6-13.7,4.9-19.8,0.9l-34.5-22.7l14.2,38.8
		c2.5,6.8,0.3,14.5-5.4,19L193.9,274l41.2-2c7.3-0.4,14,4,16.5,10.9l14.2,38.6l11.5-40C278.2,278.2,280.2,275.2,283,273"/>
</g>
</svg>
