<svg xmlns="http://www.w3.org/2000/svg" width="37.157" height="37.12" viewBox="0 0 37.157 37.12">
  <defs>
    <style>
      .cls-1 {
        fill: #fff;
        fill-rule: evenodd;
      }
    </style>
  </defs>
  <path id="toilets" class="cls-1" d="M132.936,2329.47l-3-1.72a4.133,4.133,0,1,0-4.969,0l-3,1.72a1.778,1.778,0,0,0-.9,1.59l0.023,0.97a0.726,0.726,0,0,0,1.451-.03l-0.023-.97a0.339,0.339,0,0,1,.171-0.3l3.668-2.1a0.34,0.34,0,0,1,.17-0.05h1.854a0.307,0.307,0,0,1,.184.06c0.01,0,.019.01,0.029,0.01l3.627,2.07a0.355,0.355,0,0,1,.171.34c0,0.02,0,.03,0,0.05l-0.257,11.01a0.341,0.341,0,0,1-.23.31,0.017,0.017,0,0,0-.017.01l-2.075.77a0.725,0.725,0,0,0-.473.68l-0.01,5.1a0.345,0.345,0,0,1-.341.34h-3.063a0.341,0.341,0,0,1-.344-0.34c0-1.47,0-3.09-.006-5.1a0.724,0.724,0,0,0-.472-0.68l-2.1-.78a0.345,0.345,0,0,1-.221-0.32v-0.01l-0.1-4.3a0.726,0.726,0,0,0-1.452.03l0.1,4.3a1.814,1.814,0,0,0,1.167,1.66l1.629,0.6c0,1.78,0,3.25,0,4.6a1.794,1.794,0,0,0,1.8,1.79h3.063a1.8,1.8,0,0,0,1.792-1.79l0.009-4.6,1.6-.59a1.8,1.8,0,0,0,1.2-1.65l0.257-10.98A1.786,1.786,0,0,0,132.936,2329.47Zm-5.487-7.69a2.675,2.675,0,1,1-2.681,2.68A2.682,2.682,0,0,1,127.449,2321.78Zm30.721,19.47-0.2-.85a0.726,0.726,0,1,0-1.411.34l0.2,0.85a0.335,0.335,0,0,1-.234.4,0.042,0.042,0,0,1-.032.01l-3.523,1.22a0.732,0.732,0,0,0-.489.69l-0.009,5.08a0.346,0.346,0,0,1-.342.34h-3.062a0.345,0.345,0,0,1-.253-0.11,0.337,0.337,0,0,1-.09-0.26c0-.02,0-0.05,0-0.07l-0.009-4.98a0.732,0.732,0,0,0-.488-0.69l-3.569-1.23a0.343,0.343,0,0,1-.22-0.4l2.683-11.09a0.313,0.313,0,0,1,.127-0.19l2.216-1.66a0.4,0.4,0,0,1,.2-0.07h1.855a0.371,0.371,0,0,1,.216.08c0.007,0.01.015,0.01,0.022,0.02l2.185,1.62a0.359,0.359,0,0,1,.133.22,0.289,0.289,0,0,0,.01.05l1.1,4.53a0.726,0.726,0,1,0,1.411-.34l-1.091-4.51a1.785,1.785,0,0,0-.692-1.11l-1.8-1.34a4.132,4.132,0,1,0-4.834,0l-1.8,1.34a1.8,1.8,0,0,0-.671,1.02l-2.682,11.08a1.784,1.784,0,0,0,1.156,2.12l3.081,1.06,0.008,4.45a1.8,1.8,0,0,0,1.793,1.91h3.063a1.8,1.8,0,0,0,1.792-1.79l0.008-4.57,3.022-1.04A1.789,1.789,0,0,0,158.17,2341.25Zm-7.57-19.47a2.675,2.675,0,1,1-2.681,2.68A2.681,2.681,0,0,1,150.6,2321.78Zm-12.1-4.79a2.183,2.183,0,0,0-2.178,2.18v32.77a2.178,2.178,0,1,0,4.355,0v-32.77A2.183,2.183,0,0,0,138.5,2316.99Zm0.725,34.95a0.726,0.726,0,1,1-1.451,0v-32.77a0.726,0.726,0,1,1,1.451,0v32.77Zm-17.345-16.3a0.73,0.73,0,0,0,.726-0.73h0a0.726,0.726,0,0,0-1.452,0A0.73,0.73,0,0,0,121.878,2335.64Zm34.5,1.41a0.729,0.729,0,0,0,.2,1.43,0.686,0.686,0,0,0,.2-0.03,0.727,0.727,0,0,0,.5-0.9h0A0.731,0.731,0,0,0,156.378,2337.05Z" transform="translate(-121.062 -2317)"/>
</svg>
