<svg 
 xmlns="http://www.w3.org/2000/svg"
 xmlns:xlink="http://www.w3.org/1999/xlink"
 width="26px" height="20px">
<path fill-rule="evenodd"  fill="rgb(255, 255, 255)"
 d="M24.544,0.511 C23.567,1.080 22.485,1.495 21.333,1.718 C20.411,0.750 19.099,0.147 17.645,0.147 C14.854,0.147 12.591,2.375 12.591,5.121 C12.591,5.512 12.636,5.892 12.722,6.255 C8.523,6.048 4.799,4.066 2.307,1.057 C1.871,1.790 1.623,2.645 1.623,3.557 C1.623,5.284 2.516,6.807 3.871,7.698 C3.042,7.672 2.264,7.446 1.582,7.074 L1.582,7.136 C1.582,9.547 3.324,11.557 5.635,12.016 C5.212,12.128 4.765,12.191 4.304,12.191 C3.977,12.191 3.662,12.158 3.352,12.100 C3.995,14.076 5.861,15.516 8.072,15.557 C6.343,16.890 4.163,17.685 1.796,17.685 C1.388,17.685 0.986,17.663 0.590,17.618 C2.827,19.028 5.482,19.852 8.337,19.852 C17.632,19.852 22.715,12.271 22.715,5.695 L22.698,5.050 C23.689,4.351 24.547,3.475 25.224,2.479 C24.317,2.874 23.345,3.141 22.322,3.262 C23.366,2.646 24.165,1.671 24.544,0.511 Z"/>
</svg>