<?xml version="1.0" encoding="utf-8"?>
<!-- Generator: Adobe Illustrator 24.1.3, SVG Export Plug-In . SVG Version: 6.00 Build 0)  -->
<svg version="1.1" id="Layer_1" xmlns="http://www.w3.org/2000/svg" xmlns:xlink="http://www.w3.org/1999/xlink" x="0px" y="0px"
	 viewBox="0 0 25.5 25.5" style="enable-background:new 0 0 25.5 25.5;" xml:space="preserve">
<style type="text/css">
	.st0{fill-rule:evenodd;clip-rule:evenodd;fill:#5CA133;}
</style>
<path id="video" class="st0" d="M12.7,0C5.7,0,0,5.7,0,12.7s5.7,12.7,12.7,12.7c7,0,12.7-5.7,12.7-12.7c0,0,0,0,0,0
	C25.5,5.7,19.8,0,12.7,0z M12.7,24.4c-6.4,0-11.7-5.2-11.7-11.7c0-6.4,5.2-11.7,11.7-11.7c6.4,0,11.7,5.2,11.7,11.7
	C24.4,19.2,19.2,24.4,12.7,24.4z M17.8,12.3l-7.4-4.8c-0.2-0.1-0.4-0.1-0.5,0C9.7,7.6,9.6,7.8,9.6,8v9.6c0,0.2,0.1,0.4,0.3,0.5
	C9.9,18,10,18,10.1,18c0.1,0,0.2,0,0.3-0.1l7.4-4.8c0.2-0.2,0.3-0.5,0.2-0.7C17.9,12.4,17.9,12.3,17.8,12.3L17.8,12.3z M10.6,16.5
	V8.9l5.9,3.8L10.6,16.5z"/>
</svg>
