<svg 
 xmlns="http://www.w3.org/2000/svg"
 xmlns:xlink="http://www.w3.org/1999/xlink"
 width="27px" height="30px">
<path fill-rule="evenodd"  fill="rgb(255, 255, 255)"
 d="M17.662,10.308 C18.634,10.308 19.484,9.379 19.484,9.379 L19.484,10.174 L20.942,10.174 L20.942,2.607 L19.484,2.607 L19.484,8.448 C19.484,8.448 18.998,9.113 18.513,9.113 C18.027,9.113 18.027,8.715 18.027,8.715 L18.027,2.607 L16.570,2.607 L16.570,9.246 C16.570,9.246 16.691,10.308 17.662,10.308 ZM12.804,10.308 L13.290,10.308 C14.363,10.308 15.234,9.356 15.234,8.184 L15.234,4.732 C15.234,3.559 14.363,2.607 13.290,2.607 L12.804,2.607 C11.731,2.607 10.861,3.559 10.861,4.732 L10.861,8.184 C10.861,9.356 11.731,10.308 12.804,10.308 ZM12.318,4.598 C12.318,4.159 12.644,3.802 13.047,3.802 C13.450,3.802 13.776,4.159 13.776,4.598 L13.776,8.316 C13.776,8.755 13.450,9.113 13.047,9.113 C12.644,9.113 12.318,8.755 12.318,8.316 L12.318,4.598 ZM22.277,18.969 C21.549,18.969 21.549,19.858 21.549,19.858 L21.549,21.004 L23.007,21.004 L23.007,19.858 C23.007,19.858 23.007,18.969 22.277,18.969 ZM26.407,15.785 C26.407,13.676 24.776,11.963 22.764,11.963 C22.764,11.963 18.309,11.709 13.837,11.709 C9.382,11.709 4.910,11.963 4.910,11.963 C2.898,11.963 1.267,13.676 1.267,15.785 C1.267,15.785 0.902,18.262 0.902,20.752 C0.902,23.229 1.267,25.719 1.267,25.719 C1.267,27.829 2.898,29.538 4.910,29.538 C4.910,29.538 9.297,29.793 13.837,29.793 C18.221,29.793 22.764,29.538 22.764,29.538 C24.776,29.538 26.407,27.829 26.407,25.719 C26.407,25.719 26.772,23.210 26.772,20.752 C26.772,18.244 26.407,15.785 26.407,15.785 ZM8.553,16.294 L6.732,16.294 L6.732,26.356 L5.031,26.356 L5.031,16.294 L3.210,16.294 L3.210,14.638 L8.553,14.638 L8.553,16.294 ZM13.169,26.356 L11.711,26.356 L11.711,25.591 C11.711,25.591 10.861,26.482 9.889,26.482 C8.918,26.482 8.797,25.464 8.797,25.464 L8.797,17.567 L10.254,17.567 L10.254,24.954 C10.254,24.954 10.254,25.336 10.740,25.336 C11.225,25.336 11.711,24.699 11.711,24.699 L11.711,17.567 L13.169,17.567 L13.169,26.356 ZM18.877,24.445 C18.877,24.445 18.877,26.482 17.541,26.482 C16.723,26.482 16.226,26.005 15.962,25.635 L15.962,26.356 L14.383,26.356 L14.383,14.638 L15.962,14.638 L15.962,18.438 C16.204,18.157 16.798,17.567 17.541,17.567 C18.513,17.567 18.877,18.459 18.877,19.605 C18.877,20.752 18.877,24.445 18.877,24.445 ZM24.585,19.732 L24.585,22.279 L21.549,22.279 L21.549,24.189 C21.549,24.189 21.549,25.081 22.277,25.081 C23.007,25.081 23.007,24.189 23.007,24.189 L23.007,23.299 L24.585,23.299 L24.585,24.699 C24.585,24.699 24.342,26.482 22.399,26.482 C20.456,26.482 20.091,24.699 20.091,24.699 L20.091,19.732 C20.091,19.732 20.091,17.567 22.399,17.567 C24.707,17.567 24.585,19.732 24.585,19.732 ZM7.096,10.174 L8.797,10.174 L8.797,6.058 L10.740,0.218 L9.161,0.218 L7.946,4.068 L6.732,0.218 L5.031,0.218 L7.096,6.058 L7.096,10.174 ZM16.691,18.969 C16.375,18.969 16.129,19.173 15.962,19.371 L15.962,24.727 C16.115,24.907 16.345,25.081 16.691,25.081 C17.420,25.081 17.420,24.189 17.420,24.189 L17.420,19.858 C17.420,19.858 17.298,18.969 16.691,18.969 Z"/>
</svg>