<?xml version="1.0" encoding="utf-8"?>
<!-- Generator: Adobe Illustrator 21.0.0, SVG Export Plug-In . SVG Version: 6.00 Build 0)  -->
<svg version="1.1" id="banner-bottom-patch" xmlns="http://www.w3.org/2000/svg" xmlns:xlink="http://www.w3.org/1999/xlink"
	 x="0px" y="0px" viewBox="0 0 1920 555.6" style="enable-background:new 0 0 1920 555.6;" xml:space="preserve">
<style type="text/css">
	.st0{fill:url(#SVGID_1_);}
	.st1{fill:#FFFFFF;}
</style>
<linearGradient id="SVGID_1_" gradientUnits="userSpaceOnUse" x1="960" y1="-3.3469" x2="960" y2="250.0033" gradientTransform="matrix(1 0 0 -1 0 558)">
	<stop  offset="0.249" style="stop-color:#5CA133"/>
	<stop  offset="1" style="stop-color:#4D8A33"/>
</linearGradient>
<path class="st0" d="M0,93.8c0,0,940.4,438.8,1920,63.1v398.7H0V93.8z"/>
<path class="st1" d="M712.2,298C453.6,260.7,212.9,189.8-0.3,93.8v0.5c7.6,3.4,15.3,6.8,22.9,10.2C236.3,198,468.3,263.3,712,298.5
	c133.4,19.3,265.9,28.9,396.5,28.9c108.1,0,214.8-6.6,319.6-19.8c111.2-14,219.7-35.6,322.4-64.1c58.2-16.2,114.9-34.7,169.5-55.3
	v-0.5C1580.1,316.2,1157.4,362.4,712.2,298z"/>
<path class="st1" d="M1750.3,242.5c-102.6,28.5-211,50.1-322.2,64.1c-231.4,29.2-472.2,26.1-715.8-9.1
	C468.6,262.4,236.7,197.1,23.1,103.7c-7.8-3.4-15.6-6.9-23.3-10.4v0.6C212.9,189.8,453.6,260.7,712.2,298
	c445.2,64.3,867.9,18.2,1207.8-110.4V187C1865.3,207.8,1808.6,226.3,1750.3,242.5z"/>
</svg>
