<?xml version="1.0" encoding="iso-8859-1"?>
<!-- Generator: Adobe Illustrator 21.0.0, SVG Export Plug-In . SVG Version: 6.00 Build 0)  -->
<svg version="1.1" id="Layer_1" xmlns="http://www.w3.org/2000/svg" xmlns:xlink="http://www.w3.org/1999/xlink" x="0px" y="0px"
	 viewBox="0 0 28.573 40" style="enable-background:new 0 0 28.573 40;" xml:space="preserve">
<g>
	<defs>
		<rect id="SVGID_1_" width="28.573" height="40"/>
	</defs>
	<clipPath id="SVGID_2_">
		<use xlink:href="#SVGID_1_"  style="overflow:visible;"/>
	</clipPath>
	<path style="clip-path:url(#SVGID_2_);fill-rule:evenodd;clip-rule:evenodd;fill:#FFFFFF;" d="M6.271,7.767
		c-2.097,0-3.802-1.742-3.802-3.883C2.469,1.742,4.174,0,6.271,0s3.802,1.742,3.802,3.884C10.073,6.025,8.368,7.767,6.271,7.767
		 M6.271,1.158c-1.465,0-2.657,1.223-2.657,2.726S4.806,6.61,6.271,6.61s2.657-1.223,2.657-2.726S7.736,1.158,6.271,1.158"/>
	<path style="clip-path:url(#SVGID_2_);fill-rule:evenodd;clip-rule:evenodd;fill:#FFFFFF;" d="M22.142,40
		c-0.627,0-1.192-0.311-1.583-0.805C20.167,39.689,19.603,40,18.976,40c-1.177,0-2.136-1.095-2.136-2.441v-7.925h-3.494
		l2.947-10.493l-1.42,2.932c-0.102,0.239-0.263,0.472-0.464,0.668c-1.011,0.925-2.128,0.445-2.578,0.063
		c-0.381-0.364-0.623-0.829-0.711-1.337l-1.002-4.616v20.706c0,1.348-0.967,2.443-2.154,2.443c-0.625,0-1.188-0.303-1.581-0.786
		C5.989,39.697,5.425,40,4.8,40c-1.186,0-2.153-1.095-2.153-2.441V23.366c-0.216,0.102-0.456,0.157-0.71,0.157
		C0.87,23.523,0,22.53,0,21.309V10.66c0-0.841,0.43-1.621,1.094-1.99c0.216-0.14,0.504-0.224,0.8-0.224h8.7
		c0.397,0,0.769,0.147,1.048,0.412c0.412,0.292,0.743,0.839,0.849,1.451l1.302,5.565l2.267-4.509
		c0.175-0.405,0.489-0.757,0.893-0.987c0.199-0.158,0.53-0.268,0.866-0.268h6.013c0.096,0.001,0.167,0.008,0.236,0.018
		c0.817,0.138,1.444,0.708,1.655,1.462l2.772,8.984c0.305,1.094-0.307,2.221-1.359,2.53c-0.396,0.115-0.81,0.104-1.195-0.036
		l1.83,6.567h-3.492v7.925C24.277,38.905,23.319,40,22.142,40 M20.006,28.715h1.145v8.844c0,0.696,0.454,1.283,0.991,1.283
		c0.537,0,0.991-0.587,0.991-1.283v-9.083h3.123l-4.242-15.22h1.175l0.162,0.403l2.417,7.706c0.069,0.246,0.217,0.434,0.419,0.549
		c0.195,0.11,0.419,0.137,0.631,0.075c0.449-0.131,0.708-0.618,0.578-1.086l-2.773-8.983c-0.095-0.341-0.365-0.587-0.69-0.642
		l-6.107-0.012c-0.099,0-0.183,0.028-0.25,0.078c-0.252,0.148-0.395,0.311-0.484,0.515l-3.069,6.107h-0.919l-1.736-7.423
		c-0.062-0.35-0.224-0.627-0.452-0.792c-0.125-0.111-0.22-0.147-0.323-0.147H1.894c-0.101,0-0.175,0.034-0.22,0.062
		C1.345,9.85,1.145,10.242,1.145,10.66v10.649c0,0.573,0.364,1.056,0.794,1.056c0.443,0,0.709-0.537,0.709-1.056v-8.951h1.145
		v25.201c0,0.696,0.462,1.283,1.008,1.283c0.547,0,1.008-0.587,1.008-1.283V25.254h1.145l0.003,12.305
		c0,0.696,0.462,1.283,1.007,1.283c0.547,0,1.009-0.587,1.009-1.283v-25.78h1.215l2.056,9.465c0.051,0.288,0.173,0.528,0.349,0.698
		c0.099,0.077,0.562,0.389,1.036-0.045c0.079-0.078,0.154-0.188,0.207-0.31l4.119-8.512h1.232l-4.325,15.402h3.123v9.083
		c0,0.696,0.454,1.283,0.991,1.283s0.99-0.587,0.99-1.283h0.04V28.715z"/>
	<path style="clip-path:url(#SVGID_2_);fill-rule:evenodd;clip-rule:evenodd;fill:#FFFFFF;" d="M20.559,9.577
		c-2.097,0-3.802-1.742-3.802-3.883c0-2.142,1.705-3.884,3.802-3.884c2.098,0,3.803,1.742,3.803,3.884
		C24.362,7.835,22.657,9.577,20.559,9.577 M20.559,2.969c-1.465,0-2.657,1.223-2.657,2.726s1.192,2.725,2.657,2.725
		c1.466,0,2.657-1.222,2.657-2.725S22.025,2.969,20.559,2.969"/>
</g>
</svg>
