<svg xmlns="http://www.w3.org/2000/svg" width="35.688" height="22.37" viewBox="0 0 35.688 22.37">
  <defs>
    <style>
      .cls-1 {
        fill: #fff;
        fill-rule: evenodd;
      }
    </style>
  </defs>
  <path id="email" class="cls-1" d="M297.4,3669.68H269.618c-0.017,0-.032.01-0.049,0.01a2.4,2.4,0,0,0-2.02,1.54,2.317,2.317,0,0,0,.4,2.55,0.013,0.013,0,0,1,.014.01,0.03,0.03,0,0,1,.013.02l11.431,10.45a4.433,4.433,0,0,0,3.133,1.29,4.489,4.489,0,0,0,3.152-1.31l9.377-8.27a0.614,0.614,0,0,0,.215-0.44,0.64,0.64,0,0,0-.633-0.68,0.644,0.644,0,0,0-.418.16l-9.439,8.32a3.179,3.179,0,0,1-4.533-.02l-11.4-10.43a1.035,1.035,0,0,1-.139-1.15,1.145,1.145,0,0,1,.969-0.77H297.4a1.747,1.747,0,0,1,1.84,1.64v16.54a1.747,1.747,0,0,1-1.84,1.64H267.91a1.746,1.746,0,0,1-1.839-1.64v-11.53a0.636,0.636,0,1,0-1.271,0v11.53a3.024,3.024,0,0,0,3.11,2.92H297.4a3.024,3.024,0,0,0,3.111-2.92V3672.6A3.024,3.024,0,0,0,297.4,3669.68Z" transform="translate(-264.812 -3669.69)"/>
</svg>
