<?xml version="1.0" encoding="utf-8"?>
<!-- Generator: Adobe Illustrator 24.1.2, SVG Export Plug-In . SVG Version: 6.00 Build 0)  -->
<svg version="1.1" id="Layer_1" xmlns="http://www.w3.org/2000/svg" xmlns:xlink="http://www.w3.org/1999/xlink" x="0px" y="0px"
	 viewBox="0 0 128.55 128.55" style="enable-background:new 0 0 128.55 128.55;" xml:space="preserve">
<style type="text/css">
	.st0{fill:none;}
	.st1{fill:#93C8BE;}
	.st2{fill:#FFFFFF;}
</style>
<path class="st0" d="M128.49,66.73c0.03-0.82,0.06-1.63,0.06-2.45s-0.03-1.64-0.06-2.45V66.73z"/>
<path class="st1" d="M64.28,0C28.78,0,0,28.78,0,64.27c0,35.5,28.78,64.28,64.28,64.28c3.74,0,7.39-0.34,10.95-0.95
	c0.05-2.2,0.08-3.68,0.11-4.18c0.22-3.29-0.5-4.43,1.61-14.84c0.21-1.07,2.1-7.66,1.89-8.64c-0.23-1.06-0.8-2.22-1.43-3.05
	c-1.44-1.89-2.87-4.26-4.49-6.04c-0.71,1.47-0.98,3.13-1.85,4.53c-1.24,1.81-2.48,3.51-3.83,5.23c-0.54-1.45-0.72-3.42-0.79-4.7
	c-0.29-3.69-0.46-7.54,3.01-9.42c-0.99-1.03-2.65-2.02-4.16-2.59c-1.4,1.76-2.61,4.32-5.67,5.07c-0.72,0.18-3.29,0.75-3.72,0.21
	c-0.45-0.56,0.21-3.09,0.45-3.72c0.67-1.72,2.4-3.12,4.87-3.26c-0.55-0.53-1.25-0.88-3.06-0.81c-2.25,1.29-4.53,1.14-6.06,0.91
	c-3.95-0.6-6.61-7.44-10.78-9.28c9.37-4.01,15.55,1.58,16.85,3.44c0.52,0.74,0.6,1.87,0.99,2.8c1.31,0.54,2.82,1.14,4.37,1.61
	c-1.76-3.1-3.46-8.4-3.04-10.11c0.6,0.7,0.58,0.4,0.81,0.72c3.04,2.65,7.33,4.29,8.64,9.53c0.26,1.06,0.54,2.23,0.59,3.25
	c1.57,1.61,7.56,11.61,8.96,12.27c0.66-3.43,1.43-6.83,2.15-10.23c-1.64,0.85-3.86,0.13-5.32-0.85c-1.44-0.97-2.5-2.53-3.63-3.9
	c-1.56-1.9-2.75-4.85-4.15-7.26c-0.53-0.9-1.38-1.58-1.27-2.6c2.05,0.37,11.19,4.44,14.41,8.8c0.31,0.42,0.77,1.07,0.78,1.55
	c1.36-1.86,1.51-4.57,1.76-6.63c-5.2,0.82-9.3-1.92-11.89-6.44c-1.07-1.88-1.77-4.12-2.72-6.06c-0.66-1.36-2.03-1.96-2.21-3.38
	c14.47,1.6,18.12,9.89,18.35,10.44c0.8-0.98,0.71-2.1,1.14-2.74c-0.4-0.35-6.58-3.22-9.06-11.01c-0.51-1.59-0.82-2.85-1.28-4.53
	c-0.75-2.74-0.91-8.51-0.55-9.06c0.42,0.35,0.45,0.34,0.78,0.63c3.58,3.26,9.63,4.71,11.51,10.35c0.86,2.6,0.76,5.31,0.82,7.95
	c0.69-1.12,0.98-2.41,1.64-3.53c-0.26-2.24,0.61-8.64,3.27-13.07c2.65-4.43,11.15-9.19,12.48-9.12c-0.14,1.7-2.05,9.84-3.46,13.6
	c-1.4,3.75-9.61,8.9-10.48,9.28c-0.65,1.11-1.41,2.17-1.68,3.45c0.33,0.08,2.07-2.82,5.8-4.1c1.8-0.62,8.34-1.5,12.65-6.45
	c0.35,1.46-0.45,2.95-1.02,4.33c-1.03,2.52-3.36,5.57-6.26,8.75c-2.9,3.18-8.9,5.33-14.19,5.26c-0.86,1.54-1.21,3.29-1.56,5.03
	c0.86-0.67,3.21-1.58,4.19-1.7c9.53-1.39,12.64-1.39,20-7.13c1.21,2.35-0.47,4.64-1.89,6.58c-2.23,3.03-6.04,6.55-10.46,7.91
	c-2.38,0.72-8.85,1.82-12.93-1.5c-0.47,1.29-0.54,2.74-0.89,4.08c0.7-0.12,5.75-4.06,15.05,3.08c2.19,1.68,8.59,1.52,8.84,1.62
	c-0.66,0.84-1.05,1.28-1.76,1.66c-1.93,1.01-5.33,2.53-7.59,2.8c-4.23,0.5-7.48-0.41-10.57-2.43c-1.63-1.06-2.89-2.56-4.65-3.63
	c-0.51,0.88-0.67,2.66-1.02,4.02c-0.19,0.77-1.21,2.81-0.91,3.69c0.38,1.1,4.57,2.4,5.3,2.69c0.67-0.89,2.59-2.16,4.36-1.86
	c5.92,0.98,4.16,6.72,1.68,8.15c-2.18,1.21-6.55,0.99-6.69-3.72c-1.43-1.28-2.91-2.47-4.95-2.61c-0.99,4.04-4.12,20.36-3.43,21.08
	c0,0,1.45,1.28,2.39-1.76c1.07-4.14,2.99-8.29,6.4-11.05c0.28-0.02,0.44-0.08,0.47,0.31c-2.51,3.22-4.39,9.3-4.72,11.74
	c-1.68,2.94-2.69,6.23-3.26,9.78c27.48-6.58,48.09-30.81,49.19-60.04v-4.91C127.2,27.46,98.95,0,64.28,0z M60.16,21.72
	c0.29,0.63,1.05-0.25,2.17,0.34c-4.06,2.97-9.05,6.27-11.92,9.18c-2.87,2.91-2.66,8.47-3.15,11.82c3.75,2.55,8.33,4.17,13.02,5.7
	c-0.8,1.79-3.67,1.44-5.1,2.17c-0.09,0.03-0.1,0.05-0.09,0.15c-0.07,1.6,1.44,4.06,0.15,5.54c-3.34-3.63-6.72-7.12-10.6-9.47
	c-2.84,1.84-7.98,3.96-9.44,7.78c-1.45,3.82-2.37,9.73-3.39,14.66c-1.01-0.78-0.52-1.84-1.21-1.84c0.28,1.36,0.07,3.05-1.24,3.66
	c0.06-1.23,0.22-3.71-0.4-3.69c-0.04,1.14-0.25,2.48-1.49,3.03c0.18-1.63,0.35-3.8-0.28-3.94c-0.08,0.72-0.26,1.45-1,1.75
	c-0.12-2.01-0.44-3.89-0.8-5.23c-2.57-7.68-0.43-15.04,1.16-17.71c2.24-0.67,4.92-1.82,6.32-3.96c0.6-1.74-2-3.83-0.89-5.54
	c1.07-1.68,4.08-0.21,5.41-1.49c1.36-2.17,1.29-5.08,0.96-7.4c1.77-2.55,7.58-7.56,15.63-8.41c1.37-0.23,3.21-0.72,5.09-1.45
	c0.04,0.8-0.56,1.26-1.17,1.64c0.39,0.52,2.29-0.55,3.7-1.39c0.01,1.35-1.11,2.11-2.14,2.62c0.24,0.57,2.44-0.6,3.53-1.17
	C62.96,20.51,61.51,21.41,60.16,21.72z"/>
<path class="st2" d="M59.45,20.23c1.03-0.51,2.15-1.27,2.14-2.62c-1.41,0.84-3.31,1.91-3.7,1.39c0.61-0.38,1.21-0.84,1.17-1.64
	c-1.88,0.73-3.72,1.22-5.09,1.45c-8.05,0.86-13.86,5.86-15.63,8.41c0.32,2.32,0.4,5.23-0.96,7.4c-1.33,1.27-4.34-0.19-5.41,1.49
	c-1.1,1.71,1.49,3.81,0.89,5.54c-1.4,2.14-4.08,3.29-6.32,3.96c-1.58,2.67-3.72,10.03-1.16,17.71c0.36,1.34,0.69,3.22,0.8,5.23
	c0.74-0.3,0.92-1.03,1-1.75c0.63,0.14,0.45,2.31,0.28,3.94c1.24-0.55,1.46-1.89,1.49-3.03c0.62-0.01,0.46,2.46,0.4,3.69
	c1.31-0.61,1.53-2.3,1.24-3.66c0.69-0.01,0.21,1.06,1.21,1.84c1.02-4.93,1.93-10.84,3.39-14.66c1.45-3.82,6.59-5.94,9.44-7.78
	c3.88,2.35,7.26,5.84,10.6,9.47c1.29-1.48-0.22-3.94-0.15-5.54c0-0.1,0.01-0.11,0.09-0.15c1.43-0.73,4.3-0.38,5.1-2.17
	c-4.68-1.52-9.27-3.15-13.02-5.7c0.49-3.35,0.28-8.91,3.15-11.82c2.87-2.91,7.86-6.2,11.92-9.18c-1.12-0.59-1.88,0.3-2.17-0.34
	c1.35-0.31,2.8-1.21,2.82-2.65C61.89,19.63,59.69,20.81,59.45,20.23z"/>
<path class="st2" d="M87.28,105.25c-0.03-0.39-0.19-0.33-0.47-0.31c-3.4,2.76-5.32,6.91-6.4,11.05c-0.93,3.04-2.39,1.76-2.39,1.76
	c-0.69-0.72,2.44-17.04,3.43-21.08c2.04,0.14,3.51,1.33,4.95,2.61c0.14,4.71,4.5,4.93,6.69,3.72c2.48-1.43,4.24-7.17-1.68-8.15
	c-1.77-0.3-3.69,0.97-4.36,1.86c-0.73-0.28-4.93-1.58-5.3-2.69c-0.31-0.88,0.71-2.92,0.91-3.69c0.36-1.36,0.52-3.14,1.02-4.02
	c1.76,1.07,3.01,2.57,4.65,3.63c3.1,2.03,6.35,2.93,10.57,2.43c2.27-0.27,5.66-1.79,7.59-2.8c0.7-0.37,1.1-0.82,1.76-1.66
	c-0.25-0.1-6.65,0.06-8.84-1.62c-9.31-7.13-14.36-3.19-15.05-3.08c0.35-1.34,0.42-2.79,0.89-4.08c4.08,3.32,10.56,2.22,12.93,1.5
	c4.42-1.36,8.23-4.88,10.46-7.91c1.42-1.93,3.1-4.22,1.89-6.58c-7.36,5.73-10.47,5.73-20,7.13c-0.98,0.13-3.33,1.03-4.19,1.7
	c0.35-1.74,0.7-3.49,1.56-5.03c5.28,0.07,11.29-2.09,14.19-5.26c2.9-3.18,5.24-6.23,6.26-8.75c0.57-1.38,1.37-2.88,1.02-4.33
	c-4.31,4.95-10.85,5.84-12.65,6.45c-3.73,1.28-5.47,4.18-5.8,4.1c0.26-1.28,1.03-2.34,1.68-3.45c0.87-0.37,9.08-5.53,10.48-9.28
	c1.4-3.76,3.32-11.9,3.46-13.6c-1.32-0.07-9.83,4.7-12.48,9.12c-2.66,4.43-3.53,10.83-3.27,13.07c-0.67,1.13-0.95,2.41-1.64,3.53
	c-0.06-2.64,0.04-5.35-0.82-7.95c-1.88-5.64-7.93-7.08-11.51-10.35c-0.33-0.29-0.35-0.29-0.78-0.63c-0.36,0.55-0.2,6.32,0.55,9.06
	c0.46,1.68,0.78,2.94,1.28,4.53c2.48,7.79,8.66,10.66,9.06,11.01c-0.43,0.65-0.34,1.76-1.14,2.74c-0.22-0.55-3.88-8.84-18.35-10.44
	c0.18,1.41,1.55,2.02,2.21,3.38c0.95,1.94,1.65,4.18,2.72,6.06c2.59,4.52,6.69,7.26,11.89,6.44c-0.25,2.06-0.4,4.77-1.76,6.63
	c0-0.48-0.47-1.14-0.78-1.55c-3.22-4.36-12.36-8.43-14.41-8.8c-0.12,1.03,0.74,1.7,1.27,2.6c1.4,2.42,2.59,5.36,4.15,7.26
	c1.13,1.38,2.19,2.93,3.63,3.9c1.45,0.98,3.68,1.7,5.32,0.85c-0.72,3.4-1.49,6.8-2.15,10.23c-1.4-0.66-7.39-10.66-8.96-12.27
	c-0.06-1.02-0.33-2.19-0.59-3.25c-1.32-5.24-5.6-6.89-8.64-9.53c-0.23-0.32-0.21-0.03-0.81-0.72c-0.42,1.71,1.28,7.01,3.04,10.11
	c-1.55-0.47-3.06-1.07-4.37-1.61c-0.4-0.93-0.47-2.06-0.99-2.8c-1.3-1.86-7.48-7.46-16.85-3.44c4.17,1.83,6.83,8.67,10.78,9.28
	c1.53,0.23,3.81,0.37,6.06-0.91c1.81-0.07,2.51,0.28,3.06,0.81c-2.47,0.14-4.2,1.54-4.87,3.26c-0.24,0.63-0.9,3.16-0.45,3.72
	c0.43,0.54,2.99-0.03,3.72-0.21c3.06-0.75,4.27-3.31,5.67-5.07c1.5,0.57,3.17,1.56,4.16,2.59c-3.46,1.88-3.29,5.73-3.01,9.42
	c0.07,1.29,0.24,3.26,0.79,4.7c1.35-1.72,2.59-3.42,3.83-5.23c0.87-1.4,1.14-3.06,1.85-4.53c1.62,1.77,3.05,4.14,4.49,6.04
	c0.64,0.83,1.2,1.99,1.43,3.05c0.21,0.98-1.68,7.57-1.89,8.64c-2.11,10.41-1.39,11.55-1.61,14.84c-0.03,0.49-0.07,1.97-0.11,4.18
	c1.37-0.24,2.73-0.51,4.07-0.84c0.57-3.56,1.58-6.84,3.26-9.78C82.88,114.55,84.77,108.46,87.28,105.25z"/>
</svg>
