<svg xmlns="http://www.w3.org/2000/svg" width="40.37" height="40.34" viewBox="0 0 40.37 40.34">
  <defs>
    <style>
      .cls-1 {
        fill: #fff;
        fill-rule: evenodd;
      }
    </style>
  </defs>
  <path id="General_Inquiries" data-name="General Inquiries" class="cls-1" d="M1049.62,1163.33a0.636,0.636,0,0,1-.45-0.19,0.677,0.677,0,0,1-.15-0.73l3.97-9.81-0.35-.44a17.374,17.374,0,0,1-3.66-10.65,17.669,17.669,0,0,1,5.93-13.11,21.489,21.489,0,0,1,28.49,0,17.7,17.7,0,0,1,5.93,13.11,17.328,17.328,0,0,1-3.18,9.98,0.677,0.677,0,0,1-.54.28,0.651,0.651,0,0,1-.37-0.12,0.66,0.66,0,0,1-.17-0.92,16.1,16.1,0,0,0,2.94-9.22c0-9.48-8.46-17.19-18.85-17.19s-18.86,7.71-18.86,17.19a16.109,16.109,0,0,0,3.96,10.55,0.628,0.628,0,0,1,.11.68l-3.51,8.67,9.79-4.3a0.66,0.66,0,0,1,.27-0.06,0.7,0.7,0,0,1,.25.05,20.439,20.439,0,0,0,17.14-.55,0.577,0.577,0,0,1,.3-0.06,0.662,0.662,0,0,1,.59.37,0.644,0.644,0,0,1-.29.88,21.862,21.862,0,0,1-17.59.85l-0.38-.15-11.01,4.85A1.645,1.645,0,0,1,1049.62,1163.33Zm19.52-13.8a0.666,0.666,0,0,1-.66-0.66v-8.93a0.66,0.66,0,0,1,1.32,0v8.93A0.666,0.666,0,0,1,1069.14,1149.53Zm0-14.63a0.66,0.66,0,1,1,.66-0.66A0.666,0.666,0,0,1,1069.14,1134.9Z" transform="translate(-1048.97 -1123)"/>
</svg>
