<svg 
 xmlns="http://www.w3.org/2000/svg"
 xmlns:xlink="http://www.w3.org/1999/xlink"
 width="23px" height="24px">
<path fill-rule="evenodd"  fill="rgb(255, 255, 255)"
 d="M16.451,23.084 L7.161,23.084 C3.610,23.084 0.721,20.196 0.721,16.644 L0.721,7.355 C0.721,3.804 3.610,0.915 7.161,0.915 L16.451,0.915 C20.002,0.915 22.891,3.804 22.891,7.355 L22.891,16.644 C22.891,20.196 20.002,23.084 16.451,23.084 ZM21.159,7.355 C21.159,4.759 19.047,2.647 16.451,2.647 L7.161,2.647 C4.565,2.647 2.453,4.759 2.453,7.355 L2.453,16.644 C2.453,19.241 4.565,21.352 7.161,21.352 L16.451,21.352 C19.047,21.352 21.159,19.241 21.159,16.644 L21.159,7.355 ZM17.868,6.804 C17.390,6.804 17.002,6.416 17.002,5.938 C17.002,5.460 17.390,5.071 17.868,5.071 C18.346,5.071 18.734,5.460 18.734,5.938 C18.734,6.416 18.346,6.804 17.868,6.804 ZM11.806,17.976 C8.511,17.976 5.830,15.295 5.830,11.999 C5.830,8.705 8.511,6.025 11.806,6.025 C15.101,6.025 17.781,8.705 17.781,11.999 C17.781,15.295 15.101,17.976 11.806,17.976 ZM11.806,7.757 C9.466,7.757 7.562,9.660 7.562,11.999 C7.562,14.340 9.466,16.244 11.806,16.244 C14.146,16.244 16.049,14.340 16.049,11.999 C16.049,9.660 14.146,7.757 11.806,7.757 Z"/>
</svg>