<?xml version="1.0" encoding="utf-8"?>
<!-- Generator: Adobe Illustrator 21.0.0, SVG Export Plug-In . SVG Version: 6.00 Build 0)  -->
<svg version="1.1" id="Layer_1" xmlns="http://www.w3.org/2000/svg" xmlns:xlink="http://www.w3.org/1999/xlink" x="0px" y="0px"
	 viewBox="0 0 191 105.2" style="enable-background:new 0 0 191 105.2;" xml:space="preserve">
<style type="text/css">
	.st0{clip-path:url(#SVGID_2_);}
	.st1{clip-path:url(#SVGID_4_);fill:url(#SVGID_5_);}
	.st2{clip-path:url(#SVGID_7_);fill:url(#SVGID_8_);}
	.st3{clip-path:url(#SVGID_10_);fill:url(#SVGID_11_);}
	.st4{clip-path:url(#SVGID_13_);fill:url(#SVGID_14_);}
	.st5{clip-path:url(#SVGID_16_);fill:url(#SVGID_17_);}
	.st6{clip-path:url(#SVGID_19_);fill:url(#SVGID_20_);}
	.st7{clip-path:url(#SVGID_22_);fill:url(#SVGID_23_);}
	.st8{clip-path:url(#SVGID_25_);fill:url(#SVGID_26_);}
	.st9{clip-path:url(#SVGID_28_);fill:url(#SVGID_29_);}
	.st10{clip-path:url(#SVGID_31_);fill:url(#SVGID_32_);}
	.st11{clip-path:url(#SVGID_34_);fill:url(#SVGID_35_);}
	.st12{clip-path:url(#SVGID_37_);fill:url(#SVGID_38_);}
	.st13{clip-path:url(#SVGID_40_);fill:url(#SVGID_41_);}
	.st14{clip-path:url(#SVGID_43_);}
	.st15{clip-path:url(#SVGID_45_);}
	.st16{clip-path:url(#SVGID_47_);fill:url(#SVGID_48_);}
	.st17{clip-path:url(#SVGID_50_);}
	.st18{clip-path:url(#SVGID_52_);fill:url(#SVGID_53_);}
	.st19{clip-path:url(#SVGID_55_);}
	.st20{clip-path:url(#SVGID_57_);fill:url(#SVGID_58_);}
	.st21{opacity:0.5;clip-path:url(#SVGID_43_);}
	.st22{clip-path:url(#SVGID_60_);}
	.st23{clip-path:url(#SVGID_62_);fill:url(#SVGID_63_);}
	.st24{clip-path:url(#SVGID_65_);fill:url(#SVGID_66_);}
</style>
<g>
	<defs>
		<rect id="SVGID_1_" width="191" height="105.2"/>
	</defs>
	<clipPath id="SVGID_2_">
		<use xlink:href="#SVGID_1_"  style="overflow:visible;"/>
	</clipPath>
	<g class="st0">
		<defs>
			<path id="SVGID_3_" d="M25.5,25.1c-0.1,0.1-0.1,0.1-0.2,0.1c0,0,0,0.1,0,0.1c0,0,0,0.1,0,0.1v0.1c0,0.2,0,0.3,0,0.5
				c0,0.1,0,0.2,0,0.3v0c0,0.1,0,0.1,0,0.2c0,0.1,0,0.2,0,0.2c0,0.2,0.1,0.4,0.1,0.6v0.1v0.1c0,0.1,0,0.2,0,0.3c0,0.1,0,0.2,0,0.3
				c0,0.1,0,0.1,0,0.2c0,0.1,0,0.1,0,0.2c0,0,0,0.1,0,0.1v0c0,0.2,0.2,0.6,0.4,0.8c0,0,0,0,0,0c0.1,0.1,0.1,0.1,0.2,0.2
				c0.1,0.1,0.1,0.1,0.2,0.2c0.4,0.5,0.9,1,1.5,1.7c0.1,0.1,0.2,0.2,0.2,0.3c0,0,0.1,0.1,0.1,0.1c0.2,0.2,0.4,0.5,0.6,0.7
				c0.2,0.3,0.5,0.6,0.7,0.9c0.1,0.1,0.2,0.2,0.3,0.4l0.3,0.4c0.2,0.3,0.4,0.5,0.6,0.8c0.2,0.2,0.3,0.4,0.5,0.6l0.4,0.4
				c1.5,1.9,3.3,4,5.2,6.4c0.3,0.3,0.6,0.7,0.9,1l0.1,0.1c0.2,0.3,0.5,0.6,0.8,0.9c2,2.4,4.2,5,6.5,7.6c0.5,0.6,1,1.2,1.5,1.8
				c0.2,0.2,0.3,0.4,0.5,0.6c0.2,0.2,0.3,0.4,0.5,0.6c0.3,0.4,0.7,0.8,1.1,1.2c0.5,0.6,1,1.2,1.6,1.8c0.2,0.2,0.4,0.4,0.5,0.6
				c0.7,0.8,1.5,1.7,2.3,2.5c0.2,0.3,0.5,0.5,0.8,0.8c0.8,0.8,1.5,1.6,2.3,2.4c0.2,0.2,0.4,0.4,0.6,0.6c0.1,0,0.1,0.1,0.1,0.1
				c0.2,0.2,0.3,0.3,0.5,0.5c0.2,0.2,0.4,0.4,0.6,0.6c0.3,0.3,0.6,0.6,0.9,0.9c0.6,0.5,1.1,1.1,1.7,1.6c0.2,0.2,0.3,0.3,0.5,0.5
				c1.4,1.3,2.7,2.5,4.1,3.6c0.2,0.2,0.3,0.3,0.5,0.4c0.1,0,0.1,0.1,0.2,0.2c0.1,0.1,0.3,0.2,0.4,0.3c0.3,0.2,0.6,0.5,0.9,0.7
				c0.2,0.1,0.3,0.2,0.5,0.4c0.2,0.1,0.3,0.2,0.5,0.3c0.2,0.1,0.3,0.2,0.4,0.3c0.6,0.4,1.1,0.8,1.7,1.2c0.2,0.1,0.3,0.2,0.4,0.3
				c0.4,0.3,0.8,0.5,1.2,0.8l0.4,0.2c0.1,0.1,0.2,0.1,0.3,0.2c0.3,0.2,0.7,0.4,1,0.5l0.4,0.2c0.5,0.3,1.1,0.5,1.6,0.7
				c0.5,0.2,1,0.3,1.5,0.5c0.1,0,0.2,0,0.4,0.1h0c0.1,0,0.2,0.1,0.4,0.1c0.1,0,0.1,0,0.2,0.1c0.1,0,0.2,0,0.2,0c0.2,0,0.3,0,0.4,0
				c0.1,0,0.2,0,0.2,0c0.1,0,0.2,0,0.3,0c0.1,0,0.2,0,0.3,0s0.2,0,0.3,0s0.2,0,0.2-0.1c0.1,0,0.2,0,0.3-0.1c0.2-0.1,0.4-0.1,0.6-0.2
				c0.2-2.7,6.2,0.4,12.1,3.5c5.4,2.9,10.7,5.9,10.7,4c0.9-1.9,7.3-0.3,13,1.3c4,1.1,7.7,2.2,8.9,2.2c-0.5-2.3,5.8-1,11.7,0.2
				c4.7,1,9.2,2,10,1.2c-0.6-2.5,5.6-0.6,11.4,1.3c4.9,1.6,9.5,3.1,10,2.2c0.1-3.1,13.3,4.8,22.2,9.3l-0.3-0.9l0,0l0.1,0
				c-4.1-6.8-8.1-19.4-8.3-19.5c-12-16.7-8.8-20.5-12.9-21.8c-3.8-2.8-7.2-20.7-10.6-21.1c-6.6-2.9-14-18.3-17.6-18.8
				c-10.8-5.2-21.1-18.3-25.4-17.2C108,1.8,99.4,0.2,91,0.2C57.8,0.2,25.8,24.8,25.5,25.1"/>
		</defs>
		<clipPath id="SVGID_4_">
			<use xlink:href="#SVGID_3_"  style="overflow:visible;"/>
		</clipPath>
		
			<linearGradient id="SVGID_5_" gradientUnits="userSpaceOnUse" x1="83.638" y1="53.2526" x2="101.1355" y2="53.2526" gradientTransform="matrix(1.1824 -4.6727 -4.6727 -1.1824 249.3681 541.1674)">
			<stop  offset="0" style="stop-color:#A2D54B"/>
			<stop  offset="1" style="stop-color:#4A7621"/>
		</linearGradient>
		<polygon class="st1" points="0.4,98.9 35.4,-39.2 216,6.5 181,144.6 		"/>
	</g>
	<g class="st0">
		<defs>
			<path id="SVGID_6_" d="M147.6,92.4c-0.5-2.5,5.5-0.6,11.2,1.3c4.8,1.6,9.4,3.2,9.8,2.2c-2.8-3.7-4-7.2-5.4-11.7
				c-10.1-6.9-19.8-12.9-29.3-18.3C136.5,73.2,141.2,81.2,147.6,92.4"/>
		</defs>
		<clipPath id="SVGID_7_">
			<use xlink:href="#SVGID_6_"  style="overflow:visible;"/>
		</clipPath>
		
			<linearGradient id="SVGID_8_" gradientUnits="userSpaceOnUse" x1="97.8235" y1="-3.9074" x2="115.3211" y2="-3.9074" gradientTransform="matrix(0.6635 -0.6823 -0.6823 -0.6635 76.4736 153.0233)">
			<stop  offset="0" style="stop-color:#A2D54B"/>
			<stop  offset="1" style="stop-color:#4A7621"/>
		</linearGradient>
		<polygon class="st2" points="118.4,81.9 150.8,48.6 184.1,81 151.7,114.3 		"/>
	</g>
	<g class="st0">
		<defs>
			<path id="SVGID_9_" d="M125.9,91c-0.5-2.3,5.6-1,11.4,0.3c4.6,1,9.1,2,9.9,1.2c-6.4-11.1-11.4-19.7-14-26.9
				c-8.8-4.9-17.5-9.3-26.5-13.3C110.6,65.4,115.7,76.4,125.9,91"/>
		</defs>
		<clipPath id="SVGID_10_">
			<use xlink:href="#SVGID_9_"  style="overflow:visible;"/>
		</clipPath>
		
			<linearGradient id="SVGID_11_" gradientUnits="userSpaceOnUse" x1="85.5838" y1="29.6225" x2="103.0813" y2="29.6225" gradientTransform="matrix(0.9268 -0.953 -0.953 -0.9268 66.3061 191.6957)">
			<stop  offset="0" style="stop-color:#A2D54B"/>
			<stop  offset="1" style="stop-color:#4A7621"/>
		</linearGradient>
		<polygon class="st3" points="86.2,73.4 126.4,32.1 167.7,72.3 127.5,113.6 		"/>
	</g>
	<g class="st0">
		<defs>
			<path id="SVGID_12_" d="M104,87.5c0.9-1.9,7.1-0.2,12.7,1.4c3.9,1.1,7.5,2.3,8.8,2.2c-10.1-14.4-15.4-25.7-19.3-39.1
				c-7.2-3.2-14.5-6.1-22.1-9C85.9,57.4,93.1,70.5,104,87.5"/>
		</defs>
		<clipPath id="SVGID_13_">
			<use xlink:href="#SVGID_12_"  style="overflow:visible;"/>
		</clipPath>
		
			<linearGradient id="SVGID_14_" gradientUnits="userSpaceOnUse" x1="78.3391" y1="45.3534" x2="95.8366" y2="45.3534" gradientTransform="matrix(1.0726 -1.103 -1.103 -1.0726 60.2028 213.0563)">
			<stop  offset="0" style="stop-color:#A2D54B"/>
			<stop  offset="1" style="stop-color:#4A7621"/>
		</linearGradient>
		<polygon class="st4" points="60,67.8 104.2,22.4 149.5,66.5 105.3,111.9 		"/>
	</g>
	<g class="st0">
		<defs>
			<path id="SVGID_15_" d="M81.3,80c0.2-2.8,6.1,0.4,11.8,3.6c5.3,3,10.4,5.9,10.4,4c-9.2-14.4-18-29-20-44.8
				c-5.6-2-11.3-4-17.2-5.9C65.9,51.8,73.5,67.5,81.3,80"/>
		</defs>
		<clipPath id="SVGID_16_">
			<use xlink:href="#SVGID_15_"  style="overflow:visible;"/>
		</clipPath>
		
			<linearGradient id="SVGID_17_" gradientUnits="userSpaceOnUse" x1="72.7279" y1="55.7825" x2="90.2255" y2="55.7825" gradientTransform="matrix(1.122 -1.1537 -1.1537 -1.122 57.4514 220.1047)">
			<stop  offset="0" style="stop-color:#A2D54B"/>
			<stop  offset="1" style="stop-color:#4A7621"/>
		</linearGradient>
		<polygon class="st5" points="39.6,64 84.2,18.2 129.8,62.6 85.2,108.4 		"/>
	</g>
	<g class="st0">
		<defs>
			<path id="SVGID_18_" d="M25.4,25.3C25.4,25.3,25.4,25.4,25.4,25.3l0,0.2c0,0.2,0,0.3,0,0.5c0,0.1,0,0.2,0,0.3v0
				c0,0.1,0,0.1,0,0.2c0,0.1,0,0.2,0,0.2c0,0.2,0.1,0.4,0.1,0.6v0.1v0.1c0,0.1,0,0.2,0,0.3c0,0.1,0,0.2,0,0.3c0,0.1,0,0.1,0,0.2
				c0,0.1,0,0.1,0,0.2c0,0,0,0.1,0,0.1v0c0,0.2,0.2,0.6,0.4,0.8c0,0,0,0,0,0c0,0,0,0,0,0c0.1,0.1,0.1,0.1,0.2,0.2
				c0.1,0.1,0.1,0.1,0.2,0.2c0.1,0.1,0.2,0.3,0.4,0.4c0.1,0.2,0.3,0.3,0.4,0.5c0.1,0.1,0.2,0.2,0.2,0.3C36.6,42.2,68.9,84,80.4,80.4
				c0.2-0.1,0.3-0.1,0.5-0.2C73,67.6,65.4,51.7,65.9,36.9c-12.4-4-25.7-7.8-40.5-11.7C25.4,25.2,25.4,25.3,25.4,25.3"/>
		</defs>
		<clipPath id="SVGID_19_">
			<use xlink:href="#SVGID_18_"  style="overflow:visible;"/>
		</clipPath>
		
			<linearGradient id="SVGID_20_" gradientUnits="userSpaceOnUse" x1="67.7602" y1="73.5343" x2="85.2577" y2="73.5343" gradientTransform="matrix(1.0625 -1.0926 -1.0926 -1.0625 57.9318 210.373)">
			<stop  offset="0" style="stop-color:#A2D54B"/>
			<stop  offset="1" style="stop-color:#4A7621"/>
		</linearGradient>
		<polygon class="st6" points="-4,55.4 52.3,-2.5 110.2,53.8 53.9,111.7 		"/>
	</g>
	<g class="st0">
		<defs>
			<path id="SVGID_21_" d="M169,95.8c0.1-3.1,13.1,4.9,22,9.4l-0.3-0.9c-8.6-6.6-17.8-13.4-26.8-19.5
				C165.3,89.1,166.2,92.1,169,95.8"/>
		</defs>
		<clipPath id="SVGID_22_">
			<use xlink:href="#SVGID_21_"  style="overflow:visible;"/>
		</clipPath>
		
			<linearGradient id="SVGID_23_" gradientUnits="userSpaceOnUse" x1="126.9783" y1="-105.148" x2="144.4759" y2="-105.148" gradientTransform="matrix(0.361 -0.3713 -0.3713 -0.361 88.0709 108.8224)">
			<stop  offset="0" style="stop-color:#A2D54B"/>
			<stop  offset="1" style="stop-color:#4A7621"/>
		</linearGradient>
		<polygon class="st7" points="153.7,95.3 177.1,71.2 201.2,94.7 177.8,118.8 		"/>
	</g>
	<g class="st0">
		<defs>
			<path id="SVGID_24_" d="M136,67.2c3.7,2.1,7.5,4.4,11.3,6.7c13.7,8.5,27.8,18.4,43.5,30.4l0,0l0.1,0c-4.1-6.8-7.8-18.8-7.9-18.9
				c-12.7-11.1-24.4-20.3-36.8-20.3C142.8,65.1,139.4,65.7,136,67.2"/>
		</defs>
		<clipPath id="SVGID_25_">
			<use xlink:href="#SVGID_24_"  style="overflow:visible;"/>
		</clipPath>
		
			<linearGradient id="SVGID_26_" gradientUnits="userSpaceOnUse" x1="104.9197" y1="-3.7753" x2="122.4173" y2="-3.7753" gradientTransform="matrix(0.7856 -0.8079 -0.8079 -0.7856 73.3504 171.2001)">
			<stop  offset="0" style="stop-color:#A2D54B"/>
			<stop  offset="1" style="stop-color:#4A7621"/>
		</linearGradient>
		<polygon class="st8" points="116.4,85.2 162.7,37.6 210.5,84.1 164.2,131.7 		"/>
	</g>
	<g class="st0">
		<defs>
			<path id="SVGID_27_" d="M120.8,59c4.9,2.5,9.8,5.1,14.7,7.9C152,60,166,69.8,182.3,84c-12-16.7-8.4-19.6-12.6-20.9c0,0,0,0,0,0
				c-16.1-7.1-26.5-10.8-34.2-10.8C129.5,52.4,125,54.5,120.8,59"/>
		</defs>
		<clipPath id="SVGID_28_">
			<use xlink:href="#SVGID_27_"  style="overflow:visible;"/>
		</clipPath>
		
			<linearGradient id="SVGID_29_" gradientUnits="userSpaceOnUse" x1="95.513" y1="9.9914" x2="113.0106" y2="9.9914" gradientTransform="matrix(0.5687 -1.0175 -1.0175 -0.5687 103.9881 177.1603)">
			<stop  offset="0" style="stop-color:#A2D54B"/>
			<stop  offset="1" style="stop-color:#4A7621"/>
		</linearGradient>
		<polygon class="st9" points="107.3,76.5 135.4,26.1 195.8,59.9 167.7,110.2 		"/>
	</g>
	<g class="st0">
		<defs>
			<path id="SVGID_30_" d="M104.5,51.3c5.3,2.3,10.5,4.8,15.7,7.4c9.7-10.2,20.7-9,49.4,3.7c-3.7-2.8-6.9-19.9-10.3-20.3
				c-8.5-2-16.9-3.6-24.8-3.6C123,38.6,112.5,41.8,104.5,51.3"/>
		</defs>
		<clipPath id="SVGID_31_">
			<use xlink:href="#SVGID_30_"  style="overflow:visible;"/>
		</clipPath>
		
			<linearGradient id="SVGID_32_" gradientUnits="userSpaceOnUse" x1="90.1494" y1="30.1703" x2="107.647" y2="30.1703" gradientTransform="matrix(0.3599 -1.4224 -1.4224 -0.3599 144.5061 201.2853)">
			<stop  offset="0" style="stop-color:#A2D54B"/>
			<stop  offset="1" style="stop-color:#4A7621"/>
		</linearGradient>
		<polygon class="st10" points="98.8,61 108.4,23.1 175.2,40 165.6,77.9 		"/>
	</g>
	<g class="st0">
		<defs>
			<path id="SVGID_33_" d="M82.4,42.5c7.4,2.7,14.5,5.5,21.5,8.6c13.4-16,33.9-14.7,55.1-9.6c-6.6-2.9-13.2-17.4-16.9-17.9
				c-5.4-0.7-10.2-1.1-14.5-1.1C109.7,22.4,98.9,28.8,82.4,42.5"/>
		</defs>
		<clipPath id="SVGID_34_">
			<use xlink:href="#SVGID_33_"  style="overflow:visible;"/>
		</clipPath>
		
			<linearGradient id="SVGID_35_" gradientUnits="userSpaceOnUse" x1="91.676" y1="46.2786" x2="109.1735" y2="46.2786" gradientTransform="matrix(0.5057 -1.9984 -1.9984 -0.5057 162.397 260.8036)">
			<stop  offset="0" style="stop-color:#A2D54B"/>
			<stop  offset="1" style="stop-color:#4A7621"/>
		</linearGradient>
		<polygon class="st11" points="75.6,49.3 87,4.2 165.8,24.1 154.4,69.3 		"/>
	</g>
	<g class="st0">
		<defs>
			<path id="SVGID_36_" d="M116.5,6c-28.9,7-41.3,13.3-56.3,29c7.4,2.3,14.6,4.7,21.4,7.2c20.5-17,31.7-23.5,59.3-19.7
				C130.6,17.5,121.6,6,117,6C116.8,6,116.7,6,116.5,6"/>
		</defs>
		<clipPath id="SVGID_37_">
			<use xlink:href="#SVGID_36_"  style="overflow:visible;"/>
		</clipPath>
		
			<linearGradient id="SVGID_38_" gradientUnits="userSpaceOnUse" x1="92.5452" y1="56.4342" x2="110.0428" y2="56.4342" gradientTransform="matrix(0.6161 -2.4348 -2.4348 -0.6161 175.5124 305.7477)">
			<stop  offset="0" style="stop-color:#A2D54B"/>
			<stop  offset="1" style="stop-color:#4A7621"/>
		</linearGradient>
		<polygon class="st12" points="51.6,40.1 65.1,-13.2 149.6,8.1 136.1,61.4 		"/>
	</g>
	<g class="st0">
		<defs>
			<path id="SVGID_39_" d="M90.3,0c-33,0.2-64.4,24.8-64.7,25.1c-0.1,0.1-0.1,0.1-0.2,0.1c12.2,3.2,23.4,6.4,33.9,9.6
				c15-15.7,27.5-22.2,56.5-29.2C107.8,1.7,99.4,0,91.2,0H90.3z"/>
		</defs>
		<clipPath id="SVGID_40_">
			<use xlink:href="#SVGID_39_"  style="overflow:visible;"/>
		</clipPath>
		
			<linearGradient id="SVGID_41_" gradientUnits="userSpaceOnUse" x1="93.2437" y1="68.1214" x2="110.7412" y2="68.1214" gradientTransform="matrix(0.6073 -2.4 -2.4 -0.6073 172.598 301.569)">
			<stop  offset="0" style="stop-color:#A2D54B"/>
			<stop  offset="1" style="stop-color:#4A7621"/>
		</linearGradient>
		<polygon class="st13" points="17.1,32.7 30.8,-21.5 124,2.1 110.3,56.3 		"/>
	</g>
	<g class="st0">
		<defs>
			<rect id="SVGID_42_" y="0" width="191" height="105.2"/>
		</defs>
		<clipPath id="SVGID_43_">
			<use xlink:href="#SVGID_42_"  style="overflow:visible;"/>
		</clipPath>
		<g class="st14">
			<g>
				<defs>
					<rect id="SVGID_44_" x="25.4" y="0.2" width="165.5" height="104.1"/>
				</defs>
				<clipPath id="SVGID_45_">
					<use xlink:href="#SVGID_44_"  style="overflow:visible;"/>
				</clipPath>
				<g class="st15">
					<defs>
						<path id="SVGID_46_" d="M182.6,84.7c-12-16.7-8.8-20.5-12.9-21.8c-3.8-2.8-7.2-20.7-10.6-21.1c-6.6-2.9-14-18.3-17.6-18.8
							c-10.8-5.2-21.1-18.3-25.4-17.2c-40-19.7-90.2,18.9-90.6,19.2c-0.1,0-0.1,0.1-0.2,0.1c12.2,3.2,23.9,6.5,34.3,9.7
							c7.5,2.3,15.4,5,22.3,7.5c7.4,2.7,15.2,5.8,22.1,8.8c5.3,2.3,11.1,5,16.3,7.6c4.9,2.5,10.4,5.4,15.3,8.2
							c3.7,2.1,7.7,4.5,11.5,6.8c13.7,8.5,27.8,18.4,43.5,30.4l0,0l0.1,0C186.8,97.4,182.8,84.8,182.6,84.7"/>
					</defs>
					<clipPath id="SVGID_47_">
						<use xlink:href="#SVGID_46_"  style="overflow:visible;"/>
					</clipPath>
					
						<radialGradient id="SVGID_48_" cx="94.6824" cy="73.6669" r="17.4976" gradientTransform="matrix(0.7524 2.659 2.659 -0.7524 -117.0456 -145.0168)" gradientUnits="userSpaceOnUse">
						<stop  offset="0" style="stop-color:#C2D985"/>
						<stop  offset="1" style="stop-color:#888A8D"/>
					</radialGradient>
					<polygon class="st16" points="178.6,-57.3 221.8,95.5 37.6,147.7 -5.6,-5.2 					"/>
				</g>
			</g>
		</g>
		<g class="st14">
			<g>
				<defs>
					<rect id="SVGID_49_" x="25.4" y="25.2" width="165.6" height="80"/>
				</defs>
				<clipPath id="SVGID_50_">
					<use xlink:href="#SVGID_49_"  style="overflow:visible;"/>
				</clipPath>
				<g class="st17">
					<defs>
						<path id="SVGID_51_" d="M191,105.2c-0.2-0.1-0.4-0.2-0.7-0.3c-0.3-0.1-0.6-0.3-0.9-0.4c-0.4-0.2-0.8-0.4-1.2-0.6
							c-0.4-0.2-0.8-0.4-1.2-0.6c-0.3-0.1-0.5-0.3-0.8-0.4c-4.7-2.5-9.8-5.3-13.2-6.7c-0.1,0-0.2-0.1-0.3-0.1
							c-0.6-0.2-1.1-0.4-1.6-0.6c-0.1,0-0.1,0-0.2-0.1l-0.2-0.1c-0.3-0.1-0.5-0.1-0.7-0.1c-0.1,0-0.1,0-0.2,0c-0.1,0-0.2,0-0.3,0
							c0,0-0.1,0-0.1,0c-0.1,0-0.1,0-0.1,0h0c-0.2,0-0.3,0.1-0.4,0.2c0,0-0.1,0.1-0.1,0.1c0,0,0,0,0,0c0,0,0,0.1-0.1,0.1
							c0,0,0,0,0,0v0c0,0,0,0.1,0,0.1c0,0.1,0,0.1,0,0.2c0,0,0,0.1,0,0.1c-0.1,0.1-0.2,0.1-0.4,0.2h0c-0.1,0-0.1,0-0.2,0
							c0,0-0.1,0-0.1,0h0c-0.1,0-0.2,0-0.3,0c-0.1,0-0.1,0-0.2,0c-0.1,0-0.3,0-0.4-0.1c-0.3-0.1-0.7-0.1-1-0.2
							c-0.1,0-0.2-0.1-0.3-0.1c0,0,0,0,0,0c-0.2,0-0.4-0.1-0.6-0.1c-0.3-0.1-0.7-0.2-1-0.3c-0.2-0.1-0.4-0.1-0.7-0.2
							c-1.6-0.5-3.4-1.1-5.2-1.6c-0.1,0-0.3-0.1-0.4-0.1c-0.2-0.1-0.5-0.1-0.8-0.2l-0.5-0.2c-0.1,0-0.3-0.1-0.4-0.1
							c-0.2-0.1-0.4-0.1-0.6-0.2c-0.5-0.2-1-0.3-1.4-0.4c-0.2-0.1-0.5-0.1-0.7-0.2c-0.2-0.1-0.5-0.1-0.7-0.2c-0.2,0-0.4-0.1-0.6-0.1
							c-0.2-0.1-0.4-0.1-0.6-0.2c-0.5-0.1-0.9-0.2-1.4-0.2c-0.1,0-0.3,0-0.4-0.1c0,0-0.1,0-0.1,0c-0.1,0-0.1,0-0.2,0
							c-0.1,0-0.2,0-0.3,0h-0.2c-0.1,0-0.1,0-0.2,0h-0.1c-0.1,0-0.1,0-0.1,0c-0.1,0-0.2,0-0.3,0.1c-0.1,0-0.1,0-0.1,0
							c-0.1,0-0.1,0-0.2,0.1c-0.1,0-0.1,0.1-0.2,0.1c0,0-0.1,0.1-0.1,0.1c0,0,0,0,0,0c0,0-0.1,0.1-0.1,0.1c0,0.1-0.1,0.1-0.1,0.2
							c0,0,0,0,0,0.1c0,0,0,0,0,0v0c0,0,0,0.1,0,0.1v0v0.1c0,0.1,0,0.1,0,0.2c-0.1,0.1-0.3,0.2-0.5,0.2l0,0c-0.1,0-0.1,0-0.2,0
							c-0.1,0-0.2,0-0.3,0c-0.4,0-0.9,0-1.6-0.1c-0.3,0-0.6-0.1-0.9-0.1c-0.1,0-0.3,0-0.4-0.1c-0.1,0-0.2,0-0.3-0.1
							c-0.1,0-0.2,0-0.3-0.1c-0.2,0-0.5-0.1-0.7-0.1c-1.6-0.3-3.5-0.7-5.4-1.1c-0.3-0.1-0.5-0.1-0.8-0.2c-0.4-0.1-0.8-0.2-1.2-0.2
							c-0.9-0.2-1.9-0.4-2.7-0.5c-0.2,0-0.4-0.1-0.6-0.1c-0.5-0.1-1-0.1-1.4-0.2c-0.1,0-0.2,0-0.3,0c-0.8-0.1-1.4-0.1-2-0.1
							c-0.1,0-0.2,0-0.2,0c0,0-0.1,0-0.1,0c-0.2,0-0.4,0.1-0.6,0.1l0,0c-0.1,0-0.3,0.1-0.4,0.1c-0.1,0-0.1,0.1-0.2,0.1
							c0,0-0.1,0-0.1,0.1c-0.1,0-0.1,0.1-0.1,0.1l-0.1,0c-0.1,0.1-0.1,0.1-0.1,0.2c0,0,0,0,0,0.1c0,0,0,0.1,0,0.1c0,0.1,0,0.3,0,0.4
							c-0.1,0-0.2,0-0.3,0c-0.1,0-0.1,0-0.2,0c-0.1,0-0.2,0-0.4,0c-0.4-0.1-0.8-0.2-1.3-0.3c-0.2,0-0.3-0.1-0.5-0.1
							c-0.9-0.2-1.9-0.5-3-0.8c-0.2-0.1-0.5-0.1-0.8-0.2c-1.6-0.5-3.4-1-5.1-1.4c-0.1,0-0.1,0-0.1,0c-0.5-0.1-1-0.2-1.5-0.4
							c-0.2,0-0.4-0.1-0.6-0.1l-0.5-0.1c-0.2-0.1-0.5-0.1-0.7-0.2c-1.6-0.4-3.1-0.6-4.3-0.6c-0.1,0-0.2,0-0.2,0c-0.2,0-0.3,0-0.5,0
							c-0.1,0-0.1,0-0.2,0c-0.2,0-0.4,0.1-0.6,0.1c-0.1,0-0.1,0-0.2,0c0,0,0,0,0,0c-0.1,0-0.2,0.1-0.3,0.1c0,0,0,0,0,0
							c-0.1,0-0.1,0.1-0.2,0.1l-0.1,0c-0.1,0-0.1,0.1-0.2,0.1c0,0-0.1,0.1-0.1,0.2c-0.1,0.1-0.1,0.1-0.1,0.2c0,0.2-0.1,0.3-0.1,0.4
							c0,0-0.1,0.1-0.1,0.1c-0.1,0.1-0.2,0.1-0.3,0.1c0,0-0.1,0-0.2,0c-0.2,0-0.3,0-0.5-0.1c-0.3-0.1-0.6-0.2-1-0.3
							s-0.7-0.3-1.1-0.5c-0.2-0.1-0.5-0.2-0.7-0.3c-0.2-0.1-0.3-0.2-0.5-0.3c-1.9-0.9-4.3-2.3-6.7-3.5l-0.1-0.1
							c-0.2-0.1-0.5-0.3-0.8-0.4c-0.1-0.1-0.3-0.2-0.5-0.2c-0.2-0.1-0.5-0.3-0.7-0.4c-2.8-1.5-5.5-2.8-7.2-3.1c-0.1,0-0.2,0-0.2,0
							c-0.1,0-0.2,0-0.3,0c-0.1,0-0.1,0-0.2,0h0c-0.1,0-0.1,0-0.2,0c-0.1,0-0.1,0-0.2,0c0,0,0,0-0.1,0c-0.1,0-0.1,0-0.2,0
							c-0.1,0-0.2,0.1-0.3,0.1c0,0,0,0-0.1,0c0,0-0.1,0-0.1,0.1c-0.1,0-0.1,0.1-0.2,0.1c0,0-0.1,0.1-0.1,0.1c0,0-0.1,0.1-0.1,0.1
							c0,0.1,0,0.1-0.1,0.1c0,0.1-0.1,0.2-0.1,0.3c-0.2,0.1-0.4,0.2-0.6,0.2c0,0-0.1,0-0.1,0c-0.1,0-0.1,0-0.2,0
							c-0.1,0-0.2,0-0.2,0.1c-0.1,0-0.2,0-0.3,0c-0.1,0-0.2,0-0.3,0c-0.1,0-0.2,0-0.3,0c-0.1,0-0.2,0-0.2,0c-0.1,0-0.3,0-0.4,0
							c-0.1,0-0.1,0-0.2,0c-0.1,0-0.1,0-0.2,0c-0.1,0-0.2,0-0.3-0.1h0c-0.1,0-0.2-0.1-0.4-0.1c-0.5-0.1-1-0.3-1.5-0.5
							c-0.5-0.2-1-0.4-1.6-0.7l-0.4-0.2c-0.3-0.2-0.6-0.3-1-0.6c-0.1-0.1-0.2-0.1-0.3-0.2L72,77.9c-0.4-0.3-0.8-0.5-1.2-0.8
							c-0.1-0.1-0.3-0.2-0.4-0.3c-0.5-0.4-1.1-0.8-1.7-1.2c-0.1-0.1-0.3-0.2-0.4-0.3c-0.2-0.1-0.3-0.3-0.5-0.4
							c-0.1-0.1-0.3-0.2-0.5-0.4c-0.3-0.2-0.6-0.5-0.9-0.7c-0.1-0.1-0.2-0.2-0.4-0.3c-0.1-0.1-0.1-0.1-0.2-0.2
							c-0.2-0.1-0.3-0.3-0.5-0.4c-1.3-1.1-2.7-2.3-4.1-3.7c-0.2-0.2-0.3-0.3-0.5-0.5c-0.5-0.5-1.1-1-1.7-1.6
							c-0.3-0.3-0.6-0.6-0.9-0.9c-0.2-0.2-0.4-0.4-0.6-0.6c-0.2-0.2-0.3-0.3-0.5-0.5c-0.1-0.1-0.1-0.1-0.1-0.1
							c-0.2-0.2-0.4-0.4-0.6-0.6c-0.8-0.8-1.5-1.6-2.3-2.4c-0.2-0.3-0.5-0.5-0.8-0.8c-0.8-0.8-1.5-1.6-2.3-2.4
							c-0.2-0.2-0.3-0.4-0.5-0.6c-0.5-0.6-1.1-1.2-1.6-1.8c-0.3-0.4-0.7-0.8-1-1.2c-0.2-0.2-0.4-0.4-0.5-0.6
							c-0.2-0.2-0.4-0.4-0.5-0.6c-0.5-0.6-1-1.2-1.6-1.8c-0.3-0.3-0.6-0.6-0.8-1c-0.2-0.3-0.5-0.5-0.7-0.8c-0.2-0.3-0.5-0.5-0.7-0.8
							c-0.2-0.3-0.5-0.6-0.7-0.8c-0.7-0.8-1.4-1.6-2-2.4c-0.2-0.3-0.5-0.6-0.8-0.9c-0.2-0.3-0.5-0.6-0.8-0.9
							c-0.2-0.3-0.5-0.6-0.8-0.9l-0.1-0.1c-0.3-0.3-0.6-0.7-0.9-1c-0.9-1.1-1.7-2.1-2.6-3.1c-0.3-0.3-0.5-0.6-0.8-1
							c-0.6-0.8-1.3-1.6-1.9-2.3l-0.4-0.4c-0.2-0.2-0.3-0.4-0.5-0.6c-0.2-0.3-0.4-0.5-0.6-0.8l-0.3-0.4c-0.1-0.1-0.2-0.2-0.3-0.4
							c-0.2-0.3-0.5-0.6-0.7-0.9c-0.2-0.3-0.4-0.5-0.6-0.7c0,0-0.1-0.1-0.1-0.1c-0.1-0.1-0.2-0.2-0.2-0.3c-0.1-0.2-0.3-0.3-0.4-0.5
							v0c-0.2-0.2-0.3-0.4-0.5-0.5c-0.1-0.2-0.3-0.3-0.4-0.5c-0.1-0.1-0.1-0.2-0.2-0.2c-0.1-0.1-0.1-0.1-0.2-0.2
							c-0.1-0.1-0.1-0.2-0.2-0.2c0,0,0,0,0,0c-0.1-0.2-0.4-0.7-0.4-0.8v0c0,0,0-0.1,0-0.1c0-0.1,0-0.1,0-0.2c0-0.1,0-0.1,0-0.2
							c0-0.1,0-0.2,0-0.3c0-0.1,0-0.2,0-0.3v-0.1v-0.1c0-0.2,0-0.4-0.1-0.6c0-0.1,0-0.1,0-0.2c0-0.1,0-0.1,0-0.2v0
							c0-0.1,0-0.2,0-0.3c0-0.2,0-0.3,0-0.5v-0.1c0,0,0-0.1,0-0.1c0-0.1,0-0.1,0-0.1c14.8,3.9,28.4,7.8,40.8,11.7
							c5.9,1.9,12.1,4,17.7,6.1c7.6,2.8,15.5,6,22.7,9.2c9,4,18.3,8.7,27.1,13.6c9.6,5.4,19.9,11.8,30,18.7
							c9,6.1,18.6,13.2,27.2,19.8L191,105.2z"/>
					</defs>
					<clipPath id="SVGID_52_">
						<use xlink:href="#SVGID_51_"  style="overflow:visible;"/>
					</clipPath>
					
						<radialGradient id="SVGID_53_" cx="100.149" cy="58.5867" r="17.4976" gradientTransform="matrix(0.8556 3.0235 3.0235 -0.8556 -148.6672 -170.3304)" gradientUnits="userSpaceOnUse">
						<stop  offset="0" style="stop-color:#C2D985"/>
						<stop  offset="1" style="stop-color:#888A8D"/>
					</radialGradient>
					<polygon class="st18" points="178.7,-18.2 212,99.3 37.7,148.6 4.4,31.1 					"/>
				</g>
			</g>
		</g>
		<g class="st14">
			<g>
				<defs>
					<rect id="SVGID_54_" x="25.4" y="0.2" width="165.6" height="105"/>
				</defs>
				<clipPath id="SVGID_55_">
					<use xlink:href="#SVGID_54_"  style="overflow:visible;"/>
				</clipPath>
				<g class="st19">
					<defs>
						<path id="SVGID_56_" d="M147.4,92.5c-1.8,1.8-22.5-5.5-21.7-1.4c-3.1,0.2-20.4-6.6-21.9-3.4c0,4-22.3-12.9-22.7-7.5
							c-0.2,0.1-0.4,0.2-0.6,0.2c-0.2,0.1-0.3,0.1-0.5,0.1c-0.2,0-0.5,0.1-0.7,0.1c-0.1,0-0.2,0-0.3,0c-0.1,0-0.2,0-0.2,0
							c-0.1,0-0.3,0-0.4,0c-0.1,0-0.1,0-0.2,0c-0.2,0-0.4-0.1-0.6-0.1c-0.1,0-0.2-0.1-0.4-0.1c-0.9-0.2-2-0.6-3-1.2l-0.4-0.2
							c-0.4-0.2-0.9-0.5-1.3-0.8L72,77.9c-0.4-0.3-0.8-0.5-1.2-0.8c-0.1-0.1-0.3-0.2-0.4-0.3c-0.5-0.4-1.1-0.8-1.7-1.2
							c-0.1-0.1-0.3-0.2-0.4-0.3c-0.2-0.1-0.3-0.3-0.5-0.4c-0.1-0.1-0.3-0.2-0.5-0.4c-0.3-0.2-0.6-0.5-0.9-0.7
							c-0.1-0.1-0.2-0.2-0.4-0.3c-0.1-0.1-0.1-0.1-0.2-0.2c-0.2-0.1-0.3-0.3-0.5-0.4c-1.3-1.1-2.7-2.3-4.1-3.7
							c-0.2-0.2-0.3-0.3-0.5-0.5c-0.5-0.5-1.1-1-1.7-1.6c-0.3-0.3-0.6-0.6-0.9-0.9c-0.2-0.2-0.4-0.4-0.6-0.6
							c-0.2-0.2-0.3-0.3-0.5-0.5c-2-2.1-4.1-4.2-6.1-6.4c-0.2-0.2-0.3-0.4-0.5-0.6c-0.9-1-1.8-2-2.7-3c-0.2-0.2-0.4-0.4-0.5-0.6
							c-3-3.4-5.9-6.8-8.6-10c-0.2-0.3-0.5-0.6-0.8-0.9c-2.7-3.2-5.1-6.1-7-8.6c-0.2-0.3-0.4-0.5-0.6-0.8l-0.3-0.4
							c-0.1-0.1-0.2-0.2-0.3-0.4c-0.5-0.6-0.9-1.2-1.4-1.7c-0.1-0.1-0.2-0.2-0.2-0.3c-0.6-0.7-1.1-1.3-1.5-1.8
							c-0.1-0.2-0.2-0.3-0.4-0.4c0,0,0,0,0,0c-0.1-0.2-0.4-0.7-0.4-0.8v0c0,0,0-0.1,0-0.1c0-0.1,0-0.1,0-0.2c0-0.1,0-0.3,0-0.5
							c0-0.1,0-0.2,0-0.3v-0.1l-0.1-0.7c0-0.1,0-0.1,0-0.2c0-0.1,0-0.1,0-0.2v0c0-0.1,0-0.2,0-0.3c0-0.2,0-0.3,0-0.5v-0.1
							c0-0.1,0-0.2,0-0.2c0.1-0.1,0.1-0.1,0.2-0.1c0.3-0.3,50.5-39,90.6-19.2c4.3-1.1,14.6,12,25.4,17.2c3.6,0.5,11,15.9,17.6,18.8
							c3.3,0.4,6.8,18.3,10.6,21.1c4.1,1.3,0.9,5.1,12.9,21.8c0.1,0.1,4.2,12.7,8.2,19.6l-0.1,0l0,0l0.3,0.9
							c-8.9-4.5-22.1-12.5-22.2-9.3C167.9,98,146.4,87.9,147.4,92.5"/>
					</defs>
					<clipPath id="SVGID_57_">
						<use xlink:href="#SVGID_56_"  style="overflow:visible;"/>
					</clipPath>
					
						<linearGradient id="SVGID_58_" gradientUnits="userSpaceOnUse" x1="69.7599" y1="52.185" x2="87.2574" y2="52.185" gradientTransform="matrix(-2.9596 -2.157 -2.157 2.9596 485.9052 84.462)">
						<stop  offset="0" style="stop-color:#F4F4F4"/>
						<stop  offset="0.1309" style="stop-color:#F0F1EE"/>
						<stop  offset="0.308" style="stop-color:#E3E7DD"/>
						<stop  offset="0.5114" style="stop-color:#CFD7C0"/>
						<stop  offset="0.7345" style="stop-color:#B3C199"/>
						<stop  offset="0.9713" style="stop-color:#8FA667"/>
						<stop  offset="1" style="stop-color:#8AA260"/>
					</linearGradient>
					<polygon class="st20" points="133.5,184.1 -31.3,63.9 82.8,-92.8 247.7,27.4 					"/>
				</g>
			</g>
		</g>
		<g class="st21">
			<g>
				<defs>
					<rect id="SVGID_59_" x="25.4" y="0.2" width="165.6" height="105"/>
				</defs>
				<clipPath id="SVGID_60_">
					<use xlink:href="#SVGID_59_"  style="overflow:visible;"/>
				</clipPath>
				<g class="st22">
					<defs>
						<path id="SVGID_61_" d="M191,105.2c-0.2-0.1-0.4-0.2-0.7-0.3c-0.3-0.2-0.6-0.3-0.9-0.4c-0.4-0.2-0.8-0.4-1.2-0.6
							c-0.4-0.2-0.8-0.4-1.2-0.6c-0.3-0.1-0.5-0.3-0.8-0.4c-4.7-2.5-9.8-5.3-13.2-6.7c-0.1,0-0.2-0.1-0.3-0.1
							c-0.6-0.2-1.1-0.4-1.6-0.6c-0.1,0-0.1,0-0.2-0.1l-0.2-0.1c-0.3-0.1-0.5-0.1-0.7-0.1c-0.1,0-0.1,0-0.2,0c-0.1,0-0.2,0-0.3,0
							c0,0-0.1,0-0.1,0c-0.1,0-0.1,0-0.1,0h0c-0.2,0-0.3,0.1-0.4,0.2c0,0-0.1,0.1-0.1,0.1c0,0,0,0,0,0c0,0,0,0.1-0.1,0.1
							c0,0,0,0,0,0v0c0,0,0,0.1,0,0.1c0,0.1,0,0.1,0,0.2c0,0,0,0.1,0,0.1c-0.1,0.1-0.2,0.1-0.4,0.2h0c-0.1,0-0.1,0-0.2,0
							c0,0-0.1,0-0.1,0h0c-0.1,0-0.2,0-0.3,0c-0.1,0-0.1,0-0.2,0c-0.1,0-0.3,0-0.4-0.1c-0.3-0.1-0.7-0.1-1-0.2
							c-0.1,0-0.2-0.1-0.3-0.1c0,0,0,0,0,0c-0.2,0-0.4-0.1-0.6-0.1c-0.3-0.1-0.7-0.2-1-0.3c-0.2-0.1-0.4-0.1-0.7-0.2
							c-1.6-0.5-3.4-1.1-5.2-1.6c-0.1,0-0.3-0.1-0.4-0.1c-0.2-0.1-0.5-0.1-0.8-0.2l-0.5-0.2c-0.1,0-0.3-0.1-0.4-0.1
							c-0.2-0.1-0.4-0.1-0.6-0.2c-0.5-0.2-1-0.3-1.4-0.4c-0.2-0.1-0.5-0.1-0.7-0.2c-0.2-0.1-0.5-0.1-0.7-0.2
							c-0.2-0.1-0.4-0.1-0.6-0.1c-0.2-0.1-0.4-0.1-0.6-0.2c-0.5-0.1-0.9-0.2-1.4-0.2c-0.1,0-0.3,0-0.4-0.1c0,0-0.1,0-0.1,0
							c-0.1,0-0.1,0-0.2,0c-0.1,0-0.2,0-0.3,0h-0.2c-0.1,0-0.1,0-0.2,0h-0.1c-0.1,0-0.1,0-0.1,0c-0.1,0-0.2,0-0.3,0.1
							c-0.1,0-0.1,0-0.1,0c-0.1,0-0.1,0-0.2,0.1c-0.1,0-0.1,0.1-0.2,0.1c0,0-0.1,0.1-0.1,0.1c0,0,0,0,0,0c0,0-0.1,0.1-0.1,0.1
							c0,0.1-0.1,0.1-0.1,0.2c0,0,0,0,0,0.1c0,0,0,0,0,0v0c0,0,0,0.1,0,0.1v0v0.1c0,0.1,0,0.1,0,0.2c-0.1,0.1-0.3,0.2-0.5,0.2l0,0
							c-0.1,0-0.1,0-0.2,0c-0.1,0-0.2,0-0.3,0c-0.4,0-0.9,0-1.6-0.1c-0.3,0-0.6-0.1-0.9-0.1c-0.1,0-0.3,0-0.4-0.1
							c-0.1,0-0.2,0-0.3-0.1c-0.1,0-0.2,0-0.3-0.1c-0.2,0-0.4-0.1-0.7-0.1c-1.6-0.3-3.5-0.7-5.4-1.1c-0.3-0.1-0.5-0.1-0.8-0.2
							c-0.4-0.1-0.8-0.2-1.2-0.2c-0.9-0.2-1.9-0.4-2.7-0.5c-0.2,0-0.4-0.1-0.6-0.1c-0.5-0.1-1-0.1-1.4-0.2c-0.1,0-0.2,0-0.3,0
							c-0.8-0.1-1.4-0.1-2-0.1c-0.1,0-0.2,0-0.2,0c0,0-0.1,0-0.1,0c-0.2,0-0.4,0-0.6,0.1l0,0c-0.1,0-0.3,0.1-0.4,0.1
							c-0.1,0-0.1,0.1-0.2,0.1c0,0-0.1,0-0.1,0.1c-0.1,0-0.1,0.1-0.1,0.1l-0.1,0c-0.1,0.1-0.1,0.1-0.1,0.2c0,0,0,0,0,0.1
							c0,0,0,0.1,0,0.1c0,0.1,0,0.3,0,0.4c-0.1,0-0.2,0-0.3,0c-0.1,0-0.1,0-0.2,0c-0.1,0-0.2,0-0.4,0c-0.4-0.1-0.8-0.2-1.3-0.3
							l-0.5-0.1c-0.9-0.2-1.9-0.5-3-0.8c-0.2-0.1-0.5-0.1-0.8-0.2c-1.6-0.5-3.4-1-5.1-1.4c-0.1,0-0.1,0-0.1,0
							c-0.5-0.1-1-0.2-1.5-0.4c-0.2,0-0.4-0.1-0.6-0.1l-0.5-0.1c-0.2-0.1-0.5-0.1-0.7-0.2c-1.6-0.4-3.1-0.6-4.3-0.6
							c-0.1,0-0.2,0-0.2,0c-0.2,0-0.3,0-0.5,0c-0.1,0-0.1,0-0.2,0c-0.2,0-0.4,0.1-0.6,0.1c-0.1,0-0.1,0-0.2,0c0,0,0,0,0,0
							c-0.1,0-0.2,0.1-0.3,0.1c0,0,0,0,0,0c-0.1,0-0.1,0.1-0.2,0.1l-0.1,0c-0.1,0-0.1,0.1-0.2,0.1c0,0.1-0.1,0.1-0.1,0.2
							c-0.1,0.1-0.1,0.1-0.1,0.2c0,0.2-0.1,0.3-0.1,0.4c0,0-0.1,0.1-0.1,0.1c-0.1,0.1-0.2,0.1-0.3,0.1c0,0-0.1,0-0.2,0
							c-0.2,0-0.3,0-0.5-0.1c-0.3-0.1-0.6-0.2-1-0.3s-0.7-0.3-1.1-0.5c-0.2-0.1-0.5-0.2-0.7-0.3c-0.2-0.1-0.4-0.2-0.5-0.3
							c-1.9-0.9-4.3-2.3-6.7-3.5l-0.1-0.1c-0.2-0.1-0.5-0.3-0.8-0.4c-0.1-0.1-0.3-0.2-0.5-0.2c-0.3-0.1-0.5-0.3-0.7-0.4
							c-2.8-1.5-5.5-2.8-7.2-3.1c-0.1,0-0.2,0-0.2,0c-0.1,0-0.2,0-0.3,0c-0.1,0-0.1,0-0.2,0h0c-0.1,0-0.1,0-0.2,0
							c-0.1,0-0.1,0-0.2,0c0,0,0,0-0.1,0l-0.2,0c-0.1,0-0.2,0.1-0.3,0.1c0,0,0,0-0.1,0c0,0-0.1,0-0.1,0.1c-0.1,0-0.1,0.1-0.2,0.1
							c0,0-0.1,0.1-0.1,0.1c0,0-0.1,0.1-0.1,0.1c0,0.1,0,0.1-0.1,0.1c0,0.1-0.1,0.2-0.1,0.3c-0.2,0.1-0.4,0.2-0.6,0.2
							c0,0-0.1,0-0.1,0c-0.1,0-0.1,0-0.2,0c-0.1,0-0.2,0-0.2,0.1c-0.1,0-0.2,0-0.3,0c-0.1,0-0.2,0-0.3,0c-0.1,0-0.2,0-0.3,0
							c-0.1,0-0.2,0-0.2,0c-0.1,0-0.3,0-0.4,0c-0.1,0-0.1,0-0.2,0c-0.1,0-0.1,0-0.2,0c-0.1,0-0.2,0-0.3-0.1h0
							c-0.1,0-0.2-0.1-0.4-0.1c-0.5-0.1-1-0.3-1.5-0.5c-0.5-0.2-1-0.4-1.6-0.7l-0.4-0.2c-0.3-0.2-0.6-0.3-1-0.6
							c-0.1-0.1-0.2-0.1-0.3-0.2L72,77.9c-0.4-0.3-0.8-0.5-1.2-0.8c-0.1-0.1-0.3-0.2-0.4-0.3c-0.5-0.4-1.1-0.8-1.7-1.2
							c-0.1-0.1-0.3-0.2-0.4-0.3c-0.2-0.1-0.3-0.3-0.5-0.4c-0.1-0.1-0.3-0.2-0.5-0.4c-0.3-0.2-0.6-0.5-0.9-0.7
							c-0.1-0.1-0.2-0.2-0.4-0.3c-0.1-0.1-0.1-0.1-0.2-0.2c-0.2-0.1-0.3-0.3-0.5-0.4c-1.3-1.1-2.7-2.3-4.1-3.7
							c-0.2-0.2-0.3-0.3-0.5-0.5c-0.5-0.5-1.1-1-1.7-1.6c-0.3-0.3-0.6-0.6-0.9-0.9c-0.2-0.2-0.4-0.4-0.6-0.6
							c-0.2-0.2-0.3-0.3-0.5-0.5c-0.1-0.1-0.1-0.1-0.1-0.1c-0.2-0.2-0.4-0.4-0.6-0.6c-0.8-0.8-1.5-1.6-2.3-2.4
							c-0.2-0.3-0.5-0.5-0.8-0.8c-0.8-0.8-1.5-1.6-2.3-2.4c-0.2-0.2-0.3-0.4-0.5-0.6c-0.5-0.6-1.1-1.2-1.6-1.8
							c-0.3-0.4-0.7-0.8-1-1.2c-0.2-0.2-0.4-0.4-0.5-0.6c-0.2-0.2-0.4-0.4-0.5-0.6c-0.5-0.6-1-1.2-1.6-1.8c-0.3-0.3-0.6-0.6-0.8-1
							c-0.2-0.3-0.5-0.5-0.7-0.8c-0.2-0.3-0.5-0.5-0.7-0.8c-0.2-0.3-0.5-0.5-0.7-0.8c-0.7-0.8-1.4-1.6-2-2.4
							c-0.2-0.3-0.5-0.6-0.8-0.9c-0.2-0.3-0.5-0.6-0.8-0.9c-0.2-0.3-0.5-0.6-0.8-0.9l-0.1-0.1c-0.3-0.3-0.6-0.7-0.9-1
							c-0.9-1.1-1.7-2.1-2.6-3.1c-0.3-0.3-0.5-0.6-0.8-1c-0.6-0.8-1.3-1.6-1.9-2.3l-0.4-0.4c-0.2-0.2-0.3-0.4-0.5-0.6
							c-0.2-0.3-0.4-0.5-0.6-0.8l-0.3-0.4c-0.1-0.1-0.2-0.2-0.3-0.4c-0.2-0.3-0.5-0.6-0.7-0.9c-0.2-0.3-0.4-0.5-0.6-0.7
							c0,0-0.1-0.1-0.1-0.1c-0.1-0.1-0.2-0.2-0.2-0.3c-0.1-0.2-0.3-0.3-0.4-0.5v0c-0.1-0.1-0.2-0.2-0.2-0.3
							c-0.1-0.1-0.2-0.2-0.2-0.3c-0.1-0.1-0.1-0.2-0.2-0.3c-0.1-0.1-0.1-0.1-0.2-0.2c-0.1-0.1-0.1-0.2-0.2-0.2
							c-0.1-0.1-0.1-0.1-0.2-0.2c-0.1-0.1-0.1-0.1-0.2-0.2c0,0,0,0,0-0.1c0,0,0,0,0,0c-0.1-0.2-0.4-0.7-0.4-0.8v0c0,0,0-0.1,0-0.1
							c0-0.1,0-0.1,0-0.2c0-0.1,0-0.1,0-0.2c0-0.1,0-0.2,0-0.3c0-0.1,0-0.2,0-0.3v-0.1v-0.1c0-0.2,0-0.4-0.1-0.6c0-0.1,0-0.1,0-0.2
							c0-0.1,0-0.1,0-0.2v0c0-0.1,0-0.2,0-0.3c0-0.2,0-0.3,0-0.5v-0.1c0,0,0-0.1,0-0.1c0-0.1,0-0.1,0-0.1c0.1-0.1,0.1-0.1,0.2-0.1
							c0.3-0.3,50.5-39,90.6-19.2c4.3-1.1,14.6,12,25.4,17.2c3.6,0.5,11,15.9,17.6,18.8c3.3,0.4,6.8,18.3,10.6,21.1
							c4.1,1.3,0.9,5.1,12.9,21.8c0.1,0.1,4.2,12.7,8.2,19.6l-0.1,0l0,0L191,105.2z"/>
					</defs>
					<clipPath id="SVGID_62_">
						<use xlink:href="#SVGID_61_"  style="overflow:visible;"/>
					</clipPath>
					
						<linearGradient id="SVGID_63_" gradientUnits="userSpaceOnUse" x1="77.9027" y1="54.256" x2="95.4003" y2="54.256" gradientTransform="matrix(-7.1042 -2.6551 -2.6551 7.1042 888.3008 -102.0653)">
						<stop  offset="0" style="stop-color:#8AA260"/>
						<stop  offset="2.891570e-02" style="stop-color:#859B5C"/>
						<stop  offset="0.2656" style="stop-color:#5C6941"/>
						<stop  offset="0.4886" style="stop-color:#3D422C"/>
						<stop  offset="0.6921" style="stop-color:#26251D"/>
						<stop  offset="0.8691" style="stop-color:#181413"/>
						<stop  offset="1" style="stop-color:#130E10"/>
					</linearGradient>
					<polygon class="st23" points="170.7,159.6 -13.7,90.6 45.7,-68.2 230.1,0.7 					"/>
				</g>
			</g>
		</g>
	</g>
	<g class="st0">
		<defs>
			<path id="SVGID_64_" d="M0.7,23.9c34.8,8.1,97.1,11.1,190,80.4C114,44.3,71.8,36.1,1.7,19.8C-0.4,21-0.3,22.1,0.7,23.9"/>
		</defs>
		<clipPath id="SVGID_65_">
			<use xlink:href="#SVGID_64_"  style="overflow:visible;"/>
		</clipPath>
		
			<linearGradient id="SVGID_66_" gradientUnits="userSpaceOnUse" x1="81.4285" y1="56.3527" x2="98.9261" y2="56.3527" gradientTransform="matrix(-10.8075 -4.7924 -4.7924 10.8075 1340.7957 -114.4003)">
			<stop  offset="0" style="stop-color:#78AC3F"/>
			<stop  offset="1" style="stop-color:#4A7621"/>
		</linearGradient>
		<polygon class="st24" points="159.3,175.1 -31.7,90.4 31,-51 222.1,33.7 		"/>
	</g>
</g>
</svg>
