<?xml version="1.0" encoding="utf-8"?>
<!-- Generator: Adobe Illustrator 24.1.3, SVG Export Plug-In . SVG Version: 6.00 Build 0)  -->
<svg version="1.1" id="Layer_1" xmlns="http://www.w3.org/2000/svg" xmlns:xlink="http://www.w3.org/1999/xlink" x="0px" y="0px"
	 viewBox="0 0 1534 1007" style="enable-background:new 0 0 1534 1007;" xml:space="preserve">
<style type="text/css">
	.st0{fill:#C8C8A8;}
	.st1{fill:#F8F8F5;}
	.st2{fill:#FDFDFD;}
</style>
<path class="st0" d="M1070.96,0.1c25,0,49.99,0,74.99,0c0.33,0,0.67,0,1,0c28,0,55.99,0,83.99,0c5.74,1.73,11.54,2.65,17.57,3.19
	c12.47,1.13,24.69-1.66,37.29-0.6c23.98,2.02,48.15-0.04,72.26,0.29c36.65,0.51,73.32,0.01,109.97,0.19
	c18.84,0.09,37.88-2.09,56.27,4.45c2.16,0.77,3.35,1.15,3.61,3.68c0.7,6.71,2.24,13.15-1.26,19.91c-1.19,2.3-1.53,4.62-4.16,5.68
	c-1.09,0.44-3.03-0.19-2.71,2c0.25,1.71,1.72,1.97,3.07,1.88c3.49-0.23,4.11,1.71,4.12,4.65c0.02,3,0.1,5.91-0.69,8.89
	c-1.27,4.78,0.97,9.26,1.54,13.86c0.73,5.87,0.87,11.85,2.15,17.7c0.39,1.8,0.38,3.6-0.66,5.31c-2.76,4.53-3.8,9.43-3.45,14.75
	c0.33,4.98,0.66,9.61,2.57,14.59c2.48,6.47,3.03,13.89,2.53,21.14c-0.43,6.1-0.23,12.25-0.71,18.35
	c-0.44,5.54,1.07,10.92,0.74,16.47c-0.36,6.14-0.08,12.33-0.08,18.49c0,8.62,0,17.24,0,25.86c0,21.83,0.11,43.66-0.08,65.48
	c-0.05,5.91-0.3,11.82-2.48,17.61c-1.22,3.25-1.64,7.64,0.39,10.65c1.88,2.79,2.17,5.42,2.17,8.4c0,24.83,0.15,49.65-0.06,74.48
	c-0.1,12.12-0.84,24.23-1.81,36.33c-0.18,2.2-3.01,3.93-1.94,4.79c3.27,2.65,1.79,5.89,1.71,8.74c-0.27,10.13-0.01,20.28-0.16,30.4
	c-0.21,13.78,0.42,27.62,0.1,41.41c-0.14,5.87,1.48,11.49,1.24,17.23c-0.51,12.52-3.59,24.93-0.22,37.58
	c2.55,9.58,1.05,19.51,0.62,29.27c-0.12,2.83,1.49,6.31-1.64,8.68c4.95,9.61,1.56,19.84,1.97,29.75
	c0.67,15.92,0.32,31.89,0.11,47.84c-0.08,5.79,1.32,11.14,3.08,16.51c0,30.99,0,61.99,0,92.98c-1.89,0.35-4.88-1.06-4.9,2.46
	c-0.04,5.96-0.98,12.03,0.46,17.86c1.8,7.32,2.86,14.64,2.45,22.16c-0.25,4.61-0.36,9.22-0.67,13.82c-0.18,2.6,1.46,5.61-1.5,7.68
	c3.45,1.13,2.08,4.03,2.11,6.23c0.13,9.14,0.02,18.27,0.09,27.41c0.01,1.64-0.82,3.88,1.97,4.35c0,9.33,0,18.66,0,27.99
	c-1.35,0.06-2.33,0.18-3.05,1.83c-1.34,3.04,0.12,6.36-0.9,9.04c-2.71,7.08-0.37,14.16-0.75,21.21c-0.16,2.84,1.2,5.7-3.14,6.18
	c-0.72,0.08-1.27,1.07-0.93,1.5c2.41,3.03,4.53,5.97,0.52,9.33c-0.04,0.04,0.09,0.3,0.16,0.45c2.71,6.06,0.39,12.12-0.02,18.18
	c-0.09,1.31-0.61,2.29-2,2.44c-10.64,1.14-20.54,6.67-31.74,4.98c-3.55-0.54-5.72-0.84-5.2-5.02c0.16-1.3,0.62-3.41-1.75-3.35
	c-2.15,0.06-1.74,2.01-1.93,3.44c-0.19,1.4,0.27,3.61-1.82,3.48c-3.62-0.22-7.21,1.32-10.86-0.08c-3.19-1.22-6.9-1.41-9.83-0.3
	c-5.5,2.08-11.16,2.01-16.74,2.44c-6.09,0.47-12.03-0.79-18.12-2.11c-6.57-1.43-13.9-2.22-20.87,1.19
	c-4.16,2.03-9.52,1.28-13.66-0.19c-8.39-2.97-16.77-1.38-25.12-1.49c-14.46-0.2-28.7,3.02-43.24,3.01
	c-13.62-0.01-27.17-1.45-40.78-1.21c-8.83,0.16-17.66,0.01-26.5,0.04c-2.35,0.01-4.77,0.37-6.25-2.12
	c-2.09,3.61-5.53,1.31-8.19,1.54c-8.25,0.71-16.64,1.39-24.84,0.17c-4.27-0.64-7.5-1.21-9.43,3.4c-30,0-59.99,0-89.99,0
	c-0.33,0-0.67,0-1,0c-0.67,0-1.33,0-2,0c-0.67-0.94-1.71-1.08-2.68-0.96c-11,1.31-21.72-3.19-32.86-1.21
	c-5.49,0.98-11.29,0.2-16.96,0.16c-5.64-0.03-11.28-0.18-16.93-0.18c-5.82,0-11.63,0.15-17.45,0.18c-5.66,0.03-11.4-0.56-16.96,0.17
	c-5.13,0.67-9.89-1.02-15.02-0.79c-18.51,0.83-37.08,0.22-55.62,0.71c-15.95,0.42-31.81-1.44-47.75-1.14
	c-12.79,0.24-25.6-0.01-38.4-0.05c-7.64-0.02-15.34,0.49-22.9-0.31c-4.2-0.45-7.3-0.58-9.44,3.42c-30,0-59.99,0-89.99,0
	c-0.33,0-0.67,0-1,0c-0.67,0-1.33,0-2,0c-0.73-0.32-1.53-1.03-2.18-0.91c-10.48,1.92-20.49-2.93-31.23-1.46
	c-11.77,1.61-23.93,0.37-35.92,0.37c-33.15,0-66.31-0.12-99.46,0.17c-3.72,0.03-6.96-1.9-11.07-0.77
	c-4.79,1.31-10.2,0.11-15.27,0.68c-12.47,1.41-24.28-3.83-36.66-3.26c-6.56,0.3-13.34-2-19.55,2.12c-0.93,0.62-2.66,0.42-3.9,0.1
	c-10.42-2.71-21.25-1.59-31.75-3.53c-0.58-0.11-1.32,0.13-1.86,0.44c-4.84,2.81-9.85,3.02-14.92,0.85c-2.84-1.22-5.54-0.55-8.3,0.06
	c-1.64,0.36-2.37,2.34-4.27,2.36c-7.57,0.1-15.14,1.37-22.7,0.45c-3.08-0.37-7.05-0.15-7.32-5.03c-0.05-0.86-0.84-1.58-1.75-1.46
	c-5.75,0.74-13.25-0.39-16.8,2.83c-5.09,4.61-9.61,3.76-14.43,2.67c-9.97-2.26-19.96-1.73-29.99-1.52
	c-12.47,0.26-24.71,3.17-37.24,2.88c-22.64-0.52-45.29,0.58-67.93-0.56c-5.95-0.3-11.95,0.39-17.92,0.49
	c-5.83,0.1-11.72-0.48-17.48,0.17c-5.44,0.61-10.54-1.8-16.03-0.66c-4.13,0.85-8.53,0.4-12.81,0.47c-8.82,0.15-17.7,0.67-26.21-2.4
	c-9.37-3.38-18.94-1.43-28.44-1.27c-0.56,0.01-1.26,0.55-1.65,1.03c-2.07,2.57-4.62,2.11-7.3,1.37c-6.18-1.7-12.57-1.95-18.89-2.72
	c-10.33-1.27-20.64,0.65-30.95,0.05c-2.51-0.15-4.88,0.3-7.29,1.23c-6.08,2.34-12.38,0.77-18.12-0.84
	c-3.39-0.95-1.26-6.34-2.81-9.41c-0.37-0.73-0.39-1.62-0.7-2.39c-4.78-11.79-3.35-23.99-2.25-36.12c0.3-3.33,1.27-6.96,0.07-9.86
	c-2.31-5.57-2.26-11.34-2.52-17c-0.69-15.12-0.16-30.27,1.02-45.35c0.48-6.08-2.84-12.67,2.03-18.26c-3.24-2.35-1.42-5.82-1.63-8.68
	c-0.61-8.27-1.35-16.65-0.13-24.84c0.64-4.27,1.21-7.5-3.41-9.43c0-29.99,0-59.99,0-89.98c0-0.33,0-0.67,0-1c0-0.67,0-1.33,0-2
	c1.11-0.82,0.99-2.04,0.99-3.19c-0.01-8.14-0.48-16.34,3.21-23.98c0.34-0.7,0.37-1.36-0.35-1.65c-2.89-1.17-1.83-3.69-1.78-5.63
	c0.31-11.13,0.14-22.28,0.22-33.4c0.11-13.95-0.08-27.94-0.3-41.92c-0.04-2.23-0.12-4.4,2.13-5.75c-3.6-2.09-1.4-5.55-1.54-8.18
	c-0.61-11.41-0.61-22.71,1.35-34.2c1.81-10.6,3.46-21.8-0.93-32.52c-0.35-0.86-0.4-2.05-0.13-2.95c3.2-10.89,1.71-22.06,2.15-33.11
	c0.33-8.23,1.26-16.54-0.21-24.66c-1.63-8.98-0.87-17.44,3.17-25.56c0.76-1.54,0.88-2.07-0.8-2.99c-3.78-2.06-3.76-3.54,0.02-6.02
	c1.05-0.69,2.03-1.24,2.04-2.52c0.01-1.83-1.58-1.29-2.61-1.5c-1.17-0.24-2.57-0.37-2.41-1.93c0.41-4.05-1.64-8.25,0.94-12.17
	c1.72-2.61,1.24-6.01,0.26-8.2c-1.47-3.28-1.7-6.42-2.37-9.62c-1.14-5.48-0.57-10.73-0.74-16.01c-0.1-3.42-0.51-8.12,5.13-8.74
	c1.15-0.13,1.75-1.36,1.38-2.29c-2.36-6.05,1.56-14.08-5.86-18.57c-0.48-0.29-0.6-1.5-0.56-2.26c0.14-3.15-0.07-6.42,0.72-9.41
	c2.56-9.73,1.97-19.57,1.77-29.43c-0.26-12.97-3.25-25.7-2.94-38.73c0.53-22.47-0.56-44.95,0.56-67.42
	c0.3-5.95-0.39-11.94-0.49-17.92c-0.1-5.83,0.33-11.69-0.12-17.49c-0.42-5.39,1.26-10.6,0.57-16c-0.54-4.22-0.35-8.55-0.42-12.83
	c-0.14-8.49-0.28-16.92,2-25.28c3.01-10.99,4.54-22.07-0.9-32.94c-0.54-1.07-0.48-2.68-0.16-3.9c2.58-9.97,3.72-20.16,3.47-30.36
	c-0.19-8.14,0.17-16.34-0.71-24.41c-0.46-4.2-2.2-8.26-1.88-12.68C4.66,9.42,4.89,8.99,13.69,7c4.98-1.13,9.34-3.99,14.79-3.98
	c57.59,0.15,115.18,0.11,172.78,0.09c14.16,0,28.35-0.67,42.47,0.05c6.64,0.34,13.21-4.92,19.76-0.1
	c12.9-0.41,26.01,1.82,38.57-2.97c28,0,55.99,0,83.99,0c0.33,0,0.67,0,1,0c25,0,49.99,0,74.99,0c1.67,1.3,3.76,1.05,5.65,1.52
	c6.27,1.56,12.75-0.01,19.09,1.36c3.46,0.75,7.17,1.93,10.48-1.58c1.4-1.48,4.07-0.52,5.56,3.18c0.12-2.52,0.17-3.5,0.21-4.48
	c8.67,0,17.33,0,26,0c1.07,5.57,5.14,5.99,9.75,5.94c4.65-0.05,9.15,0.05,10.25-5.94c8.33,0,16.66,0,25,0
	c0.53,1.11,1.05,2.23,1.82,3.84c0.89-3.56,3.73-3.82,5.03-2.54c4.5,4.4,9.26,1.15,13.88,1.16c1.96,0,3.94-0.47,5.88-0.35
	c5.29,0.34,10.41-0.29,15.39-2.11c25,0,49.99,0,74.99,0c0.33,0,0.67,0,1,0c49.66,0,99.32,0,148.98,0c0.33,0,0.67,0,1,0
	c25,0,49.99,0,74.99,0c1.67,1.3,3.76,1.05,5.65,1.52c6.27,1.56,12.75-0.01,19.09,1.36c3.46,0.75,7.17,1.93,10.48-1.58
	c1.4-1.48,4.07-0.52,5.56,3.18c0.12-2.52,0.17-3.5,0.21-4.48c8.67,0,17.33,0,26,0c1.14,5.41,4.98,6.22,9.74,6.06
	c4.65-0.15,9.1-0.19,10.26-6.06c8.33,0,16.66,0,25,0c0.53,1.11,1.05,2.23,1.82,3.84c0.89-3.56,3.73-3.81,5.03-2.54
	c4.5,4.41,9.26,1.15,13.88,1.16c1.96,0.01,3.93-0.47,5.88-0.35C1060.86,2.55,1065.98,1.91,1070.96,0.1z"/>
<path class="st1" d="M-1279.96-16.9c-0.33,0-0.67,0-1,0C-1280.62-16.9-1280.29-16.9-1279.96-16.9z"/>
<path class="st1" d="M-974.99-16.9c-0.33,0-0.67,0-1,0C-975.66-16.9-975.33-16.9-974.99-16.9z"/>
<path class="st1" d="M-825.01-16.9c-0.33,0-0.67,0-1,0C-825.68-16.9-825.35-16.9-825.01-16.9z"/>
<path class="st1" d="M-520.05-16.9c-0.33,0-0.67,0-1,0C-520.72-16.9-520.39-16.9-520.05-16.9z"/>
<path class="st2" d="M-1666.91,711.96c0,0.33,0,0.67,0,1C-1666.91,712.62-1666.91,712.29-1666.91,711.96z"/>
<path class="st2" d="M-937,989.9c0.33,0,0.67,0,1,0C-936.33,989.9-936.67,989.9-937,989.9z"/>
<path class="st2" d="M-551.05,989.9c0.33,0,0.67,0,1,0C-550.38,989.9-550.72,989.9-551.05,989.9z"/>
</svg>
