<svg xmlns="http://www.w3.org/2000/svg" width="534.528" height="669.97" viewBox="0 0 534.528 669.97">
  <defs>
    <style>
      .cls-1 {
        fill: #5ca133;
        fill-rule: evenodd;
      }
    </style>
  </defs>
  <path id="map-info-bg" class="cls-1" d="M1169.46,3094.34a16.786,16.786,0,0,0,1.68-.12C1170.44,3094.25,1169.89,3094.29,1169.46,3094.34Zm-155.16,3.14s-0.05.05-.1,0.11A0.15,0.15,0,0,0,1014.3,3097.48ZM774.922,3217.15c-0.017-.6-0.049-1.17-0.114-1.68C774.831,3216.17,774.87,3216.72,774.922,3217.15Zm527.578,49.63c0.06-.3.12-0.65,0.19-1.07C1302.62,3266.07,1302.57,3266.43,1302.5,3266.78Zm1.02,325.57h-0.03C1303.5,3592.4,1303.51,3592.39,1303.52,3592.35Zm4.84-295.88c-0.3-4.34-2.25-12.37-2.77-10.74-0.03,1.75-.48,4.48-1.25,4.61l-0.4-3.97a10.088,10.088,0,0,1-1.04-.44v-3.17h-0.99a61.968,61.968,0,0,1,.59-15.98,2.3,2.3,0,0,1-.44,1.24c1.63-22.3,2.47-45.95,5.05-67.95,0.52-6.25-.63-6.93-1.5-10.75l1.47-1.35-1.7-6.53c-1.24-9.25,3.62-16.02,1.27-27.74l-1,1.51c0.19-4.2-.58-13.32.56-12.62a3.5,3.5,0,0,1-.52-3.03l0.78-.12-1.32-10.34c0.55-8.01,3.05,1.25,3.21-10.44-0.3-4.34-2.25-12.37-2.77-10.74-0.03,1.75-.48,4.48-1.25,4.61l-0.31-3.1,1.56-1.51,1.16-14.7-20.04,2.53c-0.03-1.91-5.83,2.67-5.86.79-1.33.04-2.63,0.08-3.93,0.11-0.57,0-1.14-.01-1.71-0.02l-1.39-.07a19.455,19.455,0,0,1-4.83-1.02c-3.25,1.14,6.68.8,3.77,2.13-5.66-.22-11.55-2.55-13.33-2.55-7.75-.9-7.23,2.37-15.34,1.75,1.04,0.58,2.02,2.13-4.04,2.67-5.67-.21-6.96-2.43-3.39-2.89,1.36-.05,2.02.13,1.96,0.33,1.83-.21,4.23-0.46,1.99-1.09l-0.74.58c-2.81-.59-10.6-0.53-8.77-1.48-3.67.48-2.38,0.84,0.06,1.12-6.49-.61-10.52.07-17.54-0.45,1.19,0.31,2.28,1,1.1.99-10.96-.72-4.83,1.1-12.26,1.35-4.22-.88,1.52-2.11-5.96-1.37-4.57-.59-0.97-1.53.84-2-6.81,1.11-12.73-.74-16.62-0.94l3.59-.47a41.136,41.136,0,0,1-5.69.27l2.05,1.15c-2.11-.2-3.89-0.2-3.86-0.69-2.17.76,1.67,1.93-2.64,2.97-2.81-.59-8.56.63-9.53-0.91,8.01,0.48.71-1.18,4.82-1.67a29.5,29.5,0,0,1-3.63-.14c-0.32-.18.3-0.32,0.87-0.41-8.45-1.38-3.88,1.74-12.64,1.7,1.11-.86-2.04-1.64-3.47-1.46,3.54,0.02,1.69,1.45-1.55,2.11-5.61-.67-6.1.5-9.05,0.43l3.36,0.31c-1.13.87-3.94,0.75-7.86,1.03-0.34-.68,3.56-0.47,2.16-0.76-4.35,1.52-9.83-1.58-15.89-.56-2.81-.58-0.27-1.62-2.74-2.02-6.8,1.12-7.36-1.19-14.5-.26,2.05,1.16,2.41.88-2.61,2.02l11.74-.82-7.54,1.69c3.55,0.02,7.48-.73,9.6-0.53-3.59.94-3.22,0.66-1.52,1.62-4.85-1.74-9.62,1.02-15.22-.16l0.17-2.88c-8.43-1.29-14.97,1.48-25.92.75l3.52,0.5c-1.47,1.15-6.76.16-10.3,0.63,0.33-.97-1.89-1.32-3.4-1.92,0.18,0.72-8.01-.06-9,1.86l-4.89-1.27c-8.83-.52-10.08,2.75-18.58,2.42,2.56-1.05-1.3-1.73,4.39-2.48-2.83-.01-5.38-0.19-5.43.48-1.65-.6-7.86,1.3-10.47.39-1.19.42-1.59,1.43-4.77,1.35a0.228,0.228,0,0,1-.09-0.37c-0.67.4-4.66,0.63-2.1,1.61-8.73-3.01-24.416.22-32.022-2.37-6.19.33-13.646,0.64-19.265,0.71,0.361-.29.019-0.48,1.081-0.38-7.75-.9-4.765,2.76-13.585,1.76-4.506-1.55,4.684-.84,1.874-1.43-1.223-3.17-10.644.43-16.579-1.42l1.437-.19c-4.537-1.07-11.069,1.21-18.481.98,0,0,.361-0.28.044-0.48-5.07,1.62-14.665,2.15-21.8,2.6,2.219-1.24,3.24-.66,1.886-1.91-3.2.17,0.936,2.02-5.445,2.37-2.073-.68-6.676-1.27-7.287-2.62l6.018-.07c-3.083-1.74-7.79.06-10.961-.24l0.4-.76c-9.223.24-9.351,2.16-19.264,2.03l1.024,0.57c-5.416,1.9-4.541-1.07-9.944.35l-1.636-1.93c-3.575.46-12.521,1.86-18.931,2.22,3.631-1.43,11.132-2.16,15.774-3.01-3.066-.01-9.833.11-12.8,0.76,0.142,0.03.283,0.07,0.423,0.1a8.988,8.988,0,0,1,3.125-.12,5.727,5.727,0,0,1-3.125.12c-0.526.08-1.039,0.18-1.511,0.24a4.64,4.64,0,0,1,1.088-.34c-3.244-.85-6.82-3.5-11.966-3.52,0.409-1.22-3.03,3.98-5.851,3.73-1.411-.13-3.071-0.19-4.824-0.23-2.411-.05-12.007-1.94-14.462-1.99-0.019,1.92-22.721-1.5-22.739.34l4.056,7.48,0.115,3.17c-0.281,0-.568.01-0.848,0.01,0.036,1.28.07,2.54,0.107,3.79-0.007.62-.012,1.23-0.017,1.85l-0.076,1.38a19.425,19.425,0,0,1-1.014,4.84c1.134,3.26.8-6.68,2.127-3.77-0.22,5.66-2.549,11.56-2.554,13.33-0.9,7.75,2.371,7.23,1.756,15.34,0.385-.69,1.2-1.34,1.86.08l0.275,7.57c-0.744,2.4-2.019,2.4-2.359-.21-0.049-1.36.136-2.02,0.331-1.96-0.209-1.83-.458-4.23-1.085-1.99l0.578,0.74c-0.59,2.81-.529,10.6-1.478,8.77,0.473,3.67.833,2.38,1.115-.06-0.609,6.49.075,10.52-.454,17.55,0.319-1.19,1-2.29.993-1.1-0.718,10.96,1.1,4.83,1.353,12.26-0.883,4.22-2.107-1.52-1.368,5.97-0.6,4.56-1.537.96-2.008-.85,1.115,6.81-.734,12.73-0.939,16.62l-0.466-3.59a41.547,41.547,0,0,1,.266,5.7l1.159-2.05c-0.2,2.11-.208,3.89-0.691,3.85,0.759,2.18,1.928-1.66,2.964,2.65-0.588,2.81.632,8.56-.905,9.53,0.473-8.01-1.178-.7-1.676-4.82a29.515,29.515,0,0,1-.141,3.63c-0.173.32-.32-0.3-0.407-0.87-1.374,8.45,1.736,3.88,1.7,12.65-0.866-1.11-1.644,2.03-1.459,3.46,0.018-3.53,1.445-1.69,2.108,1.55-0.673,5.62.5,6.11,0.425,9.05l0.317-3.35c0.866,1.13.751,3.94,1.024,7.86-0.673.34-.463-3.56-0.761-2.16,1.522,4.35-1.576,9.83-.551,15.9-0.586,2.81-1.627.27-2.025,2.74,1.125,6.79-1.185,7.36-.258,14.5,1.163-2.06.88-2.42,2.015,2.61l-0.82-11.74,1.693,7.54c0.017-3.55-.732-7.48-0.534-9.61,0.949,3.59.661,3.23,1.627,1.53-1.3,3.61-.1,7.17.108,11.07l-1.857.03c0.036,1.28.07,2.54,0.107,3.8,0,0.08,0,.16,0,0.24l-1.4-.09c-0.778,5.1-.074,9.52.444,14.64a14.415,14.415,0,0,0-.575,2.83,15.043,15.043,0,0,0,.909,7.95c-0.009.17-.012,0.33-0.024,0.51l0.058-.41a16.461,16.461,0,0,1,.819,7.17c-0.78.1-1.119,2.05-1.665,3.42,0.488-.12.281,3.65,0.71,6.37-0.189,2.41-.4,4.34-0.929,3.33,0.473,3.68.833,2.39,1.115-.06-0.135,1.44-.2,2.75-0.239,4l-0.066.25a27.015,27.015,0,0,0,.046,4.1c0.029,2.77.077,5.59-.195,9.2,0.319-1.19,1-2.28.993-1.1a50.242,50.242,0,0,0-.148,5.11,7.919,7.919,0,0,1-.76-3.11c-0.01,2.84-.185,5.39.483,5.43-0.383,1.05.245,3.95,0.518,6.59-0.347.01-.489,0.35-0.108,4.21-0.6,4.57-1.537.96-2.008-.85,1.115,6.82-.734,12.73-0.939,16.63l-0.466-3.59a41.338,41.338,0,0,1,.266,5.69l1.159-2.05c-0.2,2.11-.208,3.89-0.691,3.86,0.759,2.17,1.928-1.67,2.964,2.64-0.588,2.81.632,8.56-.905,9.53,0.473-8.01-1.178-.7-1.676-4.82a29.446,29.446,0,0,1-.141,3.63c-0.173.32-.32-0.29-0.407-0.87-1.374,8.46,1.736,3.89,1.7,12.65-0.866-1.11-1.644,2.03-1.459,3.46,0.018-3.53,1.445-1.68,2.108,1.56-0.673,5.61.5,6.1,0.425,9.05l0.317-3.36a4,4,0,0,1,.6,1.75c0.024,1.05.045,2.07,0.058,3.03-0.288-.36-0.481-0.02-0.381-1.08-0.33,2.85-.041,4.25.4,5.32-0.088,2.25-.709,4.71-1.012,7.33-0.6,1.27-.439,3.54-0.216,6.12-0.6,1.33-1.419-.26-1.763,1.87,1.125,6.8-1.185,7.36-.258,14.51,1.163-2.06.88-2.42,2.015,2.61l-0.1-1.41c0.178,1.37.353,2.79,0.478,4.26l-1.459-.09c-1.285,8.43,1.479,14.98.754,25.93l0.5-3.52c1.147,1.47.161,6.76,0.625,10.3a0.494,0.494,0,0,0-.36.01l-0.016-1.3a5.954,5.954,0,0,0-.687,2.23c-0.3.71-.539,1.68-0.85,2.46,0.461-.12.3,3.25,0.648,5.93l-0.114-.07a44.866,44.866,0,0,0,.541,6.17l-0.484,1.87c-0.52,8.84,2.744,10.08,2.415,18.58-1.047-2.56-1.73,1.3-2.479-4.39-0.01,2.84-.185,5.39.483,5.43-0.57,1.57,1.1,7.21.5,10.02-0.251-1.69-.491-3.32-0.742-4.69-0.012,3.55.144,12.05,1.093,13.89-0.185-1.42-.656-3.22-0.361-4.63a36.755,36.755,0,0,1,1.576,6.77,69.658,69.658,0,0,0-.464,10.8,9.183,9.183,0,0,0-.883,3.8c-0.127,1.41-.185,3.07-0.229,4.82-0.046,2.41-.1,4.96-0.144,7.41,0.206,0,.408.01,0.613,0.01-0.105.44-.216,0.87-0.352,1.27,0.322,6.19.632,13.65,0.7,19.27-0.288-.36-0.481-0.02-0.381-1.08-0.895,7.75,2.766,4.77,1.766,13.59-1.556,4.51-.841-4.69-1.432-1.87-3.169,1.22.434,10.64-1.417,16.58l-0.188-1.44c-1.076,4.54,1.2,11.08.976,18.49,0,0-.281-0.36-0.478-0.04,1.615,5.07,2.149,14.67,2.6,21.8-1.24-2.22-.656-3.24-1.915-1.89,0.178,3.2,2.022-.93,2.376,5.45-0.678,2.07-1.274,6.68-2.618,7.29l-0.073-6.02c-1.739,3.08.061,7.79-.241,10.96l-0.762-.4c0.247,9.22,2.164,9.35,2.028,19.27l0.575-1.03c1.9,5.42-1.068,4.55.344,9.95l-1.927,1.64c0.466,3.57,1.861,12.52,2.225,18.93-1.43-3.63-2.159-11.13-3.008-15.78-0.012,3.55.144,12.05,1.093,13.9-0.185-1.43-.656-3.23-0.361-4.64q2.272,6.525,2.225,17.13c-0.76-.26-1.248.36-1.57,1.54l-2.191,2.12-1.159,14.69,8.2-1.03V3763H1298.9v-1.41c2.12,0.05,4.15.1,6.11,0.17,0.01-.08.03-0.15,0.04-0.24,1.53-.02,2.5-0.18,2.5-0.56l-2.09-3.86c-0.15-1.66-.32-3.43-0.48-5.2a48.94,48.94,0,0,0-.64-5.15l1.38,0.17c0.35-8.86.53-13.29,0.2-24.24l0.98,2.23c0.09-6.18-3.98-7.8-4.06-13.5l2.06-1.71c-0.03-10.78,1.78-21.69-.09-32.34,0.3,0.17.9,0.49,0.98,2.24,0.05-4.9,1.3-18.62-1.15-17.92a0.455,0.455,0,0,1-.28.13,1.382,1.382,0,0,1,.28-0.13c1.37-1.24-.15-11.32-0.91-16.81l1.35,0.9c-1.73-4.91-2.21-5.07-2.69-11.93,0.18-1.62,1.09-1.42.74,0.74,0.72-5.42-1.29-4.23-.56-10.79l0.87,2.44c0.1-5.57-.36-5.13-1.38-8.2-0.54-3.5.35-10.57,1.58-11.4-0.75-.75-1.76-3.8-1.4-7.09,0.46-.44.75,0.76,0.89,1.36,0.76-7.68-.8-12.12-0.63-17.03,0.4,0.01.78,0.02,1.17,0.04-0.03,4.69-.09,8.12-0.15,8.44,1.23-.07,1.46-5.95,3.18-1.22-0.42-2.11-1.05-4.89-1.58-7.83a23.243,23.243,0,0,1,.5-2.29c-0.2-2.14-.42-4.53-0.64-6.92-0.08-.85-0.15-1.7-0.25-2.52l0.13,0.55a12.351,12.351,0,0,0-.11-3.13l0.97,0.12c0.35-8.87.53-13.29,0.2-24.24l0.98,2.23a13.3,13.3,0,0,0-2.11-7.2,1.769,1.769,0,0,1,.3-0.43c-0.2-2.3-.33-4.81-0.45-7.37l0.26-.21c-0.03-10.78,1.78-21.69-.09-32.35,0.3,0.18.9,0.5,0.98,2.24,0.05-4.89,1.3-18.61-1.15-17.91a0.517,0.517,0,0,1-.28.13,0.776,0.776,0,0,1,.28-0.13c1.37-1.25-.15-11.33-0.91-16.82l1.35,0.91c-1.73-4.91-2.21-5.07-2.69-11.93,0.18-1.63,1.09-1.43.74,0.73,0.72-5.41-1.29-4.22-.56-10.79l0.87,2.45c0.09-4.95-.27-5.16-1.06-7.29q0.39-5.76.75-11.59a1.8,1.8,0,0,1,.51-0.72,2.524,2.524,0,0,1-.42-0.64c0.28-4.69.57-9.41,0.86-14.13,0.79-1.32,1.2-4.63,2.62-.73-0.51-2.59-1.35-6.18-1.91-9.85,0.62-8.66,1.34-17.24,2.32-25.59,0.52-6.25-.63-6.93-1.5-10.75l1.47-1.35-1.7-6.53c-1.24-9.25,3.62-16.02,1.27-27.74l-1,1.52c0.19-4.21-.58-13.33.56-12.63a3.48,3.48,0,0,1-.52-3.02l0.78-.13-1.32-10.34C1305.7,3298.9,1308.2,3308.17,1308.36,3296.47Zm-530.673,23.5c0.008,0.08.014,0.16,0.024,0.23a0.525,0.525,0,0,0-.169-0.03A1.765,1.765,0,0,1,777.687,3319.97Zm-1.6,130.82,0.293,1.31q-0.087.465-.135,0.96Zm2.053,99.45c0.011,0.01.019,0.02,0.032,0.03-0.012-.02-0.024-0.03-0.035-0.05-0.243-1.37-.464-2.81-0.675-4.23a6.192,6.192,0,0,1,1.077,4.19,0.225,0.225,0,0,1-.367.09c0.334,0.56.547,3.44,1.183,2.86,0.016,0.18.033,0.36,0.048,0.54-0.094.35-.178,0.72-0.256,1.1A43.028,43.028,0,0,1,778.144,3550.24Zm-3.222-155.28c-0.017-.6-0.049-1.17-0.114-1.68C774.831,3393.98,774.87,3394.53,774.922,3394.96Z" transform="translate(-773.812 -3093.03)"/>
</svg>
