<svg xmlns="http://www.w3.org/2000/svg" width="36.97" height="36.94" viewBox="0 0 36.97 36.94">
  <defs>
    <style>
      .cls-1 {
        fill: #fff;
        fill-rule: evenodd;
      }
    </style>
  </defs>
  <path id="Media_Inquiries" data-name="Media Inquiries" class="cls-1" d="M1058.08,1414.74a0.748,0.748,0,0,0,1.05-.1,14.106,14.106,0,0,1,21.78,0,0.741,0.741,0,0,0,.57.27,0.717,0.717,0,0,0,.48-0.18,0.745,0.745,0,0,0,.1-1.05,15.6,15.6,0,0,0-24.08,0,0.749,0.749,0,0,0-.18.55A0.792,0.792,0,0,0,1058.08,1414.74Zm16.97,1.52a9.6,9.6,0,0,0-10.08,0,0.705,0.705,0,0,0-.33.46,0.792,0.792,0,0,0,.1.58,0.748,0.748,0,0,0,.63.35,0.739,0.739,0,0,0,.39-0.11,8.144,8.144,0,0,1,8.51,0,0.713,0.713,0,0,0,.39.11,0.751,0.751,0,0,0,.64-0.37,0.667,0.667,0,0,0,.09-0.55A0.739,0.739,0,0,0,1075.05,1416.26Zm12.68,5.51a0.69,0.69,0,0,0-.45.16l-7.98,6.06v-5.47a0.749,0.749,0,0,0-.75-0.75h-26.26a0.755,0.755,0,0,0-.75.75v21.68a0.755,0.755,0,0,0,.75.75h26.26a0.749,0.749,0,0,0,.75-0.75v-5.47l7.98,6.06a0.749,0.749,0,0,0,.45.16,0.8,0.8,0,0,0,.53-0.21l0.01-.01a0.732,0.732,0,0,0,.22-0.53v-21.68A0.759,0.759,0,0,0,1087.73,1421.77Zm-9.93,21.67h-24.76v-20.17h24.76v20.17Zm9.19-.76-7.69-5.84v-6.97l7.69-5.83v18.64Zm-25.34-3.15a1.469,1.469,0,0,0,.71.18,1.486,1.486,0,0,0,.73-0.2l8.15-4.89a1.432,1.432,0,0,0,0-2.45l-8.15-4.89a1.423,1.423,0,0,0-2.16,1.23v9.77A1.453,1.453,0,0,0,1061.65,1439.53Zm0.78-10.89,7.93,4.76-7.93,4.75v-9.51Z" transform="translate(-1051.53 -1408)"/>
</svg>
