<?xml version="1.0" encoding="iso-8859-1"?>
<!-- Generator: Adobe Illustrator 21.0.0, SVG Export Plug-In . SVG Version: 6.00 Build 0)  -->
<svg version="1.1" id="Layer_1" xmlns="http://www.w3.org/2000/svg" xmlns:xlink="http://www.w3.org/1999/xlink" x="0px" y="0px"
	 viewBox="0 0 43.428 40" style="enable-background:new 0 0 43.428 40;" xml:space="preserve">
<g>
	<defs>
		<rect id="SVGID_1_" width="43.428" height="40"/>
	</defs>
	<clipPath id="SVGID_2_">
		<use xlink:href="#SVGID_1_"  style="overflow:visible;"/>
	</clipPath>
	<path style="clip-path:url(#SVGID_2_);fill-rule:evenodd;clip-rule:evenodd;fill:#FFFFFF;" d="M23.44,40
		c-0.628,0-1.213-0.333-1.621-0.845C21.412,39.667,20.826,40,20.197,40c-1.163,0-2.184-1.148-2.184-2.455v-9.229h-4.179l1.45-5.561
		c-0.415,0.118-0.837,0.119-1.192,0.007c-0.988-0.311-1.541-1.409-1.259-2.501l2.63-10.163c0.189-0.737,0.745-1.294,1.45-1.455
		c0.113-0.029,0.233-0.046,0.349-0.046h9.114c0.118,0,0.239,0.017,0.367,0.051c0.687,0.156,1.243,0.714,1.434,1.45l2.63,10.163
		c0.282,1.092-0.273,2.19-1.264,2.501c-0.351,0.11-0.772,0.11-1.189-0.008l1.45,5.561h-4.18v9.229C25.627,38.852,24.604,40,23.44,40
		 M22.386,27.761v9.784c0,0.757,0.565,1.343,1.054,1.343c0.488,0,1.054-0.587,1.054-1.343v-10.34h3.853l-4.016-15.397h1.17
		l0.127,0.418l2.294,8.865c0.125,0.447,0.894,0.732,1.277,0.613c0.416-0.13,0.644-0.655,0.51-1.17l-2.63-10.163
		c-0.086-0.332-0.318-0.579-0.607-0.646L25.06,9.708h-7.799c-0.384,0.084-0.616,0.331-0.702,0.662L13.93,20.534
		c-0.134,0.516,0.094,1.04,0.506,1.17c0.391,0.121,1.166-0.181,1.283-0.633l2.396-9.265h1.17L19.126,12.5l-3.835,14.704h3.854v10.34
		c0,0.757,0.564,1.342,1.051,1.342c0.489,0,1.057-0.587,1.057-1.342V27.76L22.386,27.761L22.386,27.761z"/>
	<path style="clip-path:url(#SVGID_2_);fill-rule:evenodd;clip-rule:evenodd;fill:#FFFFFF;" d="M21.821,7.853
		c-2.192,0-3.976-1.762-3.976-3.926C17.845,1.762,19.628,0,21.821,0s3.976,1.761,3.976,3.927S24.013,7.853,21.821,7.853
		 M21.821,1.111c-1.568,0-2.843,1.263-2.843,2.815c0,1.552,1.275,2.815,2.843,2.815c1.568,0,2.844-1.263,2.844-2.815
		C24.665,2.374,23.389,1.111,21.821,1.111"/>
	<path style="clip-path:url(#SVGID_2_);fill-rule:evenodd;clip-rule:evenodd;fill:#FFFFFF;" d="M8.717,40
		c-0.51,0-0.998-0.266-1.355-0.677C7.008,39.734,6.522,40,6.012,40c-0.998,0-1.909-1.032-1.909-2.166V27.551l-1.269,2.194
		c-0.41,0.691-1.425,0.839-2.122,0.315c-0.687-0.515-0.914-1.443-0.517-2.113l3.25-5.473c0.134-0.226,0.335-0.404,0.583-0.517
		c0.069-0.064,0.259-0.126,0.452-0.126h5.762c0.193,0,0.383,0.062,0.549,0.182c0.151,0.058,0.353,0.237,0.487,0.462l3.249,5.472
		c0.397,0.67,0.17,1.598-0.517,2.113c-0.698,0.525-1.714,0.373-2.119-0.311l-1.272-2.205v10.29C10.621,38.968,9.713,40,8.717,40
		 M4.424,23.033l-3.249,5.473c-0.096,0.161-0.017,0.489,0.225,0.672c0.213,0.159,0.431,0.051,0.453,0.013l2.252-3.893h1.131v12.536
		c0,0.619,0.503,1.054,0.776,1.054c0.275,0,0.784-0.435,0.784-1.054v-6.719h1.132v6.719c0,0.619,0.512,1.054,0.789,1.054
		c0.271,0,0.77-0.435,0.77-1.054V25.299h1.138l2.249,3.899c0.017,0.028,0.238,0.139,0.449-0.02c0.244-0.183,0.322-0.511,0.226-0.672
		l-3.387-5.564H4.481c0.056,0,0.101-0.017,0.121-0.033L4.424,23.033z"/>
	<path style="clip-path:url(#SVGID_2_);fill-rule:evenodd;clip-rule:evenodd;fill:#FFFFFF;" d="M7.363,21.128
		c-1.589,0-2.882-1.276-2.882-2.845c0-1.567,1.293-2.844,2.882-2.844c1.588,0,2.882,1.277,2.882,2.844
		C10.245,19.852,8.951,21.128,7.363,21.128 M7.363,16.55c-0.965,0-1.75,0.777-1.75,1.733c0,0.956,0.785,1.734,1.75,1.734
		c0.964,0,1.75-0.778,1.75-1.734C9.113,17.327,8.327,16.55,7.363,16.55"/>
	<path style="clip-path:url(#SVGID_2_);fill-rule:evenodd;clip-rule:evenodd;fill:#FFFFFF;" d="M37.531,40
		c-0.497,0-1.05-0.282-1.453-0.732C35.681,39.72,35.13,40,34.623,40c-0.984,0-1.814-0.991-1.814-2.164v-3.419h-1.656l1.252-6.13
		l-0.869,1.463c-0.404,0.682-1.422,0.834-2.12,0.31c-0.685-0.516-0.913-1.444-0.515-2.114l3.251-5.473
		c0.124-0.21,0.309-0.38,0.537-0.493c0.153-0.097,0.324-0.149,0.498-0.149h5.762c0.174,0,0.345,0.052,0.498,0.149
		c0.227,0.113,0.412,0.283,0.538,0.493l3.249,5.473c0.396,0.669,0.17,1.598-0.516,2.114c-0.7,0.525-1.715,0.371-2.12-0.311
		l-0.882-1.485l1.268,6.153h-1.658v3.419C39.326,39.009,38.504,40,37.531,40 M36.634,33.862v3.974c0,0.597,0.598,1.053,0.897,1.053
		c0.267,0,0.663-0.442,0.663-1.053v-4.53H39.6l-1.711-8.312h1.196l2.492,4.196c0.025,0.04,0.24,0.147,0.453-0.012
		c0.247-0.186,0.324-0.507,0.225-0.671l-3.386-5.564l-5.66,0.023l-3.33,5.541c-0.095,0.16-0.016,0.487,0.226,0.67
		c0.215,0.16,0.43,0.053,0.452,0.013l2.491-4.197h1.185l-1.699,8.312h1.407v4.53c0,0.611,0.408,1.053,0.682,1.053
		c0.293,0,0.878-0.456,0.878-1.053v-3.974L36.634,33.862L36.634,33.862z"/>
	<path style="clip-path:url(#SVGID_2_);fill-rule:evenodd;clip-rule:evenodd;fill:#FFFFFF;" d="M36.067,21.128
		c-1.588,0-2.882-1.276-2.882-2.845c0-1.567,1.292-2.844,2.882-2.844c1.589,0,2.883,1.277,2.883,2.844
		C38.95,19.852,37.656,21.128,36.067,21.128 M36.067,16.55c-0.964,0-1.749,0.777-1.749,1.733c0,0.956,0.785,1.734,1.749,1.734
		c0.965,0,1.75-0.777,1.75-1.734C37.817,17.328,37.032,16.55,36.067,16.55"/>
</g>
</svg>
