<?xml version="1.0" encoding="utf-8"?>
<!-- Generator: Adobe Illustrator 24.1.2, SVG Export Plug-In . SVG Version: 6.00 Build 0)  -->
<svg version="1.1" id="Layer_1" xmlns="http://www.w3.org/2000/svg" xmlns:xlink="http://www.w3.org/1999/xlink" x="0px" y="0px"
	 viewBox="0 0 128.55 128.55" style="enable-background:new 0 0 128.55 128.55;" xml:space="preserve">
<style type="text/css">
	.st0{clip-path:url(#SVGID_2_);fill:#581A52;}
	.st1{clip-path:url(#SVGID_2_);fill:#FFFFFF;}
</style>
<g>
	<defs>
		<path id="SVGID_1_" d="M0,64.28c0,35.5,28.78,64.27,64.28,64.27c35.5,0,64.27-28.78,64.27-64.27C128.55,28.78,99.78,0,64.28,0
			C28.78,0,0,28.78,0,64.28"/>
	</defs>
	<clipPath id="SVGID_2_">
		<use xlink:href="#SVGID_1_"  style="overflow:visible;"/>
	</clipPath>
	<rect x="-0.11" y="-2" class="st0" width="128.77" height="136.01"/>
	<path class="st1" d="M94.66,6.15l-4.2,1.84C66.67,18.4,49.21,41.49,38.55,76.61c-7.6,25.05-9.32,49.33-9.32,55.86h6
		c0-0.27,0.2-8.07,1.76-19.64h51.67v18.02h6v-18.02h6.41v-6h-6.41v-7.78h6.41v-6h-6.41v-7.78h6.41v-6h-6.41v-7.78h6.41v-6h-6.41
		v-7.78h6.41v-6h-6.41v-7.78h6.41v-6h-6.41v-7.78h6.41v-6h-6.41V6.15z M88.66,24.15H76.08c3.83-3.3,8-6.22,12.58-8.63V24.15z
		 M88.66,106.83H37.88c0.4-2.48,0.85-5.09,1.38-7.78h49.4V106.83z M88.66,93.05H40.5c0.56-2.54,1.2-5.14,1.89-7.78h46.27V93.05z
		 M88.66,79.27H44.06c0.76-2.58,1.59-5.18,2.49-7.78h42.1V79.27z M88.66,65.49H48.77c1.02-2.61,2.12-5.21,3.3-7.78h36.59V65.49z
		 M88.66,51.71H55c1.38-2.65,2.87-5.25,4.45-7.78h29.21V51.71z M88.66,37.93H63.5c1.98-2.72,4.1-5.32,6.37-7.78h18.78V37.93z"/>
	<path class="st1" d="M88.62,3.78l14.84-6.49l-2.4-5.5L86.21-1.71C20.48,27.05,18.64,131.43,18.64,132.47l6,0.01
		c0-0.25,0.4-25.95,8.85-55.03C41,51.56,56.67,17.76,88.62,3.78"/>
</g>
</svg>
