<svg xmlns="http://www.w3.org/2000/svg" width="121.78" height="79.06" viewBox="0 0 121.78 79.06">
  <defs>
    <style>
      .cls-1 {
        fill: #5ca133;
        fill-rule: evenodd;
      }
    </style>
  </defs>
  <path id="Dinein-icon" class="cls-1" d="M1393.05,3906.64h-15.24v-12.77h15.24l8.04-5.12-8.04-4.96h-15.24v-5.24a0.865,0.865,0,1,0-1.73,0v16.55h-15.24l-8.02,5.07,8.01,5.24h15.25v35.13a0.865,0.865,0,1,0,1.73,0v-23.82h15.24l8.04-5.12Zm-15.01-21.12h14.52l5.27,3.25-5.28,3.37h-14.51v-6.62Zm-2.19,18.15h-14.51l-5.31-3.47,5.31-3.36h14.51v6.83Zm16.7,11.32h-14.51v-6.61h14.52l5.27,3.24Zm-71.98,5.16h-1.73v7.98h1.73v-7.98Zm-6.54,0h-1.74v7.98h1.74v-7.98Zm39.42-54.18a2.975,2.975,0,0,0-2.98-2.98h-67.98a3.162,3.162,0,0,0-3.16,3.17v9.07h2.86v66.7h10.52v0.02h23.32a0.87,0.87,0,0,0,.81,0h23.31v-0.02h10.31v-66.7h2.99v-9.26Zm-37.88,74.24h-21.13v-29.8h21.13v29.8Zm22.85,0H1317.3v-29.8h21.12v29.8Zm0-31.53h-43.98v-5.97h43.98v5.97Zm10.31,31.65h-8.58v-39.35h-47.44v39.35h-8.78v-65.1h64.8v65.1Zm2.98-66.83h-70.65V3867a2.268,2.268,0,0,1,2.27-2.27h65.95a2.42,2.42,0,0,1,2.43,2.43v6.34Zm-47.01,5.42h-17.32v16.62h17.32v-16.62Zm-1.74,14.89h-13.85v-13.16h13.85v13.16Zm22.29-14.89h-17.32v16.62h17.32v-16.62Zm-1.74,14.89h-13.85v-13.16h13.85v13.16Zm22.29-14.89h-17.32v16.62h17.32v-16.62Zm-1.74,14.89h-13.85v-13.16h13.85v13.16Z" transform="translate(-1279.31 -3863)"/>
</svg>
