<?xml version="1.0" encoding="utf-8"?>
<!-- Generator: Adobe Illustrator 24.1.2, SVG Export Plug-In . SVG Version: 6.00 Build 0)  -->
<svg version="1.1" id="Layer_1" xmlns="http://www.w3.org/2000/svg" xmlns:xlink="http://www.w3.org/1999/xlink" x="0px" y="0px"
	 viewBox="0 0 128.55 128.55" style="enable-background:new 0 0 128.55 128.55;" xml:space="preserve">
<style type="text/css">
	.st0{clip-path:url(#SVGID_2_);fill:#6EAD44;}
	.st1{clip-path:url(#SVGID_2_);fill:#FFFFFF;}
</style>
<g>
	<defs>
		<path id="SVGID_1_" d="M0,64.27c0,35.5,28.78,64.28,64.28,64.28s64.27-28.78,64.27-64.28S99.78,0,64.28,0S0,28.78,0,64.27"/>
	</defs>
	<clipPath id="SVGID_2_">
		<use xlink:href="#SVGID_1_"  style="overflow:visible;"/>
	</clipPath>
	<rect x="-8.4" y="-3.12" class="st0" width="138.01" height="131.38"/>
	<rect x="17.37" y="86.7" class="st1" width="6.41" height="6.41"/>
	<path class="st1" d="M24.28,93.6h-7.41V86.2h7.41V93.6z M17.87,92.6h5.41V87.2h-5.41V92.6z"/>
	<rect x="23.78" y="86.7" class="st1" width="6.41" height="6.41"/>
	<path class="st1" d="M30.68,93.6h-7.41V86.2h7.41V93.6z M24.28,92.6h5.41V87.2h-5.41V92.6z"/>
	<rect x="30.18" y="86.7" class="st1" width="6.41" height="6.41"/>
	<path class="st1" d="M37.09,93.6h-7.41V86.2h7.41V93.6z M30.68,92.6h5.41V87.2h-5.41V92.6z"/>
	<rect x="17.37" y="80.29" class="st1" width="6.41" height="6.41"/>
	<path class="st1" d="M24.28,87.2h-7.41v-7.41h7.41V87.2z M17.87,86.2h5.41v-5.41h-5.41V86.2z"/>
	<rect x="23.78" y="80.29" class="st1" width="6.41" height="6.41"/>
	<path class="st1" d="M30.68,87.2h-7.41v-7.41h7.41V87.2z M24.28,86.2h5.41v-5.41h-5.41V86.2z"/>
	<rect x="30.18" y="80.29" class="st1" width="6.41" height="6.41"/>
	<path class="st1" d="M37.09,87.2h-7.41v-7.41h7.41V87.2z M30.68,86.2h5.41v-5.41h-5.41V86.2z"/>
	<rect x="17.37" y="73.88" class="st1" width="6.41" height="6.41"/>
	<path class="st1" d="M24.28,80.79h-7.41v-7.41h7.41V80.79z M17.87,79.79h5.41v-5.41h-5.41V79.79z"/>
	<rect x="23.78" y="73.88" class="st1" width="6.41" height="6.41"/>
	<path class="st1" d="M30.68,80.79h-7.41v-7.41h7.41V80.79z M24.28,79.79h5.41v-5.41h-5.41V79.79z"/>
	<rect x="30.18" y="73.88" class="st1" width="6.41" height="6.41"/>
	<path class="st1" d="M37.09,80.79h-7.41v-7.41h7.41V80.79z M30.68,79.79h5.41v-5.41h-5.41V79.79z"/>
	<rect x="17.37" y="67.48" class="st1" width="6.41" height="6.41"/>
	<path class="st1" d="M24.28,74.38h-7.41v-7.41h7.41V74.38z M17.87,73.38h5.41v-5.41h-5.41V73.38z"/>
	<rect x="23.78" y="67.48" class="st1" width="6.41" height="6.41"/>
	<path class="st1" d="M30.68,74.38h-7.41v-7.41h7.41V74.38z M24.28,73.38h5.41v-5.41h-5.41V73.38z"/>
	<rect x="30.18" y="67.48" class="st1" width="6.41" height="6.41"/>
	<path class="st1" d="M37.09,74.38h-7.41v-7.41h7.41V74.38z M30.68,73.38h5.41v-5.41h-5.41V73.38z"/>
	<rect x="17.37" y="61.07" class="st1" width="6.41" height="6.41"/>
	<path class="st1" d="M24.28,67.98h-7.41v-7.41h7.41V67.98z M17.87,66.98h5.41v-5.41h-5.41V66.98z"/>
	<rect x="23.78" y="61.07" class="st1" width="6.41" height="6.41"/>
	<path class="st1" d="M30.68,67.98h-7.41v-7.41h7.41V67.98z M24.28,66.98h5.41v-5.41h-5.41V66.98z"/>
	<rect x="30.18" y="61.07" class="st1" width="6.41" height="6.41"/>
	<path class="st1" d="M37.09,67.98h-7.41v-7.41h7.41V67.98z M30.68,66.98h5.41v-5.41h-5.41V66.98z"/>
	<rect x="17.37" y="54.67" class="st1" width="6.41" height="6.41"/>
	<path class="st1" d="M24.28,61.57h-7.41v-7.41h7.41V61.57z M17.87,60.57h5.41v-5.41h-5.41V60.57z"/>
	<rect x="23.78" y="54.67" class="st1" width="6.41" height="6.41"/>
	<path class="st1" d="M30.68,61.57h-7.41v-7.41h7.41V61.57z M24.28,60.57h5.41v-5.41h-5.41V60.57z"/>
	<rect x="30.18" y="54.67" class="st1" width="6.41" height="6.41"/>
	<path class="st1" d="M37.09,61.57h-7.41v-7.41h7.41V61.57z M30.68,60.57h5.41v-5.41h-5.41V60.57z"/>
	<rect x="17.37" y="48.26" class="st1" width="6.41" height="6.41"/>
	<path class="st1" d="M24.28,55.17h-7.41v-7.41h7.41V55.17z M17.87,54.17h5.41v-5.41h-5.41V54.17z"/>
	<rect x="23.78" y="48.26" class="st1" width="6.41" height="6.41"/>
	<path class="st1" d="M30.68,55.17h-7.41v-7.41h7.41V55.17z M24.28,54.17h5.41v-5.41h-5.41V54.17z"/>
	<rect x="30.18" y="48.26" class="st1" width="6.41" height="6.41"/>
	<path class="st1" d="M37.09,55.17h-7.41v-7.41h7.41V55.17z M30.68,54.17h5.41v-5.41h-5.41V54.17z"/>
	<rect x="42.99" y="86.7" class="st1" width="6.41" height="6.41"/>
	<path class="st1" d="M49.9,93.6h-7.41V86.2h7.41V93.6z M43.49,92.6h5.41V87.2h-5.41V92.6z"/>
	<rect x="42.99" y="80.29" class="st1" width="6.41" height="6.41"/>
	<path class="st1" d="M49.9,87.2h-7.41v-7.41h7.41V87.2z M43.49,86.2h5.41v-5.41h-5.41V86.2z"/>
	<rect x="42.99" y="73.88" class="st1" width="6.41" height="6.41"/>
	<path class="st1" d="M49.9,80.79h-7.41v-7.41h7.41V80.79z M43.49,79.79h5.41v-5.41h-5.41V79.79z"/>
	<rect x="42.99" y="67.48" class="st1" width="6.41" height="6.41"/>
	<path class="st1" d="M49.9,74.38h-7.41v-7.41h7.41V74.38z M43.49,73.38h5.41v-5.41h-5.41V73.38z"/>
	<rect x="42.99" y="61.07" class="st1" width="6.41" height="6.41"/>
	<path class="st1" d="M49.9,67.98h-7.41v-7.41h7.41V67.98z M43.49,66.98h5.41v-5.41h-5.41V66.98z"/>
	<rect x="42.99" y="54.67" class="st1" width="6.41" height="6.41"/>
	<path class="st1" d="M49.9,61.57h-7.41v-7.41h7.41V61.57z M43.49,60.57h5.41v-5.41h-5.41V60.57z"/>
	<rect x="49.4" y="54.67" class="st1" width="6.4" height="6.41"/>
	<path class="st1" d="M56.31,61.57h-7.4v-7.41h7.4V61.57z M49.9,60.57h5.4v-5.41h-5.4V60.57z"/>
	<rect x="55.81" y="54.67" class="st1" width="6.41" height="6.41"/>
	<path class="st1" d="M62.72,61.57h-7.41v-7.41h7.41V61.57z M56.31,60.57h5.41v-5.41h-5.41V60.57z"/>
	<rect x="62.22" y="54.67" class="st1" width="6.4" height="6.41"/>
	<path class="st1" d="M69.12,61.57h-7.4v-7.41h7.4V61.57z M62.72,60.57h5.4v-5.41h-5.4V60.57z"/>
	<rect x="68.62" y="54.67" class="st1" width="6.41" height="6.41"/>
	<path class="st1" d="M75.53,61.57h-7.41v-7.41h7.41V61.57z M69.12,60.57h5.41v-5.41h-5.41V60.57z"/>
	<rect x="75.03" y="54.67" class="st1" width="6.41" height="6.41"/>
	<path class="st1" d="M81.93,61.57h-7.41v-7.41h7.41V61.57z M75.53,60.57h5.41v-5.41h-5.41V60.57z"/>
	<rect x="81.43" y="86.7" class="st1" width="6.41" height="6.41"/>
	<path class="st1" d="M88.34,93.6h-7.41V86.2h7.41V93.6z M81.93,92.6h5.41V87.2h-5.41V92.6z"/>
	<rect x="81.43" y="80.29" class="st1" width="6.41" height="6.41"/>
	<path class="st1" d="M88.34,87.2h-7.41v-7.41h7.41V87.2z M81.93,86.2h5.41v-5.41h-5.41V86.2z"/>
	<rect x="81.43" y="73.88" class="st1" width="6.41" height="6.41"/>
	<path class="st1" d="M88.34,80.79h-7.41v-7.41h7.41V80.79z M81.93,79.79h5.41v-5.41h-5.41V79.79z"/>
	<rect x="81.43" y="67.48" class="st1" width="6.41" height="6.41"/>
	<path class="st1" d="M88.34,74.38h-7.41v-7.41h7.41V74.38z M81.93,73.38h5.41v-5.41h-5.41V73.38z"/>
	<rect x="81.43" y="61.07" class="st1" width="6.41" height="6.41"/>
	<path class="st1" d="M88.34,67.98h-7.41v-7.41h7.41V67.98z M81.93,66.98h5.41v-5.41h-5.41V66.98z"/>
	<rect x="81.43" y="54.67" class="st1" width="6.41" height="6.41"/>
	<path class="st1" d="M88.34,61.57h-7.41v-7.41h7.41V61.57z M81.93,60.57h5.41v-5.41h-5.41V60.57z"/>
	<rect x="17.37" y="41.85" class="st1" width="6.41" height="6.41"/>
	<path class="st1" d="M24.28,48.76h-7.41v-7.41h7.41V48.76z M17.87,47.76h5.41v-5.41h-5.41V47.76z"/>
	<rect x="23.78" y="41.85" class="st1" width="6.41" height="6.41"/>
	<path class="st1" d="M30.68,48.76h-7.41v-7.41h7.41V48.76z M24.28,47.76h5.41v-5.41h-5.41V47.76z"/>
	<rect x="30.18" y="41.85" class="st1" width="6.41" height="6.41"/>
	<path class="st1" d="M37.09,48.76h-7.41v-7.41h7.41V48.76z M30.68,47.76h5.41v-5.41h-5.41V47.76z"/>
	<rect x="17.37" y="35.45" class="st1" width="6.41" height="6.41"/>
	<path class="st1" d="M24.28,42.35h-7.41v-7.41h7.41V42.35z M17.87,41.35h5.41v-5.41h-5.41V41.35z"/>
	<rect x="23.78" y="35.45" class="st1" width="6.41" height="6.41"/>
	<path class="st1" d="M30.68,42.35h-7.41v-7.41h7.41V42.35z M24.28,41.35h5.41v-5.41h-5.41V41.35z"/>
	<rect x="30.18" y="35.45" class="st1" width="6.41" height="6.41"/>
	<path class="st1" d="M37.09,42.35h-7.41v-7.41h7.41V42.35z M30.68,41.35h5.41v-5.41h-5.41V41.35z"/>
	<rect x="17.37" y="29.04" class="st1" width="6.41" height="6.41"/>
	<path class="st1" d="M24.28,35.95h-7.41v-7.41h7.41V35.95z M17.87,34.95h5.41v-5.41h-5.41V34.95z"/>
	<rect x="23.78" y="29.04" class="st1" width="6.41" height="6.41"/>
	<path class="st1" d="M30.68,35.95h-7.41v-7.41h7.41V35.95z M24.28,34.95h5.41v-5.41h-5.41V34.95z"/>
	<rect x="30.18" y="29.04" class="st1" width="6.41" height="6.41"/>
	<path class="st1" d="M37.09,35.95h-7.41v-7.41h7.41V35.95z M30.68,34.95h5.41v-5.41h-5.41V34.95z"/>
	<rect x="94.25" y="86.7" class="st1" width="6.4" height="6.41"/>
	<path class="st1" d="M101.15,93.6h-7.4V86.2h7.4V93.6z M94.75,92.6h5.4V87.2h-5.4V92.6z"/>
	<rect x="100.65" y="86.7" class="st1" width="6.41" height="6.41"/>
	<path class="st1" d="M107.56,93.6h-7.41V86.2h7.41V93.6z M101.15,92.6h5.41V87.2h-5.41V92.6z"/>
	<rect x="107.06" y="86.7" class="st1" width="6.4" height="6.41"/>
	<path class="st1" d="M113.96,93.6h-7.4V86.2h7.4V93.6z M107.56,92.6h5.4V87.2h-5.4V92.6z"/>
	<rect x="94.25" y="80.29" class="st1" width="6.4" height="6.41"/>
	<path class="st1" d="M101.15,87.2h-7.4v-7.41h7.4V87.2z M94.75,86.2h5.4v-5.41h-5.4V86.2z"/>
	<rect x="100.65" y="80.29" class="st1" width="6.41" height="6.41"/>
	<path class="st1" d="M107.56,87.2h-7.41v-7.41h7.41V87.2z M101.15,86.2h5.41v-5.41h-5.41V86.2z"/>
	<rect x="107.06" y="80.29" class="st1" width="6.4" height="6.41"/>
	<path class="st1" d="M113.96,87.2h-7.4v-7.41h7.4V87.2z M107.56,86.2h5.4v-5.41h-5.4V86.2z"/>
	<rect x="94.25" y="73.88" class="st1" width="6.4" height="6.41"/>
	<path class="st1" d="M101.15,80.79h-7.4v-7.41h7.4V80.79z M94.75,79.79h5.4v-5.41h-5.4V79.79z"/>
	<rect x="100.65" y="73.88" class="st1" width="6.41" height="6.41"/>
	<path class="st1" d="M107.56,80.79h-7.41v-7.41h7.41V80.79z M101.15,79.79h5.41v-5.41h-5.41V79.79z"/>
	<rect x="107.06" y="73.88" class="st1" width="6.4" height="6.41"/>
	<path class="st1" d="M113.96,80.79h-7.4v-7.41h7.4V80.79z M107.56,79.79h5.4v-5.41h-5.4V79.79z"/>
	<rect x="94.25" y="67.48" class="st1" width="6.4" height="6.41"/>
	<path class="st1" d="M101.15,74.38h-7.4v-7.41h7.4V74.38z M94.75,73.38h5.4v-5.41h-5.4V73.38z"/>
	<rect x="100.65" y="67.48" class="st1" width="6.41" height="6.41"/>
	<path class="st1" d="M107.56,74.38h-7.41v-7.41h7.41V74.38z M101.15,73.38h5.41v-5.41h-5.41V73.38z"/>
	<rect x="107.06" y="67.48" class="st1" width="6.4" height="6.41"/>
	<path class="st1" d="M113.96,74.38h-7.4v-7.41h7.4V74.38z M107.56,73.38h5.4v-5.41h-5.4V73.38z"/>
	<rect x="94.25" y="61.07" class="st1" width="6.4" height="6.41"/>
	<path class="st1" d="M101.15,67.98h-7.4v-7.41h7.4V67.98z M94.75,66.98h5.4v-5.41h-5.4V66.98z"/>
	<rect x="100.65" y="61.07" class="st1" width="6.41" height="6.41"/>
	<path class="st1" d="M107.56,67.98h-7.41v-7.41h7.41V67.98z M101.15,66.98h5.41v-5.41h-5.41V66.98z"/>
	<rect x="107.06" y="61.07" class="st1" width="6.4" height="6.41"/>
	<path class="st1" d="M113.96,67.98h-7.4v-7.41h7.4V67.98z M107.56,66.98h5.4v-5.41h-5.4V66.98z"/>
	<rect x="94.25" y="54.67" class="st1" width="6.4" height="6.41"/>
	<path class="st1" d="M101.15,61.57h-7.4v-7.41h7.4V61.57z M94.75,60.57h5.4v-5.41h-5.4V60.57z"/>
	<rect x="100.65" y="54.67" class="st1" width="6.41" height="6.41"/>
	<path class="st1" d="M107.56,61.57h-7.41v-7.41h7.41V61.57z M101.15,60.57h5.41v-5.41h-5.41V60.57z"/>
	<rect x="107.06" y="54.67" class="st1" width="6.4" height="6.41"/>
	<path class="st1" d="M113.96,61.57h-7.4v-7.41h7.4V61.57z M107.56,60.57h5.4v-5.41h-5.4V60.57z"/>
	<rect x="94.25" y="48.26" class="st1" width="6.4" height="6.41"/>
	<path class="st1" d="M101.15,55.17h-7.4v-7.41h7.4V55.17z M94.75,54.17h5.4v-5.41h-5.4V54.17z"/>
	<rect x="100.65" y="48.26" class="st1" width="6.41" height="6.41"/>
	<path class="st1" d="M107.56,55.17h-7.41v-7.41h7.41V55.17z M101.15,54.17h5.41v-5.41h-5.41V54.17z"/>
	<rect x="107.06" y="48.26" class="st1" width="6.4" height="6.41"/>
	<path class="st1" d="M113.96,55.17h-7.4v-7.41h7.4V55.17z M107.56,54.17h5.4v-5.41h-5.4V54.17z"/>
	<rect x="94.25" y="41.85" class="st1" width="6.4" height="6.41"/>
	<path class="st1" d="M101.15,48.76h-7.4v-7.41h7.4V48.76z M94.75,47.76h5.4v-5.41h-5.4V47.76z"/>
	<rect x="100.65" y="41.85" class="st1" width="6.41" height="6.41"/>
	<path class="st1" d="M107.56,48.76h-7.41v-7.41h7.41V48.76z M101.15,47.76h5.41v-5.41h-5.41V47.76z"/>
	<rect x="107.06" y="41.85" class="st1" width="6.4" height="6.41"/>
	<path class="st1" d="M113.96,48.76h-7.4v-7.41h7.4V48.76z M107.56,47.76h5.4v-5.41h-5.4V47.76z"/>
	<rect x="94.25" y="35.45" class="st1" width="6.4" height="6.41"/>
	<path class="st1" d="M101.15,42.35h-7.4v-7.41h7.4V42.35z M94.75,41.35h5.4v-5.41h-5.4V41.35z"/>
	<rect x="100.65" y="35.45" class="st1" width="6.41" height="6.41"/>
	<path class="st1" d="M107.56,42.35h-7.41v-7.41h7.41V42.35z M101.15,41.35h5.41v-5.41h-5.41V41.35z"/>
	<rect x="107.06" y="35.45" class="st1" width="6.4" height="6.41"/>
	<path class="st1" d="M113.96,42.35h-7.4v-7.41h7.4V42.35z M107.56,41.35h5.4v-5.41h-5.4V41.35z"/>
	<rect x="94.25" y="29.04" class="st1" width="6.4" height="6.41"/>
	<path class="st1" d="M101.15,35.95h-7.4v-7.41h7.4V35.95z M94.75,34.95h5.4v-5.41h-5.4V34.95z"/>
	<rect x="100.65" y="29.04" class="st1" width="6.41" height="6.41"/>
	<path class="st1" d="M107.56,35.95h-7.41v-7.41h7.41V35.95z M101.15,34.95h5.41v-5.41h-5.41V34.95z"/>
	<rect x="107.06" y="29.04" class="st1" width="6.4" height="6.41"/>
	<path class="st1" d="M113.96,35.95h-7.4v-7.41h7.4V35.95z M107.56,34.95h5.4v-5.41h-5.4V34.95z"/>
	<rect x="36.59" y="41.85" class="st1" width="6.4" height="6.41"/>
	<path class="st1" d="M43.49,48.76h-7.4v-7.41h7.4V48.76z M37.09,47.76h5.4v-5.41h-5.4V47.76z"/>
	<rect x="42.99" y="41.85" class="st1" width="6.41" height="6.41"/>
	<path class="st1" d="M49.9,48.76h-7.41v-7.41h7.41V48.76z M43.49,47.76h5.41v-5.41h-5.41V47.76z"/>
	<rect x="49.4" y="41.85" class="st1" width="6.4" height="6.41"/>
	<path class="st1" d="M56.31,48.76h-7.4v-7.41h7.4V48.76z M49.9,47.76h5.4v-5.41h-5.4V47.76z"/>
	<rect x="36.59" y="35.45" class="st1" width="6.4" height="6.41"/>
	<path class="st1" d="M43.49,42.35h-7.4v-7.41h7.4V42.35z M37.09,41.35h5.4v-5.41h-5.4V41.35z"/>
	<rect x="42.99" y="35.45" class="st1" width="6.41" height="6.41"/>
	<path class="st1" d="M49.9,42.35h-7.41v-7.41h7.41V42.35z M43.49,41.35h5.41v-5.41h-5.41V41.35z"/>
	<rect x="49.4" y="35.45" class="st1" width="6.4" height="6.41"/>
	<path class="st1" d="M56.31,42.35h-7.4v-7.41h7.4V42.35z M49.9,41.35h5.4v-5.41h-5.4V41.35z"/>
	<rect x="36.59" y="29.04" class="st1" width="6.4" height="6.41"/>
	<path class="st1" d="M43.49,35.95h-7.4v-7.41h7.4V35.95z M37.09,34.95h5.4v-5.41h-5.4V34.95z"/>
	<rect x="42.99" y="29.04" class="st1" width="6.41" height="6.41"/>
	<path class="st1" d="M49.9,35.95h-7.41v-7.41h7.41V35.95z M43.49,34.95h5.41v-5.41h-5.41V34.95z"/>
	<rect x="49.4" y="29.04" class="st1" width="6.4" height="6.41"/>
	<path class="st1" d="M56.31,35.95h-7.4v-7.41h7.4V35.95z M49.9,34.95h5.4v-5.41h-5.4V34.95z"/>
	<rect x="55.81" y="41.85" class="st1" width="6.41" height="6.41"/>
	<path class="st1" d="M62.72,48.76h-7.41v-7.41h7.41V48.76z M56.31,47.76h5.41v-5.41h-5.41V47.76z"/>
	<rect x="62.22" y="41.85" class="st1" width="6.41" height="6.41"/>
	<path class="st1" d="M69.12,48.76h-7.41v-7.41h7.41V48.76z M62.72,47.76h5.41v-5.41h-5.41V47.76z"/>
	<rect x="68.62" y="41.85" class="st1" width="6.4" height="6.41"/>
	<path class="st1" d="M75.53,48.76h-7.4v-7.41h7.4V48.76z M69.12,47.76h5.4v-5.41h-5.4V47.76z"/>
	<rect x="55.81" y="35.45" class="st1" width="6.41" height="6.41"/>
	<path class="st1" d="M62.72,42.35h-7.41v-7.41h7.41V42.35z M56.31,41.35h5.41v-5.41h-5.41V41.35z"/>
	<rect x="62.22" y="35.45" class="st1" width="6.41" height="6.41"/>
	<path class="st1" d="M69.12,42.35h-7.41v-7.41h7.41V42.35z M62.72,41.35h5.41v-5.41h-5.41V41.35z"/>
	<rect x="68.62" y="35.45" class="st1" width="6.4" height="6.41"/>
	<path class="st1" d="M75.53,42.35h-7.4v-7.41h7.4V42.35z M69.12,41.35h5.4v-5.41h-5.4V41.35z"/>
	<rect x="55.81" y="29.04" class="st1" width="6.41" height="6.41"/>
	<path class="st1" d="M62.72,35.95h-7.41v-7.41h7.41V35.95z M56.31,34.95h5.41v-5.41h-5.41V34.95z"/>
	<rect x="62.22" y="29.04" class="st1" width="6.41" height="6.41"/>
	<path class="st1" d="M69.12,35.95h-7.41v-7.41h7.41V35.95z M62.72,34.95h5.41v-5.41h-5.41V34.95z"/>
	<rect x="68.62" y="29.04" class="st1" width="6.4" height="6.41"/>
	<path class="st1" d="M75.53,35.95h-7.4v-7.41h7.4V35.95z M69.12,34.95h5.4v-5.41h-5.4V34.95z"/>
	<rect x="75.03" y="41.85" class="st1" width="6.41" height="6.41"/>
	<path class="st1" d="M81.93,48.76h-7.41v-7.41h7.41V48.76z M75.53,47.76h5.41v-5.41h-5.41V47.76z"/>
	<rect x="81.43" y="41.85" class="st1" width="6.41" height="6.41"/>
	<path class="st1" d="M88.34,48.76h-7.41v-7.41h7.41V48.76z M81.93,47.76h5.41v-5.41h-5.41V47.76z"/>
	<rect x="87.84" y="41.85" class="st1" width="6.41" height="6.41"/>
	<path class="st1" d="M94.75,48.76h-7.41v-7.41h7.41V48.76z M88.34,47.76h5.41v-5.41h-5.41V47.76z"/>
	<rect x="75.03" y="35.45" class="st1" width="6.41" height="6.41"/>
	<path class="st1" d="M81.93,42.35h-7.41v-7.41h7.41V42.35z M75.53,41.35h5.41v-5.41h-5.41V41.35z"/>
	<rect x="81.43" y="35.45" class="st1" width="6.41" height="6.41"/>
	<path class="st1" d="M88.34,42.35h-7.41v-7.41h7.41V42.35z M81.93,41.35h5.41v-5.41h-5.41V41.35z"/>
	<rect x="87.84" y="35.45" class="st1" width="6.41" height="6.41"/>
	<path class="st1" d="M94.75,42.35h-7.41v-7.41h7.41V42.35z M88.34,41.35h5.41v-5.41h-5.41V41.35z"/>
	<rect x="75.03" y="29.04" class="st1" width="6.41" height="6.41"/>
	<path class="st1" d="M81.93,35.95h-7.41v-7.41h7.41V35.95z M75.53,34.95h5.41v-5.41h-5.41V34.95z"/>
	<rect x="81.43" y="29.04" class="st1" width="6.41" height="6.41"/>
	<path class="st1" d="M88.34,35.95h-7.41v-7.41h7.41V35.95z M81.93,34.95h5.41v-5.41h-5.41V34.95z"/>
	<rect x="87.84" y="29.04" class="st1" width="6.41" height="6.41"/>
	<path class="st1" d="M94.75,35.95h-7.41v-7.41h7.41V35.95z M88.34,34.95h5.41v-5.41h-5.41V34.95z"/>
	<polyline class="st1" points="49.94,93.1 49.74,93.86 40.33,129.49 91.58,129.49 80.94,93.12 	"/>
</g>
</svg>
