<svg xmlns="http://www.w3.org/2000/svg" width="92.844" height="92.84" viewBox="0 0 92.844 92.84">
  <defs>
    <style>
      .cls-1 {
        fill: #5ca133;
        fill-rule: evenodd;
      }
    </style>
  </defs>
  <path id="event-icon" class="cls-1" d="M601.354,3527.03h-0.639v2h0.639a7.484,7.484,0,0,1,7.488,7.46v70.9a7.484,7.484,0,0,1-7.488,7.46H527.485a7.485,7.485,0,0,1-7.488-7.46v-57.25h75.726v-1.99H520v-11.66a7.485,7.485,0,0,1,7.488-7.46h7.087v4.74l-0.664.23a4.992,4.992,0,1,0,3.324,0l-0.664-.23V3524h-2v3.03h-7.087a9.487,9.487,0,0,0-9.485,9.46v70.9a9.479,9.479,0,0,0,9.485,9.45h73.869a9.479,9.479,0,0,0,9.485-9.45v-70.9A9.487,9.487,0,0,0,601.354,3527.03Zm-65.784,8.67a2.99,2.99,0,1,1-3,2.99A2.995,2.995,0,0,1,535.57,3535.7Zm27.851-1.93-0.664.23a4.993,4.993,0,1,0,3.325,0l-0.664-.23V3524h-2v3.03h-20.28v2h20.28v4.74Zm1,1.93a2.99,2.99,0,1,1-3,2.99A3,3,0,0,1,564.42,3535.7Zm27.851-1.93-0.664.23a4.992,4.992,0,1,0,3.325,0l-0.664-.23V3524h-2v3.03H571.928v2h20.343v4.74Zm1,1.93a2.99,2.99,0,1,1-3,2.99A2.995,2.995,0,0,1,593.269,3535.7Zm-8.032,42.19-0.378-1.18-13.694-1.98-5.811-11.75-0.371-.62H563.85l-0.251.41-5.925,11.96-13.1,1.9-0.6.1-0.374,1.17,9.9,9.62-2.231,12.98-0.085.46,0.6,0.72h0.715l11.914-6.25,11.711,6.14,0.214,0.11h0.706l0.6-.71-2.312-13.44,9.47-9.21Zm-11.675,8.58-0.372.37,2.069,12.03-10.386-5.45-0.216-.11-0.488.01-10.588,5.55,1.977-11.5,0.1-.54-8.773-8.52,11.6-1.68,0.454-.04,0.224-.37,5.266-10.62,5.145,10.4,0.352,0.59,0.507,0.04,11.533,1.68Z" transform="translate(-518 -3524)"/>
</svg>
