<?xml version="1.0" encoding="utf-8"?>
<!-- Generator: Adobe Illustrator 24.1.2, SVG Export Plug-In . SVG Version: 6.00 Build 0)  -->
<svg version="1.1" id="Layer_1" xmlns="http://www.w3.org/2000/svg" xmlns:xlink="http://www.w3.org/1999/xlink" x="0px" y="0px"
	 viewBox="0 0 125.82 125.82" style="enable-background:new 0 0 125.82 125.82;" xml:space="preserve">
<style type="text/css">
	.st0{clip-path:url(#SVGID_2_);fill:#24878D;}
	.st1{clip-path:url(#SVGID_2_);fill:#FFFFFF;}
</style>
<g>
	<defs>
		<path id="SVGID_1_" d="M0,62.91c0,34.74,28.17,62.91,62.91,62.91c34.74,0,62.91-28.17,62.91-62.91S97.65,0,62.91,0
			C28.17,0,0,28.17,0,62.91"/>
	</defs>
	<clipPath id="SVGID_2_">
		<use xlink:href="#SVGID_1_"  style="overflow:visible;"/>
	</clipPath>
	<rect x="-1.4" y="-0.11" class="st0" width="128.7" height="126.97"/>
	<rect x="-1.4" y="-0.11" class="st0" width="128.7" height="132.51"/>
	<path class="st1" d="M62.56,58.53c4.39,3.02,9.7,4.78,15.43,4.78c5.65,0,10.89-1.72,15.24-4.65c-1.89-0.25-3.79-0.47-5.73-0.64
		C78.81,57.28,70.42,57.5,62.56,58.53"/>
	<path class="st1" d="M97.57,55c4.75-4.91,7.68-11.59,7.68-18.96c0-15.06-12.21-27.27-27.27-27.27c-15.06,0-27.27,12.21-27.27,27.27
		c0,8.36,3.76,15.84,9.68,20.84c7.65-1.65,15.89-2.55,24.48-2.55C89.22,54.33,93.45,54.57,97.57,55"/>
	<path class="st1" d="M97.57,55c-1.32,1.36-2.77,2.59-4.35,3.65c36.39,4.84,63.78,25.3,63.12,47.62c0.84-2.66,1.3-5.41,1.3-8.22
		C157.65,76.51,131.71,58.61,97.57,55"/>
	<path class="st1" d="M31.45,68.38c8.49-4.86,19.17-8.29,31.11-9.85c-0.75-0.51-1.46-1.06-2.16-1.65
		C49.24,59.28,39.34,63.26,31.45,68.38"/>
	<path class="st0" d="M84.83,54.1c0.16,0.04,0.32,0.07,0.32,0.07s-0.15-0.24,0.1-0.36c0.06-0.03-1.83-0.43-2.64-0.68
		c-0.29-2.05,0.13-5.06,0.18-5.5c0.81-0.06,1.34-0.15,1.34-0.15l-0.03,0c1.05-0.13,2.6-0.58,4.27-2.08
		c2.21-1.97,2.05-4.17,2.05-4.17c0.89-0.11,3.32,1.24,3.32,1.24c-0.06-0.94-1.84-2.31-1.84-2.31c-0.15-1.63-0.62-2.57-1.96-3.39
		c-2.53-1.54-4.7,1.6-4.7,1.6c-6.48-0.78-9.48,1.08-10.33,1.35c-0.79-0.14-1.49,0.25-1.49,0.25c-1.73,0.06-2.83,0.91-2.83,0.91
		s-6.38,0.15-7.66,0.14c-1.27-0.02-1.19,0.14-1.14,0.28c0.04,0.14,1.88,0.34,1.88,0.34s-0.43,0.05-0.35,0.28
		c1.55,1.39,8.33,2.96,9.93,3.28c4.35,2.28,6.8,2.44,7.08,2.46c-0.13,0.18-0.27,0.82,0.38,1.29c0.49,0.76,0.78,4.8,0.78,4.8l3,0.78
		C84.5,54.54,84.34,53.96,84.83,54.1 M81.19,47.71c0.25,0,0.5-0.01,0.76-0.02c-0.19,0.14-0.49,0.76,0.01,1.29
		c0.32,0.54,0,3.75,0,3.75S81.12,48.44,81.19,47.71"/>
	<path class="st1" d="M43.23,87.33c2.79,7.23,5.86,15.49,4.49,22.89c-2.73-6.44-12.61-10.1-19.9-4.69
		c3.58,6.32,11.04,11.08,20.25,6.67c0.12,4.87-0.02,9.57-1.73,13.15c1.58-0.01,3.17-0.12,4.77-0.39l0.41,0.04
		c0.66-8.36,0.97-19.7-3.13-28.1c8.84,3.09,19.9-2.72,20.32-10.79c-9.14-3.5-18.48,3.22-20.78,9.77c-0.35-3.35-2.35-4.35-2.71-7.7
		c7.19-0.94,9.57-5.27,9.62-11.23c-7.9,0.45-9.39,5.4-10.4,10.68c-0.85-1.31-2.12-6.27-2.91-4.94l0.74,2.07l0.33,1.03
		c-3.64-5.47-8.13-6.83-13.98-4.12c3.37,6.91,8.67,7.72,14.52,5.5L43.23,87.33z"/>
</g>
</svg>
