<svg xmlns="http://www.w3.org/2000/svg" width="108.38" height="108.38" viewBox="0 0 108.38 108.38">
  <defs>
    <style>
      .cls-1 {
        fill: #5ca133;
        fill-rule: evenodd;
      }
    </style>
  </defs>
  <path id="park-icon" class="cls-1" d="M1286.95,3622.11h-7.31a1.148,1.148,0,0,0-1.15,1.14v10.98a1.148,1.148,0,0,0,1.15,1.14h7.31a1.139,1.139,0,0,0,1.14-1.14v-10.98A1.139,1.139,0,0,0,1286.95,3622.11Zm-1.14,10.97h-5.03v-8.68h5.03v8.68Zm52.17-10.76-0.53-.14,0.02-.55v-0.21a6.651,6.651,0,0,0-6.63-6.63,6.477,6.477,0,0,0-2.34.44l-0.59.22-0.27-.57a6.654,6.654,0,0,0-5.94-3.74,6.5,6.5,0,0,0-3.31.9l-0.35.2-0.35-.2a6.53,6.53,0,0,0-3.31-.9,6.654,6.654,0,0,0-5.94,3.74l-0.27.57-0.59-.22a6.122,6.122,0,0,0-.69-0.22l-0.51-.13v-27.91l1.13,0.96a14.856,14.856,0,1,0,15.83-24.82l-0.67-.3,0.35-.65a13.951,13.951,0,0,0-5.79-18.92l-0.49-.26,0.15-.53a12.115,12.115,0,1,0-23.3,0l0.15,0.53-0.49.26a14.015,14.015,0,0,0-7.44,12.34,13.727,13.727,0,0,0,1.65,6.58l0.34,0.65-0.66.3a14.808,14.808,0,0,0-3.4,2.18l-0.45.38-0.45-.38a14.747,14.747,0,0,0-3.39-2.18l-0.67-.3,0.35-.65a13.727,13.727,0,0,0,1.65-6.58,14.015,14.015,0,0,0-7.44-12.34l-0.49-.26,0.15-.53a12.115,12.115,0,1,0-23.3,0l0.15,0.53-0.49.26a14.015,14.015,0,0,0-7.44,12.34,13.727,13.727,0,0,0,1.65,6.58l0.35,0.65-0.67.3a14.86,14.86,0,1,0,12.4,27.01,15.253,15.253,0,0,0,3.43-2.19l1.13-.96v24.17H1239.4a1.139,1.139,0,0,0-1.14,1.14v13.49h-2.51a1.14,1.14,0,1,0,0,2.28h2.51v6.18a1.145,1.145,0,0,0,2.29,0v-6.18h19.66v6.18a1.14,1.14,0,0,0,2.28,0v-6.18h5.03v6.18a1.145,1.145,0,0,0,2.29,0v-6.18h2.51a1.14,1.14,0,1,0,0-2.28h-2.51v-13.49a1.148,1.148,0,0,0-1.15-1.14h-6.17v-24.17l1.13,0.96a14.814,14.814,0,0,0,19.22,0l0.45-.38,0.44,0.38a14.828,14.828,0,0,0,19.23,0l1.14-.96v27.9l-0.52.13a6.643,6.643,0,0,0-4.97,6.42v0.21l0.02,0.55-0.53.14a6.629,6.629,0,0,0,1.65,13.05h36.58A6.629,6.629,0,0,0,1337.98,3622.32Zm-77.77,3.45h-19.66v-5.03h19.66v5.03Zm7.31,0h-5.03v-5.03h5.03v5.03Zm0-12.35v5.03h-26.97v-5.03h26.97Zm5.71-24.23a12.551,12.551,0,0,1-10.63-5.88l-0.11-.17V3565.2l6.98-6.99a1.129,1.129,0,0,0,0-1.61,1.123,1.123,0,0,0-1.61,0l-5.37,5.36v-8.21a1.14,1.14,0,1,0-2.28,0v21.02l-5.37-5.37a1.142,1.142,0,1,0-1.61,1.62l6.98,6.98v5.14l-0.11.17a12.571,12.571,0,1,1-14.05-18.8,1.14,1.14,0,0,0,.79-1.41,1.2,1.2,0,0,0-.2-0.39,11.586,11.586,0,0,1-2.43-7.14,11.78,11.78,0,0,1,7.53-10.9,1.131,1.131,0,0,0,.66-1.47,0.185,0.185,0,0,0-.02-0.07,9.828,9.828,0,1,1,17.94,0,1.215,1.215,0,0,0-.03.88,1.142,1.142,0,0,0,.61.63l0.06,0.03a11.78,11.78,0,0,1,7.53,10.9,11.6,11.6,0,0,1-2.44,7.14,1.2,1.2,0,0,0-.23.84,1.124,1.124,0,0,0,.44.76,1.2,1.2,0,0,0,.39.2A12.578,12.578,0,0,1,1273.23,3589.19Zm30.76-5.88a12.547,12.547,0,0,1-18.64,2.99l-0.5-.41,0.38-.52a14.732,14.732,0,0,0-.01-17.51l-0.38-.52,0.5-.42a12.54,12.54,0,0,1,4.6-2.41,1.165,1.165,0,0,0,.69-0.54,1.151,1.151,0,0,0,.1-0.87,1.2,1.2,0,0,0-.2-0.39,11.657,11.657,0,0,1-2.44-7.14,11.8,11.8,0,0,1,7.54-10.9,1.131,1.131,0,0,0,.66-1.47,0.185,0.185,0,0,0-.02-0.07,9.828,9.828,0,1,1,17.94,0,1.13,1.13,0,0,0,.57,1.51,0.488,0.488,0,0,1,.07.03,11.8,11.8,0,0,1,7.53,10.9,11.6,11.6,0,0,1-2.44,7.14,1.2,1.2,0,0,0-.23.84,1.124,1.124,0,0,0,.44.76,1.111,1.111,0,0,0,.39.2,12.576,12.576,0,0,1-3.4,24.68,12.823,12.823,0,0,1-3.42-.47,12.575,12.575,0,0,1-7.23-5.41l-0.11-.17V3565.2l6.98-6.99a1.129,1.129,0,0,0,0-1.61,1.11,1.11,0,0,0-.81-0.34,1.144,1.144,0,0,0-.81.34l-5.36,5.36v-8.21a1.14,1.14,0,1,0-2.28,0v21.02l-5.37-5.37a1.142,1.142,0,0,0-1.61,1.62l6.98,6.98v5.14Zm32.36,49.78-0.13-.01h-36.5a4.34,4.34,0,0,1-.02-8.68h0.1l0.23,0.03h0.07a1.147,1.147,0,0,0,1.14-1.07,1.117,1.117,0,0,0-.06-0.45,4.179,4.179,0,0,1-.28-1.48,4.251,4.251,0,0,1,1.25-3.07,4.3,4.3,0,0,1,3.05-1.28h0.02a4.31,4.31,0,0,1,2.94,1.15,1.125,1.125,0,0,0,.77.31,1.144,1.144,0,0,0,.85-0.38,1.1,1.1,0,0,0,.29-0.69,4.373,4.373,0,0,1,4.31-4.05,4.262,4.262,0,0,1,2.89,1.13,1.162,1.162,0,0,0,.77.3,1.178,1.178,0,0,0,.76-0.29,4.268,4.268,0,0,1,2.9-1.14,4.357,4.357,0,0,1,4.3,4.05,1.161,1.161,0,0,0,1.14,1.07c0.03,0,.06-0.01.08-0.01a1.135,1.135,0,0,0,.69-0.29,4.32,4.32,0,0,1,7.27,3.19,4.044,4.044,0,0,1-.28,1.47,1.141,1.141,0,0,0,.04.87,1.112,1.112,0,0,0,.65.59,1.036,1.036,0,0,0,.39.07h0.07l0.23-.03h0.11A4.345,4.345,0,0,1,1336.35,3633.09Zm-18.31-12.81a1.145,1.145,0,1,0,1.14,1.14A1.139,1.139,0,0,0,1318.04,3620.28Zm10.97,3.66a1.145,1.145,0,1,0,1.14,1.14A1.139,1.139,0,0,0,1329.01,3623.94Zm-21.94,1.83a1.14,1.14,0,1,0,1.14,1.14A1.148,1.148,0,0,0,1307.07,3625.77Z" transform="translate(-1234.59 -3527)"/>
</svg>
