<svg xmlns="http://www.w3.org/2000/svg" width="37.15" height="37.06" viewBox="0 0 37.15 37.06">
  <defs>
    <style>
      .cls-1 {
        fill: #fff;
        fill-rule: evenodd;
      }
    </style>
  </defs>
  <path id="School_Trips_Inquiries" data-name="School Trips Inquiries" class="cls-1" d="M1082.99,1268.93a2.92,2.92,0,1,0,2.92,2.92A2.932,2.932,0,0,0,1082.99,1268.93Zm0,4.62a1.7,1.7,0,1,1,1.69-1.7A1.7,1.7,0,0,1,1082.99,1273.55Zm18.62,4.76v-5.49l-18.59-8.57-18.58,8.57v5.49h3.77v12.3h-1.98v4.28h-1.79v6.43h37.17v-6.43h-0.97v-4.28h-2.88v-12.3h3.85Zm-1.23,21.78h-34.71v-3.98h34.71v3.98Zm-0.97-8.25v3.05h-31.95v-3.05h31.95Zm-29.97-1.23v-12.3h3.8v12.3h-3.8Zm5.03,0v-12.3h5.39v12.3h-5.39Zm6.62,0v-12.3h3.8v12.3h-3.8Zm5.03,0v-12.3h5.39v12.3h-5.39Zm6.61,0v-12.3h3.81v12.3h-3.81Zm-27.04-13.53,0.3-.3h-0.32v-3.17l17.35-8,17.36,8v3.47h-34.69Z" transform="translate(-1064.44 -1264.25)"/>
</svg>
