<svg xmlns="http://www.w3.org/2000/svg" width="123.782" height="82.56" viewBox="0 0 123.782 82.56">
  <defs>
    <style>
      .cls-1 {
        fill: #5ca133;
        fill-rule: evenodd;
      }
    </style>
  </defs>
  <path id="visitor-icon" class="cls-1" d="M889.455,3903.78a5.345,5.345,0,1,0-5.324-5.35A5.342,5.342,0,0,0,889.455,3903.78Zm0-8.8a3.455,3.455,0,1,1-3.435,3.45A3.448,3.448,0,0,1,889.455,3894.98Zm27.67-20.14a7.425,7.425,0,1,0-7.393-7.42A7.416,7.416,0,0,0,917.125,3874.84Zm0-12.96a5.535,5.535,0,1,1-5.5,5.54A5.524,5.524,0,0,1,917.125,3861.88Zm80.131,55.09-6.985-10.51a2.3,2.3,0,0,0-.444-0.5,1.55,1.55,0,0,0-1.227-.64l-11.022-.03-5.2-3.02a3.452,3.452,0,0,0-.152-0.41l-8.648-19.57a3.821,3.821,0,0,0-1.616-1.83,2.915,2.915,0,0,0-1.739-.58l-19.409.02a3.953,3.953,0,0,0-3.582,2.39l-3.931,8.9-1.955-11.07a4.019,4.019,0,0,0-3.8-3.5H907.266a2.71,2.71,0,0,0-1.856.68,4.4,4.4,0,0,0-1.734,2.82l-4.014,22.33-5.015,2.87h-11.7a1.59,1.59,0,0,0-1.259.69,2.262,2.262,0,0,0-.393.44l-6.989,10.53a2.529,2.529,0,0,0-.355,1.91,3.316,3.316,0,0,0,3.232,2.62,2.669,2.669,0,0,0,2.252-1.08l3.284-4.78v22.87c0,2.38,1.51,4.04,3.672,4.04a3.856,3.856,0,0,0,2.962-1.2l0.148-.16,0.151,0.15a3.914,3.914,0,0,0,2.854,1.21,3.527,3.527,0,0,0,2.638-1.13,4.283,4.283,0,0,0,1.042-2.91v-27.07l7.784-4.22a4.131,4.131,0,0,0,2.979-3.4l1.99-11.27,0.409,0.03v45.38c0,2.88,1.5,4.59,4.008,4.59a4.648,4.648,0,0,0,3.61-1.6l0.157-.19,0.157,0.19a4.61,4.61,0,0,0,3.622,1.6c2.465,0,4-1.76,4-4.59v-49.75l0.409-.04,2.759,15.65a4.465,4.465,0,0,0,1.757,2.84l0.291,0.18a2.93,2.93,0,0,0,.311.16,3.489,3.489,0,0,0,1.475.31,3.947,3.947,0,0,0,3.578-2.39l5.9-13.36,0.386,0.14-7.735,27.97H942.8v18.29c0,2.88,1.792,4.59,4.792,4.59a3.783,3.783,0,0,0,2.96-1.46l0.152-.19,0.159,0.18a4.5,4.5,0,0,0,3.427,1.48c2.582,0,4.064-1.68,4.064-4.6v-18.28h8.762l-7.164-25.91,0.386-.14,4.991,11.29a3.227,3.227,0,0,0,.337.6,2.606,2.606,0,0,0,1.4,1.32,4.845,4.845,0,0,0,.889.36l7.419,3.84,0,1.92-3.514,16.31h3.518v9.24a4.059,4.059,0,0,0,3.761,4.04,4.016,4.016,0,0,0,2.825-1.37l0.15-.16,0.151,0.16a3.714,3.714,0,0,0,6.581-2.67v-9.25h3.518l-2.478-11.5,0.372-.16,1.867,2.8a2.654,2.654,0,0,0,2.257,1.1,3.316,3.316,0,0,0,3.232-2.62A2.563,2.563,0,0,0,997.256,3916.97Zm-2.106,2.42a1.482,1.482,0,0,1-.809.25,0.755,0.755,0,0,1-.641-0.27l-4.732-7.26h-2.233l3.295,15.28h-3.07v11.13a2.162,2.162,0,0,1-1.865,2.16,2.314,2.314,0,0,1-2.036-2.16v-9.98h-1.891v9.98a2.3,2.3,0,0,1-2.03,2.15,2.163,2.163,0,0,1-1.872-2.15v-11.14H974.2l3.042-14.09,0.024-3.39-8.533-4.42-0.245-.09a2.178,2.178,0,0,1-.486-0.19l-0.214-.1a1.014,1.014,0,0,1-.506-0.54,2.133,2.133,0,0,1-.223-0.39l-8-18.11h-2.59l-0.006,2,8.177,29.74h-8.171v20.17c0,2.37-1.047,2.7-2.177,2.7a2.485,2.485,0,0,1-2.65-2.27c0.012-.14.018-0.29,0.018-0.43v-19.22l-0.024-.95h-1.895v20.16c0,0.1.006,0.2,0.01,0.24l-0.2-.17-0.2.17,0.41,0.04a2.442,2.442,0,0,1-2.165,2.43c-1.982,0-2.9-.86-2.9-2.7V3917.8h-8.174l8.132-29.38,0.038-2.36h-2.93l-8,18.11a2.157,2.157,0,0,1-1.988,1.27,1.69,1.69,0,0,1-.58-0.16l-0.333-.2a2.55,2.55,0,0,1-.919-1.57l-3.587-20.35h-3.328v54.81c0,2.7-1.587,2.7-2.108,2.7a2.563,2.563,0,0,1-2.767-2.7v-28.48l-0.084-.96h-1.908v29.44a2.635,2.635,0,0,1-2.79,2.71c-0.635,0-2.122,0-2.122-2.71v-54.81h-2.558l-3.587,20.35a2.238,2.238,0,0,1-1.587,1.88l-9.207,4.93v28.21a1.9,1.9,0,0,1-1.791,2.15,2.047,2.047,0,0,1-2.074-2.15v-15.46l-0.066-.96h-1.9v16.42a1.921,1.921,0,0,1-2.073,2.15c-1.118,0-1.785-.8-1.785-2.15v-26.36h-1.784l-4.952,7.2a0.729,0.729,0,0,1-.639.28,1.5,1.5,0,0,1-.816-0.25,1.432,1.432,0,0,1-.614-0.87,0.67,0.67,0,0,1,.077-0.5l7.106-10.64,0.2-.17,11.978,0.03,5.89-3.41,0.468-.37,4.012-23.02a2.606,2.606,0,0,1,1.066-1.68,0.952,0.952,0,0,1,.665-0.25h20.314a2.188,2.188,0,0,1,1.905,1.93l3.03,17.19,6.442-14.58a2.177,2.177,0,0,1,2.046-1.28h19.216a1.211,1.211,0,0,1,.713.26,2.16,2.16,0,0,1,.917,1.02l8.648,19.57a2.106,2.106,0,0,1,.153.51l-0.006.38,6.429,3.7,11.414,0.09,7.2,10.71a0.7,0.7,0,0,1,.078.51A1.411,1.411,0,0,1,995.15,3919.39Zm-13.039-15.61a5.345,5.345,0,1,0-5.325-5.35A5.342,5.342,0,0,0,982.111,3903.78Zm0-8.8a3.455,3.455,0,1,1-3.433,3.45A3.448,3.448,0,0,1,982.111,3894.98Zm-31.536-17.12a7.425,7.425,0,1,0-7.4-7.42A7.416,7.416,0,0,0,950.575,3877.86Zm0-12.96a5.535,5.535,0,1,1-5.5,5.54A5.529,5.529,0,0,1,950.575,3864.9Z" transform="translate(-873.906 -3860)"/>
</svg>
